M48
;DRILL file {KiCad 4.0.6+dfsg1-1} date Mon Feb 26 19:54:04 2018
;FORMAT={2:4/ absolute / inch / suppress leading zeros}
FMAT,2
INCH,TZ
T1C0.016
T2C0.020
T3C0.031
T4C0.039
T5C0.040
T6C0.047
T7C0.051
T8C0.126
%
G90
G05
M72
T1
X5604Y8632
X5664Y1532
X5664Y1069
X5664Y632
X7647Y12548
T2
X519Y11882
X796Y12550
X796Y11214
X1464Y12827
X1464Y10937
X2132Y12550
X2132Y11214
X2409Y11882
X23119Y11932
X23396Y12600
X23396Y11264
X24064Y12877
X24064Y10987
X24732Y12600
X24732Y11264
X25009Y11932
T3
X7691Y9555
X7691Y6555
X8691Y9555
X8691Y6555
X9691Y9555
X9691Y6555
X10691Y9555
X10691Y6555
X12219Y9555
X12219Y6555
X13219Y9555
X13219Y6555
X14219Y9555
X14219Y6555
X15219Y9555
X15219Y6555
X16746Y9555
X16746Y6555
X17746Y9555
X17746Y6555
X18746Y9555
X18746Y6555
X19746Y9555
X19746Y6555
X21274Y9555
X21274Y6555
X22274Y9555
X22274Y6555
X23274Y9555
X23274Y6555
X24274Y9555
X24274Y6555
T4
X13085Y12028
X14085Y12028
X15085Y12028
X16085Y12028
X17085Y12028
X18085Y12028
T5
X19833Y12154
X20833Y12154
T6
X8180Y2132
X9164Y2132
X10164Y2132
X12780Y2132
X13764Y2132
X14764Y2132
X17280Y2132
X18264Y2132
X19264Y2132
X21780Y2132
X22764Y2132
X23764Y2132
T7
X2164Y5501
X2164Y3532
T8
X1464Y11882
X24064Y11932
T0
M30
