G04 #@! TF.FileFunction,Soldermask,Bot*
%FSLAX46Y46*%
G04 Gerber Fmt 4.6, Leading zero omitted, Abs format (unit mm)*
G04 Created by KiCad (PCBNEW 4.0.6+dfsg1-1) date Mon Feb 26 19:53:53 2018*
%MOMM*%
%LPD*%
G01*
G04 APERTURE LIST*
%ADD10C,0.100000*%
%ADD11R,2.900000X2.900000*%
%ADD12C,2.900000*%
%ADD13R,2.400000X2.400000*%
%ADD14C,2.400000*%
%ADD15O,2.000000X2.000000*%
%ADD16R,2.100000X2.100000*%
%ADD17O,2.100000X2.100000*%
%ADD18R,2.432000X2.432000*%
%ADD19O,2.432000X2.432000*%
%ADD20C,6.800000*%
%ADD21C,1.000000*%
G04 APERTURE END LIST*
D10*
D11*
X5496560Y8971280D03*
D12*
X5496560Y13971280D03*
D13*
X37500560Y5415280D03*
D14*
X34960560Y5415280D03*
X32460560Y5415280D03*
D15*
X19535760Y16650880D03*
X22075760Y16650880D03*
X24615760Y16650880D03*
X27155760Y16650880D03*
X27155760Y24270880D03*
X24615760Y24270880D03*
X22075760Y24270880D03*
X19535760Y24270880D03*
D16*
X45935760Y30550880D03*
D17*
X43395760Y30550880D03*
X40855760Y30550880D03*
X38315760Y30550880D03*
X35775760Y30550880D03*
X33235760Y30550880D03*
D15*
X31035760Y16650880D03*
X33575760Y16650880D03*
X36115760Y16650880D03*
X38655760Y16650880D03*
X38655760Y24270880D03*
X36115760Y24270880D03*
X33575760Y24270880D03*
X31035760Y24270880D03*
X42535760Y16650880D03*
X45075760Y16650880D03*
X47615760Y16650880D03*
X50155760Y16650880D03*
X50155760Y24270880D03*
X47615760Y24270880D03*
X45075760Y24270880D03*
X42535760Y24270880D03*
X54035760Y16650880D03*
X56575760Y16650880D03*
X59115760Y16650880D03*
X61655760Y16650880D03*
X61655760Y24270880D03*
X59115760Y24270880D03*
X56575760Y24270880D03*
X54035760Y24270880D03*
D13*
X60360560Y5415280D03*
D14*
X57820560Y5415280D03*
X55320560Y5415280D03*
D13*
X48930560Y5415280D03*
D14*
X46390560Y5415280D03*
X43890560Y5415280D03*
D13*
X25816560Y5415280D03*
D14*
X23276560Y5415280D03*
X20776560Y5415280D03*
D18*
X50374560Y30871280D03*
D19*
X52914560Y30871280D03*
D20*
X61122560Y30307280D03*
D21*
X63522560Y30307280D03*
X62819616Y28610224D03*
X61122560Y27907280D03*
X59425504Y28610224D03*
X58722560Y30307280D03*
X59425504Y32004336D03*
X61122560Y32707280D03*
X62819616Y32004336D03*
D20*
X3718560Y30180280D03*
D21*
X6118560Y30180280D03*
X5415616Y28483224D03*
X3718560Y27780280D03*
X2021504Y28483224D03*
X1318560Y30180280D03*
X2021504Y31877336D03*
X3718560Y32580280D03*
X5415616Y31877336D03*
M02*
