G04 #@! TF.FileFunction,Legend,Top*
%FSLAX46Y46*%
G04 Gerber Fmt 4.6, Leading zero omitted, Abs format (unit mm)*
G04 Created by KiCad (PCBNEW 4.0.6+dfsg1-1) date Mon Feb 26 19:53:53 2018*
%MOMM*%
%LPD*%
G01*
G04 APERTURE LIST*
%ADD10C,0.100000*%
%ADD11C,0.300000*%
%ADD12C,0.200000*%
%ADD13C,0.125000*%
%ADD14C,0.175000*%
%ADD15C,0.150000*%
%ADD16C,0.120000*%
G04 APERTURE END LIST*
D10*
D11*
X2083417Y17734375D02*
X2083417Y19258185D01*
D12*
X48474560Y32771280D02*
X48474560Y28971280D01*
X57674560Y32771280D02*
X48474560Y32771280D01*
X57674560Y28971280D02*
X57674560Y32771280D01*
X48474560Y28971280D02*
X57674560Y28971280D01*
D13*
X54900751Y30806994D02*
X55067417Y30806994D01*
X55138846Y30545090D02*
X54900751Y30545090D01*
X54900751Y31045090D01*
X55138846Y31045090D01*
X55353132Y30545090D02*
X55353132Y31045090D01*
X55638846Y30545090D01*
X55638846Y31045090D01*
X56186465Y31045090D02*
X56353132Y30545090D01*
X56519798Y31045090D01*
X56972179Y30592709D02*
X56948369Y30568899D01*
X56876941Y30545090D01*
X56829322Y30545090D01*
X56757893Y30568899D01*
X56710274Y30616518D01*
X56686465Y30664137D01*
X56662655Y30759375D01*
X56662655Y30830804D01*
X56686465Y30926042D01*
X56710274Y30973661D01*
X56757893Y31021280D01*
X56829322Y31045090D01*
X56876941Y31045090D01*
X56948369Y31021280D01*
X56972179Y30997470D01*
X57472179Y30592709D02*
X57448369Y30568899D01*
X57376941Y30545090D01*
X57329322Y30545090D01*
X57257893Y30568899D01*
X57210274Y30616518D01*
X57186465Y30664137D01*
X57162655Y30759375D01*
X57162655Y30830804D01*
X57186465Y30926042D01*
X57210274Y30973661D01*
X57257893Y31021280D01*
X57329322Y31045090D01*
X57376941Y31045090D01*
X57448369Y31021280D01*
X57472179Y30997470D01*
D14*
X31938749Y28579280D02*
X31672082Y28579280D01*
X31672082Y28212613D02*
X31672082Y28912613D01*
X32053035Y28912613D01*
X32357796Y28212613D02*
X32357796Y28679280D01*
X32357796Y28545947D02*
X32395891Y28612613D01*
X32433987Y28645947D01*
X32510177Y28679280D01*
X32586368Y28679280D01*
X32967320Y28212613D02*
X32891129Y28245947D01*
X32853034Y28279280D01*
X32814939Y28345947D01*
X32814939Y28545947D01*
X32853034Y28612613D01*
X32891129Y28645947D01*
X32967320Y28679280D01*
X33081606Y28679280D01*
X33157796Y28645947D01*
X33195891Y28612613D01*
X33233987Y28545947D01*
X33233987Y28345947D01*
X33195891Y28279280D01*
X33157796Y28245947D01*
X33081606Y28212613D01*
X32967320Y28212613D01*
X33576844Y28679280D02*
X33576844Y28212613D01*
X33576844Y28612613D02*
X33614939Y28645947D01*
X33691130Y28679280D01*
X33805416Y28679280D01*
X33881606Y28645947D01*
X33919701Y28579280D01*
X33919701Y28212613D01*
X34186368Y28679280D02*
X34491130Y28679280D01*
X34300654Y28912613D02*
X34300654Y28312613D01*
X34338749Y28245947D01*
X34414940Y28212613D01*
X34491130Y28212613D01*
X35824464Y28212613D02*
X35557797Y28545947D01*
X35367321Y28212613D02*
X35367321Y28912613D01*
X35672083Y28912613D01*
X35748274Y28879280D01*
X35786369Y28845947D01*
X35824464Y28779280D01*
X35824464Y28679280D01*
X35786369Y28612613D01*
X35748274Y28579280D01*
X35672083Y28545947D01*
X35367321Y28545947D01*
X36167321Y28212613D02*
X36167321Y28679280D01*
X36167321Y28912613D02*
X36129226Y28879280D01*
X36167321Y28845947D01*
X36205416Y28879280D01*
X36167321Y28912613D01*
X36167321Y28845947D01*
X36891130Y28679280D02*
X36891130Y28112613D01*
X36853035Y28045947D01*
X36814940Y28012613D01*
X36738749Y27979280D01*
X36624464Y27979280D01*
X36548273Y28012613D01*
X36891130Y28245947D02*
X36814940Y28212613D01*
X36662559Y28212613D01*
X36586368Y28245947D01*
X36548273Y28279280D01*
X36510178Y28345947D01*
X36510178Y28545947D01*
X36548273Y28612613D01*
X36586368Y28645947D01*
X36662559Y28679280D01*
X36814940Y28679280D01*
X36891130Y28645947D01*
X37272083Y28212613D02*
X37272083Y28912613D01*
X37614940Y28212613D02*
X37614940Y28579280D01*
X37576845Y28645947D01*
X37500655Y28679280D01*
X37386369Y28679280D01*
X37310178Y28645947D01*
X37272083Y28612613D01*
X37881607Y28679280D02*
X38186369Y28679280D01*
X37995893Y28912613D02*
X37995893Y28312613D01*
X38033988Y28245947D01*
X38110179Y28212613D01*
X38186369Y28212613D01*
X51725321Y28198280D02*
X51839607Y28164947D01*
X51877702Y28131613D01*
X51915797Y28064947D01*
X51915797Y27964947D01*
X51877702Y27898280D01*
X51839607Y27864947D01*
X51763416Y27831613D01*
X51458654Y27831613D01*
X51458654Y28531613D01*
X51725321Y28531613D01*
X51801511Y28498280D01*
X51839607Y28464947D01*
X51877702Y28398280D01*
X51877702Y28331613D01*
X51839607Y28264947D01*
X51801511Y28231613D01*
X51725321Y28198280D01*
X51458654Y28198280D01*
X52601511Y27831613D02*
X52601511Y28198280D01*
X52563416Y28264947D01*
X52487226Y28298280D01*
X52334845Y28298280D01*
X52258654Y28264947D01*
X52601511Y27864947D02*
X52525321Y27831613D01*
X52334845Y27831613D01*
X52258654Y27864947D01*
X52220559Y27931613D01*
X52220559Y27998280D01*
X52258654Y28064947D01*
X52334845Y28098280D01*
X52525321Y28098280D01*
X52601511Y28131613D01*
X53325321Y27864947D02*
X53249131Y27831613D01*
X53096750Y27831613D01*
X53020559Y27864947D01*
X52982464Y27898280D01*
X52944369Y27964947D01*
X52944369Y28164947D01*
X52982464Y28231613D01*
X53020559Y28264947D01*
X53096750Y28298280D01*
X53249131Y28298280D01*
X53325321Y28264947D01*
X53668178Y27831613D02*
X53668178Y28531613D01*
X53744369Y28098280D02*
X53972940Y27831613D01*
X53972940Y28298280D02*
X53668178Y28031613D01*
X55382464Y27831613D02*
X55115797Y28164947D01*
X54925321Y27831613D02*
X54925321Y28531613D01*
X55230083Y28531613D01*
X55306274Y28498280D01*
X55344369Y28464947D01*
X55382464Y28398280D01*
X55382464Y28298280D01*
X55344369Y28231613D01*
X55306274Y28198280D01*
X55230083Y28164947D01*
X54925321Y28164947D01*
X55725321Y27831613D02*
X55725321Y28298280D01*
X55725321Y28531613D02*
X55687226Y28498280D01*
X55725321Y28464947D01*
X55763416Y28498280D01*
X55725321Y28531613D01*
X55725321Y28464947D01*
X56449130Y28298280D02*
X56449130Y27731613D01*
X56411035Y27664947D01*
X56372940Y27631613D01*
X56296749Y27598280D01*
X56182464Y27598280D01*
X56106273Y27631613D01*
X56449130Y27864947D02*
X56372940Y27831613D01*
X56220559Y27831613D01*
X56144368Y27864947D01*
X56106273Y27898280D01*
X56068178Y27964947D01*
X56068178Y28164947D01*
X56106273Y28231613D01*
X56144368Y28264947D01*
X56220559Y28298280D01*
X56372940Y28298280D01*
X56449130Y28264947D01*
X56830083Y27831613D02*
X56830083Y28531613D01*
X57172940Y27831613D02*
X57172940Y28198280D01*
X57134845Y28264947D01*
X57058655Y28298280D01*
X56944369Y28298280D01*
X56868178Y28264947D01*
X56830083Y28231613D01*
X57439607Y28298280D02*
X57744369Y28298280D01*
X57553893Y28531613D02*
X57553893Y27931613D01*
X57591988Y27864947D01*
X57668179Y27831613D01*
X57744369Y27831613D01*
X44117417Y28421280D02*
X44231703Y28387947D01*
X44269798Y28354613D01*
X44307893Y28287947D01*
X44307893Y28187947D01*
X44269798Y28121280D01*
X44231703Y28087947D01*
X44155512Y28054613D01*
X43850750Y28054613D01*
X43850750Y28754613D01*
X44117417Y28754613D01*
X44193607Y28721280D01*
X44231703Y28687947D01*
X44269798Y28621280D01*
X44269798Y28554613D01*
X44231703Y28487947D01*
X44193607Y28454613D01*
X44117417Y28421280D01*
X43850750Y28421280D01*
X44993607Y28054613D02*
X44993607Y28421280D01*
X44955512Y28487947D01*
X44879322Y28521280D01*
X44726941Y28521280D01*
X44650750Y28487947D01*
X44993607Y28087947D02*
X44917417Y28054613D01*
X44726941Y28054613D01*
X44650750Y28087947D01*
X44612655Y28154613D01*
X44612655Y28221280D01*
X44650750Y28287947D01*
X44726941Y28321280D01*
X44917417Y28321280D01*
X44993607Y28354613D01*
X45717417Y28087947D02*
X45641227Y28054613D01*
X45488846Y28054613D01*
X45412655Y28087947D01*
X45374560Y28121280D01*
X45336465Y28187947D01*
X45336465Y28387947D01*
X45374560Y28454613D01*
X45412655Y28487947D01*
X45488846Y28521280D01*
X45641227Y28521280D01*
X45717417Y28487947D01*
X46060274Y28054613D02*
X46060274Y28754613D01*
X46136465Y28321280D02*
X46365036Y28054613D01*
X46365036Y28521280D02*
X46060274Y28254613D01*
X47698370Y28054613D02*
X47317417Y28054613D01*
X47317417Y28754613D01*
X48269798Y28087947D02*
X48193608Y28054613D01*
X48041227Y28054613D01*
X47965036Y28087947D01*
X47926941Y28154613D01*
X47926941Y28421280D01*
X47965036Y28487947D01*
X48041227Y28521280D01*
X48193608Y28521280D01*
X48269798Y28487947D01*
X48307893Y28421280D01*
X48307893Y28354613D01*
X47926941Y28287947D01*
X48536464Y28521280D02*
X48841226Y28521280D01*
X48650750Y28054613D02*
X48650750Y28654613D01*
X48688845Y28721280D01*
X48765036Y28754613D01*
X48841226Y28754613D01*
X48993607Y28521280D02*
X49298369Y28521280D01*
X49107893Y28754613D02*
X49107893Y28154613D01*
X49145988Y28087947D01*
X49222179Y28054613D01*
X49298369Y28054613D01*
X20838845Y28579280D02*
X20572178Y28579280D01*
X20572178Y28212613D02*
X20572178Y28912613D01*
X20953131Y28912613D01*
X21257892Y28212613D02*
X21257892Y28679280D01*
X21257892Y28545947D02*
X21295987Y28612613D01*
X21334083Y28645947D01*
X21410273Y28679280D01*
X21486464Y28679280D01*
X21867416Y28212613D02*
X21791225Y28245947D01*
X21753130Y28279280D01*
X21715035Y28345947D01*
X21715035Y28545947D01*
X21753130Y28612613D01*
X21791225Y28645947D01*
X21867416Y28679280D01*
X21981702Y28679280D01*
X22057892Y28645947D01*
X22095987Y28612613D01*
X22134083Y28545947D01*
X22134083Y28345947D01*
X22095987Y28279280D01*
X22057892Y28245947D01*
X21981702Y28212613D01*
X21867416Y28212613D01*
X22476940Y28679280D02*
X22476940Y28212613D01*
X22476940Y28612613D02*
X22515035Y28645947D01*
X22591226Y28679280D01*
X22705512Y28679280D01*
X22781702Y28645947D01*
X22819797Y28579280D01*
X22819797Y28212613D01*
X23086464Y28679280D02*
X23391226Y28679280D01*
X23200750Y28912613D02*
X23200750Y28312613D01*
X23238845Y28245947D01*
X23315036Y28212613D01*
X23391226Y28212613D01*
X24648370Y28212613D02*
X24267417Y28212613D01*
X24267417Y28912613D01*
X25219798Y28245947D02*
X25143608Y28212613D01*
X24991227Y28212613D01*
X24915036Y28245947D01*
X24876941Y28312613D01*
X24876941Y28579280D01*
X24915036Y28645947D01*
X24991227Y28679280D01*
X25143608Y28679280D01*
X25219798Y28645947D01*
X25257893Y28579280D01*
X25257893Y28512613D01*
X24876941Y28445947D01*
X25486464Y28679280D02*
X25791226Y28679280D01*
X25600750Y28212613D02*
X25600750Y28812613D01*
X25638845Y28879280D01*
X25715036Y28912613D01*
X25791226Y28912613D01*
X25943607Y28679280D02*
X26248369Y28679280D01*
X26057893Y28912613D02*
X26057893Y28312613D01*
X26095988Y28245947D01*
X26172179Y28212613D01*
X26248369Y28212613D01*
D15*
X16696465Y32521899D02*
X16696465Y33521899D01*
X16934560Y33521899D01*
X17077418Y33474280D01*
X17172656Y33379042D01*
X17220275Y33283804D01*
X17267894Y33093328D01*
X17267894Y32950470D01*
X17220275Y32759994D01*
X17172656Y32664756D01*
X17077418Y32569518D01*
X16934560Y32521899D01*
X16696465Y32521899D01*
X17648846Y33426661D02*
X17696465Y33474280D01*
X17791703Y33521899D01*
X18029799Y33521899D01*
X18125037Y33474280D01*
X18172656Y33426661D01*
X18220275Y33331423D01*
X18220275Y33236185D01*
X18172656Y33093328D01*
X17601227Y32521899D01*
X18220275Y32521899D01*
D13*
X44949227Y33031375D02*
X45182560Y32231375D01*
X45415893Y33031375D01*
X46049227Y32307566D02*
X46015893Y32269470D01*
X45915893Y32231375D01*
X45849227Y32231375D01*
X45749227Y32269470D01*
X45682560Y32345661D01*
X45649227Y32421851D01*
X45615893Y32574232D01*
X45615893Y32688518D01*
X45649227Y32840899D01*
X45682560Y32917090D01*
X45749227Y32993280D01*
X45849227Y33031375D01*
X45915893Y33031375D01*
X46015893Y32993280D01*
X46049227Y32955185D01*
X46749227Y32307566D02*
X46715893Y32269470D01*
X46615893Y32231375D01*
X46549227Y32231375D01*
X46449227Y32269470D01*
X46382560Y32345661D01*
X46349227Y32421851D01*
X46315893Y32574232D01*
X46315893Y32688518D01*
X46349227Y32840899D01*
X46382560Y32917090D01*
X46449227Y32993280D01*
X46549227Y33031375D01*
X46615893Y33031375D01*
X46715893Y32993280D01*
X46749227Y32955185D01*
X32649227Y33020780D02*
X32582561Y33058875D01*
X32482561Y33058875D01*
X32382561Y33020780D01*
X32315894Y32944590D01*
X32282561Y32868399D01*
X32249227Y32716018D01*
X32249227Y32601732D01*
X32282561Y32449351D01*
X32315894Y32373161D01*
X32382561Y32296970D01*
X32482561Y32258875D01*
X32549227Y32258875D01*
X32649227Y32296970D01*
X32682561Y32335066D01*
X32682561Y32601732D01*
X32549227Y32601732D01*
X32982561Y32258875D02*
X32982561Y33058875D01*
X33382561Y32258875D01*
X33382561Y33058875D01*
X33715894Y32258875D02*
X33715894Y33058875D01*
X33882560Y33058875D01*
X33982560Y33020780D01*
X34049227Y32944590D01*
X34082560Y32868399D01*
X34115894Y32716018D01*
X34115894Y32601732D01*
X34082560Y32449351D01*
X34049227Y32373161D01*
X33982560Y32296970D01*
X33882560Y32258875D01*
X33715894Y32258875D01*
D11*
X60043132Y1498137D02*
X61185989Y1498137D01*
X56931703Y744137D02*
X57145989Y672709D01*
X57503132Y672709D01*
X57645989Y744137D01*
X57717418Y815566D01*
X57788846Y958423D01*
X57788846Y1101280D01*
X57717418Y1244137D01*
X57645989Y1315566D01*
X57503132Y1386994D01*
X57217418Y1458423D01*
X57074560Y1529851D01*
X57003132Y1601280D01*
X56931703Y1744137D01*
X56931703Y1886994D01*
X57003132Y2029851D01*
X57074560Y2101280D01*
X57217418Y2172709D01*
X57574560Y2172709D01*
X57788846Y2101280D01*
X59217417Y672709D02*
X58360274Y672709D01*
X58788846Y672709D02*
X58788846Y2172709D01*
X58645989Y1958423D01*
X58503131Y1815566D01*
X58360274Y1744137D01*
X54709132Y1498137D02*
X55851989Y1498137D01*
X55280560Y926709D02*
X55280560Y2069566D01*
X48359132Y1498137D02*
X49501989Y1498137D01*
X45247703Y744137D02*
X45461989Y672709D01*
X45819132Y672709D01*
X45961989Y744137D01*
X46033418Y815566D01*
X46104846Y958423D01*
X46104846Y1101280D01*
X46033418Y1244137D01*
X45961989Y1315566D01*
X45819132Y1386994D01*
X45533418Y1458423D01*
X45390560Y1529851D01*
X45319132Y1601280D01*
X45247703Y1744137D01*
X45247703Y1886994D01*
X45319132Y2029851D01*
X45390560Y2101280D01*
X45533418Y2172709D01*
X45890560Y2172709D01*
X46104846Y2101280D01*
X46676274Y2029851D02*
X46747703Y2101280D01*
X46890560Y2172709D01*
X47247703Y2172709D01*
X47390560Y2101280D01*
X47461989Y2029851D01*
X47533417Y1886994D01*
X47533417Y1744137D01*
X47461989Y1529851D01*
X46604846Y672709D01*
X47533417Y672709D01*
X43279132Y1498137D02*
X44421989Y1498137D01*
X43850560Y926709D02*
X43850560Y2069566D01*
X36929132Y1498137D02*
X38071989Y1498137D01*
X33817703Y744137D02*
X34031989Y672709D01*
X34389132Y672709D01*
X34531989Y744137D01*
X34603418Y815566D01*
X34674846Y958423D01*
X34674846Y1101280D01*
X34603418Y1244137D01*
X34531989Y1315566D01*
X34389132Y1386994D01*
X34103418Y1458423D01*
X33960560Y1529851D01*
X33889132Y1601280D01*
X33817703Y1744137D01*
X33817703Y1886994D01*
X33889132Y2029851D01*
X33960560Y2101280D01*
X34103418Y2172709D01*
X34460560Y2172709D01*
X34674846Y2101280D01*
X35174846Y2172709D02*
X36103417Y2172709D01*
X35603417Y1601280D01*
X35817703Y1601280D01*
X35960560Y1529851D01*
X36031989Y1458423D01*
X36103417Y1315566D01*
X36103417Y958423D01*
X36031989Y815566D01*
X35960560Y744137D01*
X35817703Y672709D01*
X35389131Y672709D01*
X35246274Y744137D01*
X35174846Y815566D01*
X32103132Y1498137D02*
X33245989Y1498137D01*
X32674560Y926709D02*
X32674560Y2069566D01*
X22387703Y744137D02*
X22601989Y672709D01*
X22959132Y672709D01*
X23101989Y744137D01*
X23173418Y815566D01*
X23244846Y958423D01*
X23244846Y1101280D01*
X23173418Y1244137D01*
X23101989Y1315566D01*
X22959132Y1386994D01*
X22673418Y1458423D01*
X22530560Y1529851D01*
X22459132Y1601280D01*
X22387703Y1744137D01*
X22387703Y1886994D01*
X22459132Y2029851D01*
X22530560Y2101280D01*
X22673418Y2172709D01*
X23030560Y2172709D01*
X23244846Y2101280D01*
X24530560Y1672709D02*
X24530560Y672709D01*
X24173417Y2244137D02*
X23816274Y1172709D01*
X24744846Y1172709D01*
X25499132Y1498137D02*
X26641989Y1498137D01*
X20419132Y1498137D02*
X21561989Y1498137D01*
X20990560Y926709D02*
X20990560Y2069566D01*
D13*
X35316226Y32269470D02*
X35416226Y32231375D01*
X35582893Y32231375D01*
X35649560Y32269470D01*
X35682893Y32307566D01*
X35716226Y32383756D01*
X35716226Y32459947D01*
X35682893Y32536137D01*
X35649560Y32574232D01*
X35582893Y32612328D01*
X35449560Y32650423D01*
X35382893Y32688518D01*
X35349560Y32726613D01*
X35316226Y32802804D01*
X35316226Y32878994D01*
X35349560Y32955185D01*
X35382893Y32993280D01*
X35449560Y33031375D01*
X35616226Y33031375D01*
X35716226Y32993280D01*
X36316227Y32764709D02*
X36316227Y32231375D01*
X36149560Y33069470D02*
X35982893Y32498042D01*
X36416227Y32498042D01*
X37856226Y32296970D02*
X37956226Y32258875D01*
X38122893Y32258875D01*
X38189560Y32296970D01*
X38222893Y32335066D01*
X38256226Y32411256D01*
X38256226Y32487447D01*
X38222893Y32563637D01*
X38189560Y32601732D01*
X38122893Y32639828D01*
X37989560Y32677923D01*
X37922893Y32716018D01*
X37889560Y32754113D01*
X37856226Y32830304D01*
X37856226Y32906494D01*
X37889560Y32982685D01*
X37922893Y33020780D01*
X37989560Y33058875D01*
X38156226Y33058875D01*
X38256226Y33020780D01*
X38489560Y33058875D02*
X38922893Y33058875D01*
X38689560Y32754113D01*
X38789560Y32754113D01*
X38856227Y32716018D01*
X38889560Y32677923D01*
X38922893Y32601732D01*
X38922893Y32411256D01*
X38889560Y32335066D01*
X38856227Y32296970D01*
X38789560Y32258875D01*
X38589560Y32258875D01*
X38522893Y32296970D01*
X38489560Y32335066D01*
X40269226Y32269470D02*
X40369226Y32231375D01*
X40535893Y32231375D01*
X40602560Y32269470D01*
X40635893Y32307566D01*
X40669226Y32383756D01*
X40669226Y32459947D01*
X40635893Y32536137D01*
X40602560Y32574232D01*
X40535893Y32612328D01*
X40402560Y32650423D01*
X40335893Y32688518D01*
X40302560Y32726613D01*
X40269226Y32802804D01*
X40269226Y32878994D01*
X40302560Y32955185D01*
X40335893Y32993280D01*
X40402560Y33031375D01*
X40569226Y33031375D01*
X40669226Y32993280D01*
X40935893Y32955185D02*
X40969227Y32993280D01*
X41035893Y33031375D01*
X41202560Y33031375D01*
X41269227Y32993280D01*
X41302560Y32955185D01*
X41335893Y32878994D01*
X41335893Y32802804D01*
X41302560Y32688518D01*
X40902560Y32231375D01*
X41335893Y32231375D01*
X42809226Y32269470D02*
X42909226Y32231375D01*
X43075893Y32231375D01*
X43142560Y32269470D01*
X43175893Y32307566D01*
X43209226Y32383756D01*
X43209226Y32459947D01*
X43175893Y32536137D01*
X43142560Y32574232D01*
X43075893Y32612328D01*
X42942560Y32650423D01*
X42875893Y32688518D01*
X42842560Y32726613D01*
X42809226Y32802804D01*
X42809226Y32878994D01*
X42842560Y32955185D01*
X42875893Y32993280D01*
X42942560Y33031375D01*
X43109226Y33031375D01*
X43209226Y32993280D01*
X43875893Y32231375D02*
X43475893Y32231375D01*
X43675893Y32231375D02*
X43675893Y33031375D01*
X43609227Y32917090D01*
X43542560Y32840899D01*
X43475893Y32802804D01*
D11*
X4734655Y5272423D02*
X6258465Y5272423D01*
X5496560Y4510518D02*
X5496560Y6034328D01*
D16*
X8800560Y32464280D02*
X8800560Y30284280D01*
X8800560Y25864280D02*
X8800560Y28044280D01*
X15400560Y31704280D02*
X15400560Y30284280D01*
X15400560Y26624280D02*
X15400560Y28044280D01*
X8800560Y32464280D02*
X14640560Y32464280D01*
X14640560Y32464280D02*
X15400560Y31704280D01*
X15400560Y26624280D02*
X14640560Y25864280D01*
X14640560Y25864280D02*
X8800560Y25864280D01*
X11086560Y2115280D02*
X13266560Y2115280D01*
X17686560Y2115280D02*
X15506560Y2115280D01*
X11846560Y8715280D02*
X13266560Y8715280D01*
X16926560Y8715280D02*
X15506560Y8715280D01*
X11086560Y2115280D02*
X11086560Y7955280D01*
X11086560Y7955280D02*
X11846560Y8715280D01*
X16926560Y8715280D02*
X17686560Y7955280D01*
X17686560Y7955280D02*
X17686560Y2115280D01*
D15*
X9596560Y11471280D02*
X10096560Y11471280D01*
X7596560Y13971280D02*
G75*
G03X7596560Y13971280I-2000000J0D01*
G01*
X7596560Y8971280D02*
G75*
G03X7596560Y8971280I-2000000J0D01*
G01*
X8096560Y6471280D02*
X8096560Y16471280D01*
X3196560Y6471280D02*
X3196560Y16471280D01*
X9596560Y6471280D02*
X9596560Y16471280D01*
X10096560Y6471280D02*
X10096560Y16471280D01*
X10096560Y16471280D02*
X296560Y16471280D01*
X296560Y16471280D02*
X296560Y6471280D01*
X296560Y6471280D02*
X10096560Y6471280D01*
X29880560Y8844280D02*
X40040560Y8844280D01*
X40040560Y3002280D02*
X29880560Y3002280D01*
X29880560Y3002280D02*
X29880560Y8844280D01*
X40040560Y3002280D02*
X40040560Y8844280D01*
X17240760Y16785880D02*
X18510760Y16785880D01*
X17240760Y24135880D02*
X18510760Y24135880D01*
X29450760Y24135880D02*
X28180760Y24135880D01*
X29450760Y16785880D02*
X28180760Y16785880D01*
X17240760Y16785880D02*
X17240760Y24135880D01*
X29450760Y16785880D02*
X29450760Y24135880D01*
X18510760Y16785880D02*
X18510760Y15850880D01*
D16*
X7774560Y721280D02*
X7774560Y4021280D01*
X7774560Y4021280D02*
X2374560Y4021280D01*
X7774560Y721280D02*
X2374560Y721280D01*
X31905760Y31880880D02*
X31905760Y29220880D01*
X44665760Y31880880D02*
X31905760Y31880880D01*
X44665760Y29220880D02*
X31905760Y29220880D01*
X44665760Y31880880D02*
X44665760Y29220880D01*
X45935760Y31880880D02*
X47265760Y31880880D01*
X47265760Y31880880D02*
X47265760Y30550880D01*
X18574560Y32721280D02*
X18574560Y31021280D01*
X18624560Y31021280D02*
X22674560Y31021280D01*
X18624560Y32721280D02*
X22674560Y32721280D01*
D15*
X28740760Y16785880D02*
X30010760Y16785880D01*
X28740760Y24135880D02*
X30010760Y24135880D01*
X40950760Y24135880D02*
X39680760Y24135880D01*
X40950760Y16785880D02*
X39680760Y16785880D01*
X28740760Y16785880D02*
X28740760Y24135880D01*
X40950760Y16785880D02*
X40950760Y24135880D01*
X30010760Y16785880D02*
X30010760Y15850880D01*
X40240760Y16785880D02*
X41510760Y16785880D01*
X40240760Y24135880D02*
X41510760Y24135880D01*
X52450760Y24135880D02*
X51180760Y24135880D01*
X52450760Y16785880D02*
X51180760Y16785880D01*
X40240760Y16785880D02*
X40240760Y24135880D01*
X52450760Y16785880D02*
X52450760Y24135880D01*
X41510760Y16785880D02*
X41510760Y15850880D01*
X51740760Y16785880D02*
X53010760Y16785880D01*
X51740760Y24135880D02*
X53010760Y24135880D01*
X63950760Y24135880D02*
X62680760Y24135880D01*
X63950760Y16785880D02*
X62680760Y16785880D01*
X51740760Y16785880D02*
X51740760Y24135880D01*
X63950760Y16785880D02*
X63950760Y24135880D01*
X53010760Y16785880D02*
X53010760Y15850880D01*
X52740560Y8844280D02*
X62900560Y8844280D01*
X62900560Y3002280D02*
X52740560Y3002280D01*
X52740560Y3002280D02*
X52740560Y8844280D01*
X62900560Y3002280D02*
X62900560Y8844280D01*
X41310560Y8844280D02*
X51470560Y8844280D01*
X51470560Y3002280D02*
X41310560Y3002280D01*
X41310560Y3002280D02*
X41310560Y8844280D01*
X51470560Y3002280D02*
X51470560Y8844280D01*
X18196560Y8844280D02*
X28356560Y8844280D01*
X28356560Y3002280D02*
X18196560Y3002280D01*
X18196560Y3002280D02*
X18196560Y8844280D01*
X28356560Y3002280D02*
X28356560Y8844280D01*
X25674560Y32746280D02*
X26874560Y32746280D01*
X26874560Y30996280D02*
X25674560Y30996280D01*
X55675560Y11165280D02*
X55675560Y12365280D01*
X57425560Y12365280D02*
X57425560Y11165280D01*
X58215560Y11165280D02*
X58215560Y12365280D01*
X59965560Y12365280D02*
X59965560Y11165280D01*
X44245560Y11165280D02*
X44245560Y12365280D01*
X45995560Y12365280D02*
X45995560Y11165280D01*
X46785560Y11165280D02*
X46785560Y12365280D01*
X48535560Y12365280D02*
X48535560Y11165280D01*
X53135560Y11165280D02*
X53135560Y12365280D01*
X54885560Y12365280D02*
X54885560Y11165280D01*
X62505560Y12365280D02*
X62505560Y11165280D01*
X60755560Y11165280D02*
X60755560Y12365280D01*
X41705560Y11165280D02*
X41705560Y12365280D01*
X43455560Y12365280D02*
X43455560Y11165280D01*
X51075560Y12365280D02*
X51075560Y11165280D01*
X49325560Y11165280D02*
X49325560Y12365280D01*
X55950560Y27372280D02*
X57150560Y27372280D01*
X57150560Y25622280D02*
X55950560Y25622280D01*
X44435760Y27775880D02*
X45635760Y27775880D01*
X45635760Y26025880D02*
X44435760Y26025880D01*
X32561560Y11165280D02*
X32561560Y12365280D01*
X34311560Y12365280D02*
X34311560Y11165280D01*
X35355560Y11165280D02*
X35355560Y12365280D01*
X37105560Y12365280D02*
X37105560Y11165280D01*
X21131560Y11165280D02*
X21131560Y12365280D01*
X22881560Y12365280D02*
X22881560Y11165280D01*
X23671560Y11165280D02*
X23671560Y12365280D01*
X25421560Y12365280D02*
X25421560Y11165280D01*
X30021560Y11165280D02*
X30021560Y12365280D01*
X31771560Y12365280D02*
X31771560Y11165280D01*
X39645560Y12365280D02*
X39645560Y11165280D01*
X37895560Y11165280D02*
X37895560Y12365280D01*
X18591560Y11165280D02*
X18591560Y12365280D01*
X20341560Y12365280D02*
X20341560Y11165280D01*
X27961560Y12365280D02*
X27961560Y11165280D01*
X26211560Y11165280D02*
X26211560Y12365280D01*
X32935760Y27775880D02*
X34135760Y27775880D01*
X34135760Y26025880D02*
X32935760Y26025880D01*
X21535760Y27625880D02*
X22735760Y27625880D01*
X22735760Y25875880D02*
X21535760Y25875880D01*
X51644560Y32141280D02*
X54184560Y32141280D01*
X48824560Y32421280D02*
X50374560Y32421280D01*
X51644560Y32141280D02*
X51644560Y29601280D01*
X50374560Y29321280D02*
X48824560Y29321280D01*
X48824560Y29321280D02*
X48824560Y32421280D01*
X51644560Y29601280D02*
X54184560Y29601280D01*
X54184560Y29601280D02*
X54184560Y32141280D01*
D16*
X9902560Y2883280D02*
X9902560Y3883280D01*
X8202560Y3883280D02*
X8202560Y2883280D01*
X17854560Y29283280D02*
X17854560Y28283280D01*
X19554560Y28283280D02*
X19554560Y29283280D01*
X12484560Y18885280D02*
X12484560Y18535280D01*
X12484560Y18535280D02*
X10984560Y18535280D01*
X12484560Y23535280D02*
X12484560Y20335280D01*
X10984560Y25335280D02*
X12484560Y25335280D01*
X12484560Y25335280D02*
X12484560Y24935280D01*
D15*
X16648703Y26838614D02*
X16696322Y26790995D01*
X16743941Y26648138D01*
X16743941Y26552900D01*
X16696322Y26410042D01*
X16601084Y26314804D01*
X16505846Y26267185D01*
X16315370Y26219566D01*
X16172512Y26219566D01*
X15982036Y26267185D01*
X15886798Y26314804D01*
X15791560Y26410042D01*
X15743941Y26552900D01*
X15743941Y26648138D01*
X15791560Y26790995D01*
X15839179Y26838614D01*
X16077274Y27695757D02*
X16743941Y27695757D01*
X15696322Y27457661D02*
X16410608Y27219566D01*
X16410608Y27838614D01*
X15999608Y32102851D02*
X16761513Y32102851D01*
X16380561Y31721899D02*
X16380561Y32483804D01*
X16682894Y1038137D02*
X16635275Y990518D01*
X16492418Y942899D01*
X16397180Y942899D01*
X16254322Y990518D01*
X16159084Y1085756D01*
X16111465Y1180994D01*
X16063846Y1371470D01*
X16063846Y1514328D01*
X16111465Y1704804D01*
X16159084Y1800042D01*
X16254322Y1895280D01*
X16397180Y1942899D01*
X16492418Y1942899D01*
X16635275Y1895280D01*
X16682894Y1847661D01*
X17635275Y942899D02*
X17063846Y942899D01*
X17349560Y942899D02*
X17349560Y1942899D01*
X17254322Y1800042D01*
X17159084Y1704804D01*
X17063846Y1657185D01*
X11447989Y9314328D02*
X11447989Y10076233D01*
X11828941Y9695281D02*
X11067036Y9695281D01*
X11536941Y12289376D02*
X11536941Y11717947D01*
X11536941Y12003661D02*
X10536941Y12003661D01*
X10679798Y11908423D01*
X10775036Y11813185D01*
X10822655Y11717947D01*
X10632179Y12670328D02*
X10584560Y12717947D01*
X10536941Y12813185D01*
X10536941Y13051281D01*
X10584560Y13146519D01*
X10632179Y13194138D01*
X10727417Y13241757D01*
X10822655Y13241757D01*
X10965512Y13194138D01*
X11536941Y12622709D01*
X11536941Y13241757D01*
X10536941Y13527471D02*
X11536941Y13860804D01*
X10536941Y14194138D01*
X11536941Y15289376D02*
X10536941Y15289376D01*
X11536941Y15765566D02*
X10536941Y15765566D01*
X11536941Y16336995D01*
X10536941Y16336995D01*
X34373227Y8248899D02*
X34373227Y7534613D01*
X34325607Y7391756D01*
X34230369Y7296518D01*
X34087512Y7248899D01*
X33992274Y7248899D01*
X34754179Y8248899D02*
X35373227Y8248899D01*
X35039893Y7867947D01*
X35182751Y7867947D01*
X35277989Y7820328D01*
X35325608Y7772709D01*
X35373227Y7677470D01*
X35373227Y7439375D01*
X35325608Y7344137D01*
X35277989Y7296518D01*
X35182751Y7248899D01*
X34897036Y7248899D01*
X34801798Y7296518D01*
X34754179Y7344137D01*
X22514655Y20694899D02*
X22514655Y19885375D01*
X22562274Y19790137D01*
X22609893Y19742518D01*
X22705131Y19694899D01*
X22895608Y19694899D01*
X22990846Y19742518D01*
X23038465Y19790137D01*
X23086084Y19885375D01*
X23086084Y20694899D01*
X23990846Y20361566D02*
X23990846Y19694899D01*
X23752750Y20742518D02*
X23514655Y20028232D01*
X24133703Y20028232D01*
X1036465Y4318899D02*
X1036465Y5318899D01*
X1274560Y5318899D01*
X1417418Y5271280D01*
X1512656Y5176042D01*
X1560275Y5080804D01*
X1607894Y4890328D01*
X1607894Y4747470D01*
X1560275Y4556994D01*
X1512656Y4461756D01*
X1417418Y4366518D01*
X1274560Y4318899D01*
X1036465Y4318899D01*
X2560275Y4318899D02*
X1988846Y4318899D01*
X2274560Y4318899D02*
X2274560Y5318899D01*
X2179322Y5176042D01*
X2084084Y5080804D01*
X1988846Y5033185D01*
X33944655Y20694899D02*
X33944655Y19885375D01*
X33992274Y19790137D01*
X34039893Y19742518D01*
X34135131Y19694899D01*
X34325608Y19694899D01*
X34420846Y19742518D01*
X34468465Y19790137D01*
X34516084Y19885375D01*
X34516084Y20694899D01*
X34897036Y20694899D02*
X35516084Y20694899D01*
X35182750Y20313947D01*
X35325608Y20313947D01*
X35420846Y20266328D01*
X35468465Y20218709D01*
X35516084Y20123470D01*
X35516084Y19885375D01*
X35468465Y19790137D01*
X35420846Y19742518D01*
X35325608Y19694899D01*
X35039893Y19694899D01*
X34944655Y19742518D01*
X34897036Y19790137D01*
X45628655Y20694899D02*
X45628655Y19885375D01*
X45676274Y19790137D01*
X45723893Y19742518D01*
X45819131Y19694899D01*
X46009608Y19694899D01*
X46104846Y19742518D01*
X46152465Y19790137D01*
X46200084Y19885375D01*
X46200084Y20694899D01*
X46628655Y20599661D02*
X46676274Y20647280D01*
X46771512Y20694899D01*
X47009608Y20694899D01*
X47104846Y20647280D01*
X47152465Y20599661D01*
X47200084Y20504423D01*
X47200084Y20409185D01*
X47152465Y20266328D01*
X46581036Y19694899D01*
X47200084Y19694899D01*
X57312655Y20948899D02*
X57312655Y20139375D01*
X57360274Y20044137D01*
X57407893Y19996518D01*
X57503131Y19948899D01*
X57693608Y19948899D01*
X57788846Y19996518D01*
X57836465Y20044137D01*
X57884084Y20139375D01*
X57884084Y20948899D01*
X58884084Y19948899D02*
X58312655Y19948899D01*
X58598369Y19948899D02*
X58598369Y20948899D01*
X58503131Y20806042D01*
X58407893Y20710804D01*
X58312655Y20663185D01*
X57487227Y8248899D02*
X57487227Y7534613D01*
X57439607Y7391756D01*
X57344369Y7296518D01*
X57201512Y7248899D01*
X57106274Y7248899D01*
X58487227Y7248899D02*
X57915798Y7248899D01*
X58201512Y7248899D02*
X58201512Y8248899D01*
X58106274Y8106042D01*
X58011036Y8010804D01*
X57915798Y7963185D01*
X46057227Y8248899D02*
X46057227Y7534613D01*
X46009607Y7391756D01*
X45914369Y7296518D01*
X45771512Y7248899D01*
X45676274Y7248899D01*
X46485798Y8153661D02*
X46533417Y8201280D01*
X46628655Y8248899D01*
X46866751Y8248899D01*
X46961989Y8201280D01*
X47009608Y8153661D01*
X47057227Y8058423D01*
X47057227Y7963185D01*
X47009608Y7820328D01*
X46438179Y7248899D01*
X47057227Y7248899D01*
X22943227Y8248899D02*
X22943227Y7534613D01*
X22895607Y7391756D01*
X22800369Y7296518D01*
X22657512Y7248899D01*
X22562274Y7248899D01*
X23847989Y7915566D02*
X23847989Y7248899D01*
X23609893Y8296518D02*
X23371798Y7582232D01*
X23990846Y7582232D01*
X28792503Y31361299D02*
X28459169Y31837490D01*
X28221074Y31361299D02*
X28221074Y32361299D01*
X28602027Y32361299D01*
X28697265Y32313680D01*
X28744884Y32266061D01*
X28792503Y32170823D01*
X28792503Y32027966D01*
X28744884Y31932728D01*
X28697265Y31885109D01*
X28602027Y31837490D01*
X28221074Y31837490D01*
X29173455Y32266061D02*
X29221074Y32313680D01*
X29316312Y32361299D01*
X29554408Y32361299D01*
X29649646Y32313680D01*
X29697265Y32266061D01*
X29744884Y32170823D01*
X29744884Y32075585D01*
X29697265Y31932728D01*
X29125836Y31361299D01*
X29744884Y31361299D01*
X30697265Y31361299D02*
X30125836Y31361299D01*
X30411550Y31361299D02*
X30411550Y32361299D01*
X30316312Y32218442D01*
X30221074Y32123204D01*
X30125836Y32075585D01*
X56307894Y13818899D02*
X55974560Y14295090D01*
X55736465Y13818899D02*
X55736465Y14818899D01*
X56117418Y14818899D01*
X56212656Y14771280D01*
X56260275Y14723661D01*
X56307894Y14628423D01*
X56307894Y14485566D01*
X56260275Y14390328D01*
X56212656Y14342709D01*
X56117418Y14295090D01*
X55736465Y14295090D01*
X57260275Y13818899D02*
X56688846Y13818899D01*
X56974560Y13818899D02*
X56974560Y14818899D01*
X56879322Y14676042D01*
X56784084Y14580804D01*
X56688846Y14533185D01*
X58907894Y13818899D02*
X58574560Y14295090D01*
X58336465Y13818899D02*
X58336465Y14818899D01*
X58717418Y14818899D01*
X58812656Y14771280D01*
X58860275Y14723661D01*
X58907894Y14628423D01*
X58907894Y14485566D01*
X58860275Y14390328D01*
X58812656Y14342709D01*
X58717418Y14295090D01*
X58336465Y14295090D01*
X59288846Y14723661D02*
X59336465Y14771280D01*
X59431703Y14818899D01*
X59669799Y14818899D01*
X59765037Y14771280D01*
X59812656Y14723661D01*
X59860275Y14628423D01*
X59860275Y14533185D01*
X59812656Y14390328D01*
X59241227Y13818899D01*
X59860275Y13818899D01*
X44907894Y13818899D02*
X44574560Y14295090D01*
X44336465Y13818899D02*
X44336465Y14818899D01*
X44717418Y14818899D01*
X44812656Y14771280D01*
X44860275Y14723661D01*
X44907894Y14628423D01*
X44907894Y14485566D01*
X44860275Y14390328D01*
X44812656Y14342709D01*
X44717418Y14295090D01*
X44336465Y14295090D01*
X45241227Y14818899D02*
X45860275Y14818899D01*
X45526941Y14437947D01*
X45669799Y14437947D01*
X45765037Y14390328D01*
X45812656Y14342709D01*
X45860275Y14247470D01*
X45860275Y14009375D01*
X45812656Y13914137D01*
X45765037Y13866518D01*
X45669799Y13818899D01*
X45384084Y13818899D01*
X45288846Y13866518D01*
X45241227Y13914137D01*
X47507894Y13818899D02*
X47174560Y14295090D01*
X46936465Y13818899D02*
X46936465Y14818899D01*
X47317418Y14818899D01*
X47412656Y14771280D01*
X47460275Y14723661D01*
X47507894Y14628423D01*
X47507894Y14485566D01*
X47460275Y14390328D01*
X47412656Y14342709D01*
X47317418Y14295090D01*
X46936465Y14295090D01*
X48365037Y14485566D02*
X48365037Y13818899D01*
X48126941Y14866518D02*
X47888846Y14152232D01*
X48507894Y14152232D01*
X53907894Y13818899D02*
X53574560Y14295090D01*
X53336465Y13818899D02*
X53336465Y14818899D01*
X53717418Y14818899D01*
X53812656Y14771280D01*
X53860275Y14723661D01*
X53907894Y14628423D01*
X53907894Y14485566D01*
X53860275Y14390328D01*
X53812656Y14342709D01*
X53717418Y14295090D01*
X53336465Y14295090D01*
X54812656Y14818899D02*
X54336465Y14818899D01*
X54288846Y14342709D01*
X54336465Y14390328D01*
X54431703Y14437947D01*
X54669799Y14437947D01*
X54765037Y14390328D01*
X54812656Y14342709D01*
X54860275Y14247470D01*
X54860275Y14009375D01*
X54812656Y13914137D01*
X54765037Y13866518D01*
X54669799Y13818899D01*
X54431703Y13818899D01*
X54336465Y13866518D01*
X54288846Y13914137D01*
X61507894Y13818899D02*
X61174560Y14295090D01*
X60936465Y13818899D02*
X60936465Y14818899D01*
X61317418Y14818899D01*
X61412656Y14771280D01*
X61460275Y14723661D01*
X61507894Y14628423D01*
X61507894Y14485566D01*
X61460275Y14390328D01*
X61412656Y14342709D01*
X61317418Y14295090D01*
X60936465Y14295090D01*
X62365037Y14818899D02*
X62174560Y14818899D01*
X62079322Y14771280D01*
X62031703Y14723661D01*
X61936465Y14580804D01*
X61888846Y14390328D01*
X61888846Y14009375D01*
X61936465Y13914137D01*
X61984084Y13866518D01*
X62079322Y13818899D01*
X62269799Y13818899D01*
X62365037Y13866518D01*
X62412656Y13914137D01*
X62460275Y14009375D01*
X62460275Y14247470D01*
X62412656Y14342709D01*
X62365037Y14390328D01*
X62269799Y14437947D01*
X62079322Y14437947D01*
X61984084Y14390328D01*
X61936465Y14342709D01*
X61888846Y14247470D01*
X42307894Y13818899D02*
X41974560Y14295090D01*
X41736465Y13818899D02*
X41736465Y14818899D01*
X42117418Y14818899D01*
X42212656Y14771280D01*
X42260275Y14723661D01*
X42307894Y14628423D01*
X42307894Y14485566D01*
X42260275Y14390328D01*
X42212656Y14342709D01*
X42117418Y14295090D01*
X41736465Y14295090D01*
X42641227Y14818899D02*
X43307894Y14818899D01*
X42879322Y13818899D01*
X49907894Y13818899D02*
X49574560Y14295090D01*
X49336465Y13818899D02*
X49336465Y14818899D01*
X49717418Y14818899D01*
X49812656Y14771280D01*
X49860275Y14723661D01*
X49907894Y14628423D01*
X49907894Y14485566D01*
X49860275Y14390328D01*
X49812656Y14342709D01*
X49717418Y14295090D01*
X49336465Y14295090D01*
X50479322Y14390328D02*
X50384084Y14437947D01*
X50336465Y14485566D01*
X50288846Y14580804D01*
X50288846Y14628423D01*
X50336465Y14723661D01*
X50384084Y14771280D01*
X50479322Y14818899D01*
X50669799Y14818899D01*
X50765037Y14771280D01*
X50812656Y14723661D01*
X50860275Y14628423D01*
X50860275Y14580804D01*
X50812656Y14485566D01*
X50765037Y14437947D01*
X50669799Y14390328D01*
X50479322Y14390328D01*
X50384084Y14342709D01*
X50336465Y14295090D01*
X50288846Y14199851D01*
X50288846Y14009375D01*
X50336465Y13914137D01*
X50384084Y13866518D01*
X50479322Y13818899D01*
X50669799Y13818899D01*
X50765037Y13866518D01*
X50812656Y13914137D01*
X50860275Y14009375D01*
X50860275Y14199851D01*
X50812656Y14295090D01*
X50765037Y14342709D01*
X50669799Y14390328D01*
X53731694Y26022299D02*
X53398360Y26498490D01*
X53160265Y26022299D02*
X53160265Y27022299D01*
X53541218Y27022299D01*
X53636456Y26974680D01*
X53684075Y26927061D01*
X53731694Y26831823D01*
X53731694Y26688966D01*
X53684075Y26593728D01*
X53636456Y26546109D01*
X53541218Y26498490D01*
X53160265Y26498490D01*
X54207884Y26022299D02*
X54398360Y26022299D01*
X54493599Y26069918D01*
X54541218Y26117537D01*
X54636456Y26260394D01*
X54684075Y26450870D01*
X54684075Y26831823D01*
X54636456Y26927061D01*
X54588837Y26974680D01*
X54493599Y27022299D01*
X54303122Y27022299D01*
X54207884Y26974680D01*
X54160265Y26927061D01*
X54112646Y26831823D01*
X54112646Y26593728D01*
X54160265Y26498490D01*
X54207884Y26450870D01*
X54303122Y26403251D01*
X54493599Y26403251D01*
X54588837Y26450870D01*
X54636456Y26498490D01*
X54684075Y26593728D01*
X47398703Y26425899D02*
X47065369Y26902090D01*
X46827274Y26425899D02*
X46827274Y27425899D01*
X47208227Y27425899D01*
X47303465Y27378280D01*
X47351084Y27330661D01*
X47398703Y27235423D01*
X47398703Y27092566D01*
X47351084Y26997328D01*
X47303465Y26949709D01*
X47208227Y26902090D01*
X46827274Y26902090D01*
X48351084Y26425899D02*
X47779655Y26425899D01*
X48065369Y26425899D02*
X48065369Y27425899D01*
X47970131Y27283042D01*
X47874893Y27187804D01*
X47779655Y27140185D01*
X48970131Y27425899D02*
X49065370Y27425899D01*
X49160608Y27378280D01*
X49208227Y27330661D01*
X49255846Y27235423D01*
X49303465Y27044947D01*
X49303465Y26806851D01*
X49255846Y26616375D01*
X49208227Y26521137D01*
X49160608Y26473518D01*
X49065370Y26425899D01*
X48970131Y26425899D01*
X48874893Y26473518D01*
X48827274Y26521137D01*
X48779655Y26616375D01*
X48732036Y26806851D01*
X48732036Y27044947D01*
X48779655Y27235423D01*
X48827274Y27330661D01*
X48874893Y27378280D01*
X48970131Y27425899D01*
X32831703Y13818899D02*
X32498369Y14295090D01*
X32260274Y13818899D02*
X32260274Y14818899D01*
X32641227Y14818899D01*
X32736465Y14771280D01*
X32784084Y14723661D01*
X32831703Y14628423D01*
X32831703Y14485566D01*
X32784084Y14390328D01*
X32736465Y14342709D01*
X32641227Y14295090D01*
X32260274Y14295090D01*
X33784084Y13818899D02*
X33212655Y13818899D01*
X33498369Y13818899D02*
X33498369Y14818899D01*
X33403131Y14676042D01*
X33307893Y14580804D01*
X33212655Y14533185D01*
X34736465Y13818899D02*
X34165036Y13818899D01*
X34450750Y13818899D02*
X34450750Y14818899D01*
X34355512Y14676042D01*
X34260274Y14580804D01*
X34165036Y14533185D01*
X38231703Y13818899D02*
X37898369Y14295090D01*
X37660274Y13818899D02*
X37660274Y14818899D01*
X38041227Y14818899D01*
X38136465Y14771280D01*
X38184084Y14723661D01*
X38231703Y14628423D01*
X38231703Y14485566D01*
X38184084Y14390328D01*
X38136465Y14342709D01*
X38041227Y14295090D01*
X37660274Y14295090D01*
X39184084Y13818899D02*
X38612655Y13818899D01*
X38898369Y13818899D02*
X38898369Y14818899D01*
X38803131Y14676042D01*
X38707893Y14580804D01*
X38612655Y14533185D01*
X39565036Y14723661D02*
X39612655Y14771280D01*
X39707893Y14818899D01*
X39945989Y14818899D01*
X40041227Y14771280D01*
X40088846Y14723661D01*
X40136465Y14628423D01*
X40136465Y14533185D01*
X40088846Y14390328D01*
X39517417Y13818899D01*
X40136465Y13818899D01*
X21431703Y13818899D02*
X21098369Y14295090D01*
X20860274Y13818899D02*
X20860274Y14818899D01*
X21241227Y14818899D01*
X21336465Y14771280D01*
X21384084Y14723661D01*
X21431703Y14628423D01*
X21431703Y14485566D01*
X21384084Y14390328D01*
X21336465Y14342709D01*
X21241227Y14295090D01*
X20860274Y14295090D01*
X22384084Y13818899D02*
X21812655Y13818899D01*
X22098369Y13818899D02*
X22098369Y14818899D01*
X22003131Y14676042D01*
X21907893Y14580804D01*
X21812655Y14533185D01*
X22717417Y14818899D02*
X23336465Y14818899D01*
X23003131Y14437947D01*
X23145989Y14437947D01*
X23241227Y14390328D01*
X23288846Y14342709D01*
X23336465Y14247470D01*
X23336465Y14009375D01*
X23288846Y13914137D01*
X23241227Y13866518D01*
X23145989Y13818899D01*
X22860274Y13818899D01*
X22765036Y13866518D01*
X22717417Y13914137D01*
X24231703Y13818899D02*
X23898369Y14295090D01*
X23660274Y13818899D02*
X23660274Y14818899D01*
X24041227Y14818899D01*
X24136465Y14771280D01*
X24184084Y14723661D01*
X24231703Y14628423D01*
X24231703Y14485566D01*
X24184084Y14390328D01*
X24136465Y14342709D01*
X24041227Y14295090D01*
X23660274Y14295090D01*
X25184084Y13818899D02*
X24612655Y13818899D01*
X24898369Y13818899D02*
X24898369Y14818899D01*
X24803131Y14676042D01*
X24707893Y14580804D01*
X24612655Y14533185D01*
X26041227Y14485566D02*
X26041227Y13818899D01*
X25803131Y14866518D02*
X25565036Y14152232D01*
X26184084Y14152232D01*
X30231703Y13818899D02*
X29898369Y14295090D01*
X29660274Y13818899D02*
X29660274Y14818899D01*
X30041227Y14818899D01*
X30136465Y14771280D01*
X30184084Y14723661D01*
X30231703Y14628423D01*
X30231703Y14485566D01*
X30184084Y14390328D01*
X30136465Y14342709D01*
X30041227Y14295090D01*
X29660274Y14295090D01*
X31184084Y13818899D02*
X30612655Y13818899D01*
X30898369Y13818899D02*
X30898369Y14818899D01*
X30803131Y14676042D01*
X30707893Y14580804D01*
X30612655Y14533185D01*
X32088846Y14818899D02*
X31612655Y14818899D01*
X31565036Y14342709D01*
X31612655Y14390328D01*
X31707893Y14437947D01*
X31945989Y14437947D01*
X32041227Y14390328D01*
X32088846Y14342709D01*
X32136465Y14247470D01*
X32136465Y14009375D01*
X32088846Y13914137D01*
X32041227Y13866518D01*
X31945989Y13818899D01*
X31707893Y13818899D01*
X31612655Y13866518D01*
X31565036Y13914137D01*
X35431703Y13818899D02*
X35098369Y14295090D01*
X34860274Y13818899D02*
X34860274Y14818899D01*
X35241227Y14818899D01*
X35336465Y14771280D01*
X35384084Y14723661D01*
X35431703Y14628423D01*
X35431703Y14485566D01*
X35384084Y14390328D01*
X35336465Y14342709D01*
X35241227Y14295090D01*
X34860274Y14295090D01*
X36384084Y13818899D02*
X35812655Y13818899D01*
X36098369Y13818899D02*
X36098369Y14818899D01*
X36003131Y14676042D01*
X35907893Y14580804D01*
X35812655Y14533185D01*
X37241227Y14818899D02*
X37050750Y14818899D01*
X36955512Y14771280D01*
X36907893Y14723661D01*
X36812655Y14580804D01*
X36765036Y14390328D01*
X36765036Y14009375D01*
X36812655Y13914137D01*
X36860274Y13866518D01*
X36955512Y13818899D01*
X37145989Y13818899D01*
X37241227Y13866518D01*
X37288846Y13914137D01*
X37336465Y14009375D01*
X37336465Y14247470D01*
X37288846Y14342709D01*
X37241227Y14390328D01*
X37145989Y14437947D01*
X36955512Y14437947D01*
X36860274Y14390328D01*
X36812655Y14342709D01*
X36765036Y14247470D01*
X18431703Y13818899D02*
X18098369Y14295090D01*
X17860274Y13818899D02*
X17860274Y14818899D01*
X18241227Y14818899D01*
X18336465Y14771280D01*
X18384084Y14723661D01*
X18431703Y14628423D01*
X18431703Y14485566D01*
X18384084Y14390328D01*
X18336465Y14342709D01*
X18241227Y14295090D01*
X17860274Y14295090D01*
X19384084Y13818899D02*
X18812655Y13818899D01*
X19098369Y13818899D02*
X19098369Y14818899D01*
X19003131Y14676042D01*
X18907893Y14580804D01*
X18812655Y14533185D01*
X19717417Y14818899D02*
X20384084Y14818899D01*
X19955512Y13818899D01*
X27031703Y13818899D02*
X26698369Y14295090D01*
X26460274Y13818899D02*
X26460274Y14818899D01*
X26841227Y14818899D01*
X26936465Y14771280D01*
X26984084Y14723661D01*
X27031703Y14628423D01*
X27031703Y14485566D01*
X26984084Y14390328D01*
X26936465Y14342709D01*
X26841227Y14295090D01*
X26460274Y14295090D01*
X27984084Y13818899D02*
X27412655Y13818899D01*
X27698369Y13818899D02*
X27698369Y14818899D01*
X27603131Y14676042D01*
X27507893Y14580804D01*
X27412655Y14533185D01*
X28555512Y14390328D02*
X28460274Y14437947D01*
X28412655Y14485566D01*
X28365036Y14580804D01*
X28365036Y14628423D01*
X28412655Y14723661D01*
X28460274Y14771280D01*
X28555512Y14818899D01*
X28745989Y14818899D01*
X28841227Y14771280D01*
X28888846Y14723661D01*
X28936465Y14628423D01*
X28936465Y14580804D01*
X28888846Y14485566D01*
X28841227Y14437947D01*
X28745989Y14390328D01*
X28555512Y14390328D01*
X28460274Y14342709D01*
X28412655Y14295090D01*
X28365036Y14199851D01*
X28365036Y14009375D01*
X28412655Y13914137D01*
X28460274Y13866518D01*
X28555512Y13818899D01*
X28745989Y13818899D01*
X28841227Y13866518D01*
X28888846Y13914137D01*
X28936465Y14009375D01*
X28936465Y14199851D01*
X28888846Y14295090D01*
X28841227Y14342709D01*
X28745989Y14390328D01*
X35968703Y26425899D02*
X35635369Y26902090D01*
X35397274Y26425899D02*
X35397274Y27425899D01*
X35778227Y27425899D01*
X35873465Y27378280D01*
X35921084Y27330661D01*
X35968703Y27235423D01*
X35968703Y27092566D01*
X35921084Y26997328D01*
X35873465Y26949709D01*
X35778227Y26902090D01*
X35397274Y26902090D01*
X36921084Y26425899D02*
X36349655Y26425899D01*
X36635369Y26425899D02*
X36635369Y27425899D01*
X36540131Y27283042D01*
X36444893Y27187804D01*
X36349655Y27140185D01*
X37397274Y26425899D02*
X37587750Y26425899D01*
X37682989Y26473518D01*
X37730608Y26521137D01*
X37825846Y26663994D01*
X37873465Y26854470D01*
X37873465Y27235423D01*
X37825846Y27330661D01*
X37778227Y27378280D01*
X37682989Y27425899D01*
X37492512Y27425899D01*
X37397274Y27378280D01*
X37349655Y27330661D01*
X37302036Y27235423D01*
X37302036Y26997328D01*
X37349655Y26902090D01*
X37397274Y26854470D01*
X37492512Y26806851D01*
X37682989Y26806851D01*
X37778227Y26854470D01*
X37825846Y26902090D01*
X37873465Y26997328D01*
X24665703Y26298899D02*
X24332369Y26775090D01*
X24094274Y26298899D02*
X24094274Y27298899D01*
X24475227Y27298899D01*
X24570465Y27251280D01*
X24618084Y27203661D01*
X24665703Y27108423D01*
X24665703Y26965566D01*
X24618084Y26870328D01*
X24570465Y26822709D01*
X24475227Y26775090D01*
X24094274Y26775090D01*
X25046655Y27203661D02*
X25094274Y27251280D01*
X25189512Y27298899D01*
X25427608Y27298899D01*
X25522846Y27251280D01*
X25570465Y27203661D01*
X25618084Y27108423D01*
X25618084Y27013185D01*
X25570465Y26870328D01*
X24999036Y26298899D01*
X25618084Y26298899D01*
X26237131Y27298899D02*
X26332370Y27298899D01*
X26427608Y27251280D01*
X26475227Y27203661D01*
X26522846Y27108423D01*
X26570465Y26917947D01*
X26570465Y26679851D01*
X26522846Y26489375D01*
X26475227Y26394137D01*
X26427608Y26346518D01*
X26332370Y26298899D01*
X26237131Y26298899D01*
X26141893Y26346518D01*
X26094274Y26394137D01*
X26046655Y26489375D01*
X25999036Y26679851D01*
X25999036Y26917947D01*
X26046655Y27108423D01*
X26094274Y27203661D01*
X26141893Y27251280D01*
X26237131Y27298899D01*
X8885894Y486137D02*
X8838275Y438518D01*
X8695418Y390899D01*
X8600180Y390899D01*
X8457322Y438518D01*
X8362084Y533756D01*
X8314465Y628994D01*
X8266846Y819470D01*
X8266846Y962328D01*
X8314465Y1152804D01*
X8362084Y1248042D01*
X8457322Y1343280D01*
X8600180Y1390899D01*
X8695418Y1390899D01*
X8838275Y1343280D01*
X8885894Y1295661D01*
X9266846Y1295661D02*
X9314465Y1343280D01*
X9409703Y1390899D01*
X9647799Y1390899D01*
X9743037Y1343280D01*
X9790656Y1295661D01*
X9838275Y1200423D01*
X9838275Y1105185D01*
X9790656Y962328D01*
X9219227Y390899D01*
X9838275Y390899D01*
X20315894Y29442137D02*
X20268275Y29394518D01*
X20125418Y29346899D01*
X20030180Y29346899D01*
X19887322Y29394518D01*
X19792084Y29489756D01*
X19744465Y29584994D01*
X19696846Y29775470D01*
X19696846Y29918328D01*
X19744465Y30108804D01*
X19792084Y30204042D01*
X19887322Y30299280D01*
X20030180Y30346899D01*
X20125418Y30346899D01*
X20268275Y30299280D01*
X20315894Y30251661D01*
X20649227Y30346899D02*
X21268275Y30346899D01*
X20934941Y29965947D01*
X21077799Y29965947D01*
X21173037Y29918328D01*
X21220656Y29870709D01*
X21268275Y29775470D01*
X21268275Y29537375D01*
X21220656Y29442137D01*
X21173037Y29394518D01*
X21077799Y29346899D01*
X20792084Y29346899D01*
X20696846Y29394518D01*
X20649227Y29442137D01*
X11298941Y23322375D02*
X12108465Y23322375D01*
X12203703Y23369994D01*
X12251322Y23417613D01*
X12298941Y23512851D01*
X12298941Y23703328D01*
X12251322Y23798566D01*
X12203703Y23846185D01*
X12108465Y23893804D01*
X11298941Y23893804D01*
X11298941Y24846185D02*
X11298941Y24369994D01*
X11775131Y24322375D01*
X11727512Y24369994D01*
X11679893Y24465232D01*
X11679893Y24703328D01*
X11727512Y24798566D01*
X11775131Y24846185D01*
X11870370Y24893804D01*
X12108465Y24893804D01*
X12203703Y24846185D01*
X12251322Y24798566D01*
X12298941Y24703328D01*
X12298941Y24465232D01*
X12251322Y24369994D01*
X12203703Y24322375D01*
M02*
