G04 #@! TF.FileFunction,Copper,L1,Top,Signal*
%FSLAX46Y46*%
G04 Gerber Fmt 4.6, Leading zero omitted, Abs format (unit mm)*
G04 Created by KiCad (PCBNEW 4.0.6+dfsg1-1) date Mon Feb 26 19:53:53 2018*
%MOMM*%
%LPD*%
G01*
G04 APERTURE LIST*
%ADD10C,0.100000*%
%ADD11R,3.500000X1.600000*%
%ADD12R,1.600000X3.500000*%
%ADD13R,2.500000X2.500000*%
%ADD14C,2.500000*%
%ADD15R,2.000000X2.000000*%
%ADD16C,2.000000*%
%ADD17O,1.600000X1.600000*%
%ADD18R,2.500000X1.800000*%
%ADD19R,1.700000X1.700000*%
%ADD20O,1.700000X1.700000*%
%ADD21R,1.500000X1.500000*%
%ADD22R,0.700000X1.300000*%
%ADD23R,1.300000X0.700000*%
%ADD24R,2.032000X2.032000*%
%ADD25O,2.032000X2.032000*%
%ADD26R,1.250000X1.000000*%
%ADD27C,6.400000*%
%ADD28C,0.600000*%
%ADD29R,3.500000X2.000000*%
%ADD30R,7.000000X7.000000*%
%ADD31C,2.000000*%
%ADD32C,1.000000*%
%ADD33C,0.500000*%
%ADD34C,0.250000*%
G04 APERTURE END LIST*
D10*
D11*
X14800560Y29164280D03*
X9400560Y29164280D03*
D12*
X14386560Y8115280D03*
X14386560Y2715280D03*
D13*
X5496560Y8971280D03*
D14*
X5496560Y13971280D03*
D15*
X37500560Y5415280D03*
D16*
X34960560Y5415280D03*
X32460560Y5415280D03*
D17*
X19535760Y16650880D03*
X22075760Y16650880D03*
X24615760Y16650880D03*
X27155760Y16650880D03*
X27155760Y24270880D03*
X24615760Y24270880D03*
X22075760Y24270880D03*
X19535760Y24270880D03*
D18*
X6374560Y2371280D03*
X2374560Y2371280D03*
D19*
X45935760Y30550880D03*
D20*
X43395760Y30550880D03*
X40855760Y30550880D03*
X38315760Y30550880D03*
X35775760Y30550880D03*
X33235760Y30550880D03*
D21*
X22724560Y31871280D03*
X19424560Y31871280D03*
D17*
X31035760Y16650880D03*
X33575760Y16650880D03*
X36115760Y16650880D03*
X38655760Y16650880D03*
X38655760Y24270880D03*
X36115760Y24270880D03*
X33575760Y24270880D03*
X31035760Y24270880D03*
X42535760Y16650880D03*
X45075760Y16650880D03*
X47615760Y16650880D03*
X50155760Y16650880D03*
X50155760Y24270880D03*
X47615760Y24270880D03*
X45075760Y24270880D03*
X42535760Y24270880D03*
X54035760Y16650880D03*
X56575760Y16650880D03*
X59115760Y16650880D03*
X61655760Y16650880D03*
X61655760Y24270880D03*
X59115760Y24270880D03*
X56575760Y24270880D03*
X54035760Y24270880D03*
D15*
X60360560Y5415280D03*
D16*
X57820560Y5415280D03*
X55320560Y5415280D03*
D15*
X48930560Y5415280D03*
D16*
X46390560Y5415280D03*
X43890560Y5415280D03*
D15*
X25816560Y5415280D03*
D16*
X23276560Y5415280D03*
X20776560Y5415280D03*
D22*
X27224560Y31871280D03*
X25324560Y31871280D03*
D23*
X56550560Y12715280D03*
X56550560Y10815280D03*
X59090560Y12715280D03*
X59090560Y10815280D03*
X45120560Y12715280D03*
X45120560Y10815280D03*
X47660560Y12715280D03*
X47660560Y10815280D03*
X54010560Y12715280D03*
X54010560Y10815280D03*
X61630560Y10815280D03*
X61630560Y12715280D03*
X42580560Y12715280D03*
X42580560Y10815280D03*
X50200560Y10815280D03*
X50200560Y12715280D03*
D22*
X57500560Y26497280D03*
X55600560Y26497280D03*
X45985760Y26900880D03*
X44085760Y26900880D03*
D23*
X33436560Y12715280D03*
X33436560Y10815280D03*
X36230560Y12715280D03*
X36230560Y10815280D03*
X22006560Y12715280D03*
X22006560Y10815280D03*
X24546560Y12715280D03*
X24546560Y10815280D03*
X30896560Y12715280D03*
X30896560Y10815280D03*
X38770560Y10815280D03*
X38770560Y12715280D03*
X19466560Y12715280D03*
X19466560Y10815280D03*
X27086560Y10815280D03*
X27086560Y12715280D03*
D22*
X34485760Y26900880D03*
X32585760Y26900880D03*
X23085760Y26750880D03*
X21185760Y26750880D03*
D24*
X50374560Y30871280D03*
D25*
X52914560Y30871280D03*
D26*
X9052560Y4383280D03*
X9052560Y2383280D03*
X18704560Y27783280D03*
X18704560Y29783280D03*
D27*
X61122560Y30307280D03*
D28*
X63522560Y30307280D03*
X62819616Y28610224D03*
X61122560Y27907280D03*
X59425504Y28610224D03*
X58722560Y30307280D03*
X59425504Y32004336D03*
X61122560Y32707280D03*
X62819616Y32004336D03*
D27*
X3718560Y30180280D03*
D28*
X6118560Y30180280D03*
X5415616Y28483224D03*
X3718560Y27780280D03*
X2021504Y28483224D03*
X1318560Y30180280D03*
X2021504Y31877336D03*
X3718560Y32580280D03*
X5415616Y31877336D03*
D29*
X14784560Y19635280D03*
X14784560Y24215280D03*
D30*
X7384560Y21935280D03*
D28*
X14386560Y3891280D03*
X14386560Y1605280D03*
X14386560Y2715280D03*
X14234560Y21925280D03*
X19424560Y31871280D03*
D31*
X14386560Y3891280D02*
X14386560Y2715280D01*
X14386560Y1605280D02*
X14386560Y2715280D01*
D32*
X14054560Y2383280D02*
X14386560Y2715280D01*
X9052560Y2383280D02*
X14054560Y2383280D01*
X7384560Y21935280D02*
X7384560Y27148280D01*
X7384560Y27148280D02*
X9400560Y29164280D01*
X19424560Y31871280D02*
X10362560Y31871280D01*
X9400560Y30909280D02*
X9400560Y29164280D01*
X10362560Y31871280D02*
X9400560Y30909280D01*
X18704560Y29783280D02*
X18704560Y31151280D01*
X18704560Y31151280D02*
X19424560Y31871280D01*
X5496560Y13971280D02*
X6686560Y13971280D01*
X6686560Y13971280D02*
X10576560Y17861280D01*
X10576560Y17861280D02*
X10576560Y22687280D01*
X11338560Y21925280D02*
X10576560Y22687280D01*
X14234560Y21925280D02*
X11338560Y21925280D01*
X61630560Y10815280D02*
X61630560Y6685280D01*
X61630560Y6685280D02*
X60360560Y5415280D01*
X50200560Y10815280D02*
X50200560Y6685280D01*
X50200560Y6685280D02*
X48930560Y5415280D01*
X38770560Y10815280D02*
X38770560Y6685280D01*
X38770560Y6685280D02*
X37500560Y5415280D01*
X27086560Y10815280D02*
X27086560Y6685280D01*
X27086560Y6685280D02*
X25816560Y5415280D01*
D31*
X14386560Y8115280D02*
X14386560Y19237280D01*
X14386560Y19237280D02*
X14784560Y19635280D01*
D32*
X14386560Y8115280D02*
X19449560Y8115280D01*
X19085560Y8209280D02*
X19449560Y8209280D01*
X19355560Y8209280D02*
X19085560Y8209280D01*
X19449560Y8115280D02*
X19355560Y8209280D01*
X9052560Y4383280D02*
X9052560Y4780280D01*
X9052560Y4780280D02*
X12387560Y8115280D01*
X12387560Y8115280D02*
X14386560Y8115280D01*
X6374560Y2371280D02*
X6374560Y2864280D01*
X6374560Y2864280D02*
X7893560Y4383280D01*
X7893560Y4383280D02*
X9052560Y4383280D01*
X13574560Y18965280D02*
X14234560Y19625280D01*
X6374560Y2371280D02*
X6374560Y2571280D01*
X54010560Y10815280D02*
X54010560Y6725280D01*
X54010560Y6725280D02*
X55320560Y5415280D01*
X42580560Y10815280D02*
X42580560Y6725280D01*
X42580560Y6725280D02*
X43890560Y5415280D01*
X30896560Y10815280D02*
X30896560Y6979280D01*
X30896560Y6979280D02*
X32460560Y5415280D01*
X19449560Y9896280D02*
X19449560Y9646280D01*
X19449560Y9896280D02*
X19466560Y9913280D01*
X19466560Y9913280D02*
X19466560Y10815280D01*
X19449560Y9646280D02*
X19449560Y8209280D01*
X19449560Y8209280D02*
X19449560Y7718280D01*
X19449560Y6742280D02*
X20776560Y5415280D01*
X19449560Y7718280D02*
X19449560Y6742280D01*
X28610560Y1986280D02*
X22359560Y1986280D01*
X22359560Y1986280D02*
X20776560Y3569280D01*
X20776560Y3569280D02*
X20776560Y5415280D01*
X43890560Y5415280D02*
X43890560Y5328280D01*
X43890560Y5328280D02*
X40548560Y1986280D01*
X32460560Y5415280D02*
X32039560Y5415280D01*
X32039560Y5415280D02*
X28610560Y1986280D01*
X20776560Y5415280D02*
X20776560Y4820280D01*
X55320560Y5415280D02*
X55320560Y5328280D01*
X55320560Y5328280D02*
X51978560Y1986280D01*
X51978560Y1986280D02*
X40548560Y1986280D01*
X40548560Y1986280D02*
X28610560Y1986280D01*
D33*
X57820560Y5415280D02*
X57820560Y10815280D01*
X57874560Y10671280D02*
X57874560Y10815280D01*
X57874560Y10761280D02*
X57874560Y10671280D01*
X57820560Y10815280D02*
X57874560Y10761280D01*
X56550560Y10815280D02*
X57874560Y10815280D01*
X57874560Y10815280D02*
X59090560Y10815280D01*
X46390560Y5415280D02*
X46390560Y10815280D01*
X46474560Y10871280D02*
X46474560Y10815280D01*
X46446560Y10871280D02*
X46474560Y10871280D01*
X46390560Y10815280D02*
X46446560Y10871280D01*
X45120560Y10815280D02*
X46474560Y10815280D01*
X46474560Y10815280D02*
X47660560Y10815280D01*
X34960560Y5415280D02*
X34960560Y10815280D01*
X35074560Y10671280D02*
X35074560Y10815280D01*
X35074560Y10701280D02*
X35074560Y10671280D01*
X34960560Y10815280D02*
X35074560Y10701280D01*
X33436560Y10815280D02*
X35074560Y10815280D01*
X35074560Y10815280D02*
X36230560Y10815280D01*
X23276560Y5415280D02*
X23276560Y10815280D01*
X23274560Y10871280D02*
X23274560Y10815280D01*
X23274560Y10817280D02*
X23274560Y10871280D01*
X23276560Y10815280D02*
X23274560Y10817280D01*
X22006560Y10815280D02*
X23274560Y10815280D01*
X23274560Y10815280D02*
X24546560Y10815280D01*
X43395760Y30550880D02*
X43395760Y30134082D01*
X43395760Y30134082D02*
X44340162Y29189680D01*
X57500560Y27680880D02*
X57500560Y26497280D01*
X57210960Y27970480D02*
X57500560Y27680880D01*
X46695360Y27970480D02*
X57210960Y27970480D01*
X45476160Y29189680D02*
X46695360Y27970480D01*
X44340162Y29189680D02*
X45476160Y29189680D01*
X59115760Y24270880D02*
X59115760Y25583080D01*
X58201560Y26497280D02*
X57500560Y26497280D01*
X59115760Y25583080D02*
X58201560Y26497280D01*
D34*
X43395760Y29940880D02*
X43395760Y30550880D01*
D33*
X47615760Y24270880D02*
X47615760Y25270880D01*
X47615760Y25270880D02*
X45985760Y26900880D01*
X45985760Y26900880D02*
X45985760Y27660080D01*
X42935360Y28471280D02*
X40855760Y30550880D01*
X45174560Y28471280D02*
X42935360Y28471280D01*
X45985760Y27660080D02*
X45174560Y28471280D01*
D34*
X45985760Y26900880D02*
X45985760Y27160080D01*
D33*
X36115760Y24270880D02*
X36115760Y25430080D01*
X36115760Y25430080D02*
X34644960Y26900880D01*
X34644960Y26900880D02*
X34485760Y26900880D01*
X34485760Y26900880D02*
X35004160Y26900880D01*
X35004160Y26900880D02*
X38315760Y30212480D01*
X38315760Y30212480D02*
X38315760Y30550880D01*
D34*
X34485760Y26900880D02*
X34665760Y26900880D01*
D33*
X24615760Y24270880D02*
X24615760Y25220880D01*
X24615760Y25220880D02*
X23085760Y26750880D01*
X23085760Y26750880D02*
X29554160Y26750880D01*
X34096160Y28871280D02*
X35775760Y30550880D01*
X31674560Y28871280D02*
X34096160Y28871280D01*
X29554160Y26750880D02*
X31674560Y28871280D01*
X54010560Y12715280D02*
X56550560Y12715280D01*
X56575760Y16650880D02*
X56575760Y12740480D01*
X56575760Y12740480D02*
X56550560Y12715280D01*
X59090560Y12715280D02*
X61630560Y12715280D01*
X59115760Y16650880D02*
X59115760Y12740480D01*
X59115760Y12740480D02*
X59090560Y12715280D01*
X45120560Y12715280D02*
X42580560Y12715280D01*
X45075760Y16650880D02*
X45075760Y12760080D01*
X45075760Y12760080D02*
X45120560Y12715280D01*
X47660560Y12715280D02*
X50200560Y12715280D01*
X47615760Y16650880D02*
X47615760Y12760080D01*
X47615760Y12760080D02*
X47660560Y12715280D01*
X33575760Y16650880D02*
X33575760Y12854480D01*
X33575760Y12854480D02*
X33436560Y12715280D01*
X30896560Y12715280D02*
X33436560Y12715280D01*
X33436560Y16511680D02*
X33575760Y16650880D01*
X38770560Y12715280D02*
X36230560Y12715280D01*
X36115760Y16650880D02*
X36115760Y12830080D01*
X36115760Y12830080D02*
X36230560Y12715280D01*
X36230560Y16536080D02*
X36115760Y16650880D01*
X22006560Y12715280D02*
X19466560Y12715280D01*
X22075760Y16650880D02*
X22075760Y12784480D01*
X22075760Y12784480D02*
X22006560Y12715280D01*
X24615760Y16650880D02*
X24615760Y12784480D01*
X24615760Y12784480D02*
X24546560Y12715280D01*
X24546560Y12715280D02*
X27086560Y12715280D01*
D32*
X22724560Y31871280D02*
X25324560Y31871280D01*
X5496560Y8971280D02*
X3464560Y8971280D01*
X2374560Y7881280D02*
X2374560Y2371280D01*
X3464560Y8971280D02*
X2374560Y7881280D01*
X45935760Y30550880D02*
X50054160Y30550880D01*
X50054160Y30550880D02*
X50374560Y30871280D01*
D33*
X54035760Y24270880D02*
X54035760Y24932480D01*
X54035760Y24932480D02*
X55600560Y26497280D01*
D32*
X18704560Y27783280D02*
X20085560Y27783280D01*
X20085560Y27783280D02*
X20847260Y27021580D01*
X20847260Y27021580D02*
X21185760Y26750880D01*
X14800560Y29164280D02*
X16418560Y29164280D01*
X16418560Y29164280D02*
X17799560Y27783280D01*
X17799560Y27783280D02*
X18704560Y27783280D01*
X14784560Y24215280D02*
X14784560Y29148280D01*
X14784560Y29148280D02*
X14800560Y29164280D01*
D33*
X31035760Y24270880D02*
X31035760Y25350880D01*
X31035760Y25350880D02*
X32585760Y26900880D01*
D32*
X42535760Y24270880D02*
X42535760Y25350880D01*
X42535760Y25350880D02*
X44085760Y26900880D01*
X19535760Y24270880D02*
X19535760Y25710080D01*
X19535760Y25710080D02*
X21185760Y27360080D01*
X21185760Y27360080D02*
X21185760Y26750880D01*
X21185760Y27360080D02*
X21185760Y26750880D01*
X21185760Y26750880D02*
X21185760Y28382480D01*
X27224560Y29821280D02*
X27224560Y31871280D01*
X26874560Y29471280D02*
X27224560Y29821280D01*
X22274560Y29471280D02*
X26874560Y29471280D01*
X21185760Y28382480D02*
X22274560Y29471280D01*
X19535760Y22705680D02*
X19535760Y20610080D01*
X20994960Y19150880D02*
X25867360Y19150880D01*
X19535760Y20610080D02*
X20994960Y19150880D01*
X37415760Y19150880D02*
X48915760Y19150880D01*
X48915760Y19150880D02*
X54035760Y24270880D01*
X25867360Y19150880D02*
X37415760Y19150880D01*
X37415760Y19150880D02*
X42535760Y24270880D01*
X25867360Y19150880D02*
X25915760Y19150880D01*
X25915760Y19150880D02*
X31035760Y24270880D01*
X19535760Y22705680D02*
X19535760Y24270880D01*
D33*
X19535760Y22705680D02*
X19535760Y24270880D01*
X48915760Y19150880D02*
X54035760Y24270880D01*
X25915760Y19150880D02*
X37415760Y19150880D01*
X37415760Y19150880D02*
X42535760Y24270880D01*
X25915760Y19150880D02*
X31035760Y24270880D01*
M02*
