G04 #@! TF.FileFunction,Copper,L2,Bot,Signal*
%FSLAX46Y46*%
G04 Gerber Fmt 4.6, Leading zero omitted, Abs format (unit mm)*
G04 Created by KiCad (PCBNEW 4.0.6+dfsg1-1) date Mon Feb 26 19:53:53 2018*
%MOMM*%
%LPD*%
G01*
G04 APERTURE LIST*
%ADD10C,0.100000*%
%ADD11R,2.500000X2.500000*%
%ADD12C,2.500000*%
%ADD13R,2.000000X2.000000*%
%ADD14C,2.000000*%
%ADD15O,1.600000X1.600000*%
%ADD16R,1.700000X1.700000*%
%ADD17O,1.700000X1.700000*%
%ADD18R,2.032000X2.032000*%
%ADD19O,2.032000X2.032000*%
%ADD20C,6.400000*%
%ADD21C,0.600000*%
%ADD22C,2.000000*%
%ADD23C,1.000000*%
%ADD24C,0.254000*%
G04 APERTURE END LIST*
D10*
D11*
X5496560Y8971280D03*
D12*
X5496560Y13971280D03*
D13*
X37500560Y5415280D03*
D14*
X34960560Y5415280D03*
X32460560Y5415280D03*
D15*
X19535760Y16650880D03*
X22075760Y16650880D03*
X24615760Y16650880D03*
X27155760Y16650880D03*
X27155760Y24270880D03*
X24615760Y24270880D03*
X22075760Y24270880D03*
X19535760Y24270880D03*
D16*
X45935760Y30550880D03*
D17*
X43395760Y30550880D03*
X40855760Y30550880D03*
X38315760Y30550880D03*
X35775760Y30550880D03*
X33235760Y30550880D03*
D15*
X31035760Y16650880D03*
X33575760Y16650880D03*
X36115760Y16650880D03*
X38655760Y16650880D03*
X38655760Y24270880D03*
X36115760Y24270880D03*
X33575760Y24270880D03*
X31035760Y24270880D03*
X42535760Y16650880D03*
X45075760Y16650880D03*
X47615760Y16650880D03*
X50155760Y16650880D03*
X50155760Y24270880D03*
X47615760Y24270880D03*
X45075760Y24270880D03*
X42535760Y24270880D03*
X54035760Y16650880D03*
X56575760Y16650880D03*
X59115760Y16650880D03*
X61655760Y16650880D03*
X61655760Y24270880D03*
X59115760Y24270880D03*
X56575760Y24270880D03*
X54035760Y24270880D03*
D13*
X60360560Y5415280D03*
D14*
X57820560Y5415280D03*
X55320560Y5415280D03*
D13*
X48930560Y5415280D03*
D14*
X46390560Y5415280D03*
X43890560Y5415280D03*
D13*
X25816560Y5415280D03*
D14*
X23276560Y5415280D03*
X20776560Y5415280D03*
D18*
X50374560Y30871280D03*
D19*
X52914560Y30871280D03*
D20*
X61122560Y30307280D03*
D21*
X63522560Y30307280D03*
X62819616Y28610224D03*
X61122560Y27907280D03*
X59425504Y28610224D03*
X58722560Y30307280D03*
X59425504Y32004336D03*
X61122560Y32707280D03*
X62819616Y32004336D03*
D20*
X3718560Y30180280D03*
D21*
X6118560Y30180280D03*
X5415616Y28483224D03*
X3718560Y27780280D03*
X2021504Y28483224D03*
X1318560Y30180280D03*
X2021504Y31877336D03*
X3718560Y32580280D03*
X5415616Y31877336D03*
X14386560Y3891280D03*
X14386560Y1605280D03*
X14386560Y2715280D03*
X14234560Y21925280D03*
X19424560Y31871280D03*
D22*
X14386560Y2715280D02*
X14386560Y3891280D01*
X14386560Y2715280D02*
X14386560Y1605280D01*
D23*
X14386560Y2715280D02*
X14386560Y2748280D01*
X14234560Y21925280D02*
X14132560Y21925280D01*
X19424560Y31871280D02*
X19474560Y31871280D01*
X54035760Y24270880D02*
X54035760Y29750080D01*
X54035760Y29750080D02*
X52914560Y30871280D01*
D24*
G36*
X57873301Y32482469D02*
X57288227Y31073455D01*
X57286896Y29547798D01*
X57869510Y28137765D01*
X58947371Y27058021D01*
X60356385Y26472947D01*
X61882042Y26471616D01*
X63292075Y27054230D01*
X63964560Y27725542D01*
X63964560Y781280D01*
X784560Y781280D01*
X784560Y10221280D01*
X3599120Y10221280D01*
X3599120Y7721280D01*
X3643398Y7485963D01*
X3782470Y7269839D01*
X3994670Y7124849D01*
X4246560Y7073840D01*
X6746560Y7073840D01*
X6981877Y7118118D01*
X7198001Y7257190D01*
X7342991Y7469390D01*
X7394000Y7721280D01*
X7394000Y10221280D01*
X7349722Y10456597D01*
X7210650Y10672721D01*
X6998450Y10817711D01*
X6746560Y10868720D01*
X4246560Y10868720D01*
X4011243Y10824442D01*
X3795119Y10685370D01*
X3650129Y10473170D01*
X3599120Y10221280D01*
X784560Y10221280D01*
X784560Y12637960D01*
X4342845Y12637960D01*
X4472093Y12345157D01*
X5172366Y12076892D01*
X5921995Y12097030D01*
X6521027Y12345157D01*
X6650275Y12637960D01*
X5496560Y13791675D01*
X4342845Y12637960D01*
X784560Y12637960D01*
X784560Y14295474D01*
X3602172Y14295474D01*
X3622310Y13545845D01*
X3870437Y12946813D01*
X4163240Y12817565D01*
X5316955Y13971280D01*
X5676165Y13971280D01*
X6829880Y12817565D01*
X7122683Y12946813D01*
X7390948Y13647086D01*
X7370810Y14396715D01*
X7122683Y14995747D01*
X6829880Y15124995D01*
X5676165Y13971280D01*
X5316955Y13971280D01*
X4163240Y15124995D01*
X3870437Y14995747D01*
X3602172Y14295474D01*
X784560Y14295474D01*
X784560Y15304600D01*
X4342845Y15304600D01*
X5496560Y14150885D01*
X6650275Y15304600D01*
X6521027Y15597403D01*
X5820754Y15865668D01*
X5071125Y15845530D01*
X4472093Y15597403D01*
X4342845Y15304600D01*
X784560Y15304600D01*
X784560Y22941280D01*
X17180560Y22941280D01*
X17180560Y3002280D01*
X17189245Y2956121D01*
X17216525Y2913727D01*
X17258150Y2885286D01*
X17307560Y2875280D01*
X24546560Y2875280D01*
X24592719Y2883965D01*
X24635113Y2911245D01*
X24663554Y2952870D01*
X24673560Y3002280D01*
X24673560Y3787194D01*
X24690251Y3780280D01*
X25530810Y3780280D01*
X25689560Y3939030D01*
X25689560Y5288280D01*
X25943560Y5288280D01*
X25943560Y3939030D01*
X26102310Y3780280D01*
X26942869Y3780280D01*
X27176258Y3876953D01*
X27354887Y4055581D01*
X27451560Y4288970D01*
X27451560Y5129530D01*
X27292810Y5288280D01*
X25943560Y5288280D01*
X25689560Y5288280D01*
X25669560Y5288280D01*
X25669560Y5542280D01*
X25689560Y5542280D01*
X25689560Y6891530D01*
X25943560Y6891530D01*
X25943560Y5542280D01*
X27292810Y5542280D01*
X27451560Y5701030D01*
X27451560Y6541590D01*
X27354887Y6774979D01*
X27176258Y6953607D01*
X26942869Y7050280D01*
X26102310Y7050280D01*
X25943560Y6891530D01*
X25689560Y6891530D01*
X25530810Y7050280D01*
X24690251Y7050280D01*
X24673560Y7043366D01*
X24673560Y8717280D01*
X28102560Y8717280D01*
X28102560Y3002280D01*
X28111245Y2956121D01*
X28138525Y2913727D01*
X28180150Y2885286D01*
X28229560Y2875280D01*
X36230560Y2875280D01*
X36276719Y2883965D01*
X36319113Y2911245D01*
X36347554Y2952870D01*
X36357560Y3002280D01*
X36357560Y3787194D01*
X36374251Y3780280D01*
X37214810Y3780280D01*
X37373560Y3939030D01*
X37373560Y5288280D01*
X37627560Y5288280D01*
X37627560Y3939030D01*
X37786310Y3780280D01*
X38626869Y3780280D01*
X38860258Y3876953D01*
X39038887Y4055581D01*
X39135560Y4288970D01*
X39135560Y5129530D01*
X38976810Y5288280D01*
X37627560Y5288280D01*
X37373560Y5288280D01*
X37353560Y5288280D01*
X37353560Y5542280D01*
X37373560Y5542280D01*
X37373560Y6891530D01*
X37627560Y6891530D01*
X37627560Y5542280D01*
X38976810Y5542280D01*
X39135560Y5701030D01*
X39135560Y6541590D01*
X39038887Y6774979D01*
X38860258Y6953607D01*
X38626869Y7050280D01*
X37786310Y7050280D01*
X37627560Y6891530D01*
X37373560Y6891530D01*
X37214810Y7050280D01*
X36374251Y7050280D01*
X36357560Y7043366D01*
X36357560Y8717280D01*
X39659560Y8717280D01*
X39659560Y3002280D01*
X39668245Y2956121D01*
X39695525Y2913727D01*
X39737150Y2885286D01*
X39786560Y2875280D01*
X47533560Y2875280D01*
X47579719Y2883965D01*
X47622113Y2911245D01*
X47650554Y2952870D01*
X47660560Y3002280D01*
X47660560Y3839799D01*
X47804251Y3780280D01*
X48644810Y3780280D01*
X48803560Y3939030D01*
X48803560Y5288280D01*
X49057560Y5288280D01*
X49057560Y3939030D01*
X49216310Y3780280D01*
X50056869Y3780280D01*
X50290258Y3876953D01*
X50468887Y4055581D01*
X50565560Y4288970D01*
X50565560Y5129530D01*
X50406810Y5288280D01*
X49057560Y5288280D01*
X48803560Y5288280D01*
X48783560Y5288280D01*
X48783560Y5542280D01*
X48803560Y5542280D01*
X48803560Y6891530D01*
X49057560Y6891530D01*
X49057560Y5542280D01*
X50406810Y5542280D01*
X50565560Y5701030D01*
X50565560Y6541590D01*
X50468887Y6774979D01*
X50290258Y6953607D01*
X50056869Y7050280D01*
X49216310Y7050280D01*
X49057560Y6891530D01*
X48803560Y6891530D01*
X48644810Y7050280D01*
X47804251Y7050280D01*
X47660560Y6990761D01*
X47660560Y8717280D01*
X50962560Y8717280D01*
X50962560Y3002280D01*
X50971245Y2956121D01*
X50998525Y2913727D01*
X51040150Y2885286D01*
X51089560Y2875280D01*
X59090560Y2875280D01*
X59136719Y2883965D01*
X59179113Y2911245D01*
X59207554Y2952870D01*
X59217560Y3002280D01*
X59217560Y3787194D01*
X59234251Y3780280D01*
X60074810Y3780280D01*
X60233560Y3939030D01*
X60233560Y5288280D01*
X60487560Y5288280D01*
X60487560Y3939030D01*
X60646310Y3780280D01*
X61486869Y3780280D01*
X61720258Y3876953D01*
X61898887Y4055581D01*
X61995560Y4288970D01*
X61995560Y5129530D01*
X61836810Y5288280D01*
X60487560Y5288280D01*
X60233560Y5288280D01*
X60213560Y5288280D01*
X60213560Y5542280D01*
X60233560Y5542280D01*
X60233560Y6891530D01*
X60487560Y6891530D01*
X60487560Y5542280D01*
X61836810Y5542280D01*
X61995560Y5701030D01*
X61995560Y6541590D01*
X61898887Y6774979D01*
X61720258Y6953607D01*
X61486869Y7050280D01*
X60646310Y7050280D01*
X60487560Y6891530D01*
X60233560Y6891530D01*
X60074810Y7050280D01*
X59234251Y7050280D01*
X59217560Y7043366D01*
X59217560Y8717280D01*
X62900560Y8717280D01*
X62946719Y8725965D01*
X62989113Y8753245D01*
X63017554Y8794870D01*
X63027560Y8844280D01*
X63027560Y16305039D01*
X63090760Y16622767D01*
X63090760Y16678993D01*
X63027560Y16996721D01*
X63027560Y22941280D01*
X63018875Y22987439D01*
X62991595Y23029833D01*
X62949970Y23058274D01*
X62900560Y23068280D01*
X62424579Y23068280D01*
X62808149Y23415746D01*
X63047674Y23921839D01*
X62926389Y24143880D01*
X61782760Y24143880D01*
X61782760Y24123880D01*
X61528760Y24123880D01*
X61528760Y24143880D01*
X61508760Y24143880D01*
X61508760Y24397880D01*
X61528760Y24397880D01*
X61528760Y25540795D01*
X61782760Y25540795D01*
X61782760Y24397880D01*
X62926389Y24397880D01*
X63047674Y24619921D01*
X62808149Y25126014D01*
X62393183Y25501921D01*
X62004799Y25662784D01*
X61782760Y25540795D01*
X61528760Y25540795D01*
X61306721Y25662784D01*
X60918337Y25501921D01*
X60503371Y25126014D01*
X60400746Y24909177D01*
X60130458Y25313691D01*
X59664911Y25624760D01*
X59115760Y25733993D01*
X58566609Y25624760D01*
X58101062Y25313691D01*
X57845760Y24931605D01*
X57590458Y25313691D01*
X57124911Y25624760D01*
X56575760Y25733993D01*
X56026609Y25624760D01*
X55561062Y25313691D01*
X55305760Y24931605D01*
X55170760Y25133647D01*
X55170760Y29750080D01*
X55084363Y30184426D01*
X54838326Y30552646D01*
X54563316Y30827656D01*
X54565560Y30838935D01*
X54565560Y30903625D01*
X54439885Y31535435D01*
X54081993Y32071058D01*
X53546370Y32428950D01*
X52914560Y32554625D01*
X52282750Y32428950D01*
X51942768Y32201781D01*
X51854650Y32338721D01*
X51642450Y32483711D01*
X51390560Y32534720D01*
X49358560Y32534720D01*
X49123243Y32490442D01*
X48907119Y32351370D01*
X48762129Y32139170D01*
X48711120Y31887280D01*
X48711120Y29855280D01*
X48755398Y29619963D01*
X48894470Y29403839D01*
X49106670Y29258849D01*
X49358560Y29207840D01*
X51390560Y29207840D01*
X51625877Y29252118D01*
X51842001Y29391190D01*
X51943758Y29540117D01*
X52282750Y29313610D01*
X52900760Y29190680D01*
X52900760Y25133647D01*
X52709993Y24848144D01*
X52600760Y24298993D01*
X52600760Y24242767D01*
X52709993Y23693616D01*
X53021062Y23228069D01*
X53260203Y23068280D01*
X50924579Y23068280D01*
X51308149Y23415746D01*
X51547674Y23921839D01*
X51426389Y24143880D01*
X50282760Y24143880D01*
X50282760Y24123880D01*
X50028760Y24123880D01*
X50028760Y24143880D01*
X50008760Y24143880D01*
X50008760Y24397880D01*
X50028760Y24397880D01*
X50028760Y25540795D01*
X50282760Y25540795D01*
X50282760Y24397880D01*
X51426389Y24397880D01*
X51547674Y24619921D01*
X51308149Y25126014D01*
X50893183Y25501921D01*
X50504799Y25662784D01*
X50282760Y25540795D01*
X50028760Y25540795D01*
X49806721Y25662784D01*
X49418337Y25501921D01*
X49003371Y25126014D01*
X48900746Y24909177D01*
X48630458Y25313691D01*
X48164911Y25624760D01*
X47615760Y25733993D01*
X47066609Y25624760D01*
X46601062Y25313691D01*
X46345760Y24931605D01*
X46090458Y25313691D01*
X45624911Y25624760D01*
X45075760Y25733993D01*
X44526609Y25624760D01*
X44061062Y25313691D01*
X43805760Y24931605D01*
X43550458Y25313691D01*
X43084911Y25624760D01*
X42535760Y25733993D01*
X41986609Y25624760D01*
X41521062Y25313691D01*
X41209993Y24848144D01*
X41100760Y24298993D01*
X41100760Y24242767D01*
X41209993Y23693616D01*
X41521062Y23228069D01*
X41760203Y23068280D01*
X39424579Y23068280D01*
X39808149Y23415746D01*
X40047674Y23921839D01*
X39926389Y24143880D01*
X38782760Y24143880D01*
X38782760Y24123880D01*
X38528760Y24123880D01*
X38528760Y24143880D01*
X38508760Y24143880D01*
X38508760Y24397880D01*
X38528760Y24397880D01*
X38528760Y25540795D01*
X38782760Y25540795D01*
X38782760Y24397880D01*
X39926389Y24397880D01*
X40047674Y24619921D01*
X39808149Y25126014D01*
X39393183Y25501921D01*
X39004799Y25662784D01*
X38782760Y25540795D01*
X38528760Y25540795D01*
X38306721Y25662784D01*
X37918337Y25501921D01*
X37503371Y25126014D01*
X37400746Y24909177D01*
X37130458Y25313691D01*
X36664911Y25624760D01*
X36115760Y25733993D01*
X35566609Y25624760D01*
X35101062Y25313691D01*
X34845760Y24931605D01*
X34590458Y25313691D01*
X34124911Y25624760D01*
X33575760Y25733993D01*
X33026609Y25624760D01*
X32561062Y25313691D01*
X32305760Y24931605D01*
X32050458Y25313691D01*
X31584911Y25624760D01*
X31035760Y25733993D01*
X30486609Y25624760D01*
X30021062Y25313691D01*
X29709993Y24848144D01*
X29600760Y24298993D01*
X29600760Y24242767D01*
X29709993Y23693616D01*
X30021062Y23228069D01*
X30260203Y23068280D01*
X27924579Y23068280D01*
X28308149Y23415746D01*
X28547674Y23921839D01*
X28426389Y24143880D01*
X27282760Y24143880D01*
X27282760Y24123880D01*
X27028760Y24123880D01*
X27028760Y24143880D01*
X27008760Y24143880D01*
X27008760Y24397880D01*
X27028760Y24397880D01*
X27028760Y25540795D01*
X27282760Y25540795D01*
X27282760Y24397880D01*
X28426389Y24397880D01*
X28547674Y24619921D01*
X28308149Y25126014D01*
X27893183Y25501921D01*
X27504799Y25662784D01*
X27282760Y25540795D01*
X27028760Y25540795D01*
X26806721Y25662784D01*
X26418337Y25501921D01*
X26003371Y25126014D01*
X25900746Y24909177D01*
X25630458Y25313691D01*
X25164911Y25624760D01*
X24615760Y25733993D01*
X24066609Y25624760D01*
X23601062Y25313691D01*
X23345760Y24931605D01*
X23090458Y25313691D01*
X22624911Y25624760D01*
X22075760Y25733993D01*
X21526609Y25624760D01*
X21061062Y25313691D01*
X20805760Y24931605D01*
X20550458Y25313691D01*
X20084911Y25624760D01*
X19535760Y25733993D01*
X18986609Y25624760D01*
X18521062Y25313691D01*
X18209993Y24848144D01*
X18100760Y24298993D01*
X18100760Y24242767D01*
X18209993Y23693616D01*
X18521062Y23228069D01*
X18760203Y23068280D01*
X17307560Y23068280D01*
X17261401Y23059595D01*
X17219007Y23032315D01*
X17190566Y22990690D01*
X17180560Y22941280D01*
X784560Y22941280D01*
X784560Y27691158D01*
X1543371Y26931021D01*
X2952385Y26345947D01*
X4478042Y26344616D01*
X5888075Y26927230D01*
X6967819Y28005091D01*
X7552893Y29414105D01*
X7553573Y30193988D01*
X31794274Y30193988D01*
X32040577Y29669522D01*
X32468836Y29279235D01*
X32878870Y29109404D01*
X33108760Y29230725D01*
X33108760Y30423880D01*
X31914941Y30423880D01*
X31794274Y30193988D01*
X7553573Y30193988D01*
X7554196Y30907772D01*
X31794274Y30907772D01*
X31914941Y30677880D01*
X33108760Y30677880D01*
X33108760Y31871035D01*
X33362760Y31871035D01*
X33362760Y30677880D01*
X33382760Y30677880D01*
X33382760Y30423880D01*
X33362760Y30423880D01*
X33362760Y29230725D01*
X33592650Y29109404D01*
X34002684Y29279235D01*
X34430943Y29669522D01*
X34498058Y29812433D01*
X34725706Y29471733D01*
X35207475Y29149826D01*
X35775760Y29036787D01*
X36344045Y29149826D01*
X36825814Y29471733D01*
X37045760Y29800906D01*
X37265706Y29471733D01*
X37747475Y29149826D01*
X38315760Y29036787D01*
X38884045Y29149826D01*
X39365814Y29471733D01*
X39585760Y29800906D01*
X39805706Y29471733D01*
X40287475Y29149826D01*
X40855760Y29036787D01*
X41424045Y29149826D01*
X41905814Y29471733D01*
X42125760Y29800906D01*
X42345706Y29471733D01*
X42827475Y29149826D01*
X43395760Y29036787D01*
X43964045Y29149826D01*
X44445814Y29471733D01*
X44473610Y29513332D01*
X44482598Y29465563D01*
X44621670Y29249439D01*
X44833870Y29104449D01*
X45085760Y29053440D01*
X46785760Y29053440D01*
X47021077Y29097718D01*
X47237201Y29236790D01*
X47382191Y29448990D01*
X47433200Y29700880D01*
X47433200Y31400880D01*
X47388922Y31636197D01*
X47249850Y31852321D01*
X47037650Y31997311D01*
X46785760Y32048320D01*
X45085760Y32048320D01*
X44850443Y32004042D01*
X44634319Y31864970D01*
X44489329Y31652770D01*
X44475674Y31585339D01*
X44445814Y31630027D01*
X43964045Y31951934D01*
X43395760Y32064973D01*
X42827475Y31951934D01*
X42345706Y31630027D01*
X42125760Y31300854D01*
X41905814Y31630027D01*
X41424045Y31951934D01*
X40855760Y32064973D01*
X40287475Y31951934D01*
X39805706Y31630027D01*
X39585760Y31300854D01*
X39365814Y31630027D01*
X38884045Y31951934D01*
X38315760Y32064973D01*
X37747475Y31951934D01*
X37265706Y31630027D01*
X37045760Y31300854D01*
X36825814Y31630027D01*
X36344045Y31951934D01*
X35775760Y32064973D01*
X35207475Y31951934D01*
X34725706Y31630027D01*
X34498058Y31289327D01*
X34430943Y31432238D01*
X34002684Y31822525D01*
X33592650Y31992356D01*
X33362760Y31871035D01*
X33108760Y31871035D01*
X32878870Y31992356D01*
X32468836Y31822525D01*
X32040577Y31432238D01*
X31794274Y30907772D01*
X7554196Y30907772D01*
X7554224Y30939762D01*
X6971610Y32349795D01*
X6161540Y33161280D01*
X58553298Y33161280D01*
X57873301Y32482469D01*
X57873301Y32482469D01*
G37*
X57873301Y32482469D02*
X57288227Y31073455D01*
X57286896Y29547798D01*
X57869510Y28137765D01*
X58947371Y27058021D01*
X60356385Y26472947D01*
X61882042Y26471616D01*
X63292075Y27054230D01*
X63964560Y27725542D01*
X63964560Y781280D01*
X784560Y781280D01*
X784560Y10221280D01*
X3599120Y10221280D01*
X3599120Y7721280D01*
X3643398Y7485963D01*
X3782470Y7269839D01*
X3994670Y7124849D01*
X4246560Y7073840D01*
X6746560Y7073840D01*
X6981877Y7118118D01*
X7198001Y7257190D01*
X7342991Y7469390D01*
X7394000Y7721280D01*
X7394000Y10221280D01*
X7349722Y10456597D01*
X7210650Y10672721D01*
X6998450Y10817711D01*
X6746560Y10868720D01*
X4246560Y10868720D01*
X4011243Y10824442D01*
X3795119Y10685370D01*
X3650129Y10473170D01*
X3599120Y10221280D01*
X784560Y10221280D01*
X784560Y12637960D01*
X4342845Y12637960D01*
X4472093Y12345157D01*
X5172366Y12076892D01*
X5921995Y12097030D01*
X6521027Y12345157D01*
X6650275Y12637960D01*
X5496560Y13791675D01*
X4342845Y12637960D01*
X784560Y12637960D01*
X784560Y14295474D01*
X3602172Y14295474D01*
X3622310Y13545845D01*
X3870437Y12946813D01*
X4163240Y12817565D01*
X5316955Y13971280D01*
X5676165Y13971280D01*
X6829880Y12817565D01*
X7122683Y12946813D01*
X7390948Y13647086D01*
X7370810Y14396715D01*
X7122683Y14995747D01*
X6829880Y15124995D01*
X5676165Y13971280D01*
X5316955Y13971280D01*
X4163240Y15124995D01*
X3870437Y14995747D01*
X3602172Y14295474D01*
X784560Y14295474D01*
X784560Y15304600D01*
X4342845Y15304600D01*
X5496560Y14150885D01*
X6650275Y15304600D01*
X6521027Y15597403D01*
X5820754Y15865668D01*
X5071125Y15845530D01*
X4472093Y15597403D01*
X4342845Y15304600D01*
X784560Y15304600D01*
X784560Y22941280D01*
X17180560Y22941280D01*
X17180560Y3002280D01*
X17189245Y2956121D01*
X17216525Y2913727D01*
X17258150Y2885286D01*
X17307560Y2875280D01*
X24546560Y2875280D01*
X24592719Y2883965D01*
X24635113Y2911245D01*
X24663554Y2952870D01*
X24673560Y3002280D01*
X24673560Y3787194D01*
X24690251Y3780280D01*
X25530810Y3780280D01*
X25689560Y3939030D01*
X25689560Y5288280D01*
X25943560Y5288280D01*
X25943560Y3939030D01*
X26102310Y3780280D01*
X26942869Y3780280D01*
X27176258Y3876953D01*
X27354887Y4055581D01*
X27451560Y4288970D01*
X27451560Y5129530D01*
X27292810Y5288280D01*
X25943560Y5288280D01*
X25689560Y5288280D01*
X25669560Y5288280D01*
X25669560Y5542280D01*
X25689560Y5542280D01*
X25689560Y6891530D01*
X25943560Y6891530D01*
X25943560Y5542280D01*
X27292810Y5542280D01*
X27451560Y5701030D01*
X27451560Y6541590D01*
X27354887Y6774979D01*
X27176258Y6953607D01*
X26942869Y7050280D01*
X26102310Y7050280D01*
X25943560Y6891530D01*
X25689560Y6891530D01*
X25530810Y7050280D01*
X24690251Y7050280D01*
X24673560Y7043366D01*
X24673560Y8717280D01*
X28102560Y8717280D01*
X28102560Y3002280D01*
X28111245Y2956121D01*
X28138525Y2913727D01*
X28180150Y2885286D01*
X28229560Y2875280D01*
X36230560Y2875280D01*
X36276719Y2883965D01*
X36319113Y2911245D01*
X36347554Y2952870D01*
X36357560Y3002280D01*
X36357560Y3787194D01*
X36374251Y3780280D01*
X37214810Y3780280D01*
X37373560Y3939030D01*
X37373560Y5288280D01*
X37627560Y5288280D01*
X37627560Y3939030D01*
X37786310Y3780280D01*
X38626869Y3780280D01*
X38860258Y3876953D01*
X39038887Y4055581D01*
X39135560Y4288970D01*
X39135560Y5129530D01*
X38976810Y5288280D01*
X37627560Y5288280D01*
X37373560Y5288280D01*
X37353560Y5288280D01*
X37353560Y5542280D01*
X37373560Y5542280D01*
X37373560Y6891530D01*
X37627560Y6891530D01*
X37627560Y5542280D01*
X38976810Y5542280D01*
X39135560Y5701030D01*
X39135560Y6541590D01*
X39038887Y6774979D01*
X38860258Y6953607D01*
X38626869Y7050280D01*
X37786310Y7050280D01*
X37627560Y6891530D01*
X37373560Y6891530D01*
X37214810Y7050280D01*
X36374251Y7050280D01*
X36357560Y7043366D01*
X36357560Y8717280D01*
X39659560Y8717280D01*
X39659560Y3002280D01*
X39668245Y2956121D01*
X39695525Y2913727D01*
X39737150Y2885286D01*
X39786560Y2875280D01*
X47533560Y2875280D01*
X47579719Y2883965D01*
X47622113Y2911245D01*
X47650554Y2952870D01*
X47660560Y3002280D01*
X47660560Y3839799D01*
X47804251Y3780280D01*
X48644810Y3780280D01*
X48803560Y3939030D01*
X48803560Y5288280D01*
X49057560Y5288280D01*
X49057560Y3939030D01*
X49216310Y3780280D01*
X50056869Y3780280D01*
X50290258Y3876953D01*
X50468887Y4055581D01*
X50565560Y4288970D01*
X50565560Y5129530D01*
X50406810Y5288280D01*
X49057560Y5288280D01*
X48803560Y5288280D01*
X48783560Y5288280D01*
X48783560Y5542280D01*
X48803560Y5542280D01*
X48803560Y6891530D01*
X49057560Y6891530D01*
X49057560Y5542280D01*
X50406810Y5542280D01*
X50565560Y5701030D01*
X50565560Y6541590D01*
X50468887Y6774979D01*
X50290258Y6953607D01*
X50056869Y7050280D01*
X49216310Y7050280D01*
X49057560Y6891530D01*
X48803560Y6891530D01*
X48644810Y7050280D01*
X47804251Y7050280D01*
X47660560Y6990761D01*
X47660560Y8717280D01*
X50962560Y8717280D01*
X50962560Y3002280D01*
X50971245Y2956121D01*
X50998525Y2913727D01*
X51040150Y2885286D01*
X51089560Y2875280D01*
X59090560Y2875280D01*
X59136719Y2883965D01*
X59179113Y2911245D01*
X59207554Y2952870D01*
X59217560Y3002280D01*
X59217560Y3787194D01*
X59234251Y3780280D01*
X60074810Y3780280D01*
X60233560Y3939030D01*
X60233560Y5288280D01*
X60487560Y5288280D01*
X60487560Y3939030D01*
X60646310Y3780280D01*
X61486869Y3780280D01*
X61720258Y3876953D01*
X61898887Y4055581D01*
X61995560Y4288970D01*
X61995560Y5129530D01*
X61836810Y5288280D01*
X60487560Y5288280D01*
X60233560Y5288280D01*
X60213560Y5288280D01*
X60213560Y5542280D01*
X60233560Y5542280D01*
X60233560Y6891530D01*
X60487560Y6891530D01*
X60487560Y5542280D01*
X61836810Y5542280D01*
X61995560Y5701030D01*
X61995560Y6541590D01*
X61898887Y6774979D01*
X61720258Y6953607D01*
X61486869Y7050280D01*
X60646310Y7050280D01*
X60487560Y6891530D01*
X60233560Y6891530D01*
X60074810Y7050280D01*
X59234251Y7050280D01*
X59217560Y7043366D01*
X59217560Y8717280D01*
X62900560Y8717280D01*
X62946719Y8725965D01*
X62989113Y8753245D01*
X63017554Y8794870D01*
X63027560Y8844280D01*
X63027560Y16305039D01*
X63090760Y16622767D01*
X63090760Y16678993D01*
X63027560Y16996721D01*
X63027560Y22941280D01*
X63018875Y22987439D01*
X62991595Y23029833D01*
X62949970Y23058274D01*
X62900560Y23068280D01*
X62424579Y23068280D01*
X62808149Y23415746D01*
X63047674Y23921839D01*
X62926389Y24143880D01*
X61782760Y24143880D01*
X61782760Y24123880D01*
X61528760Y24123880D01*
X61528760Y24143880D01*
X61508760Y24143880D01*
X61508760Y24397880D01*
X61528760Y24397880D01*
X61528760Y25540795D01*
X61782760Y25540795D01*
X61782760Y24397880D01*
X62926389Y24397880D01*
X63047674Y24619921D01*
X62808149Y25126014D01*
X62393183Y25501921D01*
X62004799Y25662784D01*
X61782760Y25540795D01*
X61528760Y25540795D01*
X61306721Y25662784D01*
X60918337Y25501921D01*
X60503371Y25126014D01*
X60400746Y24909177D01*
X60130458Y25313691D01*
X59664911Y25624760D01*
X59115760Y25733993D01*
X58566609Y25624760D01*
X58101062Y25313691D01*
X57845760Y24931605D01*
X57590458Y25313691D01*
X57124911Y25624760D01*
X56575760Y25733993D01*
X56026609Y25624760D01*
X55561062Y25313691D01*
X55305760Y24931605D01*
X55170760Y25133647D01*
X55170760Y29750080D01*
X55084363Y30184426D01*
X54838326Y30552646D01*
X54563316Y30827656D01*
X54565560Y30838935D01*
X54565560Y30903625D01*
X54439885Y31535435D01*
X54081993Y32071058D01*
X53546370Y32428950D01*
X52914560Y32554625D01*
X52282750Y32428950D01*
X51942768Y32201781D01*
X51854650Y32338721D01*
X51642450Y32483711D01*
X51390560Y32534720D01*
X49358560Y32534720D01*
X49123243Y32490442D01*
X48907119Y32351370D01*
X48762129Y32139170D01*
X48711120Y31887280D01*
X48711120Y29855280D01*
X48755398Y29619963D01*
X48894470Y29403839D01*
X49106670Y29258849D01*
X49358560Y29207840D01*
X51390560Y29207840D01*
X51625877Y29252118D01*
X51842001Y29391190D01*
X51943758Y29540117D01*
X52282750Y29313610D01*
X52900760Y29190680D01*
X52900760Y25133647D01*
X52709993Y24848144D01*
X52600760Y24298993D01*
X52600760Y24242767D01*
X52709993Y23693616D01*
X53021062Y23228069D01*
X53260203Y23068280D01*
X50924579Y23068280D01*
X51308149Y23415746D01*
X51547674Y23921839D01*
X51426389Y24143880D01*
X50282760Y24143880D01*
X50282760Y24123880D01*
X50028760Y24123880D01*
X50028760Y24143880D01*
X50008760Y24143880D01*
X50008760Y24397880D01*
X50028760Y24397880D01*
X50028760Y25540795D01*
X50282760Y25540795D01*
X50282760Y24397880D01*
X51426389Y24397880D01*
X51547674Y24619921D01*
X51308149Y25126014D01*
X50893183Y25501921D01*
X50504799Y25662784D01*
X50282760Y25540795D01*
X50028760Y25540795D01*
X49806721Y25662784D01*
X49418337Y25501921D01*
X49003371Y25126014D01*
X48900746Y24909177D01*
X48630458Y25313691D01*
X48164911Y25624760D01*
X47615760Y25733993D01*
X47066609Y25624760D01*
X46601062Y25313691D01*
X46345760Y24931605D01*
X46090458Y25313691D01*
X45624911Y25624760D01*
X45075760Y25733993D01*
X44526609Y25624760D01*
X44061062Y25313691D01*
X43805760Y24931605D01*
X43550458Y25313691D01*
X43084911Y25624760D01*
X42535760Y25733993D01*
X41986609Y25624760D01*
X41521062Y25313691D01*
X41209993Y24848144D01*
X41100760Y24298993D01*
X41100760Y24242767D01*
X41209993Y23693616D01*
X41521062Y23228069D01*
X41760203Y23068280D01*
X39424579Y23068280D01*
X39808149Y23415746D01*
X40047674Y23921839D01*
X39926389Y24143880D01*
X38782760Y24143880D01*
X38782760Y24123880D01*
X38528760Y24123880D01*
X38528760Y24143880D01*
X38508760Y24143880D01*
X38508760Y24397880D01*
X38528760Y24397880D01*
X38528760Y25540795D01*
X38782760Y25540795D01*
X38782760Y24397880D01*
X39926389Y24397880D01*
X40047674Y24619921D01*
X39808149Y25126014D01*
X39393183Y25501921D01*
X39004799Y25662784D01*
X38782760Y25540795D01*
X38528760Y25540795D01*
X38306721Y25662784D01*
X37918337Y25501921D01*
X37503371Y25126014D01*
X37400746Y24909177D01*
X37130458Y25313691D01*
X36664911Y25624760D01*
X36115760Y25733993D01*
X35566609Y25624760D01*
X35101062Y25313691D01*
X34845760Y24931605D01*
X34590458Y25313691D01*
X34124911Y25624760D01*
X33575760Y25733993D01*
X33026609Y25624760D01*
X32561062Y25313691D01*
X32305760Y24931605D01*
X32050458Y25313691D01*
X31584911Y25624760D01*
X31035760Y25733993D01*
X30486609Y25624760D01*
X30021062Y25313691D01*
X29709993Y24848144D01*
X29600760Y24298993D01*
X29600760Y24242767D01*
X29709993Y23693616D01*
X30021062Y23228069D01*
X30260203Y23068280D01*
X27924579Y23068280D01*
X28308149Y23415746D01*
X28547674Y23921839D01*
X28426389Y24143880D01*
X27282760Y24143880D01*
X27282760Y24123880D01*
X27028760Y24123880D01*
X27028760Y24143880D01*
X27008760Y24143880D01*
X27008760Y24397880D01*
X27028760Y24397880D01*
X27028760Y25540795D01*
X27282760Y25540795D01*
X27282760Y24397880D01*
X28426389Y24397880D01*
X28547674Y24619921D01*
X28308149Y25126014D01*
X27893183Y25501921D01*
X27504799Y25662784D01*
X27282760Y25540795D01*
X27028760Y25540795D01*
X26806721Y25662784D01*
X26418337Y25501921D01*
X26003371Y25126014D01*
X25900746Y24909177D01*
X25630458Y25313691D01*
X25164911Y25624760D01*
X24615760Y25733993D01*
X24066609Y25624760D01*
X23601062Y25313691D01*
X23345760Y24931605D01*
X23090458Y25313691D01*
X22624911Y25624760D01*
X22075760Y25733993D01*
X21526609Y25624760D01*
X21061062Y25313691D01*
X20805760Y24931605D01*
X20550458Y25313691D01*
X20084911Y25624760D01*
X19535760Y25733993D01*
X18986609Y25624760D01*
X18521062Y25313691D01*
X18209993Y24848144D01*
X18100760Y24298993D01*
X18100760Y24242767D01*
X18209993Y23693616D01*
X18521062Y23228069D01*
X18760203Y23068280D01*
X17307560Y23068280D01*
X17261401Y23059595D01*
X17219007Y23032315D01*
X17190566Y22990690D01*
X17180560Y22941280D01*
X784560Y22941280D01*
X784560Y27691158D01*
X1543371Y26931021D01*
X2952385Y26345947D01*
X4478042Y26344616D01*
X5888075Y26927230D01*
X6967819Y28005091D01*
X7552893Y29414105D01*
X7553573Y30193988D01*
X31794274Y30193988D01*
X32040577Y29669522D01*
X32468836Y29279235D01*
X32878870Y29109404D01*
X33108760Y29230725D01*
X33108760Y30423880D01*
X31914941Y30423880D01*
X31794274Y30193988D01*
X7553573Y30193988D01*
X7554196Y30907772D01*
X31794274Y30907772D01*
X31914941Y30677880D01*
X33108760Y30677880D01*
X33108760Y31871035D01*
X33362760Y31871035D01*
X33362760Y30677880D01*
X33382760Y30677880D01*
X33382760Y30423880D01*
X33362760Y30423880D01*
X33362760Y29230725D01*
X33592650Y29109404D01*
X34002684Y29279235D01*
X34430943Y29669522D01*
X34498058Y29812433D01*
X34725706Y29471733D01*
X35207475Y29149826D01*
X35775760Y29036787D01*
X36344045Y29149826D01*
X36825814Y29471733D01*
X37045760Y29800906D01*
X37265706Y29471733D01*
X37747475Y29149826D01*
X38315760Y29036787D01*
X38884045Y29149826D01*
X39365814Y29471733D01*
X39585760Y29800906D01*
X39805706Y29471733D01*
X40287475Y29149826D01*
X40855760Y29036787D01*
X41424045Y29149826D01*
X41905814Y29471733D01*
X42125760Y29800906D01*
X42345706Y29471733D01*
X42827475Y29149826D01*
X43395760Y29036787D01*
X43964045Y29149826D01*
X44445814Y29471733D01*
X44473610Y29513332D01*
X44482598Y29465563D01*
X44621670Y29249439D01*
X44833870Y29104449D01*
X45085760Y29053440D01*
X46785760Y29053440D01*
X47021077Y29097718D01*
X47237201Y29236790D01*
X47382191Y29448990D01*
X47433200Y29700880D01*
X47433200Y31400880D01*
X47388922Y31636197D01*
X47249850Y31852321D01*
X47037650Y31997311D01*
X46785760Y32048320D01*
X45085760Y32048320D01*
X44850443Y32004042D01*
X44634319Y31864970D01*
X44489329Y31652770D01*
X44475674Y31585339D01*
X44445814Y31630027D01*
X43964045Y31951934D01*
X43395760Y32064973D01*
X42827475Y31951934D01*
X42345706Y31630027D01*
X42125760Y31300854D01*
X41905814Y31630027D01*
X41424045Y31951934D01*
X40855760Y32064973D01*
X40287475Y31951934D01*
X39805706Y31630027D01*
X39585760Y31300854D01*
X39365814Y31630027D01*
X38884045Y31951934D01*
X38315760Y32064973D01*
X37747475Y31951934D01*
X37265706Y31630027D01*
X37045760Y31300854D01*
X36825814Y31630027D01*
X36344045Y31951934D01*
X35775760Y32064973D01*
X35207475Y31951934D01*
X34725706Y31630027D01*
X34498058Y31289327D01*
X34430943Y31432238D01*
X34002684Y31822525D01*
X33592650Y31992356D01*
X33362760Y31871035D01*
X33108760Y31871035D01*
X32878870Y31992356D01*
X32468836Y31822525D01*
X32040577Y31432238D01*
X31794274Y30907772D01*
X7554196Y30907772D01*
X7554224Y30939762D01*
X6971610Y32349795D01*
X6161540Y33161280D01*
X58553298Y33161280D01*
X57873301Y32482469D01*
M02*
