M48
;DRILL file {KiCad 4.0.6+dfsg1-1} date Wed Nov 29 19:27:29 2017
;FORMAT={-:-/ absolute / metric / decimal}
FMAT,2
METRIC,TZ
T1C0.400
T2C0.800
T3C1.000
T4C1.016
T5C1.200
T6C3.100
%
G90
G05
M71
T1
X176.939Y-122.38
X182.889Y-93.28
T2
X183.Y-100.88
X183.Y-108.5
X185.54Y-100.88
X185.54Y-108.5
X188.08Y-100.88
X188.08Y-108.5
X190.62Y-100.88
X190.62Y-108.5
X194.5Y-100.88
X194.5Y-108.5
X197.04Y-100.88
X197.04Y-108.5
X199.58Y-100.88
X199.58Y-108.5
X202.12Y-100.88
X202.12Y-108.5
X206.Y-100.88
X206.Y-108.5
X208.54Y-100.88
X208.54Y-108.5
X211.08Y-100.88
X211.08Y-108.5
X213.62Y-100.88
X213.62Y-108.5
X217.5Y-100.88
X217.5Y-108.5
X220.04Y-100.88
X220.04Y-108.5
X222.58Y-100.88
X222.58Y-108.5
X225.12Y-100.88
X225.12Y-108.5
T3
X196.7Y-94.6
X199.24Y-94.6
X201.78Y-94.6
X204.32Y-94.6
X206.86Y-94.6
X209.4Y-94.6
T4
X213.839Y-94.28
X216.379Y-94.28
T5
X167.839Y-113.08
X167.839Y-116.58
X184.241Y-119.736
X186.741Y-119.736
X189.281Y-119.736
X195.925Y-119.736
X198.425Y-119.736
X200.965Y-119.736
X207.355Y-119.736
X209.855Y-119.736
X212.395Y-119.736
X218.785Y-119.736
X221.285Y-119.736
X223.825Y-119.736
T6
X166.939Y-94.98
X176.539Y-111.28
X224.639Y-94.78
T0
M30
