G04 #@! TF.FileFunction,Legend,Top*
%FSLAX46Y46*%
G04 Gerber Fmt 4.6, Leading zero omitted, Abs format (unit mm)*
G04 Created by KiCad (PCBNEW 4.0.6+dfsg1-1) date Wed Nov 29 19:26:48 2017*
%MOMM*%
%LPD*%
G01*
G04 APERTURE LIST*
%ADD10C,0.100000*%
%ADD11C,0.200000*%
%ADD12C,0.150000*%
%ADD13C,0.175000*%
%ADD14C,0.300000*%
%ADD15C,0.125000*%
%ADD16C,0.120000*%
G04 APERTURE END LIST*
D10*
D11*
X210022800Y-95227600D02*
X210022800Y-95127600D01*
X218922800Y-95227600D02*
X210022800Y-95227600D01*
X218922800Y-95027600D02*
X218922800Y-95227600D01*
X218922800Y-91527600D02*
X218922800Y-95027600D01*
X210022800Y-91527600D02*
X218922800Y-91527600D01*
D12*
X216008514Y-93359743D02*
X216208514Y-93359743D01*
X216294228Y-93674029D02*
X216008514Y-93674029D01*
X216008514Y-93074029D01*
X216294228Y-93074029D01*
X216551371Y-93674029D02*
X216551371Y-93074029D01*
X216894228Y-93674029D01*
X216894228Y-93074029D01*
X217922799Y-93074029D02*
X217637085Y-93074029D01*
X217608514Y-93359743D01*
X217637085Y-93331171D01*
X217694228Y-93302600D01*
X217837085Y-93302600D01*
X217894228Y-93331171D01*
X217922799Y-93359743D01*
X217951371Y-93416886D01*
X217951371Y-93559743D01*
X217922799Y-93616886D01*
X217894228Y-93645457D01*
X217837085Y-93674029D01*
X217694228Y-93674029D01*
X217637085Y-93645457D01*
X217608514Y-93616886D01*
X218122800Y-93074029D02*
X218322800Y-93674029D01*
X218522800Y-93074029D01*
D11*
X210022800Y-91727600D02*
X210022800Y-91527600D01*
X210022800Y-95127600D02*
X210022800Y-91727600D01*
D13*
X218262989Y-96825600D02*
X217996322Y-96825600D01*
X217996322Y-97192267D02*
X217996322Y-96492267D01*
X218377275Y-96492267D01*
X218682036Y-97192267D02*
X218682036Y-96725600D01*
X218682036Y-96858933D02*
X218720131Y-96792267D01*
X218758227Y-96758933D01*
X218834417Y-96725600D01*
X218910608Y-96725600D01*
X219291560Y-97192267D02*
X219215369Y-97158933D01*
X219177274Y-97125600D01*
X219139179Y-97058933D01*
X219139179Y-96858933D01*
X219177274Y-96792267D01*
X219215369Y-96758933D01*
X219291560Y-96725600D01*
X219405846Y-96725600D01*
X219482036Y-96758933D01*
X219520131Y-96792267D01*
X219558227Y-96858933D01*
X219558227Y-97058933D01*
X219520131Y-97125600D01*
X219482036Y-97158933D01*
X219405846Y-97192267D01*
X219291560Y-97192267D01*
X219901084Y-96725600D02*
X219901084Y-97192267D01*
X219901084Y-96792267D02*
X219939179Y-96758933D01*
X220015370Y-96725600D01*
X220129656Y-96725600D01*
X220205846Y-96758933D01*
X220243941Y-96825600D01*
X220243941Y-97192267D01*
X220510608Y-96725600D02*
X220815370Y-96725600D01*
X220624894Y-96492267D02*
X220624894Y-97092267D01*
X220662989Y-97158933D01*
X220739180Y-97192267D01*
X220815370Y-97192267D01*
X222148704Y-97192267D02*
X221882037Y-96858933D01*
X221691561Y-97192267D02*
X221691561Y-96492267D01*
X221996323Y-96492267D01*
X222072514Y-96525600D01*
X222110609Y-96558933D01*
X222148704Y-96625600D01*
X222148704Y-96725600D01*
X222110609Y-96792267D01*
X222072514Y-96825600D01*
X221996323Y-96858933D01*
X221691561Y-96858933D01*
X222491561Y-97192267D02*
X222491561Y-96725600D01*
X222491561Y-96492267D02*
X222453466Y-96525600D01*
X222491561Y-96558933D01*
X222529656Y-96525600D01*
X222491561Y-96492267D01*
X222491561Y-96558933D01*
X223215370Y-96725600D02*
X223215370Y-97292267D01*
X223177275Y-97358933D01*
X223139180Y-97392267D01*
X223062989Y-97425600D01*
X222948704Y-97425600D01*
X222872513Y-97392267D01*
X223215370Y-97158933D02*
X223139180Y-97192267D01*
X222986799Y-97192267D01*
X222910608Y-97158933D01*
X222872513Y-97125600D01*
X222834418Y-97058933D01*
X222834418Y-96858933D01*
X222872513Y-96792267D01*
X222910608Y-96758933D01*
X222986799Y-96725600D01*
X223139180Y-96725600D01*
X223215370Y-96758933D01*
X223596323Y-97192267D02*
X223596323Y-96492267D01*
X223939180Y-97192267D02*
X223939180Y-96825600D01*
X223901085Y-96758933D01*
X223824895Y-96725600D01*
X223710609Y-96725600D01*
X223634418Y-96758933D01*
X223596323Y-96792267D01*
X224205847Y-96725600D02*
X224510609Y-96725600D01*
X224320133Y-96492267D02*
X224320133Y-97092267D01*
X224358228Y-97158933D01*
X224434419Y-97192267D01*
X224510609Y-97192267D01*
X206579085Y-96825600D02*
X206312418Y-96825600D01*
X206312418Y-97192267D02*
X206312418Y-96492267D01*
X206693371Y-96492267D01*
X206998132Y-97192267D02*
X206998132Y-96725600D01*
X206998132Y-96858933D02*
X207036227Y-96792267D01*
X207074323Y-96758933D01*
X207150513Y-96725600D01*
X207226704Y-96725600D01*
X207607656Y-97192267D02*
X207531465Y-97158933D01*
X207493370Y-97125600D01*
X207455275Y-97058933D01*
X207455275Y-96858933D01*
X207493370Y-96792267D01*
X207531465Y-96758933D01*
X207607656Y-96725600D01*
X207721942Y-96725600D01*
X207798132Y-96758933D01*
X207836227Y-96792267D01*
X207874323Y-96858933D01*
X207874323Y-97058933D01*
X207836227Y-97125600D01*
X207798132Y-97158933D01*
X207721942Y-97192267D01*
X207607656Y-97192267D01*
X208217180Y-96725600D02*
X208217180Y-97192267D01*
X208217180Y-96792267D02*
X208255275Y-96758933D01*
X208331466Y-96725600D01*
X208445752Y-96725600D01*
X208521942Y-96758933D01*
X208560037Y-96825600D01*
X208560037Y-97192267D01*
X208826704Y-96725600D02*
X209131466Y-96725600D01*
X208940990Y-96492267D02*
X208940990Y-97092267D01*
X208979085Y-97158933D01*
X209055276Y-97192267D01*
X209131466Y-97192267D01*
X210464800Y-97125600D02*
X210426705Y-97158933D01*
X210312419Y-97192267D01*
X210236229Y-97192267D01*
X210121943Y-97158933D01*
X210045752Y-97092267D01*
X210007657Y-97025600D01*
X209969562Y-96892267D01*
X209969562Y-96792267D01*
X210007657Y-96658933D01*
X210045752Y-96592267D01*
X210121943Y-96525600D01*
X210236229Y-96492267D01*
X210312419Y-96492267D01*
X210426705Y-96525600D01*
X210464800Y-96558933D01*
X211112419Y-97158933D02*
X211036229Y-97192267D01*
X210883848Y-97192267D01*
X210807657Y-97158933D01*
X210769562Y-97092267D01*
X210769562Y-96825600D01*
X210807657Y-96758933D01*
X210883848Y-96725600D01*
X211036229Y-96725600D01*
X211112419Y-96758933D01*
X211150514Y-96825600D01*
X211150514Y-96892267D01*
X210769562Y-96958933D01*
X211493371Y-96725600D02*
X211493371Y-97192267D01*
X211493371Y-96792267D02*
X211531466Y-96758933D01*
X211607657Y-96725600D01*
X211721943Y-96725600D01*
X211798133Y-96758933D01*
X211836228Y-96825600D01*
X211836228Y-97192267D01*
X212102895Y-96725600D02*
X212407657Y-96725600D01*
X212217181Y-96492267D02*
X212217181Y-97092267D01*
X212255276Y-97158933D01*
X212331467Y-97192267D01*
X212407657Y-97192267D01*
X212979086Y-97158933D02*
X212902896Y-97192267D01*
X212750515Y-97192267D01*
X212674324Y-97158933D01*
X212636229Y-97092267D01*
X212636229Y-96825600D01*
X212674324Y-96758933D01*
X212750515Y-96725600D01*
X212902896Y-96725600D01*
X212979086Y-96758933D01*
X213017181Y-96825600D01*
X213017181Y-96892267D01*
X212636229Y-96958933D01*
X213360038Y-97192267D02*
X213360038Y-96725600D01*
X213360038Y-96858933D02*
X213398133Y-96792267D01*
X213436229Y-96758933D01*
X213512419Y-96725600D01*
X213588610Y-96725600D01*
X195987085Y-96825600D02*
X195720418Y-96825600D01*
X195720418Y-97192267D02*
X195720418Y-96492267D01*
X196101371Y-96492267D01*
X196406132Y-97192267D02*
X196406132Y-96725600D01*
X196406132Y-96858933D02*
X196444227Y-96792267D01*
X196482323Y-96758933D01*
X196558513Y-96725600D01*
X196634704Y-96725600D01*
X197015656Y-97192267D02*
X196939465Y-97158933D01*
X196901370Y-97125600D01*
X196863275Y-97058933D01*
X196863275Y-96858933D01*
X196901370Y-96792267D01*
X196939465Y-96758933D01*
X197015656Y-96725600D01*
X197129942Y-96725600D01*
X197206132Y-96758933D01*
X197244227Y-96792267D01*
X197282323Y-96858933D01*
X197282323Y-97058933D01*
X197244227Y-97125600D01*
X197206132Y-97158933D01*
X197129942Y-97192267D01*
X197015656Y-97192267D01*
X197625180Y-96725600D02*
X197625180Y-97192267D01*
X197625180Y-96792267D02*
X197663275Y-96758933D01*
X197739466Y-96725600D01*
X197853752Y-96725600D01*
X197929942Y-96758933D01*
X197968037Y-96825600D01*
X197968037Y-97192267D01*
X198234704Y-96725600D02*
X198539466Y-96725600D01*
X198348990Y-96492267D02*
X198348990Y-97092267D01*
X198387085Y-97158933D01*
X198463276Y-97192267D01*
X198539466Y-97192267D01*
X199796610Y-97192267D02*
X199415657Y-97192267D01*
X199415657Y-96492267D01*
X200368038Y-97158933D02*
X200291848Y-97192267D01*
X200139467Y-97192267D01*
X200063276Y-97158933D01*
X200025181Y-97092267D01*
X200025181Y-96825600D01*
X200063276Y-96758933D01*
X200139467Y-96725600D01*
X200291848Y-96725600D01*
X200368038Y-96758933D01*
X200406133Y-96825600D01*
X200406133Y-96892267D01*
X200025181Y-96958933D01*
X200634704Y-96725600D02*
X200939466Y-96725600D01*
X200748990Y-97192267D02*
X200748990Y-96592267D01*
X200787085Y-96525600D01*
X200863276Y-96492267D01*
X200939466Y-96492267D01*
X201091847Y-96725600D02*
X201396609Y-96725600D01*
X201206133Y-96492267D02*
X201206133Y-97092267D01*
X201244228Y-97158933D01*
X201320419Y-97192267D01*
X201396609Y-97192267D01*
X183947561Y-96825600D02*
X184061847Y-96858933D01*
X184099942Y-96892267D01*
X184138037Y-96958933D01*
X184138037Y-97058933D01*
X184099942Y-97125600D01*
X184061847Y-97158933D01*
X183985656Y-97192267D01*
X183680894Y-97192267D01*
X183680894Y-96492267D01*
X183947561Y-96492267D01*
X184023751Y-96525600D01*
X184061847Y-96558933D01*
X184099942Y-96625600D01*
X184099942Y-96692267D01*
X184061847Y-96758933D01*
X184023751Y-96792267D01*
X183947561Y-96825600D01*
X183680894Y-96825600D01*
X184823751Y-97192267D02*
X184823751Y-96825600D01*
X184785656Y-96758933D01*
X184709466Y-96725600D01*
X184557085Y-96725600D01*
X184480894Y-96758933D01*
X184823751Y-97158933D02*
X184747561Y-97192267D01*
X184557085Y-97192267D01*
X184480894Y-97158933D01*
X184442799Y-97092267D01*
X184442799Y-97025600D01*
X184480894Y-96958933D01*
X184557085Y-96925600D01*
X184747561Y-96925600D01*
X184823751Y-96892267D01*
X185547561Y-97158933D02*
X185471371Y-97192267D01*
X185318990Y-97192267D01*
X185242799Y-97158933D01*
X185204704Y-97125600D01*
X185166609Y-97058933D01*
X185166609Y-96858933D01*
X185204704Y-96792267D01*
X185242799Y-96758933D01*
X185318990Y-96725600D01*
X185471371Y-96725600D01*
X185547561Y-96758933D01*
X185890418Y-97192267D02*
X185890418Y-96492267D01*
X185966609Y-96925600D02*
X186195180Y-97192267D01*
X186195180Y-96725600D02*
X185890418Y-96992267D01*
X187604704Y-97192267D02*
X187338037Y-96858933D01*
X187147561Y-97192267D02*
X187147561Y-96492267D01*
X187452323Y-96492267D01*
X187528514Y-96525600D01*
X187566609Y-96558933D01*
X187604704Y-96625600D01*
X187604704Y-96725600D01*
X187566609Y-96792267D01*
X187528514Y-96825600D01*
X187452323Y-96858933D01*
X187147561Y-96858933D01*
X187947561Y-97192267D02*
X187947561Y-96725600D01*
X187947561Y-96492267D02*
X187909466Y-96525600D01*
X187947561Y-96558933D01*
X187985656Y-96525600D01*
X187947561Y-96492267D01*
X187947561Y-96558933D01*
X188671370Y-96725600D02*
X188671370Y-97292267D01*
X188633275Y-97358933D01*
X188595180Y-97392267D01*
X188518989Y-97425600D01*
X188404704Y-97425600D01*
X188328513Y-97392267D01*
X188671370Y-97158933D02*
X188595180Y-97192267D01*
X188442799Y-97192267D01*
X188366608Y-97158933D01*
X188328513Y-97125600D01*
X188290418Y-97058933D01*
X188290418Y-96858933D01*
X188328513Y-96792267D01*
X188366608Y-96758933D01*
X188442799Y-96725600D01*
X188595180Y-96725600D01*
X188671370Y-96758933D01*
X189052323Y-97192267D02*
X189052323Y-96492267D01*
X189395180Y-97192267D02*
X189395180Y-96825600D01*
X189357085Y-96758933D01*
X189280895Y-96725600D01*
X189166609Y-96725600D01*
X189090418Y-96758933D01*
X189052323Y-96792267D01*
X189661847Y-96725600D02*
X189966609Y-96725600D01*
X189776133Y-96492267D02*
X189776133Y-97092267D01*
X189814228Y-97158933D01*
X189890419Y-97192267D01*
X189966609Y-97192267D01*
X172263657Y-96825600D02*
X172377943Y-96858933D01*
X172416038Y-96892267D01*
X172454133Y-96958933D01*
X172454133Y-97058933D01*
X172416038Y-97125600D01*
X172377943Y-97158933D01*
X172301752Y-97192267D01*
X171996990Y-97192267D01*
X171996990Y-96492267D01*
X172263657Y-96492267D01*
X172339847Y-96525600D01*
X172377943Y-96558933D01*
X172416038Y-96625600D01*
X172416038Y-96692267D01*
X172377943Y-96758933D01*
X172339847Y-96792267D01*
X172263657Y-96825600D01*
X171996990Y-96825600D01*
X173139847Y-97192267D02*
X173139847Y-96825600D01*
X173101752Y-96758933D01*
X173025562Y-96725600D01*
X172873181Y-96725600D01*
X172796990Y-96758933D01*
X173139847Y-97158933D02*
X173063657Y-97192267D01*
X172873181Y-97192267D01*
X172796990Y-97158933D01*
X172758895Y-97092267D01*
X172758895Y-97025600D01*
X172796990Y-96958933D01*
X172873181Y-96925600D01*
X173063657Y-96925600D01*
X173139847Y-96892267D01*
X173863657Y-97158933D02*
X173787467Y-97192267D01*
X173635086Y-97192267D01*
X173558895Y-97158933D01*
X173520800Y-97125600D01*
X173482705Y-97058933D01*
X173482705Y-96858933D01*
X173520800Y-96792267D01*
X173558895Y-96758933D01*
X173635086Y-96725600D01*
X173787467Y-96725600D01*
X173863657Y-96758933D01*
X174206514Y-97192267D02*
X174206514Y-96492267D01*
X174282705Y-96925600D02*
X174511276Y-97192267D01*
X174511276Y-96725600D02*
X174206514Y-96992267D01*
X175920800Y-97125600D02*
X175882705Y-97158933D01*
X175768419Y-97192267D01*
X175692229Y-97192267D01*
X175577943Y-97158933D01*
X175501752Y-97092267D01*
X175463657Y-97025600D01*
X175425562Y-96892267D01*
X175425562Y-96792267D01*
X175463657Y-96658933D01*
X175501752Y-96592267D01*
X175577943Y-96525600D01*
X175692229Y-96492267D01*
X175768419Y-96492267D01*
X175882705Y-96525600D01*
X175920800Y-96558933D01*
X176568419Y-97158933D02*
X176492229Y-97192267D01*
X176339848Y-97192267D01*
X176263657Y-97158933D01*
X176225562Y-97092267D01*
X176225562Y-96825600D01*
X176263657Y-96758933D01*
X176339848Y-96725600D01*
X176492229Y-96725600D01*
X176568419Y-96758933D01*
X176606514Y-96825600D01*
X176606514Y-96892267D01*
X176225562Y-96958933D01*
X176949371Y-96725600D02*
X176949371Y-97192267D01*
X176949371Y-96792267D02*
X176987466Y-96758933D01*
X177063657Y-96725600D01*
X177177943Y-96725600D01*
X177254133Y-96758933D01*
X177292228Y-96825600D01*
X177292228Y-97192267D01*
X177558895Y-96725600D02*
X177863657Y-96725600D01*
X177673181Y-96492267D02*
X177673181Y-97092267D01*
X177711276Y-97158933D01*
X177787467Y-97192267D01*
X177863657Y-97192267D01*
X178435086Y-97158933D02*
X178358896Y-97192267D01*
X178206515Y-97192267D01*
X178130324Y-97158933D01*
X178092229Y-97092267D01*
X178092229Y-96825600D01*
X178130324Y-96758933D01*
X178206515Y-96725600D01*
X178358896Y-96725600D01*
X178435086Y-96758933D01*
X178473181Y-96825600D01*
X178473181Y-96892267D01*
X178092229Y-96958933D01*
X178816038Y-97192267D02*
X178816038Y-96725600D01*
X178816038Y-96858933D02*
X178854133Y-96792267D01*
X178892229Y-96758933D01*
X178968419Y-96725600D01*
X179044610Y-96725600D01*
X161671657Y-96825600D02*
X161785943Y-96858933D01*
X161824038Y-96892267D01*
X161862133Y-96958933D01*
X161862133Y-97058933D01*
X161824038Y-97125600D01*
X161785943Y-97158933D01*
X161709752Y-97192267D01*
X161404990Y-97192267D01*
X161404990Y-96492267D01*
X161671657Y-96492267D01*
X161747847Y-96525600D01*
X161785943Y-96558933D01*
X161824038Y-96625600D01*
X161824038Y-96692267D01*
X161785943Y-96758933D01*
X161747847Y-96792267D01*
X161671657Y-96825600D01*
X161404990Y-96825600D01*
X162547847Y-97192267D02*
X162547847Y-96825600D01*
X162509752Y-96758933D01*
X162433562Y-96725600D01*
X162281181Y-96725600D01*
X162204990Y-96758933D01*
X162547847Y-97158933D02*
X162471657Y-97192267D01*
X162281181Y-97192267D01*
X162204990Y-97158933D01*
X162166895Y-97092267D01*
X162166895Y-97025600D01*
X162204990Y-96958933D01*
X162281181Y-96925600D01*
X162471657Y-96925600D01*
X162547847Y-96892267D01*
X163271657Y-97158933D02*
X163195467Y-97192267D01*
X163043086Y-97192267D01*
X162966895Y-97158933D01*
X162928800Y-97125600D01*
X162890705Y-97058933D01*
X162890705Y-96858933D01*
X162928800Y-96792267D01*
X162966895Y-96758933D01*
X163043086Y-96725600D01*
X163195467Y-96725600D01*
X163271657Y-96758933D01*
X163614514Y-97192267D02*
X163614514Y-96492267D01*
X163690705Y-96925600D02*
X163919276Y-97192267D01*
X163919276Y-96725600D02*
X163614514Y-96992267D01*
X165252610Y-97192267D02*
X164871657Y-97192267D01*
X164871657Y-96492267D01*
X165824038Y-97158933D02*
X165747848Y-97192267D01*
X165595467Y-97192267D01*
X165519276Y-97158933D01*
X165481181Y-97092267D01*
X165481181Y-96825600D01*
X165519276Y-96758933D01*
X165595467Y-96725600D01*
X165747848Y-96725600D01*
X165824038Y-96758933D01*
X165862133Y-96825600D01*
X165862133Y-96892267D01*
X165481181Y-96958933D01*
X166090704Y-96725600D02*
X166395466Y-96725600D01*
X166204990Y-97192267D02*
X166204990Y-96592267D01*
X166243085Y-96525600D01*
X166319276Y-96492267D01*
X166395466Y-96492267D01*
X166547847Y-96725600D02*
X166852609Y-96725600D01*
X166662133Y-96492267D02*
X166662133Y-97092267D01*
X166700228Y-97158933D01*
X166776419Y-97192267D01*
X166852609Y-97192267D01*
D14*
X165595372Y-121747743D02*
X166738229Y-121747743D01*
X160515372Y-121747743D02*
X161658229Y-121747743D01*
X161086800Y-122319171D02*
X161086800Y-121176314D01*
X162483943Y-122501743D02*
X162698229Y-122573171D01*
X163055372Y-122573171D01*
X163198229Y-122501743D01*
X163269658Y-122430314D01*
X163341086Y-122287457D01*
X163341086Y-122144600D01*
X163269658Y-122001743D01*
X163198229Y-121930314D01*
X163055372Y-121858886D01*
X162769658Y-121787457D01*
X162626800Y-121716029D01*
X162555372Y-121644600D01*
X162483943Y-121501743D01*
X162483943Y-121358886D01*
X162555372Y-121216029D01*
X162626800Y-121144600D01*
X162769658Y-121073171D01*
X163126800Y-121073171D01*
X163341086Y-121144600D01*
X164626800Y-121073171D02*
X164341086Y-121073171D01*
X164198229Y-121144600D01*
X164126800Y-121216029D01*
X163983943Y-121430314D01*
X163912514Y-121716029D01*
X163912514Y-122287457D01*
X163983943Y-122430314D01*
X164055371Y-122501743D01*
X164198229Y-122573171D01*
X164483943Y-122573171D01*
X164626800Y-122501743D01*
X164698229Y-122430314D01*
X164769657Y-122287457D01*
X164769657Y-121930314D01*
X164698229Y-121787457D01*
X164626800Y-121716029D01*
X164483943Y-121644600D01*
X164198229Y-121644600D01*
X164055371Y-121716029D01*
X163983943Y-121787457D01*
X163912514Y-121930314D01*
X177533372Y-121747743D02*
X178676229Y-121747743D01*
X171945372Y-121747743D02*
X173088229Y-121747743D01*
X172516800Y-122319171D02*
X172516800Y-121176314D01*
X174167943Y-122501743D02*
X174382229Y-122573171D01*
X174739372Y-122573171D01*
X174882229Y-122501743D01*
X174953658Y-122430314D01*
X175025086Y-122287457D01*
X175025086Y-122144600D01*
X174953658Y-122001743D01*
X174882229Y-121930314D01*
X174739372Y-121858886D01*
X174453658Y-121787457D01*
X174310800Y-121716029D01*
X174239372Y-121644600D01*
X174167943Y-121501743D01*
X174167943Y-121358886D01*
X174239372Y-121216029D01*
X174310800Y-121144600D01*
X174453658Y-121073171D01*
X174810800Y-121073171D01*
X175025086Y-121144600D01*
X176382229Y-121073171D02*
X175667943Y-121073171D01*
X175596514Y-121787457D01*
X175667943Y-121716029D01*
X175810800Y-121644600D01*
X176167943Y-121644600D01*
X176310800Y-121716029D01*
X176382229Y-121787457D01*
X176453657Y-121930314D01*
X176453657Y-122287457D01*
X176382229Y-122430314D01*
X176310800Y-122501743D01*
X176167943Y-122573171D01*
X175810800Y-122573171D01*
X175667943Y-122501743D01*
X175596514Y-122430314D01*
D15*
X189255466Y-91357410D02*
X189355466Y-91395505D01*
X189522133Y-91395505D01*
X189588800Y-91357410D01*
X189622133Y-91319314D01*
X189655466Y-91243124D01*
X189655466Y-91166933D01*
X189622133Y-91090743D01*
X189588800Y-91052648D01*
X189522133Y-91014552D01*
X189388800Y-90976457D01*
X189322133Y-90938362D01*
X189288800Y-90900267D01*
X189255466Y-90824076D01*
X189255466Y-90747886D01*
X189288800Y-90671695D01*
X189322133Y-90633600D01*
X189388800Y-90595505D01*
X189555466Y-90595505D01*
X189655466Y-90633600D01*
X190255467Y-90595505D02*
X190122133Y-90595505D01*
X190055467Y-90633600D01*
X190022133Y-90671695D01*
X189955467Y-90785981D01*
X189922133Y-90938362D01*
X189922133Y-91243124D01*
X189955467Y-91319314D01*
X189988800Y-91357410D01*
X190055467Y-91395505D01*
X190188800Y-91395505D01*
X190255467Y-91357410D01*
X190288800Y-91319314D01*
X190322133Y-91243124D01*
X190322133Y-91052648D01*
X190288800Y-90976457D01*
X190255467Y-90938362D01*
X190188800Y-90900267D01*
X190055467Y-90900267D01*
X189988800Y-90938362D01*
X189955467Y-90976457D01*
X189922133Y-91052648D01*
X191668466Y-91357410D02*
X191768466Y-91395505D01*
X191935133Y-91395505D01*
X192001800Y-91357410D01*
X192035133Y-91319314D01*
X192068466Y-91243124D01*
X192068466Y-91166933D01*
X192035133Y-91090743D01*
X192001800Y-91052648D01*
X191935133Y-91014552D01*
X191801800Y-90976457D01*
X191735133Y-90938362D01*
X191701800Y-90900267D01*
X191668466Y-90824076D01*
X191668466Y-90747886D01*
X191701800Y-90671695D01*
X191735133Y-90633600D01*
X191801800Y-90595505D01*
X191968466Y-90595505D01*
X192068466Y-90633600D01*
X192701800Y-90595505D02*
X192368467Y-90595505D01*
X192335133Y-90976457D01*
X192368467Y-90938362D01*
X192435133Y-90900267D01*
X192601800Y-90900267D01*
X192668467Y-90938362D01*
X192701800Y-90976457D01*
X192735133Y-91052648D01*
X192735133Y-91243124D01*
X192701800Y-91319314D01*
X192668467Y-91357410D01*
X192601800Y-91395505D01*
X192435133Y-91395505D01*
X192368467Y-91357410D01*
X192335133Y-91319314D01*
D13*
X170765653Y-91815767D02*
X170918034Y-91815767D01*
X170994225Y-91849100D01*
X171070415Y-91915767D01*
X171108510Y-92049100D01*
X171108510Y-92282433D01*
X171070415Y-92415767D01*
X170994225Y-92482433D01*
X170918034Y-92515767D01*
X170765653Y-92515767D01*
X170689463Y-92482433D01*
X170613272Y-92415767D01*
X170575177Y-92282433D01*
X170575177Y-92049100D01*
X170613272Y-91915767D01*
X170689463Y-91849100D01*
X170765653Y-91815767D01*
X171451367Y-92049100D02*
X171451367Y-92749100D01*
X171451367Y-92082433D02*
X171527558Y-92049100D01*
X171679939Y-92049100D01*
X171756129Y-92082433D01*
X171794224Y-92115767D01*
X171832320Y-92182433D01*
X171832320Y-92382433D01*
X171794224Y-92449100D01*
X171756129Y-92482433D01*
X171679939Y-92515767D01*
X171527558Y-92515767D01*
X171451367Y-92482433D01*
X172060891Y-92049100D02*
X172365653Y-92049100D01*
X172175177Y-91815767D02*
X172175177Y-92415767D01*
X172213272Y-92482433D01*
X172289463Y-92515767D01*
X172365653Y-92515767D01*
X172746606Y-92515767D02*
X172670415Y-92482433D01*
X172632320Y-92449100D01*
X172594225Y-92382433D01*
X172594225Y-92182433D01*
X172632320Y-92115767D01*
X172670415Y-92082433D01*
X172746606Y-92049100D01*
X172860892Y-92049100D01*
X172937082Y-92082433D01*
X172975177Y-92115767D01*
X173013273Y-92182433D01*
X173013273Y-92382433D01*
X172975177Y-92449100D01*
X172937082Y-92482433D01*
X172860892Y-92515767D01*
X172746606Y-92515767D01*
X173965654Y-92515767D02*
X173965654Y-91815767D01*
X174308511Y-92482433D02*
X174384701Y-92515767D01*
X174537082Y-92515767D01*
X174613273Y-92482433D01*
X174651368Y-92415767D01*
X174651368Y-92382433D01*
X174613273Y-92315767D01*
X174537082Y-92282433D01*
X174422797Y-92282433D01*
X174346606Y-92249100D01*
X174308511Y-92182433D01*
X174308511Y-92149100D01*
X174346606Y-92082433D01*
X174422797Y-92049100D01*
X174537082Y-92049100D01*
X174613273Y-92082433D01*
X175108511Y-92515767D02*
X175032320Y-92482433D01*
X174994225Y-92449100D01*
X174956130Y-92382433D01*
X174956130Y-92182433D01*
X174994225Y-92115767D01*
X175032320Y-92082433D01*
X175108511Y-92049100D01*
X175222797Y-92049100D01*
X175298987Y-92082433D01*
X175337082Y-92115767D01*
X175375178Y-92182433D01*
X175375178Y-92382433D01*
X175337082Y-92449100D01*
X175298987Y-92482433D01*
X175222797Y-92515767D01*
X175108511Y-92515767D01*
X175832321Y-92515767D02*
X175756130Y-92482433D01*
X175718035Y-92415767D01*
X175718035Y-91815767D01*
X176479940Y-92515767D02*
X176479940Y-92149100D01*
X176441845Y-92082433D01*
X176365655Y-92049100D01*
X176213274Y-92049100D01*
X176137083Y-92082433D01*
X176479940Y-92482433D02*
X176403750Y-92515767D01*
X176213274Y-92515767D01*
X176137083Y-92482433D01*
X176098988Y-92415767D01*
X176098988Y-92349100D01*
X176137083Y-92282433D01*
X176213274Y-92249100D01*
X176403750Y-92249100D01*
X176479940Y-92215767D01*
X176746607Y-92049100D02*
X177051369Y-92049100D01*
X176860893Y-91815767D02*
X176860893Y-92415767D01*
X176898988Y-92482433D01*
X176975179Y-92515767D01*
X177051369Y-92515767D01*
X177432322Y-92515767D02*
X177356131Y-92482433D01*
X177318036Y-92449100D01*
X177279941Y-92382433D01*
X177279941Y-92182433D01*
X177318036Y-92115767D01*
X177356131Y-92082433D01*
X177432322Y-92049100D01*
X177546608Y-92049100D01*
X177622798Y-92082433D01*
X177660893Y-92115767D01*
X177698989Y-92182433D01*
X177698989Y-92382433D01*
X177660893Y-92449100D01*
X177622798Y-92482433D01*
X177546608Y-92515767D01*
X177432322Y-92515767D01*
X178041846Y-92515767D02*
X178041846Y-92049100D01*
X178041846Y-92182433D02*
X178079941Y-92115767D01*
X178118037Y-92082433D01*
X178194227Y-92049100D01*
X178270418Y-92049100D01*
X179413275Y-92149100D02*
X179527561Y-92182433D01*
X179565656Y-92215767D01*
X179603751Y-92282433D01*
X179603751Y-92382433D01*
X179565656Y-92449100D01*
X179527561Y-92482433D01*
X179451370Y-92515767D01*
X179146608Y-92515767D01*
X179146608Y-91815767D01*
X179413275Y-91815767D01*
X179489465Y-91849100D01*
X179527561Y-91882433D01*
X179565656Y-91949100D01*
X179565656Y-92015767D01*
X179527561Y-92082433D01*
X179489465Y-92115767D01*
X179413275Y-92149100D01*
X179146608Y-92149100D01*
X180060894Y-92515767D02*
X179984703Y-92482433D01*
X179946608Y-92449100D01*
X179908513Y-92382433D01*
X179908513Y-92182433D01*
X179946608Y-92115767D01*
X179984703Y-92082433D01*
X180060894Y-92049100D01*
X180175180Y-92049100D01*
X180251370Y-92082433D01*
X180289465Y-92115767D01*
X180327561Y-92182433D01*
X180327561Y-92382433D01*
X180289465Y-92449100D01*
X180251370Y-92482433D01*
X180175180Y-92515767D01*
X180060894Y-92515767D01*
X181013275Y-92515767D02*
X181013275Y-92149100D01*
X180975180Y-92082433D01*
X180898990Y-92049100D01*
X180746609Y-92049100D01*
X180670418Y-92082433D01*
X181013275Y-92482433D02*
X180937085Y-92515767D01*
X180746609Y-92515767D01*
X180670418Y-92482433D01*
X180632323Y-92415767D01*
X180632323Y-92349100D01*
X180670418Y-92282433D01*
X180746609Y-92249100D01*
X180937085Y-92249100D01*
X181013275Y-92215767D01*
X181394228Y-92515767D02*
X181394228Y-92049100D01*
X181394228Y-92182433D02*
X181432323Y-92115767D01*
X181470419Y-92082433D01*
X181546609Y-92049100D01*
X181622800Y-92049100D01*
X182232323Y-92515767D02*
X182232323Y-91815767D01*
X182232323Y-92482433D02*
X182156133Y-92515767D01*
X182003752Y-92515767D01*
X181927561Y-92482433D01*
X181889466Y-92449100D01*
X181851371Y-92382433D01*
X181851371Y-92182433D01*
X181889466Y-92115767D01*
X181927561Y-92082433D01*
X182003752Y-92049100D01*
X182156133Y-92049100D01*
X182232323Y-92082433D01*
X174003751Y-93374100D02*
X174270418Y-93374100D01*
X174384704Y-93740767D02*
X174003751Y-93740767D01*
X174003751Y-93040767D01*
X174384704Y-93040767D01*
X174841847Y-93740767D02*
X174765656Y-93707433D01*
X174727561Y-93640767D01*
X174727561Y-93040767D01*
X175451371Y-93707433D02*
X175375181Y-93740767D01*
X175222800Y-93740767D01*
X175146609Y-93707433D01*
X175108514Y-93640767D01*
X175108514Y-93374100D01*
X175146609Y-93307433D01*
X175222800Y-93274100D01*
X175375181Y-93274100D01*
X175451371Y-93307433D01*
X175489466Y-93374100D01*
X175489466Y-93440767D01*
X175108514Y-93507433D01*
X176175180Y-93707433D02*
X176098990Y-93740767D01*
X175946609Y-93740767D01*
X175870418Y-93707433D01*
X175832323Y-93674100D01*
X175794228Y-93607433D01*
X175794228Y-93407433D01*
X175832323Y-93340767D01*
X175870418Y-93307433D01*
X175946609Y-93274100D01*
X176098990Y-93274100D01*
X176175180Y-93307433D01*
X176403751Y-93274100D02*
X176708513Y-93274100D01*
X176518037Y-93040767D02*
X176518037Y-93640767D01*
X176556132Y-93707433D01*
X176632323Y-93740767D01*
X176708513Y-93740767D01*
X176975180Y-93740767D02*
X176975180Y-93274100D01*
X176975180Y-93407433D02*
X177013275Y-93340767D01*
X177051371Y-93307433D01*
X177127561Y-93274100D01*
X177203752Y-93274100D01*
X177584704Y-93740767D02*
X177508513Y-93707433D01*
X177470418Y-93674100D01*
X177432323Y-93607433D01*
X177432323Y-93407433D01*
X177470418Y-93340767D01*
X177508513Y-93307433D01*
X177584704Y-93274100D01*
X177698990Y-93274100D01*
X177775180Y-93307433D01*
X177813275Y-93340767D01*
X177851371Y-93407433D01*
X177851371Y-93607433D01*
X177813275Y-93674100D01*
X177775180Y-93707433D01*
X177698990Y-93740767D01*
X177584704Y-93740767D01*
X178194228Y-93274100D02*
X178194228Y-93974100D01*
X178194228Y-93307433D02*
X178270419Y-93274100D01*
X178422800Y-93274100D01*
X178498990Y-93307433D01*
X178537085Y-93340767D01*
X178575181Y-93407433D01*
X178575181Y-93607433D01*
X178537085Y-93674100D01*
X178498990Y-93707433D01*
X178422800Y-93740767D01*
X178270419Y-93740767D01*
X178194228Y-93707433D01*
X178918038Y-93740767D02*
X178918038Y-93274100D01*
X178918038Y-93040767D02*
X178879943Y-93074100D01*
X178918038Y-93107433D01*
X178956133Y-93074100D01*
X178918038Y-93040767D01*
X178918038Y-93107433D01*
X179413276Y-93740767D02*
X179337085Y-93707433D01*
X179298990Y-93674100D01*
X179260895Y-93607433D01*
X179260895Y-93407433D01*
X179298990Y-93340767D01*
X179337085Y-93307433D01*
X179413276Y-93274100D01*
X179527562Y-93274100D01*
X179603752Y-93307433D01*
X179641847Y-93340767D01*
X179679943Y-93407433D01*
X179679943Y-93607433D01*
X179641847Y-93674100D01*
X179603752Y-93707433D01*
X179527562Y-93740767D01*
X179413276Y-93740767D01*
X180022800Y-93274100D02*
X180022800Y-93740767D01*
X180022800Y-93340767D02*
X180060895Y-93307433D01*
X180137086Y-93274100D01*
X180251372Y-93274100D01*
X180327562Y-93307433D01*
X180365657Y-93374100D01*
X180365657Y-93740767D01*
X181051372Y-93707433D02*
X180975182Y-93740767D01*
X180822801Y-93740767D01*
X180746610Y-93707433D01*
X180708515Y-93640767D01*
X180708515Y-93374100D01*
X180746610Y-93307433D01*
X180822801Y-93274100D01*
X180975182Y-93274100D01*
X181051372Y-93307433D01*
X181089467Y-93374100D01*
X181089467Y-93440767D01*
X180708515Y-93507433D01*
X181737086Y-93707433D02*
X181660896Y-93740767D01*
X181508515Y-93740767D01*
X181432324Y-93707433D01*
X181394229Y-93640767D01*
X181394229Y-93374100D01*
X181432324Y-93307433D01*
X181508515Y-93274100D01*
X181660896Y-93274100D01*
X181737086Y-93307433D01*
X181775181Y-93374100D01*
X181775181Y-93440767D01*
X181394229Y-93507433D01*
X182118038Y-93740767D02*
X182118038Y-93274100D01*
X182118038Y-93407433D02*
X182156133Y-93340767D01*
X182194229Y-93307433D01*
X182270419Y-93274100D01*
X182346610Y-93274100D01*
D12*
X153384705Y-92779981D02*
X153384705Y-91779981D01*
X153622800Y-91779981D01*
X153765658Y-91827600D01*
X153860896Y-91922838D01*
X153908515Y-92018076D01*
X153956134Y-92208552D01*
X153956134Y-92351410D01*
X153908515Y-92541886D01*
X153860896Y-92637124D01*
X153765658Y-92732362D01*
X153622800Y-92779981D01*
X153384705Y-92779981D01*
X154337086Y-91875219D02*
X154384705Y-91827600D01*
X154479943Y-91779981D01*
X154718039Y-91779981D01*
X154813277Y-91827600D01*
X154860896Y-91875219D01*
X154908515Y-91970457D01*
X154908515Y-92065695D01*
X154860896Y-92208552D01*
X154289467Y-92779981D01*
X154908515Y-92779981D01*
D15*
X204895467Y-90568005D02*
X204562134Y-90568005D01*
X204528800Y-90948957D01*
X204562134Y-90910862D01*
X204628800Y-90872767D01*
X204795467Y-90872767D01*
X204862134Y-90910862D01*
X204895467Y-90948957D01*
X204928800Y-91025148D01*
X204928800Y-91215624D01*
X204895467Y-91291814D01*
X204862134Y-91329910D01*
X204795467Y-91368005D01*
X204628800Y-91368005D01*
X204562134Y-91329910D01*
X204528800Y-91291814D01*
X205128801Y-90568005D02*
X205362134Y-91368005D01*
X205595467Y-90568005D01*
X186715467Y-90606100D02*
X186648801Y-90568005D01*
X186548801Y-90568005D01*
X186448801Y-90606100D01*
X186382134Y-90682290D01*
X186348801Y-90758481D01*
X186315467Y-90910862D01*
X186315467Y-91025148D01*
X186348801Y-91177529D01*
X186382134Y-91253719D01*
X186448801Y-91329910D01*
X186548801Y-91368005D01*
X186615467Y-91368005D01*
X186715467Y-91329910D01*
X186748801Y-91291814D01*
X186748801Y-91025148D01*
X186615467Y-91025148D01*
X187048801Y-91368005D02*
X187048801Y-90568005D01*
X187448801Y-91368005D01*
X187448801Y-90568005D01*
X187782134Y-91368005D02*
X187782134Y-90568005D01*
X187948800Y-90568005D01*
X188048800Y-90606100D01*
X188115467Y-90682290D01*
X188148800Y-90758481D01*
X188182134Y-90910862D01*
X188182134Y-91025148D01*
X188148800Y-91177529D01*
X188115467Y-91253719D01*
X188048800Y-91329910D01*
X187948800Y-91368005D01*
X187782134Y-91368005D01*
D14*
X223253372Y-121747743D02*
X224396229Y-121747743D01*
X220141943Y-122501743D02*
X220356229Y-122573171D01*
X220713372Y-122573171D01*
X220856229Y-122501743D01*
X220927658Y-122430314D01*
X220999086Y-122287457D01*
X220999086Y-122144600D01*
X220927658Y-122001743D01*
X220856229Y-121930314D01*
X220713372Y-121858886D01*
X220427658Y-121787457D01*
X220284800Y-121716029D01*
X220213372Y-121644600D01*
X220141943Y-121501743D01*
X220141943Y-121358886D01*
X220213372Y-121216029D01*
X220284800Y-121144600D01*
X220427658Y-121073171D01*
X220784800Y-121073171D01*
X220999086Y-121144600D01*
X222427657Y-122573171D02*
X221570514Y-122573171D01*
X221999086Y-122573171D02*
X221999086Y-121073171D01*
X221856229Y-121287457D01*
X221713371Y-121430314D01*
X221570514Y-121501743D01*
X217919372Y-121747743D02*
X219062229Y-121747743D01*
X218490800Y-122319171D02*
X218490800Y-121176314D01*
X212077372Y-121747743D02*
X213220229Y-121747743D01*
X208965943Y-122501743D02*
X209180229Y-122573171D01*
X209537372Y-122573171D01*
X209680229Y-122501743D01*
X209751658Y-122430314D01*
X209823086Y-122287457D01*
X209823086Y-122144600D01*
X209751658Y-122001743D01*
X209680229Y-121930314D01*
X209537372Y-121858886D01*
X209251658Y-121787457D01*
X209108800Y-121716029D01*
X209037372Y-121644600D01*
X208965943Y-121501743D01*
X208965943Y-121358886D01*
X209037372Y-121216029D01*
X209108800Y-121144600D01*
X209251658Y-121073171D01*
X209608800Y-121073171D01*
X209823086Y-121144600D01*
X210394514Y-121216029D02*
X210465943Y-121144600D01*
X210608800Y-121073171D01*
X210965943Y-121073171D01*
X211108800Y-121144600D01*
X211180229Y-121216029D01*
X211251657Y-121358886D01*
X211251657Y-121501743D01*
X211180229Y-121716029D01*
X210323086Y-122573171D01*
X211251657Y-122573171D01*
X206997372Y-121747743D02*
X208140229Y-121747743D01*
X207568800Y-122319171D02*
X207568800Y-121176314D01*
X200393372Y-121747743D02*
X201536229Y-121747743D01*
X197535943Y-122501743D02*
X197750229Y-122573171D01*
X198107372Y-122573171D01*
X198250229Y-122501743D01*
X198321658Y-122430314D01*
X198393086Y-122287457D01*
X198393086Y-122144600D01*
X198321658Y-122001743D01*
X198250229Y-121930314D01*
X198107372Y-121858886D01*
X197821658Y-121787457D01*
X197678800Y-121716029D01*
X197607372Y-121644600D01*
X197535943Y-121501743D01*
X197535943Y-121358886D01*
X197607372Y-121216029D01*
X197678800Y-121144600D01*
X197821658Y-121073171D01*
X198178800Y-121073171D01*
X198393086Y-121144600D01*
X198893086Y-121073171D02*
X199821657Y-121073171D01*
X199321657Y-121644600D01*
X199535943Y-121644600D01*
X199678800Y-121716029D01*
X199750229Y-121787457D01*
X199821657Y-121930314D01*
X199821657Y-122287457D01*
X199750229Y-122430314D01*
X199678800Y-122501743D01*
X199535943Y-122573171D01*
X199107371Y-122573171D01*
X198964514Y-122501743D01*
X198893086Y-122430314D01*
X195313372Y-121747743D02*
X196456229Y-121747743D01*
X195884800Y-122319171D02*
X195884800Y-121176314D01*
X185851943Y-122501743D02*
X186066229Y-122573171D01*
X186423372Y-122573171D01*
X186566229Y-122501743D01*
X186637658Y-122430314D01*
X186709086Y-122287457D01*
X186709086Y-122144600D01*
X186637658Y-122001743D01*
X186566229Y-121930314D01*
X186423372Y-121858886D01*
X186137658Y-121787457D01*
X185994800Y-121716029D01*
X185923372Y-121644600D01*
X185851943Y-121501743D01*
X185851943Y-121358886D01*
X185923372Y-121216029D01*
X185994800Y-121144600D01*
X186137658Y-121073171D01*
X186494800Y-121073171D01*
X186709086Y-121144600D01*
X187994800Y-121573171D02*
X187994800Y-122573171D01*
X187637657Y-121001743D02*
X187280514Y-122073171D01*
X188209086Y-122073171D01*
X188963372Y-121747743D02*
X190106229Y-121747743D01*
X183883372Y-121747743D02*
X185026229Y-121747743D01*
X184454800Y-122319171D02*
X184454800Y-121176314D01*
D15*
X194208466Y-91357410D02*
X194308466Y-91395505D01*
X194475133Y-91395505D01*
X194541800Y-91357410D01*
X194575133Y-91319314D01*
X194608466Y-91243124D01*
X194608466Y-91166933D01*
X194575133Y-91090743D01*
X194541800Y-91052648D01*
X194475133Y-91014552D01*
X194341800Y-90976457D01*
X194275133Y-90938362D01*
X194241800Y-90900267D01*
X194208466Y-90824076D01*
X194208466Y-90747886D01*
X194241800Y-90671695D01*
X194275133Y-90633600D01*
X194341800Y-90595505D01*
X194508466Y-90595505D01*
X194608466Y-90633600D01*
X195208467Y-90862171D02*
X195208467Y-91395505D01*
X195041800Y-90557410D02*
X194875133Y-91128838D01*
X195308467Y-91128838D01*
X196748466Y-91329910D02*
X196848466Y-91368005D01*
X197015133Y-91368005D01*
X197081800Y-91329910D01*
X197115133Y-91291814D01*
X197148466Y-91215624D01*
X197148466Y-91139433D01*
X197115133Y-91063243D01*
X197081800Y-91025148D01*
X197015133Y-90987052D01*
X196881800Y-90948957D01*
X196815133Y-90910862D01*
X196781800Y-90872767D01*
X196748466Y-90796576D01*
X196748466Y-90720386D01*
X196781800Y-90644195D01*
X196815133Y-90606100D01*
X196881800Y-90568005D01*
X197048466Y-90568005D01*
X197148466Y-90606100D01*
X197381800Y-90568005D02*
X197815133Y-90568005D01*
X197581800Y-90872767D01*
X197681800Y-90872767D01*
X197748467Y-90910862D01*
X197781800Y-90948957D01*
X197815133Y-91025148D01*
X197815133Y-91215624D01*
X197781800Y-91291814D01*
X197748467Y-91329910D01*
X197681800Y-91368005D01*
X197481800Y-91368005D01*
X197415133Y-91329910D01*
X197381800Y-91291814D01*
X199542466Y-91357410D02*
X199642466Y-91395505D01*
X199809133Y-91395505D01*
X199875800Y-91357410D01*
X199909133Y-91319314D01*
X199942466Y-91243124D01*
X199942466Y-91166933D01*
X199909133Y-91090743D01*
X199875800Y-91052648D01*
X199809133Y-91014552D01*
X199675800Y-90976457D01*
X199609133Y-90938362D01*
X199575800Y-90900267D01*
X199542466Y-90824076D01*
X199542466Y-90747886D01*
X199575800Y-90671695D01*
X199609133Y-90633600D01*
X199675800Y-90595505D01*
X199842466Y-90595505D01*
X199942466Y-90633600D01*
X200209133Y-90671695D02*
X200242467Y-90633600D01*
X200309133Y-90595505D01*
X200475800Y-90595505D01*
X200542467Y-90633600D01*
X200575800Y-90671695D01*
X200609133Y-90747886D01*
X200609133Y-90824076D01*
X200575800Y-90938362D01*
X200175800Y-91395505D01*
X200609133Y-91395505D01*
X201955466Y-91357410D02*
X202055466Y-91395505D01*
X202222133Y-91395505D01*
X202288800Y-91357410D01*
X202322133Y-91319314D01*
X202355466Y-91243124D01*
X202355466Y-91166933D01*
X202322133Y-91090743D01*
X202288800Y-91052648D01*
X202222133Y-91014552D01*
X202088800Y-90976457D01*
X202022133Y-90938362D01*
X201988800Y-90900267D01*
X201955466Y-90824076D01*
X201955466Y-90747886D01*
X201988800Y-90671695D01*
X202022133Y-90633600D01*
X202088800Y-90595505D01*
X202255466Y-90595505D01*
X202355466Y-90633600D01*
X203022133Y-91395505D02*
X202622133Y-91395505D01*
X202822133Y-91395505D02*
X202822133Y-90595505D01*
X202755467Y-90709790D01*
X202688800Y-90785981D01*
X202622133Y-90824076D01*
D14*
X145460895Y-108970457D02*
X146984705Y-108970457D01*
X145560895Y-117970457D02*
X147084705Y-117970457D01*
X146322800Y-118732362D02*
X146322800Y-117208552D01*
D12*
X170230800Y-114655600D02*
X180390800Y-114655600D01*
X180390800Y-120497600D02*
X170230800Y-120497600D01*
X170230800Y-120497600D02*
X170230800Y-114655600D01*
X180390800Y-120497600D02*
X180390800Y-114655600D01*
X193217800Y-114655600D02*
X203377800Y-114655600D01*
X203377800Y-120497600D02*
X193217800Y-120497600D01*
X193217800Y-120497600D02*
X193217800Y-114655600D01*
X203377800Y-120497600D02*
X203377800Y-114655600D01*
D16*
X148122800Y-116977600D02*
X148122800Y-109777600D01*
X149222800Y-116977600D02*
X149222800Y-109777600D01*
X149722800Y-116977600D02*
X142522800Y-116977600D01*
X142522800Y-116977600D02*
X142522800Y-109777600D01*
X142522800Y-109777600D02*
X149722800Y-109777600D01*
X149222800Y-113377600D02*
X149622800Y-113377600D01*
X147872800Y-117217600D02*
X149962800Y-117217600D01*
X149962800Y-117217600D02*
X149962800Y-115127600D01*
X149922800Y-122377600D02*
X149922800Y-119077600D01*
X149922800Y-119077600D02*
X144522800Y-119077600D01*
X149922800Y-122377600D02*
X144522800Y-122377600D01*
X151422800Y-121027600D02*
X153602800Y-121027600D01*
X158022800Y-121027600D02*
X155842800Y-121027600D01*
X152182800Y-114427600D02*
X153602800Y-114427600D01*
X157262800Y-114427600D02*
X155842800Y-114427600D01*
X151422800Y-121027600D02*
X151422800Y-115187600D01*
X151422800Y-115187600D02*
X152182800Y-114427600D01*
X157262800Y-114427600D02*
X158022800Y-115187600D01*
X158022800Y-115187600D02*
X158022800Y-121027600D01*
X144922800Y-91427600D02*
X144922800Y-93607600D01*
X144922800Y-98027600D02*
X144922800Y-95847600D01*
X151522800Y-92187600D02*
X151522800Y-93607600D01*
X151522800Y-97267600D02*
X151522800Y-95847600D01*
X144922800Y-91427600D02*
X150762800Y-91427600D01*
X150762800Y-91427600D02*
X151522800Y-92187600D01*
X151522800Y-97267600D02*
X150762800Y-98027600D01*
X150762800Y-98027600D02*
X144922800Y-98027600D01*
X155422800Y-91677600D02*
X155422800Y-93377600D01*
X155472800Y-93377600D02*
X159522800Y-93377600D01*
X155472800Y-91677600D02*
X159522800Y-91677600D01*
D12*
X169205800Y-108348400D02*
X170475800Y-108348400D01*
X169205800Y-100998400D02*
X170475800Y-100998400D01*
X181415800Y-100998400D02*
X180145800Y-100998400D01*
X181415800Y-108348400D02*
X180145800Y-108348400D01*
X169205800Y-108348400D02*
X169205800Y-100998400D01*
X181415800Y-108348400D02*
X181415800Y-100998400D01*
X170475800Y-108348400D02*
X170475800Y-109283400D01*
X157598000Y-108348400D02*
X158868000Y-108348400D01*
X157598000Y-100998400D02*
X158868000Y-100998400D01*
X169808000Y-100998400D02*
X168538000Y-100998400D01*
X169808000Y-108348400D02*
X168538000Y-108348400D01*
X157598000Y-108348400D02*
X157598000Y-100998400D01*
X169808000Y-108348400D02*
X169808000Y-100998400D01*
X158868000Y-108348400D02*
X158868000Y-109283400D01*
X158546800Y-114655600D02*
X168706800Y-114655600D01*
X168706800Y-120497600D02*
X158546800Y-120497600D01*
X158546800Y-120497600D02*
X158546800Y-114655600D01*
X168706800Y-120497600D02*
X168706800Y-114655600D01*
X203708000Y-94615000D02*
X185928000Y-94615000D01*
X185928000Y-94615000D02*
X185928000Y-92075000D01*
X185928000Y-92075000D02*
X203708000Y-92075000D01*
X206528000Y-94895000D02*
X204978000Y-94895000D01*
X203708000Y-94615000D02*
X203708000Y-92075000D01*
X204978000Y-91795000D02*
X206528000Y-91795000D01*
X206528000Y-91795000D02*
X206528000Y-94895000D01*
X216204800Y-114655600D02*
X226364800Y-114655600D01*
X226364800Y-120497600D02*
X216204800Y-120497600D01*
X216204800Y-120497600D02*
X216204800Y-114655600D01*
X226364800Y-120497600D02*
X226364800Y-114655600D01*
X204774800Y-114655600D02*
X214934800Y-114655600D01*
X214934800Y-120497600D02*
X204774800Y-120497600D01*
X204774800Y-120497600D02*
X204774800Y-114655600D01*
X214934800Y-120497600D02*
X214934800Y-114655600D01*
X181787800Y-114655600D02*
X191947800Y-114655600D01*
X191947800Y-120497600D02*
X181787800Y-120497600D01*
X181787800Y-120497600D02*
X181787800Y-114655600D01*
X191947800Y-120497600D02*
X191947800Y-114655600D01*
X180705000Y-108365000D02*
X181975000Y-108365000D01*
X180705000Y-101015000D02*
X181975000Y-101015000D01*
X192915000Y-101015000D02*
X191645000Y-101015000D01*
X192915000Y-108365000D02*
X191645000Y-108365000D01*
X180705000Y-108365000D02*
X180705000Y-101015000D01*
X192915000Y-108365000D02*
X192915000Y-101015000D01*
X181975000Y-108365000D02*
X181975000Y-109300000D01*
X192205000Y-108365000D02*
X193475000Y-108365000D01*
X192205000Y-101015000D02*
X193475000Y-101015000D01*
X204415000Y-101015000D02*
X203145000Y-101015000D01*
X204415000Y-108365000D02*
X203145000Y-108365000D01*
X192205000Y-108365000D02*
X192205000Y-101015000D01*
X204415000Y-108365000D02*
X204415000Y-101015000D01*
X193475000Y-108365000D02*
X193475000Y-109300000D01*
X203705000Y-108365000D02*
X204975000Y-108365000D01*
X203705000Y-101015000D02*
X204975000Y-101015000D01*
X215915000Y-101015000D02*
X214645000Y-101015000D01*
X215915000Y-108365000D02*
X214645000Y-108365000D01*
X203705000Y-108365000D02*
X203705000Y-101015000D01*
X215915000Y-108365000D02*
X215915000Y-101015000D01*
X204975000Y-108365000D02*
X204975000Y-109300000D01*
X215205000Y-108365000D02*
X216475000Y-108365000D01*
X215205000Y-101015000D02*
X216475000Y-101015000D01*
X227415000Y-101015000D02*
X226145000Y-101015000D01*
X227415000Y-108365000D02*
X226145000Y-108365000D01*
X215205000Y-108365000D02*
X215205000Y-101015000D01*
X227415000Y-108365000D02*
X227415000Y-101015000D01*
X216475000Y-108365000D02*
X216475000Y-109300000D01*
X219012800Y-112969600D02*
X219012800Y-111769600D01*
X220762800Y-111769600D02*
X220762800Y-112969600D01*
X221679800Y-112969600D02*
X221679800Y-111769600D01*
X223429800Y-111769600D02*
X223429800Y-112969600D01*
X207709800Y-112969600D02*
X207709800Y-111769600D01*
X209459800Y-111769600D02*
X209459800Y-112969600D01*
X210249800Y-112969600D02*
X210249800Y-111769600D01*
X211999800Y-111769600D02*
X211999800Y-112969600D01*
X216345800Y-112969600D02*
X216345800Y-111769600D01*
X218095800Y-111769600D02*
X218095800Y-112969600D01*
X226096800Y-111769600D02*
X226096800Y-112969600D01*
X224346800Y-112969600D02*
X224346800Y-111769600D01*
X205042800Y-112969600D02*
X205042800Y-111769600D01*
X206792800Y-111769600D02*
X206792800Y-112969600D01*
X214539800Y-111769600D02*
X214539800Y-112969600D01*
X212789800Y-112969600D02*
X212789800Y-111769600D01*
X219414800Y-97524600D02*
X220614800Y-97524600D01*
X220614800Y-99274600D02*
X219414800Y-99274600D01*
X207730800Y-97524600D02*
X208930800Y-97524600D01*
X208930800Y-99274600D02*
X207730800Y-99274600D01*
X196279800Y-112969600D02*
X196279800Y-111769600D01*
X198029800Y-111769600D02*
X198029800Y-112969600D01*
X198819800Y-112969600D02*
X198819800Y-111769600D01*
X200569800Y-111769600D02*
X200569800Y-112969600D01*
X184849800Y-112969600D02*
X184849800Y-111769600D01*
X186599800Y-111769600D02*
X186599800Y-112969600D01*
X187389800Y-112969600D02*
X187389800Y-111769600D01*
X189139800Y-111769600D02*
X189139800Y-112969600D01*
X193485800Y-112969600D02*
X193485800Y-111769600D01*
X195235800Y-111769600D02*
X195235800Y-112969600D01*
X203236800Y-111769600D02*
X203236800Y-112969600D01*
X201486800Y-112969600D02*
X201486800Y-111769600D01*
X182182800Y-112969600D02*
X182182800Y-111769600D01*
X183932800Y-111769600D02*
X183932800Y-112969600D01*
X191679800Y-111769600D02*
X191679800Y-112969600D01*
X189929800Y-112969600D02*
X189929800Y-111769600D01*
X196554800Y-97524600D02*
X197754800Y-97524600D01*
X197754800Y-99274600D02*
X196554800Y-99274600D01*
X185000000Y-97525000D02*
X186200000Y-97525000D01*
X186200000Y-99275000D02*
X185000000Y-99275000D01*
X163222800Y-91652600D02*
X164422800Y-91652600D01*
X164422800Y-93402600D02*
X163222800Y-93402600D01*
X173165800Y-112969600D02*
X173165800Y-111769600D01*
X174915800Y-111769600D02*
X174915800Y-112969600D01*
X175705800Y-112969600D02*
X175705800Y-111769600D01*
X177455800Y-111769600D02*
X177455800Y-112969600D01*
X170625800Y-112969600D02*
X170625800Y-111769600D01*
X172375800Y-111769600D02*
X172375800Y-112969600D01*
X180122800Y-111769600D02*
X180122800Y-112969600D01*
X178372800Y-112969600D02*
X178372800Y-111769600D01*
X173440800Y-97524600D02*
X174640800Y-97524600D01*
X174640800Y-99274600D02*
X173440800Y-99274600D01*
X161608800Y-112969600D02*
X161608800Y-111769600D01*
X163358800Y-111769600D02*
X163358800Y-112969600D01*
X164148800Y-112969600D02*
X164148800Y-111769600D01*
X165898800Y-111769600D02*
X165898800Y-112969600D01*
X158941800Y-112969600D02*
X158941800Y-111769600D01*
X160691800Y-111769600D02*
X160691800Y-112969600D01*
X168438800Y-111769600D02*
X168438800Y-112969600D01*
X166688800Y-112969600D02*
X166688800Y-111769600D01*
X161756800Y-97524600D02*
X162956800Y-97524600D01*
X162956800Y-99274600D02*
X161756800Y-99274600D01*
X151898800Y-100430600D02*
X155073800Y-100430600D01*
X155073800Y-100430600D02*
X155073800Y-98652600D01*
X155073800Y-98652600D02*
X151898800Y-98652600D01*
X151898800Y-105002600D02*
X155073800Y-105002600D01*
X155073800Y-105002600D02*
X155073800Y-103224600D01*
X155073800Y-103224600D02*
X151898800Y-103224600D01*
X145802800Y-98398600D02*
X151898800Y-98398600D01*
X151898800Y-98398600D02*
X151898800Y-105256600D01*
X151898800Y-105256600D02*
X144024800Y-105256600D01*
X143897800Y-105256600D02*
X143897800Y-98398600D01*
X144024800Y-98398600D02*
X145802800Y-98398600D01*
X213092800Y-92057600D02*
X215632800Y-92057600D01*
X210272800Y-91777600D02*
X211822800Y-91777600D01*
X213092800Y-92057600D02*
X213092800Y-94597600D01*
X211822800Y-94877600D02*
X210272800Y-94877600D01*
X210272800Y-94877600D02*
X210272800Y-91777600D01*
X213092800Y-94597600D02*
X215632800Y-94597600D01*
X215632800Y-94597600D02*
X215632800Y-92057600D01*
X226808800Y-93527600D02*
G75*
G03X226808800Y-93527600I-2286000J0D01*
G01*
X156608800Y-108827600D02*
G75*
G03X156608800Y-108827600I-2286000J0D01*
G01*
X159908800Y-96727600D02*
G75*
G03X159908800Y-96727600I-2286000J0D01*
G01*
X174977467Y-114996981D02*
X174977467Y-115711267D01*
X174929847Y-115854124D01*
X174834609Y-115949362D01*
X174691752Y-115996981D01*
X174596514Y-115996981D01*
X175882229Y-114996981D02*
X175691752Y-114996981D01*
X175596514Y-115044600D01*
X175548895Y-115092219D01*
X175453657Y-115235076D01*
X175406038Y-115425552D01*
X175406038Y-115806505D01*
X175453657Y-115901743D01*
X175501276Y-115949362D01*
X175596514Y-115996981D01*
X175786991Y-115996981D01*
X175882229Y-115949362D01*
X175929848Y-115901743D01*
X175977467Y-115806505D01*
X175977467Y-115568410D01*
X175929848Y-115473171D01*
X175882229Y-115425552D01*
X175786991Y-115377933D01*
X175596514Y-115377933D01*
X175501276Y-115425552D01*
X175453657Y-115473171D01*
X175406038Y-115568410D01*
X197929267Y-114986581D02*
X197929267Y-115700867D01*
X197881647Y-115843724D01*
X197786409Y-115938962D01*
X197643552Y-115986581D01*
X197548314Y-115986581D01*
X198310219Y-114986581D02*
X198929267Y-114986581D01*
X198595933Y-115367533D01*
X198738791Y-115367533D01*
X198834029Y-115415152D01*
X198881648Y-115462771D01*
X198929267Y-115558010D01*
X198929267Y-115796105D01*
X198881648Y-115891343D01*
X198834029Y-115938962D01*
X198738791Y-115986581D01*
X198453076Y-115986581D01*
X198357838Y-115938962D01*
X198310219Y-115891343D01*
X151175181Y-114939504D02*
X151175181Y-115510933D01*
X151175181Y-115225219D02*
X150175181Y-115225219D01*
X150318038Y-115320457D01*
X150413276Y-115415695D01*
X150460895Y-115510933D01*
X150270419Y-114558552D02*
X150222800Y-114510933D01*
X150175181Y-114415695D01*
X150175181Y-114177599D01*
X150222800Y-114082361D01*
X150270419Y-114034742D01*
X150365657Y-113987123D01*
X150460895Y-113987123D01*
X150603752Y-114034742D01*
X151175181Y-114606171D01*
X151175181Y-113987123D01*
X150175181Y-113701409D02*
X151175181Y-113368076D01*
X150175181Y-113034742D01*
X151270419Y-112939504D02*
X151270419Y-112177599D01*
X151175181Y-111939504D02*
X150175181Y-111939504D01*
X151175181Y-111463314D02*
X150175181Y-111463314D01*
X151175181Y-110891885D01*
X150175181Y-110891885D01*
X142884705Y-118779981D02*
X142884705Y-117779981D01*
X143122800Y-117779981D01*
X143265658Y-117827600D01*
X143360896Y-117922838D01*
X143408515Y-118018076D01*
X143456134Y-118208552D01*
X143456134Y-118351410D01*
X143408515Y-118541886D01*
X143360896Y-118637124D01*
X143265658Y-118732362D01*
X143122800Y-118779981D01*
X142884705Y-118779981D01*
X144408515Y-118779981D02*
X143837086Y-118779981D01*
X144122800Y-118779981D02*
X144122800Y-117779981D01*
X144027562Y-117922838D01*
X143932324Y-118018076D01*
X143837086Y-118065695D01*
X152256134Y-122484743D02*
X152208515Y-122532362D01*
X152065658Y-122579981D01*
X151970420Y-122579981D01*
X151827562Y-122532362D01*
X151732324Y-122437124D01*
X151684705Y-122341886D01*
X151637086Y-122151410D01*
X151637086Y-122008552D01*
X151684705Y-121818076D01*
X151732324Y-121722838D01*
X151827562Y-121627600D01*
X151970420Y-121579981D01*
X152065658Y-121579981D01*
X152208515Y-121627600D01*
X152256134Y-121675219D01*
X153208515Y-122579981D02*
X152637086Y-122579981D01*
X152922800Y-122579981D02*
X152922800Y-121579981D01*
X152827562Y-121722838D01*
X152732324Y-121818076D01*
X152637086Y-121865695D01*
X151784229Y-113828552D02*
X151784229Y-113066647D01*
X152165181Y-113447599D02*
X151403276Y-113447599D01*
X143218743Y-97326866D02*
X143266362Y-97374485D01*
X143313981Y-97517342D01*
X143313981Y-97612580D01*
X143266362Y-97755438D01*
X143171124Y-97850676D01*
X143075886Y-97898295D01*
X142885410Y-97945914D01*
X142742552Y-97945914D01*
X142552076Y-97898295D01*
X142456838Y-97850676D01*
X142361600Y-97755438D01*
X142313981Y-97612580D01*
X142313981Y-97517342D01*
X142361600Y-97374485D01*
X142409219Y-97326866D01*
X142409219Y-96945914D02*
X142361600Y-96898295D01*
X142313981Y-96803057D01*
X142313981Y-96564961D01*
X142361600Y-96469723D01*
X142409219Y-96422104D01*
X142504457Y-96374485D01*
X142599695Y-96374485D01*
X142742552Y-96422104D01*
X143313981Y-96993533D01*
X143313981Y-96374485D01*
X152121848Y-91789029D02*
X152883753Y-91789029D01*
X152502801Y-92169981D02*
X152502801Y-91408076D01*
X174421895Y-104201981D02*
X174421895Y-105011505D01*
X174469514Y-105106743D01*
X174517133Y-105154362D01*
X174612371Y-105201981D01*
X174802848Y-105201981D01*
X174898086Y-105154362D01*
X174945705Y-105106743D01*
X174993324Y-105011505D01*
X174993324Y-104201981D01*
X175945705Y-104201981D02*
X175469514Y-104201981D01*
X175421895Y-104678171D01*
X175469514Y-104630552D01*
X175564752Y-104582933D01*
X175802848Y-104582933D01*
X175898086Y-104630552D01*
X175945705Y-104678171D01*
X175993324Y-104773410D01*
X175993324Y-105011505D01*
X175945705Y-105106743D01*
X175898086Y-105154362D01*
X175802848Y-105201981D01*
X175564752Y-105201981D01*
X175469514Y-105154362D01*
X175421895Y-105106743D01*
X162991895Y-104201981D02*
X162991895Y-105011505D01*
X163039514Y-105106743D01*
X163087133Y-105154362D01*
X163182371Y-105201981D01*
X163372848Y-105201981D01*
X163468086Y-105154362D01*
X163515705Y-105106743D01*
X163563324Y-105011505D01*
X163563324Y-104201981D01*
X164468086Y-104201981D02*
X164277609Y-104201981D01*
X164182371Y-104249600D01*
X164134752Y-104297219D01*
X164039514Y-104440076D01*
X163991895Y-104630552D01*
X163991895Y-105011505D01*
X164039514Y-105106743D01*
X164087133Y-105154362D01*
X164182371Y-105201981D01*
X164372848Y-105201981D01*
X164468086Y-105154362D01*
X164515705Y-105106743D01*
X164563324Y-105011505D01*
X164563324Y-104773410D01*
X164515705Y-104678171D01*
X164468086Y-104630552D01*
X164372848Y-104582933D01*
X164182371Y-104582933D01*
X164087133Y-104630552D01*
X164039514Y-104678171D01*
X163991895Y-104773410D01*
X163166467Y-114996981D02*
X163166467Y-115711267D01*
X163118847Y-115854124D01*
X163023609Y-115949362D01*
X162880752Y-115996981D01*
X162785514Y-115996981D01*
X163547419Y-114996981D02*
X164214086Y-114996981D01*
X163785514Y-115996981D01*
X183970705Y-93771981D02*
X183970705Y-92771981D01*
X184351658Y-92771981D01*
X184446896Y-92819600D01*
X184494515Y-92867219D01*
X184542134Y-92962457D01*
X184542134Y-93105314D01*
X184494515Y-93200552D01*
X184446896Y-93248171D01*
X184351658Y-93295790D01*
X183970705Y-93295790D01*
X185494515Y-93771981D02*
X184923086Y-93771981D01*
X185208800Y-93771981D02*
X185208800Y-92771981D01*
X185113562Y-92914838D01*
X185018324Y-93010076D01*
X184923086Y-93057695D01*
X221026267Y-114986581D02*
X221026267Y-115700867D01*
X220978647Y-115843724D01*
X220883409Y-115938962D01*
X220740552Y-115986581D01*
X220645314Y-115986581D01*
X222026267Y-115986581D02*
X221454838Y-115986581D01*
X221740552Y-115986581D02*
X221740552Y-114986581D01*
X221645314Y-115129438D01*
X221550076Y-115224676D01*
X221454838Y-115272295D01*
X209416267Y-114986581D02*
X209416267Y-115700867D01*
X209368647Y-115843724D01*
X209273409Y-115938962D01*
X209130552Y-115986581D01*
X209035314Y-115986581D01*
X209844838Y-115081819D02*
X209892457Y-115034200D01*
X209987695Y-114986581D01*
X210225791Y-114986581D01*
X210321029Y-115034200D01*
X210368648Y-115081819D01*
X210416267Y-115177057D01*
X210416267Y-115272295D01*
X210368648Y-115415152D01*
X209797219Y-115986581D01*
X210416267Y-115986581D01*
X186569267Y-114986581D02*
X186569267Y-115700867D01*
X186521647Y-115843724D01*
X186426409Y-115938962D01*
X186283552Y-115986581D01*
X186188314Y-115986581D01*
X187474029Y-115319914D02*
X187474029Y-115986581D01*
X187235933Y-114938962D02*
X186997838Y-115653248D01*
X187616886Y-115653248D01*
X185851895Y-104201981D02*
X185851895Y-105011505D01*
X185899514Y-105106743D01*
X185947133Y-105154362D01*
X186042371Y-105201981D01*
X186232848Y-105201981D01*
X186328086Y-105154362D01*
X186375705Y-105106743D01*
X186423324Y-105011505D01*
X186423324Y-104201981D01*
X187328086Y-104535314D02*
X187328086Y-105201981D01*
X187089990Y-104154362D02*
X186851895Y-104868648D01*
X187470943Y-104868648D01*
X197281895Y-104201981D02*
X197281895Y-105011505D01*
X197329514Y-105106743D01*
X197377133Y-105154362D01*
X197472371Y-105201981D01*
X197662848Y-105201981D01*
X197758086Y-105154362D01*
X197805705Y-105106743D01*
X197853324Y-105011505D01*
X197853324Y-104201981D01*
X198234276Y-104201981D02*
X198853324Y-104201981D01*
X198519990Y-104582933D01*
X198662848Y-104582933D01*
X198758086Y-104630552D01*
X198805705Y-104678171D01*
X198853324Y-104773410D01*
X198853324Y-105011505D01*
X198805705Y-105106743D01*
X198758086Y-105154362D01*
X198662848Y-105201981D01*
X198377133Y-105201981D01*
X198281895Y-105154362D01*
X198234276Y-105106743D01*
X208711895Y-104201981D02*
X208711895Y-105011505D01*
X208759514Y-105106743D01*
X208807133Y-105154362D01*
X208902371Y-105201981D01*
X209092848Y-105201981D01*
X209188086Y-105154362D01*
X209235705Y-105106743D01*
X209283324Y-105011505D01*
X209283324Y-104201981D01*
X209711895Y-104297219D02*
X209759514Y-104249600D01*
X209854752Y-104201981D01*
X210092848Y-104201981D01*
X210188086Y-104249600D01*
X210235705Y-104297219D01*
X210283324Y-104392457D01*
X210283324Y-104487695D01*
X210235705Y-104630552D01*
X209664276Y-105201981D01*
X210283324Y-105201981D01*
X220776895Y-104201981D02*
X220776895Y-105011505D01*
X220824514Y-105106743D01*
X220872133Y-105154362D01*
X220967371Y-105201981D01*
X221157848Y-105201981D01*
X221253086Y-105154362D01*
X221300705Y-105106743D01*
X221348324Y-105011505D01*
X221348324Y-104201981D01*
X222348324Y-105201981D02*
X221776895Y-105201981D01*
X222062609Y-105201981D02*
X222062609Y-104201981D01*
X221967371Y-104344838D01*
X221872133Y-104440076D01*
X221776895Y-104487695D01*
X219721134Y-110662981D02*
X219387800Y-110186790D01*
X219149705Y-110662981D02*
X219149705Y-109662981D01*
X219530658Y-109662981D01*
X219625896Y-109710600D01*
X219673515Y-109758219D01*
X219721134Y-109853457D01*
X219721134Y-109996314D01*
X219673515Y-110091552D01*
X219625896Y-110139171D01*
X219530658Y-110186790D01*
X219149705Y-110186790D01*
X220673515Y-110662981D02*
X220102086Y-110662981D01*
X220387800Y-110662981D02*
X220387800Y-109662981D01*
X220292562Y-109805838D01*
X220197324Y-109901076D01*
X220102086Y-109948695D01*
X225055134Y-110662981D02*
X224721800Y-110186790D01*
X224483705Y-110662981D02*
X224483705Y-109662981D01*
X224864658Y-109662981D01*
X224959896Y-109710600D01*
X225007515Y-109758219D01*
X225055134Y-109853457D01*
X225055134Y-109996314D01*
X225007515Y-110091552D01*
X224959896Y-110139171D01*
X224864658Y-110186790D01*
X224483705Y-110186790D01*
X225436086Y-109758219D02*
X225483705Y-109710600D01*
X225578943Y-109662981D01*
X225817039Y-109662981D01*
X225912277Y-109710600D01*
X225959896Y-109758219D01*
X226007515Y-109853457D01*
X226007515Y-109948695D01*
X225959896Y-110091552D01*
X225388467Y-110662981D01*
X226007515Y-110662981D01*
X208418134Y-110662981D02*
X208084800Y-110186790D01*
X207846705Y-110662981D02*
X207846705Y-109662981D01*
X208227658Y-109662981D01*
X208322896Y-109710600D01*
X208370515Y-109758219D01*
X208418134Y-109853457D01*
X208418134Y-109996314D01*
X208370515Y-110091552D01*
X208322896Y-110139171D01*
X208227658Y-110186790D01*
X207846705Y-110186790D01*
X208751467Y-109662981D02*
X209370515Y-109662981D01*
X209037181Y-110043933D01*
X209180039Y-110043933D01*
X209275277Y-110091552D01*
X209322896Y-110139171D01*
X209370515Y-110234410D01*
X209370515Y-110472505D01*
X209322896Y-110567743D01*
X209275277Y-110615362D01*
X209180039Y-110662981D01*
X208894324Y-110662981D01*
X208799086Y-110615362D01*
X208751467Y-110567743D01*
X210958134Y-110662981D02*
X210624800Y-110186790D01*
X210386705Y-110662981D02*
X210386705Y-109662981D01*
X210767658Y-109662981D01*
X210862896Y-109710600D01*
X210910515Y-109758219D01*
X210958134Y-109853457D01*
X210958134Y-109996314D01*
X210910515Y-110091552D01*
X210862896Y-110139171D01*
X210767658Y-110186790D01*
X210386705Y-110186790D01*
X211815277Y-109996314D02*
X211815277Y-110662981D01*
X211577181Y-109615362D02*
X211339086Y-110329648D01*
X211958134Y-110329648D01*
X216927134Y-110662981D02*
X216593800Y-110186790D01*
X216355705Y-110662981D02*
X216355705Y-109662981D01*
X216736658Y-109662981D01*
X216831896Y-109710600D01*
X216879515Y-109758219D01*
X216927134Y-109853457D01*
X216927134Y-109996314D01*
X216879515Y-110091552D01*
X216831896Y-110139171D01*
X216736658Y-110186790D01*
X216355705Y-110186790D01*
X217831896Y-109662981D02*
X217355705Y-109662981D01*
X217308086Y-110139171D01*
X217355705Y-110091552D01*
X217450943Y-110043933D01*
X217689039Y-110043933D01*
X217784277Y-110091552D01*
X217831896Y-110139171D01*
X217879515Y-110234410D01*
X217879515Y-110472505D01*
X217831896Y-110567743D01*
X217784277Y-110615362D01*
X217689039Y-110662981D01*
X217450943Y-110662981D01*
X217355705Y-110615362D01*
X217308086Y-110567743D01*
X222261134Y-110662981D02*
X221927800Y-110186790D01*
X221689705Y-110662981D02*
X221689705Y-109662981D01*
X222070658Y-109662981D01*
X222165896Y-109710600D01*
X222213515Y-109758219D01*
X222261134Y-109853457D01*
X222261134Y-109996314D01*
X222213515Y-110091552D01*
X222165896Y-110139171D01*
X222070658Y-110186790D01*
X221689705Y-110186790D01*
X223118277Y-109662981D02*
X222927800Y-109662981D01*
X222832562Y-109710600D01*
X222784943Y-109758219D01*
X222689705Y-109901076D01*
X222642086Y-110091552D01*
X222642086Y-110472505D01*
X222689705Y-110567743D01*
X222737324Y-110615362D01*
X222832562Y-110662981D01*
X223023039Y-110662981D01*
X223118277Y-110615362D01*
X223165896Y-110567743D01*
X223213515Y-110472505D01*
X223213515Y-110234410D01*
X223165896Y-110139171D01*
X223118277Y-110091552D01*
X223023039Y-110043933D01*
X222832562Y-110043933D01*
X222737324Y-110091552D01*
X222689705Y-110139171D01*
X222642086Y-110234410D01*
X205751134Y-110662981D02*
X205417800Y-110186790D01*
X205179705Y-110662981D02*
X205179705Y-109662981D01*
X205560658Y-109662981D01*
X205655896Y-109710600D01*
X205703515Y-109758219D01*
X205751134Y-109853457D01*
X205751134Y-109996314D01*
X205703515Y-110091552D01*
X205655896Y-110139171D01*
X205560658Y-110186790D01*
X205179705Y-110186790D01*
X206084467Y-109662981D02*
X206751134Y-109662981D01*
X206322562Y-110662981D01*
X213498134Y-110662981D02*
X213164800Y-110186790D01*
X212926705Y-110662981D02*
X212926705Y-109662981D01*
X213307658Y-109662981D01*
X213402896Y-109710600D01*
X213450515Y-109758219D01*
X213498134Y-109853457D01*
X213498134Y-109996314D01*
X213450515Y-110091552D01*
X213402896Y-110139171D01*
X213307658Y-110186790D01*
X212926705Y-110186790D01*
X214069562Y-110091552D02*
X213974324Y-110043933D01*
X213926705Y-109996314D01*
X213879086Y-109901076D01*
X213879086Y-109853457D01*
X213926705Y-109758219D01*
X213974324Y-109710600D01*
X214069562Y-109662981D01*
X214260039Y-109662981D01*
X214355277Y-109710600D01*
X214402896Y-109758219D01*
X214450515Y-109853457D01*
X214450515Y-109901076D01*
X214402896Y-109996314D01*
X214355277Y-110043933D01*
X214260039Y-110091552D01*
X214069562Y-110091552D01*
X213974324Y-110139171D01*
X213926705Y-110186790D01*
X213879086Y-110282029D01*
X213879086Y-110472505D01*
X213926705Y-110567743D01*
X213974324Y-110615362D01*
X214069562Y-110662981D01*
X214260039Y-110662981D01*
X214355277Y-110615362D01*
X214402896Y-110567743D01*
X214450515Y-110472505D01*
X214450515Y-110282029D01*
X214402896Y-110186790D01*
X214355277Y-110139171D01*
X214260039Y-110091552D01*
X222402934Y-99001581D02*
X222069600Y-98525390D01*
X221831505Y-99001581D02*
X221831505Y-98001581D01*
X222212458Y-98001581D01*
X222307696Y-98049200D01*
X222355315Y-98096819D01*
X222402934Y-98192057D01*
X222402934Y-98334914D01*
X222355315Y-98430152D01*
X222307696Y-98477771D01*
X222212458Y-98525390D01*
X221831505Y-98525390D01*
X222879124Y-99001581D02*
X223069600Y-99001581D01*
X223164839Y-98953962D01*
X223212458Y-98906343D01*
X223307696Y-98763486D01*
X223355315Y-98573010D01*
X223355315Y-98192057D01*
X223307696Y-98096819D01*
X223260077Y-98049200D01*
X223164839Y-98001581D01*
X222974362Y-98001581D01*
X222879124Y-98049200D01*
X222831505Y-98096819D01*
X222783886Y-98192057D01*
X222783886Y-98430152D01*
X222831505Y-98525390D01*
X222879124Y-98573010D01*
X222974362Y-98620629D01*
X223164839Y-98620629D01*
X223260077Y-98573010D01*
X223307696Y-98525390D01*
X223355315Y-98430152D01*
X211074743Y-99001581D02*
X210741409Y-98525390D01*
X210503314Y-99001581D02*
X210503314Y-98001581D01*
X210884267Y-98001581D01*
X210979505Y-98049200D01*
X211027124Y-98096819D01*
X211074743Y-98192057D01*
X211074743Y-98334914D01*
X211027124Y-98430152D01*
X210979505Y-98477771D01*
X210884267Y-98525390D01*
X210503314Y-98525390D01*
X212027124Y-99001581D02*
X211455695Y-99001581D01*
X211741409Y-99001581D02*
X211741409Y-98001581D01*
X211646171Y-98144438D01*
X211550933Y-98239676D01*
X211455695Y-98287295D01*
X212646171Y-98001581D02*
X212741410Y-98001581D01*
X212836648Y-98049200D01*
X212884267Y-98096819D01*
X212931886Y-98192057D01*
X212979505Y-98382533D01*
X212979505Y-98620629D01*
X212931886Y-98811105D01*
X212884267Y-98906343D01*
X212836648Y-98953962D01*
X212741410Y-99001581D01*
X212646171Y-99001581D01*
X212550933Y-98953962D01*
X212503314Y-98906343D01*
X212455695Y-98811105D01*
X212408076Y-98620629D01*
X212408076Y-98382533D01*
X212455695Y-98192057D01*
X212503314Y-98096819D01*
X212550933Y-98049200D01*
X212646171Y-98001581D01*
X196511943Y-110662981D02*
X196178609Y-110186790D01*
X195940514Y-110662981D02*
X195940514Y-109662981D01*
X196321467Y-109662981D01*
X196416705Y-109710600D01*
X196464324Y-109758219D01*
X196511943Y-109853457D01*
X196511943Y-109996314D01*
X196464324Y-110091552D01*
X196416705Y-110139171D01*
X196321467Y-110186790D01*
X195940514Y-110186790D01*
X197464324Y-110662981D02*
X196892895Y-110662981D01*
X197178609Y-110662981D02*
X197178609Y-109662981D01*
X197083371Y-109805838D01*
X196988133Y-109901076D01*
X196892895Y-109948695D01*
X198416705Y-110662981D02*
X197845276Y-110662981D01*
X198130990Y-110662981D02*
X198130990Y-109662981D01*
X198035752Y-109805838D01*
X197940514Y-109901076D01*
X197845276Y-109948695D01*
X199178943Y-110662981D02*
X198845609Y-110186790D01*
X198607514Y-110662981D02*
X198607514Y-109662981D01*
X198988467Y-109662981D01*
X199083705Y-109710600D01*
X199131324Y-109758219D01*
X199178943Y-109853457D01*
X199178943Y-109996314D01*
X199131324Y-110091552D01*
X199083705Y-110139171D01*
X198988467Y-110186790D01*
X198607514Y-110186790D01*
X200131324Y-110662981D02*
X199559895Y-110662981D01*
X199845609Y-110662981D02*
X199845609Y-109662981D01*
X199750371Y-109805838D01*
X199655133Y-109901076D01*
X199559895Y-109948695D01*
X200512276Y-109758219D02*
X200559895Y-109710600D01*
X200655133Y-109662981D01*
X200893229Y-109662981D01*
X200988467Y-109710600D01*
X201036086Y-109758219D01*
X201083705Y-109853457D01*
X201083705Y-109948695D01*
X201036086Y-110091552D01*
X200464657Y-110662981D01*
X201083705Y-110662981D01*
X184954943Y-110662981D02*
X184621609Y-110186790D01*
X184383514Y-110662981D02*
X184383514Y-109662981D01*
X184764467Y-109662981D01*
X184859705Y-109710600D01*
X184907324Y-109758219D01*
X184954943Y-109853457D01*
X184954943Y-109996314D01*
X184907324Y-110091552D01*
X184859705Y-110139171D01*
X184764467Y-110186790D01*
X184383514Y-110186790D01*
X185907324Y-110662981D02*
X185335895Y-110662981D01*
X185621609Y-110662981D02*
X185621609Y-109662981D01*
X185526371Y-109805838D01*
X185431133Y-109901076D01*
X185335895Y-109948695D01*
X186240657Y-109662981D02*
X186859705Y-109662981D01*
X186526371Y-110043933D01*
X186669229Y-110043933D01*
X186764467Y-110091552D01*
X186812086Y-110139171D01*
X186859705Y-110234410D01*
X186859705Y-110472505D01*
X186812086Y-110567743D01*
X186764467Y-110615362D01*
X186669229Y-110662981D01*
X186383514Y-110662981D01*
X186288276Y-110615362D01*
X186240657Y-110567743D01*
X187748943Y-110662981D02*
X187415609Y-110186790D01*
X187177514Y-110662981D02*
X187177514Y-109662981D01*
X187558467Y-109662981D01*
X187653705Y-109710600D01*
X187701324Y-109758219D01*
X187748943Y-109853457D01*
X187748943Y-109996314D01*
X187701324Y-110091552D01*
X187653705Y-110139171D01*
X187558467Y-110186790D01*
X187177514Y-110186790D01*
X188701324Y-110662981D02*
X188129895Y-110662981D01*
X188415609Y-110662981D02*
X188415609Y-109662981D01*
X188320371Y-109805838D01*
X188225133Y-109901076D01*
X188129895Y-109948695D01*
X189558467Y-109996314D02*
X189558467Y-110662981D01*
X189320371Y-109615362D02*
X189082276Y-110329648D01*
X189701324Y-110329648D01*
X193717943Y-110662981D02*
X193384609Y-110186790D01*
X193146514Y-110662981D02*
X193146514Y-109662981D01*
X193527467Y-109662981D01*
X193622705Y-109710600D01*
X193670324Y-109758219D01*
X193717943Y-109853457D01*
X193717943Y-109996314D01*
X193670324Y-110091552D01*
X193622705Y-110139171D01*
X193527467Y-110186790D01*
X193146514Y-110186790D01*
X194670324Y-110662981D02*
X194098895Y-110662981D01*
X194384609Y-110662981D02*
X194384609Y-109662981D01*
X194289371Y-109805838D01*
X194194133Y-109901076D01*
X194098895Y-109948695D01*
X195575086Y-109662981D02*
X195098895Y-109662981D01*
X195051276Y-110139171D01*
X195098895Y-110091552D01*
X195194133Y-110043933D01*
X195432229Y-110043933D01*
X195527467Y-110091552D01*
X195575086Y-110139171D01*
X195622705Y-110234410D01*
X195622705Y-110472505D01*
X195575086Y-110567743D01*
X195527467Y-110615362D01*
X195432229Y-110662981D01*
X195194133Y-110662981D01*
X195098895Y-110615362D01*
X195051276Y-110567743D01*
X201845943Y-110662981D02*
X201512609Y-110186790D01*
X201274514Y-110662981D02*
X201274514Y-109662981D01*
X201655467Y-109662981D01*
X201750705Y-109710600D01*
X201798324Y-109758219D01*
X201845943Y-109853457D01*
X201845943Y-109996314D01*
X201798324Y-110091552D01*
X201750705Y-110139171D01*
X201655467Y-110186790D01*
X201274514Y-110186790D01*
X202798324Y-110662981D02*
X202226895Y-110662981D01*
X202512609Y-110662981D02*
X202512609Y-109662981D01*
X202417371Y-109805838D01*
X202322133Y-109901076D01*
X202226895Y-109948695D01*
X203655467Y-109662981D02*
X203464990Y-109662981D01*
X203369752Y-109710600D01*
X203322133Y-109758219D01*
X203226895Y-109901076D01*
X203179276Y-110091552D01*
X203179276Y-110472505D01*
X203226895Y-110567743D01*
X203274514Y-110615362D01*
X203369752Y-110662981D01*
X203560229Y-110662981D01*
X203655467Y-110615362D01*
X203703086Y-110567743D01*
X203750705Y-110472505D01*
X203750705Y-110234410D01*
X203703086Y-110139171D01*
X203655467Y-110091552D01*
X203560229Y-110043933D01*
X203369752Y-110043933D01*
X203274514Y-110091552D01*
X203226895Y-110139171D01*
X203179276Y-110234410D01*
X182160943Y-110662981D02*
X181827609Y-110186790D01*
X181589514Y-110662981D02*
X181589514Y-109662981D01*
X181970467Y-109662981D01*
X182065705Y-109710600D01*
X182113324Y-109758219D01*
X182160943Y-109853457D01*
X182160943Y-109996314D01*
X182113324Y-110091552D01*
X182065705Y-110139171D01*
X181970467Y-110186790D01*
X181589514Y-110186790D01*
X183113324Y-110662981D02*
X182541895Y-110662981D01*
X182827609Y-110662981D02*
X182827609Y-109662981D01*
X182732371Y-109805838D01*
X182637133Y-109901076D01*
X182541895Y-109948695D01*
X183446657Y-109662981D02*
X184113324Y-109662981D01*
X183684752Y-110662981D01*
X190415943Y-110662981D02*
X190082609Y-110186790D01*
X189844514Y-110662981D02*
X189844514Y-109662981D01*
X190225467Y-109662981D01*
X190320705Y-109710600D01*
X190368324Y-109758219D01*
X190415943Y-109853457D01*
X190415943Y-109996314D01*
X190368324Y-110091552D01*
X190320705Y-110139171D01*
X190225467Y-110186790D01*
X189844514Y-110186790D01*
X191368324Y-110662981D02*
X190796895Y-110662981D01*
X191082609Y-110662981D02*
X191082609Y-109662981D01*
X190987371Y-109805838D01*
X190892133Y-109901076D01*
X190796895Y-109948695D01*
X191939752Y-110091552D02*
X191844514Y-110043933D01*
X191796895Y-109996314D01*
X191749276Y-109901076D01*
X191749276Y-109853457D01*
X191796895Y-109758219D01*
X191844514Y-109710600D01*
X191939752Y-109662981D01*
X192130229Y-109662981D01*
X192225467Y-109710600D01*
X192273086Y-109758219D01*
X192320705Y-109853457D01*
X192320705Y-109901076D01*
X192273086Y-109996314D01*
X192225467Y-110043933D01*
X192130229Y-110091552D01*
X191939752Y-110091552D01*
X191844514Y-110139171D01*
X191796895Y-110186790D01*
X191749276Y-110282029D01*
X191749276Y-110472505D01*
X191796895Y-110567743D01*
X191844514Y-110615362D01*
X191939752Y-110662981D01*
X192130229Y-110662981D01*
X192225467Y-110615362D01*
X192273086Y-110567743D01*
X192320705Y-110472505D01*
X192320705Y-110282029D01*
X192273086Y-110186790D01*
X192225467Y-110139171D01*
X192130229Y-110091552D01*
X199714743Y-99001581D02*
X199381409Y-98525390D01*
X199143314Y-99001581D02*
X199143314Y-98001581D01*
X199524267Y-98001581D01*
X199619505Y-98049200D01*
X199667124Y-98096819D01*
X199714743Y-98192057D01*
X199714743Y-98334914D01*
X199667124Y-98430152D01*
X199619505Y-98477771D01*
X199524267Y-98525390D01*
X199143314Y-98525390D01*
X200667124Y-99001581D02*
X200095695Y-99001581D01*
X200381409Y-99001581D02*
X200381409Y-98001581D01*
X200286171Y-98144438D01*
X200190933Y-98239676D01*
X200095695Y-98287295D01*
X201143314Y-99001581D02*
X201333790Y-99001581D01*
X201429029Y-98953962D01*
X201476648Y-98906343D01*
X201571886Y-98763486D01*
X201619505Y-98573010D01*
X201619505Y-98192057D01*
X201571886Y-98096819D01*
X201524267Y-98049200D01*
X201429029Y-98001581D01*
X201238552Y-98001581D01*
X201143314Y-98049200D01*
X201095695Y-98096819D01*
X201048076Y-98192057D01*
X201048076Y-98430152D01*
X201095695Y-98525390D01*
X201143314Y-98573010D01*
X201238552Y-98620629D01*
X201429029Y-98620629D01*
X201524267Y-98573010D01*
X201571886Y-98525390D01*
X201619505Y-98430152D01*
X187875943Y-98851981D02*
X187542609Y-98375790D01*
X187304514Y-98851981D02*
X187304514Y-97851981D01*
X187685467Y-97851981D01*
X187780705Y-97899600D01*
X187828324Y-97947219D01*
X187875943Y-98042457D01*
X187875943Y-98185314D01*
X187828324Y-98280552D01*
X187780705Y-98328171D01*
X187685467Y-98375790D01*
X187304514Y-98375790D01*
X188256895Y-97947219D02*
X188304514Y-97899600D01*
X188399752Y-97851981D01*
X188637848Y-97851981D01*
X188733086Y-97899600D01*
X188780705Y-97947219D01*
X188828324Y-98042457D01*
X188828324Y-98137695D01*
X188780705Y-98280552D01*
X188209276Y-98851981D01*
X188828324Y-98851981D01*
X189447371Y-97851981D02*
X189542610Y-97851981D01*
X189637848Y-97899600D01*
X189685467Y-97947219D01*
X189733086Y-98042457D01*
X189780705Y-98232933D01*
X189780705Y-98471029D01*
X189733086Y-98661505D01*
X189685467Y-98756743D01*
X189637848Y-98804362D01*
X189542610Y-98851981D01*
X189447371Y-98851981D01*
X189352133Y-98804362D01*
X189304514Y-98756743D01*
X189256895Y-98661505D01*
X189209276Y-98471029D01*
X189209276Y-98232933D01*
X189256895Y-98042457D01*
X189304514Y-97947219D01*
X189352133Y-97899600D01*
X189447371Y-97851981D01*
X166735943Y-92979981D02*
X166402609Y-92503790D01*
X166164514Y-92979981D02*
X166164514Y-91979981D01*
X166545467Y-91979981D01*
X166640705Y-92027600D01*
X166688324Y-92075219D01*
X166735943Y-92170457D01*
X166735943Y-92313314D01*
X166688324Y-92408552D01*
X166640705Y-92456171D01*
X166545467Y-92503790D01*
X166164514Y-92503790D01*
X167116895Y-92075219D02*
X167164514Y-92027600D01*
X167259752Y-91979981D01*
X167497848Y-91979981D01*
X167593086Y-92027600D01*
X167640705Y-92075219D01*
X167688324Y-92170457D01*
X167688324Y-92265695D01*
X167640705Y-92408552D01*
X167069276Y-92979981D01*
X167688324Y-92979981D01*
X168640705Y-92979981D02*
X168069276Y-92979981D01*
X168354990Y-92979981D02*
X168354990Y-91979981D01*
X168259752Y-92122838D01*
X168164514Y-92218076D01*
X168069276Y-92265695D01*
X173397943Y-110662981D02*
X173064609Y-110186790D01*
X172826514Y-110662981D02*
X172826514Y-109662981D01*
X173207467Y-109662981D01*
X173302705Y-109710600D01*
X173350324Y-109758219D01*
X173397943Y-109853457D01*
X173397943Y-109996314D01*
X173350324Y-110091552D01*
X173302705Y-110139171D01*
X173207467Y-110186790D01*
X172826514Y-110186790D01*
X173778895Y-109758219D02*
X173826514Y-109710600D01*
X173921752Y-109662981D01*
X174159848Y-109662981D01*
X174255086Y-109710600D01*
X174302705Y-109758219D01*
X174350324Y-109853457D01*
X174350324Y-109948695D01*
X174302705Y-110091552D01*
X173731276Y-110662981D01*
X174350324Y-110662981D01*
X174731276Y-109758219D02*
X174778895Y-109710600D01*
X174874133Y-109662981D01*
X175112229Y-109662981D01*
X175207467Y-109710600D01*
X175255086Y-109758219D01*
X175302705Y-109853457D01*
X175302705Y-109948695D01*
X175255086Y-110091552D01*
X174683657Y-110662981D01*
X175302705Y-110662981D01*
X176064943Y-110662981D02*
X175731609Y-110186790D01*
X175493514Y-110662981D02*
X175493514Y-109662981D01*
X175874467Y-109662981D01*
X175969705Y-109710600D01*
X176017324Y-109758219D01*
X176064943Y-109853457D01*
X176064943Y-109996314D01*
X176017324Y-110091552D01*
X175969705Y-110139171D01*
X175874467Y-110186790D01*
X175493514Y-110186790D01*
X176445895Y-109758219D02*
X176493514Y-109710600D01*
X176588752Y-109662981D01*
X176826848Y-109662981D01*
X176922086Y-109710600D01*
X176969705Y-109758219D01*
X177017324Y-109853457D01*
X177017324Y-109948695D01*
X176969705Y-110091552D01*
X176398276Y-110662981D01*
X177017324Y-110662981D01*
X177350657Y-109662981D02*
X177969705Y-109662981D01*
X177636371Y-110043933D01*
X177779229Y-110043933D01*
X177874467Y-110091552D01*
X177922086Y-110139171D01*
X177969705Y-110234410D01*
X177969705Y-110472505D01*
X177922086Y-110567743D01*
X177874467Y-110615362D01*
X177779229Y-110662981D01*
X177493514Y-110662981D01*
X177398276Y-110615362D01*
X177350657Y-110567743D01*
X170603943Y-110662981D02*
X170270609Y-110186790D01*
X170032514Y-110662981D02*
X170032514Y-109662981D01*
X170413467Y-109662981D01*
X170508705Y-109710600D01*
X170556324Y-109758219D01*
X170603943Y-109853457D01*
X170603943Y-109996314D01*
X170556324Y-110091552D01*
X170508705Y-110139171D01*
X170413467Y-110186790D01*
X170032514Y-110186790D01*
X170984895Y-109758219D02*
X171032514Y-109710600D01*
X171127752Y-109662981D01*
X171365848Y-109662981D01*
X171461086Y-109710600D01*
X171508705Y-109758219D01*
X171556324Y-109853457D01*
X171556324Y-109948695D01*
X171508705Y-110091552D01*
X170937276Y-110662981D01*
X171556324Y-110662981D01*
X172413467Y-109996314D02*
X172413467Y-110662981D01*
X172175371Y-109615362D02*
X171937276Y-110329648D01*
X172556324Y-110329648D01*
X178731943Y-110662981D02*
X178398609Y-110186790D01*
X178160514Y-110662981D02*
X178160514Y-109662981D01*
X178541467Y-109662981D01*
X178636705Y-109710600D01*
X178684324Y-109758219D01*
X178731943Y-109853457D01*
X178731943Y-109996314D01*
X178684324Y-110091552D01*
X178636705Y-110139171D01*
X178541467Y-110186790D01*
X178160514Y-110186790D01*
X179112895Y-109758219D02*
X179160514Y-109710600D01*
X179255752Y-109662981D01*
X179493848Y-109662981D01*
X179589086Y-109710600D01*
X179636705Y-109758219D01*
X179684324Y-109853457D01*
X179684324Y-109948695D01*
X179636705Y-110091552D01*
X179065276Y-110662981D01*
X179684324Y-110662981D01*
X180589086Y-109662981D02*
X180112895Y-109662981D01*
X180065276Y-110139171D01*
X180112895Y-110091552D01*
X180208133Y-110043933D01*
X180446229Y-110043933D01*
X180541467Y-110091552D01*
X180589086Y-110139171D01*
X180636705Y-110234410D01*
X180636705Y-110472505D01*
X180589086Y-110567743D01*
X180541467Y-110615362D01*
X180446229Y-110662981D01*
X180208133Y-110662981D01*
X180112895Y-110615362D01*
X180065276Y-110567743D01*
X176699943Y-98851981D02*
X176366609Y-98375790D01*
X176128514Y-98851981D02*
X176128514Y-97851981D01*
X176509467Y-97851981D01*
X176604705Y-97899600D01*
X176652324Y-97947219D01*
X176699943Y-98042457D01*
X176699943Y-98185314D01*
X176652324Y-98280552D01*
X176604705Y-98328171D01*
X176509467Y-98375790D01*
X176128514Y-98375790D01*
X177080895Y-97947219D02*
X177128514Y-97899600D01*
X177223752Y-97851981D01*
X177461848Y-97851981D01*
X177557086Y-97899600D01*
X177604705Y-97947219D01*
X177652324Y-98042457D01*
X177652324Y-98137695D01*
X177604705Y-98280552D01*
X177033276Y-98851981D01*
X177652324Y-98851981D01*
X178509467Y-97851981D02*
X178318990Y-97851981D01*
X178223752Y-97899600D01*
X178176133Y-97947219D01*
X178080895Y-98090076D01*
X178033276Y-98280552D01*
X178033276Y-98661505D01*
X178080895Y-98756743D01*
X178128514Y-98804362D01*
X178223752Y-98851981D01*
X178414229Y-98851981D01*
X178509467Y-98804362D01*
X178557086Y-98756743D01*
X178604705Y-98661505D01*
X178604705Y-98423410D01*
X178557086Y-98328171D01*
X178509467Y-98280552D01*
X178414229Y-98232933D01*
X178223752Y-98232933D01*
X178128514Y-98280552D01*
X178080895Y-98328171D01*
X178033276Y-98423410D01*
X161713943Y-110662981D02*
X161380609Y-110186790D01*
X161142514Y-110662981D02*
X161142514Y-109662981D01*
X161523467Y-109662981D01*
X161618705Y-109710600D01*
X161666324Y-109758219D01*
X161713943Y-109853457D01*
X161713943Y-109996314D01*
X161666324Y-110091552D01*
X161618705Y-110139171D01*
X161523467Y-110186790D01*
X161142514Y-110186790D01*
X162094895Y-109758219D02*
X162142514Y-109710600D01*
X162237752Y-109662981D01*
X162475848Y-109662981D01*
X162571086Y-109710600D01*
X162618705Y-109758219D01*
X162666324Y-109853457D01*
X162666324Y-109948695D01*
X162618705Y-110091552D01*
X162047276Y-110662981D01*
X162666324Y-110662981D01*
X162999657Y-109662981D02*
X163666324Y-109662981D01*
X163237752Y-110662981D01*
X164380943Y-110662981D02*
X164047609Y-110186790D01*
X163809514Y-110662981D02*
X163809514Y-109662981D01*
X164190467Y-109662981D01*
X164285705Y-109710600D01*
X164333324Y-109758219D01*
X164380943Y-109853457D01*
X164380943Y-109996314D01*
X164333324Y-110091552D01*
X164285705Y-110139171D01*
X164190467Y-110186790D01*
X163809514Y-110186790D01*
X164761895Y-109758219D02*
X164809514Y-109710600D01*
X164904752Y-109662981D01*
X165142848Y-109662981D01*
X165238086Y-109710600D01*
X165285705Y-109758219D01*
X165333324Y-109853457D01*
X165333324Y-109948695D01*
X165285705Y-110091552D01*
X164714276Y-110662981D01*
X165333324Y-110662981D01*
X165904752Y-110091552D02*
X165809514Y-110043933D01*
X165761895Y-109996314D01*
X165714276Y-109901076D01*
X165714276Y-109853457D01*
X165761895Y-109758219D01*
X165809514Y-109710600D01*
X165904752Y-109662981D01*
X166095229Y-109662981D01*
X166190467Y-109710600D01*
X166238086Y-109758219D01*
X166285705Y-109853457D01*
X166285705Y-109901076D01*
X166238086Y-109996314D01*
X166190467Y-110043933D01*
X166095229Y-110091552D01*
X165904752Y-110091552D01*
X165809514Y-110139171D01*
X165761895Y-110186790D01*
X165714276Y-110282029D01*
X165714276Y-110472505D01*
X165761895Y-110567743D01*
X165809514Y-110615362D01*
X165904752Y-110662981D01*
X166095229Y-110662981D01*
X166190467Y-110615362D01*
X166238086Y-110567743D01*
X166285705Y-110472505D01*
X166285705Y-110282029D01*
X166238086Y-110186790D01*
X166190467Y-110139171D01*
X166095229Y-110091552D01*
X159046943Y-110662981D02*
X158713609Y-110186790D01*
X158475514Y-110662981D02*
X158475514Y-109662981D01*
X158856467Y-109662981D01*
X158951705Y-109710600D01*
X158999324Y-109758219D01*
X159046943Y-109853457D01*
X159046943Y-109996314D01*
X158999324Y-110091552D01*
X158951705Y-110139171D01*
X158856467Y-110186790D01*
X158475514Y-110186790D01*
X159427895Y-109758219D02*
X159475514Y-109710600D01*
X159570752Y-109662981D01*
X159808848Y-109662981D01*
X159904086Y-109710600D01*
X159951705Y-109758219D01*
X159999324Y-109853457D01*
X159999324Y-109948695D01*
X159951705Y-110091552D01*
X159380276Y-110662981D01*
X159999324Y-110662981D01*
X160475514Y-110662981D02*
X160665990Y-110662981D01*
X160761229Y-110615362D01*
X160808848Y-110567743D01*
X160904086Y-110424886D01*
X160951705Y-110234410D01*
X160951705Y-109853457D01*
X160904086Y-109758219D01*
X160856467Y-109710600D01*
X160761229Y-109662981D01*
X160570752Y-109662981D01*
X160475514Y-109710600D01*
X160427895Y-109758219D01*
X160380276Y-109853457D01*
X160380276Y-110091552D01*
X160427895Y-110186790D01*
X160475514Y-110234410D01*
X160570752Y-110282029D01*
X160761229Y-110282029D01*
X160856467Y-110234410D01*
X160904086Y-110186790D01*
X160951705Y-110091552D01*
X167047943Y-110662981D02*
X166714609Y-110186790D01*
X166476514Y-110662981D02*
X166476514Y-109662981D01*
X166857467Y-109662981D01*
X166952705Y-109710600D01*
X167000324Y-109758219D01*
X167047943Y-109853457D01*
X167047943Y-109996314D01*
X167000324Y-110091552D01*
X166952705Y-110139171D01*
X166857467Y-110186790D01*
X166476514Y-110186790D01*
X167381276Y-109662981D02*
X168000324Y-109662981D01*
X167666990Y-110043933D01*
X167809848Y-110043933D01*
X167905086Y-110091552D01*
X167952705Y-110139171D01*
X168000324Y-110234410D01*
X168000324Y-110472505D01*
X167952705Y-110567743D01*
X167905086Y-110615362D01*
X167809848Y-110662981D01*
X167524133Y-110662981D01*
X167428895Y-110615362D01*
X167381276Y-110567743D01*
X168619371Y-109662981D02*
X168714610Y-109662981D01*
X168809848Y-109710600D01*
X168857467Y-109758219D01*
X168905086Y-109853457D01*
X168952705Y-110043933D01*
X168952705Y-110282029D01*
X168905086Y-110472505D01*
X168857467Y-110567743D01*
X168809848Y-110615362D01*
X168714610Y-110662981D01*
X168619371Y-110662981D01*
X168524133Y-110615362D01*
X168476514Y-110567743D01*
X168428895Y-110472505D01*
X168381276Y-110282029D01*
X168381276Y-110043933D01*
X168428895Y-109853457D01*
X168476514Y-109758219D01*
X168524133Y-109710600D01*
X168619371Y-109662981D01*
X165015943Y-98851981D02*
X164682609Y-98375790D01*
X164444514Y-98851981D02*
X164444514Y-97851981D01*
X164825467Y-97851981D01*
X164920705Y-97899600D01*
X164968324Y-97947219D01*
X165015943Y-98042457D01*
X165015943Y-98185314D01*
X164968324Y-98280552D01*
X164920705Y-98328171D01*
X164825467Y-98375790D01*
X164444514Y-98375790D01*
X165349276Y-97851981D02*
X165968324Y-97851981D01*
X165634990Y-98232933D01*
X165777848Y-98232933D01*
X165873086Y-98280552D01*
X165920705Y-98328171D01*
X165968324Y-98423410D01*
X165968324Y-98661505D01*
X165920705Y-98756743D01*
X165873086Y-98804362D01*
X165777848Y-98851981D01*
X165492133Y-98851981D01*
X165396895Y-98804362D01*
X165349276Y-98756743D01*
X166920705Y-98851981D02*
X166349276Y-98851981D01*
X166634990Y-98851981D02*
X166634990Y-97851981D01*
X166539752Y-97994838D01*
X166444514Y-98090076D01*
X166349276Y-98137695D01*
X142175181Y-102589505D02*
X142984705Y-102589505D01*
X143079943Y-102541886D01*
X143127562Y-102494267D01*
X143175181Y-102399029D01*
X143175181Y-102208552D01*
X143127562Y-102113314D01*
X143079943Y-102065695D01*
X142984705Y-102018076D01*
X142175181Y-102018076D01*
X142175181Y-101637124D02*
X142175181Y-100970457D01*
X143175181Y-101399029D01*
X208084705Y-93779981D02*
X208084705Y-92779981D01*
X208465658Y-92779981D01*
X208560896Y-92827600D01*
X208608515Y-92875219D01*
X208656134Y-92970457D01*
X208656134Y-93113314D01*
X208608515Y-93208552D01*
X208560896Y-93256171D01*
X208465658Y-93303790D01*
X208084705Y-93303790D01*
X209037086Y-92875219D02*
X209084705Y-92827600D01*
X209179943Y-92779981D01*
X209418039Y-92779981D01*
X209513277Y-92827600D01*
X209560896Y-92875219D01*
X209608515Y-92970457D01*
X209608515Y-93065695D01*
X209560896Y-93208552D01*
X208989467Y-93779981D01*
X209608515Y-93779981D01*
M02*
