G04 #@! TF.FileFunction,Copper,L1,Top,Signal*
%FSLAX46Y46*%
G04 Gerber Fmt 4.6, Leading zero omitted, Abs format (unit mm)*
G04 Created by KiCad (PCBNEW 4.0.6+dfsg1-1) date Wed Nov 29 19:26:48 2017*
%MOMM*%
%LPD*%
G01*
G04 APERTURE LIST*
%ADD10C,0.100000*%
%ADD11R,2.000000X2.000000*%
%ADD12C,2.000000*%
%ADD13R,2.400000X2.400000*%
%ADD14C,2.400000*%
%ADD15R,2.500000X1.800000*%
%ADD16R,1.600000X3.500000*%
%ADD17R,3.500000X1.600000*%
%ADD18R,1.500000X1.500000*%
%ADD19O,1.600000X1.600000*%
%ADD20R,1.727200X2.032000*%
%ADD21O,1.727200X2.032000*%
%ADD22R,1.300000X0.700000*%
%ADD23R,0.700000X1.300000*%
%ADD24R,3.048000X1.651000*%
%ADD25R,6.096000X6.096000*%
%ADD26R,2.032000X2.032000*%
%ADD27O,2.032000X2.032000*%
%ADD28C,6.000000*%
%ADD29C,0.600000*%
%ADD30C,1.000000*%
%ADD31C,0.500000*%
G04 APERTURE END LIST*
D10*
D11*
X177850800Y-118084600D03*
D12*
X175310800Y-118084600D03*
X172810800Y-118084600D03*
D11*
X200837800Y-118084600D03*
D12*
X198297800Y-118084600D03*
X195797800Y-118084600D03*
D13*
X146022800Y-115127600D03*
D14*
X146022800Y-111627600D03*
D15*
X148522800Y-120727600D03*
X144522800Y-120727600D03*
D16*
X154722800Y-115027600D03*
X154722800Y-120427600D03*
D17*
X150922800Y-94727600D03*
X145522800Y-94727600D03*
D18*
X159572800Y-92527600D03*
X156272800Y-92527600D03*
D19*
X171500800Y-108483400D03*
X174040800Y-108483400D03*
X176580800Y-108483400D03*
X179120800Y-108483400D03*
X179120800Y-100863400D03*
X176580800Y-100863400D03*
X174040800Y-100863400D03*
X171500800Y-100863400D03*
X159893000Y-108483400D03*
X162433000Y-108483400D03*
X164973000Y-108483400D03*
X167513000Y-108483400D03*
X167513000Y-100863400D03*
X164973000Y-100863400D03*
X162433000Y-100863400D03*
X159893000Y-100863400D03*
D11*
X166166800Y-118084600D03*
D12*
X163626800Y-118084600D03*
X161126800Y-118084600D03*
D20*
X204978000Y-93345000D03*
D21*
X202438000Y-93345000D03*
X199898000Y-93345000D03*
X197358000Y-93345000D03*
X194818000Y-93345000D03*
X192278000Y-93345000D03*
X189738000Y-93345000D03*
X187198000Y-93345000D03*
D11*
X223824800Y-118084600D03*
D12*
X221284800Y-118084600D03*
X218784800Y-118084600D03*
D11*
X212394800Y-118084600D03*
D12*
X209854800Y-118084600D03*
X207354800Y-118084600D03*
D11*
X189407800Y-118084600D03*
D12*
X186867800Y-118084600D03*
X184367800Y-118084600D03*
D19*
X183000000Y-108500000D03*
X185540000Y-108500000D03*
X188080000Y-108500000D03*
X190620000Y-108500000D03*
X190620000Y-100880000D03*
X188080000Y-100880000D03*
X185540000Y-100880000D03*
X183000000Y-100880000D03*
X194500000Y-108500000D03*
X197040000Y-108500000D03*
X199580000Y-108500000D03*
X202120000Y-108500000D03*
X202120000Y-100880000D03*
X199580000Y-100880000D03*
X197040000Y-100880000D03*
X194500000Y-100880000D03*
X206000000Y-108500000D03*
X208540000Y-108500000D03*
X211080000Y-108500000D03*
X213620000Y-108500000D03*
X213620000Y-100880000D03*
X211080000Y-100880000D03*
X208540000Y-100880000D03*
X206000000Y-100880000D03*
X217500000Y-108500000D03*
X220040000Y-108500000D03*
X222580000Y-108500000D03*
X225120000Y-108500000D03*
X225120000Y-100880000D03*
X222580000Y-100880000D03*
X220040000Y-100880000D03*
X217500000Y-100880000D03*
D22*
X219887800Y-111419600D03*
X219887800Y-113319600D03*
X222554800Y-111419600D03*
X222554800Y-113319600D03*
X208584800Y-111419600D03*
X208584800Y-113319600D03*
X211124800Y-111419600D03*
X211124800Y-113319600D03*
X217220800Y-111419600D03*
X217220800Y-113319600D03*
X225221800Y-113319600D03*
X225221800Y-111419600D03*
X205917800Y-111419600D03*
X205917800Y-113319600D03*
X213664800Y-113319600D03*
X213664800Y-111419600D03*
D23*
X220964800Y-98399600D03*
X219064800Y-98399600D03*
X209280800Y-98399600D03*
X207380800Y-98399600D03*
D22*
X197154800Y-111419600D03*
X197154800Y-113319600D03*
X199694800Y-111419600D03*
X199694800Y-113319600D03*
X185724800Y-111419600D03*
X185724800Y-113319600D03*
X188264800Y-111419600D03*
X188264800Y-113319600D03*
X194360800Y-111419600D03*
X194360800Y-113319600D03*
X202361800Y-113319600D03*
X202361800Y-111419600D03*
X183057800Y-111419600D03*
X183057800Y-113319600D03*
X190804800Y-113319600D03*
X190804800Y-111419600D03*
D23*
X198104800Y-98399600D03*
X196204800Y-98399600D03*
X186550000Y-98400000D03*
X184650000Y-98400000D03*
X164772800Y-92527600D03*
X162872800Y-92527600D03*
D22*
X174040800Y-111419600D03*
X174040800Y-113319600D03*
X176580800Y-111419600D03*
X176580800Y-113319600D03*
X171500800Y-111419600D03*
X171500800Y-113319600D03*
X179247800Y-113319600D03*
X179247800Y-111419600D03*
D23*
X174990800Y-98399600D03*
X173090800Y-98399600D03*
D22*
X162483800Y-111419600D03*
X162483800Y-113319600D03*
X165023800Y-111419600D03*
X165023800Y-113319600D03*
X159816800Y-111419600D03*
X159816800Y-113319600D03*
X167563800Y-113319600D03*
X167563800Y-111419600D03*
D23*
X163306800Y-98399600D03*
X161406800Y-98399600D03*
D24*
X153422800Y-104113600D03*
D25*
X147072800Y-101827600D03*
D24*
X153422800Y-99541600D03*
D26*
X211822800Y-93327600D03*
D27*
X214362800Y-93327600D03*
D28*
X224522800Y-93527600D03*
X154322800Y-108827600D03*
X157622800Y-96727600D03*
D29*
X154722800Y-120427600D03*
D30*
X146022800Y-111627600D02*
X146022800Y-102877600D01*
X146022800Y-102877600D02*
X147072800Y-101827600D01*
X145522800Y-94727600D02*
X145522800Y-93927600D01*
X145522800Y-93927600D02*
X146922800Y-92527600D01*
X146922800Y-92527600D02*
X156272800Y-92527600D01*
X145522800Y-94727600D02*
X145522800Y-100277600D01*
X145522800Y-100277600D02*
X147072800Y-101827600D01*
X147222800Y-101977600D02*
X147072800Y-101827600D01*
D31*
X225221800Y-113319600D02*
X225221800Y-116623200D01*
X225221800Y-116623200D02*
X223750000Y-118095000D01*
X213664800Y-113319600D02*
X213664800Y-116930200D01*
X213664800Y-116930200D02*
X212500000Y-118095000D01*
X202361800Y-113319600D02*
X202361800Y-116733200D01*
X202361800Y-116733200D02*
X201000000Y-118095000D01*
X190804800Y-113319600D02*
X190804800Y-116790200D01*
X190804800Y-116790200D02*
X189500000Y-118095000D01*
X179247800Y-113319600D02*
X179247800Y-116687600D01*
X179247800Y-116687600D02*
X177850800Y-118084600D01*
X167563800Y-113319600D02*
X167563800Y-116687600D01*
X167563800Y-116687600D02*
X166166800Y-118084600D01*
D30*
X148522800Y-120727600D02*
X148522800Y-119277600D01*
X148522800Y-119277600D02*
X152772800Y-115027600D01*
X152772800Y-115027600D02*
X154722800Y-115027600D01*
X154722800Y-114377600D02*
X158122800Y-110977600D01*
X158122800Y-110977600D02*
X158122800Y-105977600D01*
X158122800Y-105977600D02*
X156258800Y-104113600D01*
X156258800Y-104113600D02*
X153422800Y-104113600D01*
X159816800Y-116774600D02*
X156469800Y-116774600D01*
X156469800Y-116774600D02*
X154722800Y-115027600D01*
X161126800Y-118084600D02*
X159816800Y-116774600D01*
X154722800Y-115027600D02*
X154722800Y-114377600D01*
X153422800Y-104113600D02*
X154383800Y-104113600D01*
X161126800Y-118084600D02*
X161126800Y-119031600D01*
X161126800Y-119031600D02*
X162973800Y-120878600D01*
X162973800Y-120878600D02*
X171246800Y-120878600D01*
X159816800Y-116774600D02*
X159816800Y-114021600D01*
X159222800Y-113427600D02*
X159816800Y-114021600D01*
X207354800Y-118084600D02*
X207354800Y-118171600D01*
X207354800Y-118171600D02*
X204647800Y-120878600D01*
X195797800Y-118084600D02*
X195797800Y-118552600D01*
X195797800Y-118552600D02*
X193471800Y-120878600D01*
X184367800Y-118084600D02*
X184367800Y-118425600D01*
X184367800Y-118425600D02*
X181914800Y-120878600D01*
X172810800Y-118084600D02*
X172810800Y-119314600D01*
X172810800Y-119314600D02*
X171246800Y-120878600D01*
X215926400Y-120878600D02*
X218710000Y-118095000D01*
X171246800Y-120878600D02*
X181914800Y-120878600D01*
X181914800Y-120878600D02*
X193471800Y-120878600D01*
X193471800Y-120878600D02*
X204647800Y-120878600D01*
X204647800Y-120878600D02*
X215926400Y-120878600D01*
D31*
X217220800Y-113319600D02*
X217220800Y-116605800D01*
X217220800Y-116605800D02*
X218710000Y-118095000D01*
X205917800Y-113319600D02*
X205917800Y-116552800D01*
X205917800Y-116552800D02*
X207460000Y-118095000D01*
X194360800Y-113319600D02*
X194360800Y-116495800D01*
X194360800Y-116495800D02*
X195960000Y-118095000D01*
X183057800Y-113319600D02*
X183057800Y-116692800D01*
X183057800Y-116692800D02*
X184460000Y-118095000D01*
X171500800Y-113319600D02*
X171500800Y-116774600D01*
X171500800Y-116774600D02*
X172810800Y-118084600D01*
X159816800Y-113319600D02*
X159816800Y-114021600D01*
X159816800Y-114021600D02*
X159816800Y-116774600D01*
X184220000Y-117895000D02*
X184420000Y-118095000D01*
D30*
X159893000Y-100863400D02*
X159893000Y-100557400D01*
X159893000Y-100557400D02*
X161406800Y-99043600D01*
X161406800Y-99043600D02*
X161406800Y-98399600D01*
X164772800Y-92527600D02*
X164772800Y-94477600D01*
X161406800Y-96543600D02*
X161406800Y-98399600D01*
X162022800Y-95927600D02*
X161406800Y-96543600D01*
X163322800Y-95927600D02*
X162022800Y-95927600D01*
X164772800Y-94477600D02*
X163322800Y-95927600D01*
X159893000Y-100863400D02*
X159893000Y-103557400D01*
X159893000Y-103557400D02*
X159122800Y-104327600D01*
X153422800Y-99541600D02*
X154336800Y-99541600D01*
X154336800Y-99541600D02*
X159122800Y-104327600D01*
X159122800Y-104327600D02*
X159290800Y-104495600D01*
X159290800Y-104495600D02*
X168249600Y-104495600D01*
X150922800Y-94727600D02*
X152422800Y-94727600D01*
X152422800Y-94727600D02*
X153422800Y-95727600D01*
X153422800Y-95727600D02*
X153422800Y-99541600D01*
X202384400Y-104495600D02*
X213884400Y-104495600D01*
X213884400Y-104495600D02*
X217500000Y-100880000D01*
X190884400Y-104495600D02*
X202384400Y-104495600D01*
X202384400Y-104495600D02*
X206000000Y-100880000D01*
X179374800Y-104495600D02*
X190884400Y-104495600D01*
X190884400Y-104495600D02*
X194500000Y-100880000D01*
X167868600Y-104495600D02*
X168249600Y-104495600D01*
X168249600Y-104495600D02*
X179374800Y-104495600D01*
X179374800Y-104495600D02*
X179384400Y-104495600D01*
X179384400Y-104495600D02*
X183000000Y-100880000D01*
X167868600Y-104495600D02*
X171500800Y-100863400D01*
D31*
X213884400Y-104495600D02*
X217500000Y-100880000D01*
X202384400Y-104495600D02*
X206000000Y-100880000D01*
X179384400Y-104495600D02*
X190884400Y-104495600D01*
X190884400Y-104495600D02*
X194500000Y-100880000D01*
X179384400Y-104495600D02*
X183000000Y-100880000D01*
X167868600Y-104495600D02*
X171500800Y-100863400D01*
X217500000Y-100880000D02*
X217500000Y-99186800D01*
X217500000Y-99186800D02*
X218287200Y-98399600D01*
X218287200Y-98399600D02*
X219064800Y-98399600D01*
X206000000Y-100880000D02*
X206000000Y-99206400D01*
X206000000Y-99206400D02*
X206806800Y-98399600D01*
X206806800Y-98399600D02*
X207380800Y-98399600D01*
X194500000Y-100880000D02*
X194500000Y-99276400D01*
X194500000Y-99276400D02*
X195376800Y-98399600D01*
X195376800Y-98399600D02*
X196204800Y-98399600D01*
X183000000Y-100880000D02*
X183000000Y-99092400D01*
X183000000Y-99092400D02*
X183692400Y-98400000D01*
X183692400Y-98400000D02*
X184650000Y-98400000D01*
X171500800Y-100863400D02*
X171500800Y-98907600D01*
X171500800Y-98907600D02*
X172008800Y-98399600D01*
X172008800Y-98399600D02*
X173090800Y-98399600D01*
X221210000Y-118095000D02*
X221210000Y-113319600D01*
X221157800Y-113385600D02*
X221157800Y-113319600D01*
X221157800Y-113371800D02*
X221157800Y-113385600D01*
X221210000Y-113319600D02*
X221157800Y-113371800D01*
X219887800Y-113319600D02*
X221157800Y-113319600D01*
X221157800Y-113319600D02*
X222554800Y-113319600D01*
X209960000Y-118095000D02*
X209960000Y-113319600D01*
X209854800Y-113512600D02*
X209854800Y-113319600D01*
X209854800Y-113424800D02*
X209854800Y-113512600D01*
X209960000Y-113319600D02*
X209854800Y-113424800D01*
X208584800Y-113319600D02*
X209854800Y-113319600D01*
X209854800Y-113319600D02*
X211124800Y-113319600D01*
X198460000Y-118095000D02*
X198460000Y-113319600D01*
X198551800Y-113385600D02*
X198551800Y-113319600D01*
X198526000Y-113385600D02*
X198551800Y-113385600D01*
X198460000Y-113319600D02*
X198526000Y-113385600D01*
X197154800Y-113319600D02*
X198551800Y-113319600D01*
X198551800Y-113319600D02*
X199694800Y-113319600D01*
X186960000Y-118095000D02*
X186960000Y-113319600D01*
X186994800Y-113385600D02*
X186994800Y-113319600D01*
X186994800Y-113354400D02*
X186994800Y-113385600D01*
X186960000Y-113319600D02*
X186994800Y-113354400D01*
X185724800Y-113319600D02*
X186994800Y-113319600D01*
X186994800Y-113319600D02*
X188264800Y-113319600D01*
X202438000Y-93345000D02*
X202438000Y-95173800D01*
X220964800Y-96179600D02*
X220964800Y-98399600D01*
X221030800Y-96113600D02*
X220964800Y-96179600D01*
X203377800Y-96113600D02*
X221030800Y-96113600D01*
X202438000Y-95173800D02*
X203377800Y-96113600D01*
X222580000Y-100880000D02*
X222580000Y-99186800D01*
X221792800Y-98399600D02*
X220964800Y-98399600D01*
X222580000Y-99186800D02*
X221792800Y-98399600D01*
X199898000Y-93345000D02*
X199898000Y-94284800D01*
X199898000Y-94284800D02*
X202615800Y-97002600D01*
X202615800Y-97002600D02*
X209346800Y-97002600D01*
X209346800Y-97002600D02*
X209280800Y-97068600D01*
X209280800Y-97068600D02*
X209280800Y-98399600D01*
X211080000Y-100880000D02*
X211080000Y-99460400D01*
X210019200Y-98399600D02*
X209280800Y-98399600D01*
X211080000Y-99460400D02*
X210019200Y-98399600D01*
X198104800Y-98399600D02*
X198104800Y-97317600D01*
X197358000Y-96570800D02*
X197358000Y-93345000D01*
X198104800Y-97317600D02*
X197358000Y-96570800D01*
X199580000Y-100880000D02*
X199580000Y-99300800D01*
X198678800Y-98399600D02*
X198104800Y-98399600D01*
X199580000Y-99300800D02*
X198678800Y-98399600D01*
X194818000Y-93345000D02*
X194818000Y-93370400D01*
X194818000Y-93370400D02*
X191185800Y-97002600D01*
X191185800Y-97002600D02*
X187947400Y-97002600D01*
X187947400Y-97002600D02*
X186550000Y-98400000D01*
X188080000Y-100880000D02*
X188080000Y-99230800D01*
X187249200Y-98400000D02*
X186550000Y-98400000D01*
X188080000Y-99230800D02*
X187249200Y-98400000D01*
X217220800Y-111419600D02*
X219887800Y-111419600D01*
X220040000Y-108500000D02*
X220040000Y-111267400D01*
X220040000Y-111267400D02*
X219887800Y-111419600D01*
X222554800Y-111419600D02*
X225221800Y-111419600D01*
X222580000Y-108500000D02*
X222580000Y-111394400D01*
X222580000Y-111394400D02*
X222554800Y-111419600D01*
X208584800Y-111419600D02*
X205917800Y-111419600D01*
X208540000Y-108500000D02*
X208540000Y-111374800D01*
X208540000Y-111374800D02*
X208584800Y-111419600D01*
X211124800Y-111419600D02*
X213664800Y-111419600D01*
X211080000Y-108500000D02*
X211080000Y-111374800D01*
X211080000Y-111374800D02*
X211124800Y-111419600D01*
X197154800Y-111419600D02*
X194360800Y-111419600D01*
X197040000Y-108500000D02*
X197040000Y-111304800D01*
X197040000Y-111304800D02*
X197154800Y-111419600D01*
X199694800Y-111419600D02*
X202361800Y-111419600D01*
X199580000Y-108500000D02*
X199580000Y-111304800D01*
X199580000Y-111304800D02*
X199694800Y-111419600D01*
X185724800Y-111419600D02*
X183057800Y-111419600D01*
X185540000Y-108500000D02*
X185540000Y-111234800D01*
X185540000Y-111234800D02*
X185724800Y-111419600D01*
X188264800Y-111419600D02*
X190804800Y-111419600D01*
X188080000Y-108500000D02*
X188080000Y-111234800D01*
X188080000Y-111234800D02*
X188264800Y-111419600D01*
X174040800Y-111419600D02*
X171500800Y-111419600D01*
X174040800Y-108483400D02*
X174040800Y-111419600D01*
X175310800Y-118084600D02*
X175310800Y-113319600D01*
X175310800Y-113319600D02*
X175310800Y-113385600D01*
X175310800Y-113385600D02*
X175310800Y-113319600D01*
X174040800Y-113319600D02*
X175310800Y-113319600D01*
X175310800Y-113319600D02*
X176580800Y-113319600D01*
X176580800Y-111419600D02*
X179247800Y-111419600D01*
X176580800Y-108483400D02*
X176580800Y-111419600D01*
X192278000Y-93345000D02*
X192278000Y-93370400D01*
X192278000Y-93370400D02*
X189661800Y-95986600D01*
X189661800Y-95986600D02*
X177403800Y-95986600D01*
X177403800Y-95986600D02*
X174990800Y-98399600D01*
X176580800Y-100863400D02*
X176580800Y-99161600D01*
X175818800Y-98399600D02*
X174990800Y-98399600D01*
X176580800Y-99161600D02*
X175818800Y-98399600D01*
X162433000Y-108483400D02*
X162433000Y-111368800D01*
X162433000Y-111368800D02*
X162483800Y-111419600D01*
X159816800Y-111419600D02*
X162483800Y-111419600D01*
X163626800Y-118084600D02*
X163626800Y-113319600D01*
X163626800Y-113319600D02*
X163626800Y-113512600D01*
X163626800Y-113512600D02*
X163626800Y-113319600D01*
X162483800Y-113319600D02*
X163626800Y-113319600D01*
X163626800Y-113319600D02*
X165023800Y-113319600D01*
X165023800Y-111419600D02*
X167563800Y-111419600D01*
X164973000Y-108483400D02*
X164973000Y-111368800D01*
X164973000Y-111368800D02*
X165023800Y-111419600D01*
X189738000Y-93345000D02*
X189738000Y-93624400D01*
X189738000Y-93624400D02*
X188264800Y-95097600D01*
X188264800Y-95097600D02*
X169595800Y-95097600D01*
X169595800Y-95097600D02*
X166293800Y-98399600D01*
X166293800Y-98399600D02*
X163306800Y-98399600D01*
X164973000Y-100863400D02*
X164973000Y-98983800D01*
X164388800Y-98399600D02*
X163306800Y-98399600D01*
X164973000Y-98983800D02*
X164388800Y-98399600D01*
D30*
X159572800Y-92527600D02*
X162872800Y-92527600D01*
X145672800Y-115127600D02*
X144522800Y-116277600D01*
X144522800Y-116277600D02*
X144522800Y-120727600D01*
X146022800Y-115127600D02*
X145672800Y-115127600D01*
X204978000Y-93345000D02*
X211805400Y-93345000D01*
X211805400Y-93345000D02*
X211822800Y-93327600D01*
M02*
