M48
;DRILL file {KiCad 4.0.6+dfsg1-1} date Mon Feb 26 20:01:02 2018
;FORMAT={2:4/ absolute / inch / suppress leading zeros}
FMAT,2
INCH,TZ
T1C0.016
T2C0.020
T3C0.031
T4C0.040
T5C0.047
T6C0.051
T7C0.126
%
G90
G05
M72
T1
X4174Y7884
X4574Y7874
X5014Y7864
T2
X459Y11684
X736Y12352
X736Y11016
X1404Y12629
X1404Y10739
X2072Y12352
X2072Y11016
X2349Y11684
X31559Y11674
X31836Y12342
X31836Y11006
X32504Y12619
X32504Y10729
X33172Y12342
X33172Y11006
X33449Y11674
T3
X7104Y8834
X7104Y5834
X8104Y8834
X8104Y5834
X9104Y8834
X9104Y5834
X10104Y8834
X10104Y5834
X11674Y8834
X11674Y5834
X12674Y8834
X12674Y5834
X13674Y8834
X13674Y5834
X14674Y8834
X14674Y5834
X16201Y8827
X16201Y5827
X17201Y8827
X17201Y5827
X18201Y8827
X18201Y5827
X19201Y8827
X19201Y5827
X20729Y8827
X20729Y5827
X21729Y8827
X21729Y5827
X22729Y8827
X22729Y5827
X23729Y8827
X23729Y5827
X25256Y8827
X25256Y5827
X26256Y8827
X26256Y5827
X27256Y8827
X27256Y5827
X28256Y8827
X28256Y5827
X29784Y8827
X29784Y5827
X30784Y8827
X30784Y5827
X31784Y8827
X31784Y5827
X32784Y8827
X32784Y5827
T4
X17854Y11794
X18854Y11794
X19854Y11794
X20854Y11794
X21854Y11794
X22854Y11794
X23854Y11794
X24854Y11794
X27549Y11801
X28549Y11801
T5
X7590Y2054
X8574Y2054
X9574Y2054
X12190Y2054
X13174Y2054
X14174Y2054
X16740Y2054
X17724Y2054
X18724Y2054
X21240Y2054
X22224Y2054
X23224Y2054
X25790Y2054
X26774Y2054
X27774Y2054
X30290Y2054
X31274Y2054
X32274Y2054
T6
X2294Y6213
X2294Y4244
T7
X1404Y11684
X32504Y11674
T0
M30
