G04 #@! TF.FileFunction,Soldermask,Bot*
%FSLAX46Y46*%
G04 Gerber Fmt 4.6, Leading zero omitted, Abs format (unit mm)*
G04 Created by KiCad (PCBNEW 4.0.6+dfsg1-1) date Mon Feb 26 20:00:46 2018*
%MOMM*%
%LPD*%
G01*
G04 APERTURE LIST*
%ADD10C,0.100000*%
%ADD11R,2.400000X2.400000*%
%ADD12C,2.400000*%
%ADD13O,2.000000X2.000000*%
%ADD14R,2.127200X2.432000*%
%ADD15O,2.127200X2.432000*%
%ADD16R,2.432000X2.432000*%
%ADD17O,2.432000X2.432000*%
%ADD18R,2.900000X2.900000*%
%ADD19C,2.900000*%
%ADD20C,6.800000*%
%ADD21C,1.000000*%
G04 APERTURE END LIST*
D10*
D11*
X36001960Y5217160D03*
D12*
X33461960Y5217160D03*
X30961960Y5217160D03*
D11*
X58988960Y5217160D03*
D12*
X56448960Y5217160D03*
X53948960Y5217160D03*
D13*
X29651960Y14818360D03*
X32191960Y14818360D03*
X34731960Y14818360D03*
X37271960Y14818360D03*
X37271960Y22438360D03*
X34731960Y22438360D03*
X32191960Y22438360D03*
X29651960Y22438360D03*
X18044160Y14818360D03*
X20584160Y14818360D03*
X23124160Y14818360D03*
X25664160Y14818360D03*
X25664160Y22438360D03*
X23124160Y22438360D03*
X20584160Y22438360D03*
X18044160Y22438360D03*
D11*
X24317960Y5217160D03*
D12*
X21777960Y5217160D03*
X19277960Y5217160D03*
D14*
X63129160Y29956760D03*
D15*
X60589160Y29956760D03*
X58049160Y29956760D03*
X55509160Y29956760D03*
X52969160Y29956760D03*
X50429160Y29956760D03*
X47889160Y29956760D03*
X45349160Y29956760D03*
D11*
X81975960Y5217160D03*
D12*
X79435960Y5217160D03*
X76935960Y5217160D03*
D11*
X70545960Y5217160D03*
D12*
X68005960Y5217160D03*
X65505960Y5217160D03*
D11*
X47558960Y5217160D03*
D12*
X45018960Y5217160D03*
X42518960Y5217160D03*
D13*
X41151160Y14801760D03*
X43691160Y14801760D03*
X46231160Y14801760D03*
X48771160Y14801760D03*
X48771160Y22421760D03*
X46231160Y22421760D03*
X43691160Y22421760D03*
X41151160Y22421760D03*
X52651160Y14801760D03*
X55191160Y14801760D03*
X57731160Y14801760D03*
X60271160Y14801760D03*
X60271160Y22421760D03*
X57731160Y22421760D03*
X55191160Y22421760D03*
X52651160Y22421760D03*
X64151160Y14801760D03*
X66691160Y14801760D03*
X69231160Y14801760D03*
X71771160Y14801760D03*
X71771160Y22421760D03*
X69231160Y22421760D03*
X66691160Y22421760D03*
X64151160Y22421760D03*
X75651160Y14801760D03*
X78191160Y14801760D03*
X80731160Y14801760D03*
X83271160Y14801760D03*
X83271160Y22421760D03*
X80731160Y22421760D03*
X78191160Y22421760D03*
X75651160Y22421760D03*
D16*
X69973960Y29974160D03*
D17*
X72513960Y29974160D03*
D18*
X5826760Y10779760D03*
D19*
X5826760Y15779760D03*
D20*
X3566160Y29677360D03*
D21*
X5966160Y29677360D03*
X5263216Y27980304D03*
X3566160Y27277360D03*
X1869104Y27980304D03*
X1166160Y29677360D03*
X1869104Y31374416D03*
X3566160Y32077360D03*
X5263216Y31374416D03*
D20*
X82560160Y29651960D03*
D21*
X84960160Y29651960D03*
X84257216Y27954904D03*
X82560160Y27251960D03*
X80863104Y27954904D03*
X80160160Y29651960D03*
X80863104Y31349016D03*
X82560160Y32051960D03*
X84257216Y31349016D03*
M02*
