G04 #@! TF.FileFunction,Legend,Bot*
%FSLAX46Y46*%
G04 Gerber Fmt 4.6, Leading zero omitted, Abs format (unit mm)*
G04 Created by KiCad (PCBNEW 4.0.6+dfsg1-1) date Mon Feb 26 20:00:46 2018*
%MOMM*%
%LPD*%
G01*
G04 APERTURE LIST*
%ADD10C,0.100000*%
%ADD11C,0.300000*%
%ADD12C,0.010000*%
G04 APERTURE END LIST*
D10*
D11*
X83994017Y10498189D02*
X83994017Y11998189D01*
X83351160Y10498189D02*
X83351160Y11283903D01*
X83422589Y11426760D01*
X83565446Y11498189D01*
X83779731Y11498189D01*
X83922589Y11426760D01*
X83994017Y11355331D01*
X82851160Y11498189D02*
X82279731Y11498189D01*
X82636874Y11998189D02*
X82636874Y10712474D01*
X82565446Y10569617D01*
X82422588Y10498189D01*
X82279731Y10498189D01*
X81994017Y11498189D02*
X81422588Y11498189D01*
X81779731Y11998189D02*
X81779731Y10712474D01*
X81708303Y10569617D01*
X81565445Y10498189D01*
X81422588Y10498189D01*
X80922588Y11498189D02*
X80922588Y9998189D01*
X80922588Y11426760D02*
X80779731Y11498189D01*
X80494017Y11498189D01*
X80351160Y11426760D01*
X80279731Y11355331D01*
X80208302Y11212474D01*
X80208302Y10783903D01*
X80279731Y10641046D01*
X80351160Y10569617D01*
X80494017Y10498189D01*
X80779731Y10498189D01*
X80922588Y10569617D01*
X79565445Y10641046D02*
X79494017Y10569617D01*
X79565445Y10498189D01*
X79636874Y10569617D01*
X79565445Y10641046D01*
X79565445Y10498189D01*
X79565445Y11426760D02*
X79494017Y11355331D01*
X79565445Y11283903D01*
X79636874Y11355331D01*
X79565445Y11426760D01*
X79565445Y11283903D01*
X77779731Y12069617D02*
X79065445Y10141046D01*
X76208302Y12069617D02*
X77494016Y10141046D01*
X75136873Y10569617D02*
X75279730Y10498189D01*
X75565444Y10498189D01*
X75708301Y10569617D01*
X75779730Y10712474D01*
X75779730Y11283903D01*
X75708301Y11426760D01*
X75565444Y11498189D01*
X75279730Y11498189D01*
X75136873Y11426760D01*
X75065444Y11283903D01*
X75065444Y11141046D01*
X75779730Y10998189D01*
X74208301Y10498189D02*
X74351159Y10569617D01*
X74422587Y10712474D01*
X74422587Y11998189D01*
X73065445Y10569617D02*
X73208302Y10498189D01*
X73494016Y10498189D01*
X73636873Y10569617D01*
X73708302Y10712474D01*
X73708302Y11283903D01*
X73636873Y11426760D01*
X73494016Y11498189D01*
X73208302Y11498189D01*
X73065445Y11426760D01*
X72994016Y11283903D01*
X72994016Y11141046D01*
X73708302Y10998189D01*
X72351159Y10498189D02*
X72351159Y11998189D01*
X72208302Y11069617D02*
X71779731Y10498189D01*
X71779731Y11498189D02*
X72351159Y10926760D01*
X71351159Y11498189D02*
X70779730Y11498189D01*
X71136873Y11998189D02*
X71136873Y10712474D01*
X71065445Y10569617D01*
X70922587Y10498189D01*
X70779730Y10498189D01*
X70279730Y10498189D02*
X70279730Y11498189D01*
X70279730Y11212474D02*
X70208302Y11355331D01*
X70136873Y11426760D01*
X69994016Y11498189D01*
X69851159Y11498189D01*
X69136873Y10498189D02*
X69279731Y10569617D01*
X69351159Y10641046D01*
X69422588Y10783903D01*
X69422588Y11212474D01*
X69351159Y11355331D01*
X69279731Y11426760D01*
X69136873Y11498189D01*
X68922588Y11498189D01*
X68779731Y11426760D01*
X68708302Y11355331D01*
X68636873Y11212474D01*
X68636873Y10783903D01*
X68708302Y10641046D01*
X68779731Y10569617D01*
X68922588Y10498189D01*
X69136873Y10498189D01*
X67994016Y11498189D02*
X67994016Y9998189D01*
X67994016Y11426760D02*
X67851159Y11498189D01*
X67565445Y11498189D01*
X67422588Y11426760D01*
X67351159Y11355331D01*
X67279730Y11212474D01*
X67279730Y10783903D01*
X67351159Y10641046D01*
X67422588Y10569617D01*
X67565445Y10498189D01*
X67851159Y10498189D01*
X67994016Y10569617D01*
X66636873Y10498189D02*
X66636873Y11498189D01*
X66636873Y11998189D02*
X66708302Y11926760D01*
X66636873Y11855331D01*
X66565445Y11926760D01*
X66636873Y11998189D01*
X66636873Y11855331D01*
X65708301Y10498189D02*
X65851159Y10569617D01*
X65922587Y10641046D01*
X65994016Y10783903D01*
X65994016Y11212474D01*
X65922587Y11355331D01*
X65851159Y11426760D01*
X65708301Y11498189D01*
X65494016Y11498189D01*
X65351159Y11426760D01*
X65279730Y11355331D01*
X65208301Y11212474D01*
X65208301Y10783903D01*
X65279730Y10641046D01*
X65351159Y10569617D01*
X65494016Y10498189D01*
X65708301Y10498189D01*
X64565444Y11498189D02*
X64565444Y10498189D01*
X64565444Y11355331D02*
X64494016Y11426760D01*
X64351158Y11498189D01*
X64136873Y11498189D01*
X63994016Y11426760D01*
X63922587Y11283903D01*
X63922587Y10498189D01*
X62636873Y10569617D02*
X62779730Y10498189D01*
X63065444Y10498189D01*
X63208301Y10569617D01*
X63279730Y10712474D01*
X63279730Y11283903D01*
X63208301Y11426760D01*
X63065444Y11498189D01*
X62779730Y11498189D01*
X62636873Y11426760D01*
X62565444Y11283903D01*
X62565444Y11141046D01*
X63279730Y10998189D01*
X61351159Y10569617D02*
X61494016Y10498189D01*
X61779730Y10498189D01*
X61922587Y10569617D01*
X61994016Y10712474D01*
X61994016Y11283903D01*
X61922587Y11426760D01*
X61779730Y11498189D01*
X61494016Y11498189D01*
X61351159Y11426760D01*
X61279730Y11283903D01*
X61279730Y11141046D01*
X61994016Y10998189D01*
X60636873Y10498189D02*
X60636873Y11498189D01*
X60636873Y11212474D02*
X60565445Y11355331D01*
X60494016Y11426760D01*
X60351159Y11498189D01*
X60208302Y11498189D01*
X59708302Y10641046D02*
X59636874Y10569617D01*
X59708302Y10498189D01*
X59779731Y10569617D01*
X59708302Y10641046D01*
X59708302Y10498189D01*
X58351159Y10569617D02*
X58494016Y10498189D01*
X58779730Y10498189D01*
X58922588Y10569617D01*
X58994016Y10641046D01*
X59065445Y10783903D01*
X59065445Y11212474D01*
X58994016Y11355331D01*
X58922588Y11426760D01*
X58779730Y11498189D01*
X58494016Y11498189D01*
X58351159Y11426760D01*
X57494016Y10498189D02*
X57636874Y10569617D01*
X57708302Y10641046D01*
X57779731Y10783903D01*
X57779731Y11212474D01*
X57708302Y11355331D01*
X57636874Y11426760D01*
X57494016Y11498189D01*
X57279731Y11498189D01*
X57136874Y11426760D01*
X57065445Y11355331D01*
X56994016Y11212474D01*
X56994016Y10783903D01*
X57065445Y10641046D01*
X57136874Y10569617D01*
X57279731Y10498189D01*
X57494016Y10498189D01*
X56351159Y10641046D02*
X56279731Y10569617D01*
X56351159Y10498189D01*
X56422588Y10569617D01*
X56351159Y10641046D01*
X56351159Y10498189D01*
X55636873Y10498189D02*
X55636873Y11498189D01*
X55636873Y11212474D02*
X55565445Y11355331D01*
X55494016Y11426760D01*
X55351159Y11498189D01*
X55208302Y11498189D01*
X54779731Y10569617D02*
X54636874Y10498189D01*
X54351159Y10498189D01*
X54208302Y10569617D01*
X54136874Y10712474D01*
X54136874Y10783903D01*
X54208302Y10926760D01*
X54351159Y10998189D01*
X54565445Y10998189D01*
X54708302Y11069617D01*
X54779731Y11212474D01*
X54779731Y11283903D01*
X54708302Y11426760D01*
X54565445Y11498189D01*
X54351159Y11498189D01*
X54208302Y11426760D01*
X52422588Y12069617D02*
X53708302Y10141046D01*
X83994017Y7948189D02*
X83994017Y9448189D01*
X83351160Y7948189D02*
X83351160Y8733903D01*
X83422589Y8876760D01*
X83565446Y8948189D01*
X83779731Y8948189D01*
X83922589Y8876760D01*
X83994017Y8805331D01*
X82851160Y8948189D02*
X82279731Y8948189D01*
X82636874Y9448189D02*
X82636874Y8162474D01*
X82565446Y8019617D01*
X82422588Y7948189D01*
X82279731Y7948189D01*
X81994017Y8948189D02*
X81422588Y8948189D01*
X81779731Y9448189D02*
X81779731Y8162474D01*
X81708303Y8019617D01*
X81565445Y7948189D01*
X81422588Y7948189D01*
X80922588Y8948189D02*
X80922588Y7448189D01*
X80922588Y8876760D02*
X80779731Y8948189D01*
X80494017Y8948189D01*
X80351160Y8876760D01*
X80279731Y8805331D01*
X80208302Y8662474D01*
X80208302Y8233903D01*
X80279731Y8091046D01*
X80351160Y8019617D01*
X80494017Y7948189D01*
X80779731Y7948189D01*
X80922588Y8019617D01*
X79636874Y8019617D02*
X79494017Y7948189D01*
X79208302Y7948189D01*
X79065445Y8019617D01*
X78994017Y8162474D01*
X78994017Y8233903D01*
X79065445Y8376760D01*
X79208302Y8448189D01*
X79422588Y8448189D01*
X79565445Y8519617D01*
X79636874Y8662474D01*
X79636874Y8733903D01*
X79565445Y8876760D01*
X79422588Y8948189D01*
X79208302Y8948189D01*
X79065445Y8876760D01*
X78351159Y8091046D02*
X78279731Y8019617D01*
X78351159Y7948189D01*
X78422588Y8019617D01*
X78351159Y8091046D01*
X78351159Y7948189D01*
X78351159Y8876760D02*
X78279731Y8805331D01*
X78351159Y8733903D01*
X78422588Y8805331D01*
X78351159Y8876760D01*
X78351159Y8733903D01*
X76565445Y9519617D02*
X77851159Y7591046D01*
X74994016Y9519617D02*
X76279730Y7591046D01*
X73851158Y8948189D02*
X73851158Y7733903D01*
X73922587Y7591046D01*
X73994015Y7519617D01*
X74136872Y7448189D01*
X74351158Y7448189D01*
X74494015Y7519617D01*
X73851158Y8019617D02*
X73994015Y7948189D01*
X74279729Y7948189D01*
X74422587Y8019617D01*
X74494015Y8091046D01*
X74565444Y8233903D01*
X74565444Y8662474D01*
X74494015Y8805331D01*
X74422587Y8876760D01*
X74279729Y8948189D01*
X73994015Y8948189D01*
X73851158Y8876760D01*
X73136872Y7948189D02*
X73136872Y8948189D01*
X73136872Y9448189D02*
X73208301Y9376760D01*
X73136872Y9305331D01*
X73065444Y9376760D01*
X73136872Y9448189D01*
X73136872Y9305331D01*
X72636872Y8948189D02*
X72065443Y8948189D01*
X72422586Y9448189D02*
X72422586Y8162474D01*
X72351158Y8019617D01*
X72208300Y7948189D01*
X72065443Y7948189D01*
X71565443Y7948189D02*
X71565443Y9448189D01*
X70922586Y7948189D02*
X70922586Y8733903D01*
X70994015Y8876760D01*
X71136872Y8948189D01*
X71351157Y8948189D01*
X71494015Y8876760D01*
X71565443Y8805331D01*
X69565443Y8948189D02*
X69565443Y7948189D01*
X70208300Y8948189D02*
X70208300Y8162474D01*
X70136872Y8019617D01*
X69994014Y7948189D01*
X69779729Y7948189D01*
X69636872Y8019617D01*
X69565443Y8091046D01*
X68851157Y7948189D02*
X68851157Y9448189D01*
X68851157Y8876760D02*
X68708300Y8948189D01*
X68422586Y8948189D01*
X68279729Y8876760D01*
X68208300Y8805331D01*
X68136871Y8662474D01*
X68136871Y8233903D01*
X68208300Y8091046D01*
X68279729Y8019617D01*
X68422586Y7948189D01*
X68708300Y7948189D01*
X68851157Y8019617D01*
X67494014Y8091046D02*
X67422586Y8019617D01*
X67494014Y7948189D01*
X67565443Y8019617D01*
X67494014Y8091046D01*
X67494014Y7948189D01*
X66136871Y8019617D02*
X66279728Y7948189D01*
X66565442Y7948189D01*
X66708300Y8019617D01*
X66779728Y8091046D01*
X66851157Y8233903D01*
X66851157Y8662474D01*
X66779728Y8805331D01*
X66708300Y8876760D01*
X66565442Y8948189D01*
X66279728Y8948189D01*
X66136871Y8876760D01*
X65279728Y7948189D02*
X65422586Y8019617D01*
X65494014Y8091046D01*
X65565443Y8233903D01*
X65565443Y8662474D01*
X65494014Y8805331D01*
X65422586Y8876760D01*
X65279728Y8948189D01*
X65065443Y8948189D01*
X64922586Y8876760D01*
X64851157Y8805331D01*
X64779728Y8662474D01*
X64779728Y8233903D01*
X64851157Y8091046D01*
X64922586Y8019617D01*
X65065443Y7948189D01*
X65279728Y7948189D01*
X64136871Y7948189D02*
X64136871Y8948189D01*
X64136871Y8805331D02*
X64065443Y8876760D01*
X63922585Y8948189D01*
X63708300Y8948189D01*
X63565443Y8876760D01*
X63494014Y8733903D01*
X63494014Y7948189D01*
X63494014Y8733903D02*
X63422585Y8876760D01*
X63279728Y8948189D01*
X63065443Y8948189D01*
X62922585Y8876760D01*
X62851157Y8733903D01*
X62851157Y7948189D01*
X61065443Y9519617D02*
X62351157Y7591046D01*
X60565442Y8733903D02*
X60065442Y8733903D01*
X59851156Y7948189D02*
X60565442Y7948189D01*
X60565442Y9448189D01*
X59851156Y9448189D01*
X58994013Y7948189D02*
X59136871Y8019617D01*
X59208299Y8162474D01*
X59208299Y9448189D01*
X57851157Y8019617D02*
X57994014Y7948189D01*
X58279728Y7948189D01*
X58422585Y8019617D01*
X58494014Y8162474D01*
X58494014Y8733903D01*
X58422585Y8876760D01*
X58279728Y8948189D01*
X57994014Y8948189D01*
X57851157Y8876760D01*
X57779728Y8733903D01*
X57779728Y8591046D01*
X58494014Y8448189D01*
X57136871Y7948189D02*
X57136871Y9448189D01*
X56994014Y8519617D02*
X56565443Y7948189D01*
X56565443Y8948189D02*
X57136871Y8376760D01*
X56136871Y8948189D02*
X55565442Y8948189D01*
X55922585Y9448189D02*
X55922585Y8162474D01*
X55851157Y8019617D01*
X55708299Y7948189D01*
X55565442Y7948189D01*
X55065442Y7948189D02*
X55065442Y8948189D01*
X55065442Y8662474D02*
X54994014Y8805331D01*
X54922585Y8876760D01*
X54779728Y8948189D01*
X54636871Y8948189D01*
X53922585Y7948189D02*
X54065443Y8019617D01*
X54136871Y8091046D01*
X54208300Y8233903D01*
X54208300Y8662474D01*
X54136871Y8805331D01*
X54065443Y8876760D01*
X53922585Y8948189D01*
X53708300Y8948189D01*
X53565443Y8876760D01*
X53494014Y8805331D01*
X53422585Y8662474D01*
X53422585Y8233903D01*
X53494014Y8091046D01*
X53565443Y8019617D01*
X53708300Y7948189D01*
X53922585Y7948189D01*
X52779728Y8948189D02*
X52779728Y7448189D01*
X52779728Y8876760D02*
X52636871Y8948189D01*
X52351157Y8948189D01*
X52208300Y8876760D01*
X52136871Y8805331D01*
X52065442Y8662474D01*
X52065442Y8233903D01*
X52136871Y8091046D01*
X52208300Y8019617D01*
X52351157Y7948189D01*
X52636871Y7948189D01*
X52779728Y8019617D01*
X51422585Y7948189D02*
X51422585Y8948189D01*
X51422585Y9448189D02*
X51494014Y9376760D01*
X51422585Y9305331D01*
X51351157Y9376760D01*
X51422585Y9448189D01*
X51422585Y9305331D01*
X50494013Y7948189D02*
X50636871Y8019617D01*
X50708299Y8091046D01*
X50779728Y8233903D01*
X50779728Y8662474D01*
X50708299Y8805331D01*
X50636871Y8876760D01*
X50494013Y8948189D01*
X50279728Y8948189D01*
X50136871Y8876760D01*
X50065442Y8805331D01*
X49994013Y8662474D01*
X49994013Y8233903D01*
X50065442Y8091046D01*
X50136871Y8019617D01*
X50279728Y7948189D01*
X50494013Y7948189D01*
X49351156Y8948189D02*
X49351156Y7948189D01*
X49351156Y8805331D02*
X49279728Y8876760D01*
X49136870Y8948189D01*
X48922585Y8948189D01*
X48779728Y8876760D01*
X48708299Y8733903D01*
X48708299Y7948189D01*
X47422585Y8019617D02*
X47565442Y7948189D01*
X47851156Y7948189D01*
X47994013Y8019617D01*
X48065442Y8162474D01*
X48065442Y8733903D01*
X47994013Y8876760D01*
X47851156Y8948189D01*
X47565442Y8948189D01*
X47422585Y8876760D01*
X47351156Y8733903D01*
X47351156Y8591046D01*
X48065442Y8448189D01*
X46136871Y8019617D02*
X46279728Y7948189D01*
X46565442Y7948189D01*
X46708299Y8019617D01*
X46779728Y8162474D01*
X46779728Y8733903D01*
X46708299Y8876760D01*
X46565442Y8948189D01*
X46279728Y8948189D01*
X46136871Y8876760D01*
X46065442Y8733903D01*
X46065442Y8591046D01*
X46779728Y8448189D01*
X45422585Y7948189D02*
X45422585Y8948189D01*
X45422585Y8662474D02*
X45351157Y8805331D01*
X45279728Y8876760D01*
X45136871Y8948189D01*
X44994014Y8948189D01*
X83441303Y20750189D02*
X83155589Y20750189D01*
X83012731Y20678760D01*
X82869874Y20535903D01*
X82798446Y20250189D01*
X82798446Y19750189D01*
X82869874Y19464474D01*
X83012731Y19321617D01*
X83155589Y19250189D01*
X83441303Y19250189D01*
X83584160Y19321617D01*
X83727017Y19464474D01*
X83798446Y19750189D01*
X83798446Y20250189D01*
X83727017Y20535903D01*
X83584160Y20678760D01*
X83441303Y20750189D01*
X82155588Y20250189D02*
X82155588Y18750189D01*
X82155588Y20178760D02*
X82012731Y20250189D01*
X81727017Y20250189D01*
X81584160Y20178760D01*
X81512731Y20107331D01*
X81441302Y19964474D01*
X81441302Y19535903D01*
X81512731Y19393046D01*
X81584160Y19321617D01*
X81727017Y19250189D01*
X82012731Y19250189D01*
X82155588Y19321617D01*
X81012731Y20250189D02*
X80441302Y20250189D01*
X80798445Y20750189D02*
X80798445Y19464474D01*
X80727017Y19321617D01*
X80584159Y19250189D01*
X80441302Y19250189D01*
X79727016Y19250189D02*
X79869874Y19321617D01*
X79941302Y19393046D01*
X80012731Y19535903D01*
X80012731Y19964474D01*
X79941302Y20107331D01*
X79869874Y20178760D01*
X79727016Y20250189D01*
X79512731Y20250189D01*
X79369874Y20178760D01*
X79298445Y20107331D01*
X79227016Y19964474D01*
X79227016Y19535903D01*
X79298445Y19393046D01*
X79369874Y19321617D01*
X79512731Y19250189D01*
X79727016Y19250189D01*
X78584159Y19821617D02*
X77441302Y19821617D01*
X76727016Y19250189D02*
X76727016Y20250189D01*
X76727016Y20750189D02*
X76798445Y20678760D01*
X76727016Y20607331D01*
X76655588Y20678760D01*
X76727016Y20750189D01*
X76727016Y20607331D01*
X76084159Y19321617D02*
X75941302Y19250189D01*
X75655587Y19250189D01*
X75512730Y19321617D01*
X75441302Y19464474D01*
X75441302Y19535903D01*
X75512730Y19678760D01*
X75655587Y19750189D01*
X75869873Y19750189D01*
X76012730Y19821617D01*
X76084159Y19964474D01*
X76084159Y20035903D01*
X76012730Y20178760D01*
X75869873Y20250189D01*
X75655587Y20250189D01*
X75512730Y20178760D01*
X74584158Y19250189D02*
X74727016Y19321617D01*
X74798444Y19393046D01*
X74869873Y19535903D01*
X74869873Y19964474D01*
X74798444Y20107331D01*
X74727016Y20178760D01*
X74584158Y20250189D01*
X74369873Y20250189D01*
X74227016Y20178760D01*
X74155587Y20107331D01*
X74084158Y19964474D01*
X74084158Y19535903D01*
X74155587Y19393046D01*
X74227016Y19321617D01*
X74369873Y19250189D01*
X74584158Y19250189D01*
X73227015Y19250189D02*
X73369873Y19321617D01*
X73441301Y19464474D01*
X73441301Y20750189D01*
X72012730Y19250189D02*
X72012730Y20035903D01*
X72084159Y20178760D01*
X72227016Y20250189D01*
X72512730Y20250189D01*
X72655587Y20178760D01*
X72012730Y19321617D02*
X72155587Y19250189D01*
X72512730Y19250189D01*
X72655587Y19321617D01*
X72727016Y19464474D01*
X72727016Y19607331D01*
X72655587Y19750189D01*
X72512730Y19821617D01*
X72155587Y19821617D01*
X72012730Y19893046D01*
X71512730Y20250189D02*
X70941301Y20250189D01*
X71298444Y20750189D02*
X71298444Y19464474D01*
X71227016Y19321617D01*
X71084158Y19250189D01*
X70941301Y19250189D01*
X70227015Y19250189D02*
X70369873Y19321617D01*
X70441301Y19393046D01*
X70512730Y19535903D01*
X70512730Y19964474D01*
X70441301Y20107331D01*
X70369873Y20178760D01*
X70227015Y20250189D01*
X70012730Y20250189D01*
X69869873Y20178760D01*
X69798444Y20107331D01*
X69727015Y19964474D01*
X69727015Y19535903D01*
X69798444Y19393046D01*
X69869873Y19321617D01*
X70012730Y19250189D01*
X70227015Y19250189D01*
X69084158Y19250189D02*
X69084158Y20250189D01*
X69084158Y19964474D02*
X69012730Y20107331D01*
X68941301Y20178760D01*
X68798444Y20250189D01*
X68655587Y20250189D01*
X67012730Y19250189D02*
X67012730Y20750189D01*
X67012730Y20178760D02*
X66869873Y20250189D01*
X66584159Y20250189D01*
X66441302Y20178760D01*
X66369873Y20107331D01*
X66298444Y19964474D01*
X66298444Y19535903D01*
X66369873Y19393046D01*
X66441302Y19321617D01*
X66584159Y19250189D01*
X66869873Y19250189D01*
X67012730Y19321617D01*
X65441301Y19250189D02*
X65584159Y19321617D01*
X65655587Y19393046D01*
X65727016Y19535903D01*
X65727016Y19964474D01*
X65655587Y20107331D01*
X65584159Y20178760D01*
X65441301Y20250189D01*
X65227016Y20250189D01*
X65084159Y20178760D01*
X65012730Y20107331D01*
X64941301Y19964474D01*
X64941301Y19535903D01*
X65012730Y19393046D01*
X65084159Y19321617D01*
X65227016Y19250189D01*
X65441301Y19250189D01*
X63655587Y19250189D02*
X63655587Y20035903D01*
X63727016Y20178760D01*
X63869873Y20250189D01*
X64155587Y20250189D01*
X64298444Y20178760D01*
X63655587Y19321617D02*
X63798444Y19250189D01*
X64155587Y19250189D01*
X64298444Y19321617D01*
X64369873Y19464474D01*
X64369873Y19607331D01*
X64298444Y19750189D01*
X64155587Y19821617D01*
X63798444Y19821617D01*
X63655587Y19893046D01*
X62941301Y19250189D02*
X62941301Y20250189D01*
X62941301Y19964474D02*
X62869873Y20107331D01*
X62798444Y20178760D01*
X62655587Y20250189D01*
X62512730Y20250189D01*
X61369873Y19250189D02*
X61369873Y20750189D01*
X61369873Y19321617D02*
X61512730Y19250189D01*
X61798444Y19250189D01*
X61941302Y19321617D01*
X62012730Y19393046D01*
X62084159Y19535903D01*
X62084159Y19964474D01*
X62012730Y20107331D01*
X61941302Y20178760D01*
X61798444Y20250189D01*
X61512730Y20250189D01*
X61369873Y20178760D01*
X82869874Y16700189D02*
X83369874Y17414474D01*
X83727017Y16700189D02*
X83727017Y18200189D01*
X83155589Y18200189D01*
X83012731Y18128760D01*
X82941303Y18057331D01*
X82869874Y17914474D01*
X82869874Y17700189D01*
X82941303Y17557331D01*
X83012731Y17485903D01*
X83155589Y17414474D01*
X83727017Y17414474D01*
X81655589Y16771617D02*
X81798446Y16700189D01*
X82084160Y16700189D01*
X82227017Y16771617D01*
X82298446Y16914474D01*
X82298446Y17485903D01*
X82227017Y17628760D01*
X82084160Y17700189D01*
X81798446Y17700189D01*
X81655589Y17628760D01*
X81584160Y17485903D01*
X81584160Y17343046D01*
X82298446Y17200189D01*
X81084160Y17700189D02*
X80727017Y16700189D01*
X80369875Y17700189D01*
X79798446Y16843046D02*
X79727018Y16771617D01*
X79798446Y16700189D01*
X79869875Y16771617D01*
X79798446Y16843046D01*
X79798446Y16700189D01*
X79798446Y17628760D02*
X79727018Y17557331D01*
X79798446Y17485903D01*
X79869875Y17557331D01*
X79798446Y17628760D01*
X79798446Y17485903D01*
X77155589Y16700189D02*
X78012732Y16700189D01*
X77584160Y16700189D02*
X77584160Y18200189D01*
X77727017Y17985903D01*
X77869875Y17843046D01*
X78012732Y17771617D01*
X76512732Y16843046D02*
X76441304Y16771617D01*
X76512732Y16700189D01*
X76584161Y16771617D01*
X76512732Y16843046D01*
X76512732Y16700189D01*
X75869875Y18057331D02*
X75798446Y18128760D01*
X75655589Y18200189D01*
X75298446Y18200189D01*
X75155589Y18128760D01*
X75084160Y18057331D01*
X75012732Y17914474D01*
X75012732Y17771617D01*
X75084160Y17557331D01*
X75941303Y16700189D01*
X75012732Y16700189D01*
X73227018Y17271617D02*
X72084161Y17271617D01*
X69941304Y18200189D02*
X69655590Y18200189D01*
X69512732Y18128760D01*
X69369875Y17985903D01*
X69298447Y17700189D01*
X69298447Y17200189D01*
X69369875Y16914474D01*
X69512732Y16771617D01*
X69655590Y16700189D01*
X69941304Y16700189D01*
X70084161Y16771617D01*
X70227018Y16914474D01*
X70298447Y17200189D01*
X70298447Y17700189D01*
X70227018Y17985903D01*
X70084161Y18128760D01*
X69941304Y18200189D01*
X68655589Y17700189D02*
X68655589Y16200189D01*
X68655589Y17628760D02*
X68512732Y17700189D01*
X68227018Y17700189D01*
X68084161Y17628760D01*
X68012732Y17557331D01*
X67941303Y17414474D01*
X67941303Y16985903D01*
X68012732Y16843046D01*
X68084161Y16771617D01*
X68227018Y16700189D01*
X68512732Y16700189D01*
X68655589Y16771617D01*
X67512732Y17700189D02*
X66941303Y17700189D01*
X67298446Y18200189D02*
X67298446Y16914474D01*
X67227018Y16771617D01*
X67084160Y16700189D01*
X66941303Y16700189D01*
X66227017Y16700189D02*
X66369875Y16771617D01*
X66441303Y16843046D01*
X66512732Y16985903D01*
X66512732Y17414474D01*
X66441303Y17557331D01*
X66369875Y17628760D01*
X66227017Y17700189D01*
X66012732Y17700189D01*
X65869875Y17628760D01*
X65798446Y17557331D01*
X65727017Y17414474D01*
X65727017Y16985903D01*
X65798446Y16843046D01*
X65869875Y16771617D01*
X66012732Y16700189D01*
X66227017Y16700189D01*
X64084160Y17700189D02*
X63727017Y16700189D01*
X63369875Y17700189D01*
X62227018Y16771617D02*
X62369875Y16700189D01*
X62655589Y16700189D01*
X62798446Y16771617D01*
X62869875Y16914474D01*
X62869875Y17485903D01*
X62798446Y17628760D01*
X62655589Y17700189D01*
X62369875Y17700189D01*
X62227018Y17628760D01*
X62155589Y17485903D01*
X62155589Y17343046D01*
X62869875Y17200189D01*
X61512732Y16700189D02*
X61512732Y17700189D01*
X61512732Y17414474D02*
X61441304Y17557331D01*
X61369875Y17628760D01*
X61227018Y17700189D01*
X61084161Y17700189D01*
X60655590Y16771617D02*
X60512733Y16700189D01*
X60227018Y16700189D01*
X60084161Y16771617D01*
X60012733Y16914474D01*
X60012733Y16985903D01*
X60084161Y17128760D01*
X60227018Y17200189D01*
X60441304Y17200189D01*
X60584161Y17271617D01*
X60655590Y17414474D01*
X60655590Y17485903D01*
X60584161Y17628760D01*
X60441304Y17700189D01*
X60227018Y17700189D01*
X60084161Y17628760D01*
X59369875Y16700189D02*
X59369875Y17700189D01*
X59369875Y18200189D02*
X59441304Y18128760D01*
X59369875Y18057331D01*
X59298447Y18128760D01*
X59369875Y18200189D01*
X59369875Y18057331D01*
X58441303Y16700189D02*
X58584161Y16771617D01*
X58655589Y16843046D01*
X58727018Y16985903D01*
X58727018Y17414474D01*
X58655589Y17557331D01*
X58584161Y17628760D01*
X58441303Y17700189D01*
X58227018Y17700189D01*
X58084161Y17628760D01*
X58012732Y17557331D01*
X57941303Y17414474D01*
X57941303Y16985903D01*
X58012732Y16843046D01*
X58084161Y16771617D01*
X58227018Y16700189D01*
X58441303Y16700189D01*
X57298446Y17700189D02*
X57298446Y16700189D01*
X57298446Y17557331D02*
X57227018Y17628760D01*
X57084160Y17700189D01*
X56869875Y17700189D01*
X56727018Y17628760D01*
X56655589Y17485903D01*
X56655589Y16700189D01*
X55941303Y16843046D02*
X55869875Y16771617D01*
X55941303Y16700189D01*
X56012732Y16771617D01*
X55941303Y16843046D01*
X55941303Y16700189D01*
X55941303Y17628760D02*
X55869875Y17557331D01*
X55941303Y17485903D01*
X56012732Y17557331D01*
X55941303Y17628760D01*
X55941303Y17485903D01*
X53441303Y18200189D02*
X53727017Y18200189D01*
X53869874Y18128760D01*
X53941303Y18057331D01*
X54084160Y17843046D01*
X54155589Y17557331D01*
X54155589Y16985903D01*
X54084160Y16843046D01*
X54012732Y16771617D01*
X53869874Y16700189D01*
X53584160Y16700189D01*
X53441303Y16771617D01*
X53369874Y16843046D01*
X53298446Y16985903D01*
X53298446Y17343046D01*
X53369874Y17485903D01*
X53441303Y17557331D01*
X53584160Y17628760D01*
X53869874Y17628760D01*
X54012732Y17557331D01*
X54084160Y17485903D01*
X54155589Y17343046D01*
D12*
G36*
X12652608Y32311352D02*
X12574938Y32310942D01*
X12507522Y32310280D01*
X12455169Y32309367D01*
X12422689Y32308203D01*
X12414281Y32307185D01*
X12407885Y32293658D01*
X12391642Y32257128D01*
X12366832Y32200532D01*
X12334733Y32126804D01*
X12296622Y32038881D01*
X12253778Y31939696D01*
X12209738Y31837437D01*
X12163570Y31730231D01*
X12120921Y31631466D01*
X12083068Y31544081D01*
X12051289Y31471017D01*
X12026864Y31415211D01*
X12011070Y31379604D01*
X12005223Y31367163D01*
X11990509Y31362044D01*
X11954342Y31352190D01*
X11902767Y31339196D01*
X11862315Y31329459D01*
X11782439Y31309240D01*
X11692046Y31284330D01*
X11607301Y31259232D01*
X11585289Y31252305D01*
X11446785Y31207912D01*
X11039380Y31513234D01*
X10932147Y31593454D01*
X10845076Y31658137D01*
X10775846Y31708804D01*
X10722139Y31746979D01*
X10681634Y31774186D01*
X10652012Y31791949D01*
X10630953Y31801791D01*
X10616138Y31805235D01*
X10605248Y31803805D01*
X10600309Y31801610D01*
X10578980Y31789488D01*
X10537537Y31765335D01*
X10480104Y31731575D01*
X10410803Y31690634D01*
X10333757Y31644939D01*
X10311429Y31631665D01*
X10054214Y31478666D01*
X10060543Y31425385D01*
X10063490Y31398666D01*
X10068906Y31347651D01*
X10076397Y31276122D01*
X10085572Y31187860D01*
X10096034Y31086645D01*
X10107392Y30976258D01*
X10114528Y30906662D01*
X10162185Y30441220D01*
X9995425Y30271662D01*
X9936578Y30211602D01*
X9881703Y30155179D01*
X9835166Y30106914D01*
X9801334Y30071330D01*
X9788451Y30057393D01*
X9748238Y30012681D01*
X9249356Y30068863D01*
X9134057Y30081717D01*
X9027980Y30093294D01*
X8934300Y30103264D01*
X8856194Y30111301D01*
X8796835Y30117078D01*
X8759400Y30120268D01*
X8747047Y30120630D01*
X8739500Y30107592D01*
X8720151Y30073353D01*
X8690935Y30021365D01*
X8653792Y29955077D01*
X8610656Y29877941D01*
X8579911Y29822882D01*
X8416203Y29529549D01*
X8666763Y29173771D01*
X8731441Y29081865D01*
X8792961Y28994319D01*
X8848857Y28914651D01*
X8896665Y28846377D01*
X8933921Y28793015D01*
X8958160Y28758081D01*
X8962741Y28751403D01*
X9008158Y28684813D01*
X8970021Y28553847D01*
X8950072Y28481888D01*
X8927664Y28395656D01*
X8906208Y28308482D01*
X8895561Y28262819D01*
X8859238Y28102756D01*
X7934960Y27678026D01*
X7934960Y26994740D01*
X8397099Y26782062D01*
X8859238Y26569385D01*
X8895561Y26409578D01*
X8914927Y26327981D01*
X8937222Y26239582D01*
X8959026Y26157741D01*
X8970021Y26118806D01*
X9008158Y25987840D01*
X8962741Y25921250D01*
X8943158Y25892914D01*
X8909775Y25845031D01*
X8865055Y25781118D01*
X8811464Y25704692D01*
X8751466Y25619270D01*
X8687525Y25528369D01*
X8666763Y25498882D01*
X8416203Y25143104D01*
X8579911Y24849771D01*
X8625933Y24767377D01*
X8667238Y24693560D01*
X8701888Y24631770D01*
X8727947Y24585459D01*
X8743479Y24558075D01*
X8747021Y24552048D01*
X8761323Y24552552D01*
X8800488Y24555936D01*
X8861343Y24561875D01*
X8940711Y24570042D01*
X9035419Y24580111D01*
X9142291Y24591756D01*
X9249331Y24603660D01*
X9748238Y24659660D01*
X9788451Y24615105D01*
X9811961Y24589959D01*
X9850944Y24549259D01*
X9901035Y24497523D01*
X9957866Y24439269D01*
X9995425Y24400991D01*
X10162185Y24231434D01*
X10114528Y23765991D01*
X10102820Y23651894D01*
X10091769Y23544682D01*
X10081768Y23448137D01*
X10073212Y23366038D01*
X10066494Y23302169D01*
X10062007Y23260308D01*
X10060543Y23247268D01*
X10054214Y23193987D01*
X10311429Y23040989D01*
X10389900Y22994399D01*
X10461778Y22951887D01*
X10522939Y22915879D01*
X10569260Y22888800D01*
X10596617Y22873076D01*
X10600309Y22871044D01*
X10610066Y22867660D01*
X10622526Y22868349D01*
X10640010Y22874634D01*
X10664837Y22888039D01*
X10699326Y22910087D01*
X10745797Y22942301D01*
X10806569Y22986205D01*
X10883963Y23043322D01*
X10980297Y23115176D01*
X11039380Y23159419D01*
X11446785Y23464741D01*
X11585289Y23420349D01*
X11665159Y23396077D01*
X11755551Y23370636D01*
X11840301Y23348528D01*
X11862315Y23343194D01*
X11920862Y23328983D01*
X11968080Y23316836D01*
X11997921Y23308347D01*
X12005192Y23305490D01*
X12011573Y23291838D01*
X12027797Y23255187D01*
X12052586Y23198479D01*
X12084661Y23124656D01*
X12122745Y23036657D01*
X12165560Y22937423D01*
X12209416Y22835507D01*
X12255546Y22728341D01*
X12298174Y22629630D01*
X12336021Y22542314D01*
X12367805Y22469332D01*
X12392249Y22413622D01*
X12408072Y22378123D01*
X12413951Y22365798D01*
X12429307Y22363852D01*
X12468024Y22362141D01*
X12525240Y22360691D01*
X12596095Y22359524D01*
X12675728Y22358667D01*
X12759279Y22358143D01*
X12841886Y22357977D01*
X12918689Y22358195D01*
X12984827Y22358820D01*
X13035439Y22359877D01*
X13065664Y22361391D01*
X13071901Y22362465D01*
X13080037Y22376702D01*
X13097902Y22413940D01*
X13124166Y22471215D01*
X13157498Y22545560D01*
X13196569Y22634013D01*
X13240050Y22733607D01*
X13283947Y22835187D01*
X13330116Y22942396D01*
X13372767Y23041165D01*
X13410622Y23128553D01*
X13442402Y23201622D01*
X13466829Y23257432D01*
X13482626Y23293043D01*
X13488475Y23305490D01*
X13503188Y23310609D01*
X13539356Y23320463D01*
X13590930Y23333457D01*
X13631383Y23343194D01*
X13711259Y23363413D01*
X13801652Y23388323D01*
X13886397Y23413421D01*
X13908408Y23420349D01*
X14046912Y23464741D01*
X14454318Y23159419D01*
X14561550Y23079199D01*
X14648622Y23014517D01*
X14717851Y22963850D01*
X14771559Y22925674D01*
X14812064Y22898467D01*
X14841686Y22880704D01*
X14862744Y22870862D01*
X14877559Y22867418D01*
X14888449Y22868849D01*
X14893389Y22871044D01*
X14914717Y22883165D01*
X14956160Y22907318D01*
X15013594Y22941078D01*
X15082895Y22982019D01*
X15159940Y23027714D01*
X15182268Y23040989D01*
X15439483Y23193987D01*
X15433155Y23247268D01*
X15430208Y23273987D01*
X15424792Y23325002D01*
X15417300Y23396531D01*
X15408126Y23484794D01*
X15397663Y23586008D01*
X15386305Y23696395D01*
X15379169Y23765991D01*
X15331512Y24231434D01*
X15498273Y24400991D01*
X15557119Y24461052D01*
X15611995Y24517475D01*
X15658532Y24565739D01*
X15692363Y24601323D01*
X15705247Y24615261D01*
X15745460Y24659972D01*
X16244341Y24603790D01*
X16359641Y24590936D01*
X16465718Y24579360D01*
X16559397Y24569389D01*
X16637504Y24561352D01*
X16696862Y24555575D01*
X16734297Y24552385D01*
X16746651Y24552023D01*
X16754197Y24565061D01*
X16773547Y24599300D01*
X16802762Y24651288D01*
X16839906Y24717576D01*
X16883041Y24794712D01*
X16913786Y24849771D01*
X17077494Y25143104D01*
X16826934Y25498882D01*
X16762256Y25590788D01*
X16700737Y25678334D01*
X16644841Y25758002D01*
X16597033Y25826276D01*
X16559777Y25879638D01*
X16535538Y25914572D01*
X16530956Y25921250D01*
X16485539Y25987840D01*
X16523676Y26118806D01*
X16543625Y26190765D01*
X16566033Y26276997D01*
X16587489Y26364172D01*
X16598137Y26409834D01*
X16634460Y26569897D01*
X17558738Y26994627D01*
X17558738Y27336327D01*
X15569071Y27336327D01*
X15564507Y27134880D01*
X15549883Y26951447D01*
X15523805Y26777181D01*
X15484875Y26603237D01*
X15431700Y26420768D01*
X15417959Y26378627D01*
X15315202Y26112474D01*
X15188170Y25859097D01*
X15038157Y25620204D01*
X14866456Y25397505D01*
X14674358Y25192706D01*
X14463158Y25007517D01*
X14277904Y24872347D01*
X14179733Y24811456D01*
X14063683Y24747209D01*
X13938181Y24683719D01*
X13811654Y24625098D01*
X13692531Y24575459D01*
X13604762Y24543846D01*
X13471377Y24504658D01*
X13326995Y24469505D01*
X13184048Y24441155D01*
X13062879Y24423270D01*
X12981797Y24416573D01*
X12881498Y24412382D01*
X12770874Y24410699D01*
X12658817Y24411528D01*
X12554222Y24414872D01*
X12465980Y24420735D01*
X12443563Y24423039D01*
X12186917Y24464231D01*
X11940602Y24528537D01*
X11698738Y24617694D01*
X11540349Y24690180D01*
X11369709Y24779805D01*
X11216675Y24873293D01*
X11070784Y24977480D01*
X10945044Y25079163D01*
X10741965Y25269572D01*
X10558843Y25479047D01*
X10396632Y25705788D01*
X10256286Y25947993D01*
X10138760Y26203863D01*
X10045009Y26471597D01*
X9975988Y26749394D01*
X9939407Y26976123D01*
X9934291Y27032468D01*
X9929942Y27108871D01*
X9926696Y27197172D01*
X9924888Y27289208D01*
X9924626Y27336327D01*
X9929191Y27537773D01*
X9943814Y27721206D01*
X9969893Y27895472D01*
X10008822Y28069416D01*
X10061998Y28251885D01*
X10075739Y28294026D01*
X10178496Y28560179D01*
X10305527Y28813556D01*
X10455540Y29052449D01*
X10627242Y29275149D01*
X10819339Y29479947D01*
X11030539Y29665136D01*
X11215793Y29800306D01*
X11313468Y29860902D01*
X11428968Y29924885D01*
X11553907Y29988160D01*
X11679900Y30046634D01*
X11798559Y30096211D01*
X11887989Y30128493D01*
X12157269Y30201486D01*
X12430652Y30246905D01*
X12706228Y30264749D01*
X12982084Y30255020D01*
X13256311Y30217716D01*
X13526998Y30152839D01*
X13605709Y30128493D01*
X13711425Y30089787D01*
X13831655Y30038679D01*
X13958012Y29979264D01*
X14082110Y29915635D01*
X14195564Y29851887D01*
X14277904Y29800306D01*
X14503709Y29632352D01*
X14711464Y29443398D01*
X14899876Y29235150D01*
X15067654Y29009319D01*
X15213503Y28767611D01*
X15336130Y28511736D01*
X15417959Y28294026D01*
X15474454Y28108496D01*
X15516396Y27933436D01*
X15545180Y27760000D01*
X15562203Y27579341D01*
X15568859Y27382614D01*
X15569071Y27336327D01*
X17558738Y27336327D01*
X17558738Y27678026D01*
X16634460Y28102756D01*
X16598137Y28262819D01*
X16578790Y28344445D01*
X16556518Y28432848D01*
X16534729Y28514695D01*
X16523676Y28553847D01*
X16485539Y28684813D01*
X16530956Y28751403D01*
X16550539Y28779739D01*
X16583923Y28827622D01*
X16628642Y28891535D01*
X16682233Y28967961D01*
X16742232Y29053383D01*
X16806172Y29144284D01*
X16826934Y29173771D01*
X17077494Y29529549D01*
X16913786Y29822882D01*
X16867763Y29905278D01*
X16826455Y29979099D01*
X16791800Y30040893D01*
X16765735Y30087210D01*
X16750197Y30114600D01*
X16746651Y30120630D01*
X16732344Y30120128D01*
X16693175Y30116735D01*
X16632317Y30110779D01*
X16552947Y30102587D01*
X16458240Y30092486D01*
X16351370Y30080804D01*
X16244341Y30068863D01*
X15745460Y30012681D01*
X15705247Y30057393D01*
X15681735Y30082593D01*
X15642748Y30123341D01*
X15592653Y30175115D01*
X15535818Y30233394D01*
X15498273Y30271662D01*
X15331512Y30441220D01*
X15379169Y30906662D01*
X15390878Y31020759D01*
X15401929Y31127971D01*
X15411929Y31224517D01*
X15420485Y31306615D01*
X15427203Y31370485D01*
X15431690Y31412345D01*
X15433155Y31425385D01*
X15439483Y31478666D01*
X15182268Y31631665D01*
X15103797Y31678254D01*
X15031920Y31720766D01*
X14970759Y31756774D01*
X14924438Y31783853D01*
X14897080Y31799577D01*
X14893389Y31801610D01*
X14883632Y31804993D01*
X14871171Y31804304D01*
X14853687Y31798019D01*
X14828861Y31784614D01*
X14794372Y31762567D01*
X14747901Y31730352D01*
X14687128Y31686448D01*
X14609734Y31629331D01*
X14513400Y31557477D01*
X14454318Y31513234D01*
X14046912Y31207912D01*
X13908408Y31252305D01*
X13828539Y31276576D01*
X13738146Y31302017D01*
X13653397Y31324125D01*
X13631383Y31329459D01*
X13572831Y31343670D01*
X13525605Y31355818D01*
X13495753Y31364307D01*
X13488475Y31367163D01*
X13482084Y31380814D01*
X13465844Y31417462D01*
X13441035Y31474167D01*
X13408934Y31547990D01*
X13370820Y31635991D01*
X13327972Y31735230D01*
X13283960Y31837437D01*
X13237796Y31944618D01*
X13195148Y32043334D01*
X13157294Y32130650D01*
X13125512Y32203631D01*
X13101080Y32259340D01*
X13085276Y32294844D01*
X13079416Y32307185D01*
X13064632Y32308534D01*
X13026436Y32309633D01*
X12969638Y32310479D01*
X12899047Y32311075D01*
X12819472Y32311418D01*
X12735722Y32311511D01*
X12652608Y32311352D01*
X12652608Y32311352D01*
G37*
X12652608Y32311352D02*
X12574938Y32310942D01*
X12507522Y32310280D01*
X12455169Y32309367D01*
X12422689Y32308203D01*
X12414281Y32307185D01*
X12407885Y32293658D01*
X12391642Y32257128D01*
X12366832Y32200532D01*
X12334733Y32126804D01*
X12296622Y32038881D01*
X12253778Y31939696D01*
X12209738Y31837437D01*
X12163570Y31730231D01*
X12120921Y31631466D01*
X12083068Y31544081D01*
X12051289Y31471017D01*
X12026864Y31415211D01*
X12011070Y31379604D01*
X12005223Y31367163D01*
X11990509Y31362044D01*
X11954342Y31352190D01*
X11902767Y31339196D01*
X11862315Y31329459D01*
X11782439Y31309240D01*
X11692046Y31284330D01*
X11607301Y31259232D01*
X11585289Y31252305D01*
X11446785Y31207912D01*
X11039380Y31513234D01*
X10932147Y31593454D01*
X10845076Y31658137D01*
X10775846Y31708804D01*
X10722139Y31746979D01*
X10681634Y31774186D01*
X10652012Y31791949D01*
X10630953Y31801791D01*
X10616138Y31805235D01*
X10605248Y31803805D01*
X10600309Y31801610D01*
X10578980Y31789488D01*
X10537537Y31765335D01*
X10480104Y31731575D01*
X10410803Y31690634D01*
X10333757Y31644939D01*
X10311429Y31631665D01*
X10054214Y31478666D01*
X10060543Y31425385D01*
X10063490Y31398666D01*
X10068906Y31347651D01*
X10076397Y31276122D01*
X10085572Y31187860D01*
X10096034Y31086645D01*
X10107392Y30976258D01*
X10114528Y30906662D01*
X10162185Y30441220D01*
X9995425Y30271662D01*
X9936578Y30211602D01*
X9881703Y30155179D01*
X9835166Y30106914D01*
X9801334Y30071330D01*
X9788451Y30057393D01*
X9748238Y30012681D01*
X9249356Y30068863D01*
X9134057Y30081717D01*
X9027980Y30093294D01*
X8934300Y30103264D01*
X8856194Y30111301D01*
X8796835Y30117078D01*
X8759400Y30120268D01*
X8747047Y30120630D01*
X8739500Y30107592D01*
X8720151Y30073353D01*
X8690935Y30021365D01*
X8653792Y29955077D01*
X8610656Y29877941D01*
X8579911Y29822882D01*
X8416203Y29529549D01*
X8666763Y29173771D01*
X8731441Y29081865D01*
X8792961Y28994319D01*
X8848857Y28914651D01*
X8896665Y28846377D01*
X8933921Y28793015D01*
X8958160Y28758081D01*
X8962741Y28751403D01*
X9008158Y28684813D01*
X8970021Y28553847D01*
X8950072Y28481888D01*
X8927664Y28395656D01*
X8906208Y28308482D01*
X8895561Y28262819D01*
X8859238Y28102756D01*
X7934960Y27678026D01*
X7934960Y26994740D01*
X8397099Y26782062D01*
X8859238Y26569385D01*
X8895561Y26409578D01*
X8914927Y26327981D01*
X8937222Y26239582D01*
X8959026Y26157741D01*
X8970021Y26118806D01*
X9008158Y25987840D01*
X8962741Y25921250D01*
X8943158Y25892914D01*
X8909775Y25845031D01*
X8865055Y25781118D01*
X8811464Y25704692D01*
X8751466Y25619270D01*
X8687525Y25528369D01*
X8666763Y25498882D01*
X8416203Y25143104D01*
X8579911Y24849771D01*
X8625933Y24767377D01*
X8667238Y24693560D01*
X8701888Y24631770D01*
X8727947Y24585459D01*
X8743479Y24558075D01*
X8747021Y24552048D01*
X8761323Y24552552D01*
X8800488Y24555936D01*
X8861343Y24561875D01*
X8940711Y24570042D01*
X9035419Y24580111D01*
X9142291Y24591756D01*
X9249331Y24603660D01*
X9748238Y24659660D01*
X9788451Y24615105D01*
X9811961Y24589959D01*
X9850944Y24549259D01*
X9901035Y24497523D01*
X9957866Y24439269D01*
X9995425Y24400991D01*
X10162185Y24231434D01*
X10114528Y23765991D01*
X10102820Y23651894D01*
X10091769Y23544682D01*
X10081768Y23448137D01*
X10073212Y23366038D01*
X10066494Y23302169D01*
X10062007Y23260308D01*
X10060543Y23247268D01*
X10054214Y23193987D01*
X10311429Y23040989D01*
X10389900Y22994399D01*
X10461778Y22951887D01*
X10522939Y22915879D01*
X10569260Y22888800D01*
X10596617Y22873076D01*
X10600309Y22871044D01*
X10610066Y22867660D01*
X10622526Y22868349D01*
X10640010Y22874634D01*
X10664837Y22888039D01*
X10699326Y22910087D01*
X10745797Y22942301D01*
X10806569Y22986205D01*
X10883963Y23043322D01*
X10980297Y23115176D01*
X11039380Y23159419D01*
X11446785Y23464741D01*
X11585289Y23420349D01*
X11665159Y23396077D01*
X11755551Y23370636D01*
X11840301Y23348528D01*
X11862315Y23343194D01*
X11920862Y23328983D01*
X11968080Y23316836D01*
X11997921Y23308347D01*
X12005192Y23305490D01*
X12011573Y23291838D01*
X12027797Y23255187D01*
X12052586Y23198479D01*
X12084661Y23124656D01*
X12122745Y23036657D01*
X12165560Y22937423D01*
X12209416Y22835507D01*
X12255546Y22728341D01*
X12298174Y22629630D01*
X12336021Y22542314D01*
X12367805Y22469332D01*
X12392249Y22413622D01*
X12408072Y22378123D01*
X12413951Y22365798D01*
X12429307Y22363852D01*
X12468024Y22362141D01*
X12525240Y22360691D01*
X12596095Y22359524D01*
X12675728Y22358667D01*
X12759279Y22358143D01*
X12841886Y22357977D01*
X12918689Y22358195D01*
X12984827Y22358820D01*
X13035439Y22359877D01*
X13065664Y22361391D01*
X13071901Y22362465D01*
X13080037Y22376702D01*
X13097902Y22413940D01*
X13124166Y22471215D01*
X13157498Y22545560D01*
X13196569Y22634013D01*
X13240050Y22733607D01*
X13283947Y22835187D01*
X13330116Y22942396D01*
X13372767Y23041165D01*
X13410622Y23128553D01*
X13442402Y23201622D01*
X13466829Y23257432D01*
X13482626Y23293043D01*
X13488475Y23305490D01*
X13503188Y23310609D01*
X13539356Y23320463D01*
X13590930Y23333457D01*
X13631383Y23343194D01*
X13711259Y23363413D01*
X13801652Y23388323D01*
X13886397Y23413421D01*
X13908408Y23420349D01*
X14046912Y23464741D01*
X14454318Y23159419D01*
X14561550Y23079199D01*
X14648622Y23014517D01*
X14717851Y22963850D01*
X14771559Y22925674D01*
X14812064Y22898467D01*
X14841686Y22880704D01*
X14862744Y22870862D01*
X14877559Y22867418D01*
X14888449Y22868849D01*
X14893389Y22871044D01*
X14914717Y22883165D01*
X14956160Y22907318D01*
X15013594Y22941078D01*
X15082895Y22982019D01*
X15159940Y23027714D01*
X15182268Y23040989D01*
X15439483Y23193987D01*
X15433155Y23247268D01*
X15430208Y23273987D01*
X15424792Y23325002D01*
X15417300Y23396531D01*
X15408126Y23484794D01*
X15397663Y23586008D01*
X15386305Y23696395D01*
X15379169Y23765991D01*
X15331512Y24231434D01*
X15498273Y24400991D01*
X15557119Y24461052D01*
X15611995Y24517475D01*
X15658532Y24565739D01*
X15692363Y24601323D01*
X15705247Y24615261D01*
X15745460Y24659972D01*
X16244341Y24603790D01*
X16359641Y24590936D01*
X16465718Y24579360D01*
X16559397Y24569389D01*
X16637504Y24561352D01*
X16696862Y24555575D01*
X16734297Y24552385D01*
X16746651Y24552023D01*
X16754197Y24565061D01*
X16773547Y24599300D01*
X16802762Y24651288D01*
X16839906Y24717576D01*
X16883041Y24794712D01*
X16913786Y24849771D01*
X17077494Y25143104D01*
X16826934Y25498882D01*
X16762256Y25590788D01*
X16700737Y25678334D01*
X16644841Y25758002D01*
X16597033Y25826276D01*
X16559777Y25879638D01*
X16535538Y25914572D01*
X16530956Y25921250D01*
X16485539Y25987840D01*
X16523676Y26118806D01*
X16543625Y26190765D01*
X16566033Y26276997D01*
X16587489Y26364172D01*
X16598137Y26409834D01*
X16634460Y26569897D01*
X17558738Y26994627D01*
X17558738Y27336327D01*
X15569071Y27336327D01*
X15564507Y27134880D01*
X15549883Y26951447D01*
X15523805Y26777181D01*
X15484875Y26603237D01*
X15431700Y26420768D01*
X15417959Y26378627D01*
X15315202Y26112474D01*
X15188170Y25859097D01*
X15038157Y25620204D01*
X14866456Y25397505D01*
X14674358Y25192706D01*
X14463158Y25007517D01*
X14277904Y24872347D01*
X14179733Y24811456D01*
X14063683Y24747209D01*
X13938181Y24683719D01*
X13811654Y24625098D01*
X13692531Y24575459D01*
X13604762Y24543846D01*
X13471377Y24504658D01*
X13326995Y24469505D01*
X13184048Y24441155D01*
X13062879Y24423270D01*
X12981797Y24416573D01*
X12881498Y24412382D01*
X12770874Y24410699D01*
X12658817Y24411528D01*
X12554222Y24414872D01*
X12465980Y24420735D01*
X12443563Y24423039D01*
X12186917Y24464231D01*
X11940602Y24528537D01*
X11698738Y24617694D01*
X11540349Y24690180D01*
X11369709Y24779805D01*
X11216675Y24873293D01*
X11070784Y24977480D01*
X10945044Y25079163D01*
X10741965Y25269572D01*
X10558843Y25479047D01*
X10396632Y25705788D01*
X10256286Y25947993D01*
X10138760Y26203863D01*
X10045009Y26471597D01*
X9975988Y26749394D01*
X9939407Y26976123D01*
X9934291Y27032468D01*
X9929942Y27108871D01*
X9926696Y27197172D01*
X9924888Y27289208D01*
X9924626Y27336327D01*
X9929191Y27537773D01*
X9943814Y27721206D01*
X9969893Y27895472D01*
X10008822Y28069416D01*
X10061998Y28251885D01*
X10075739Y28294026D01*
X10178496Y28560179D01*
X10305527Y28813556D01*
X10455540Y29052449D01*
X10627242Y29275149D01*
X10819339Y29479947D01*
X11030539Y29665136D01*
X11215793Y29800306D01*
X11313468Y29860902D01*
X11428968Y29924885D01*
X11553907Y29988160D01*
X11679900Y30046634D01*
X11798559Y30096211D01*
X11887989Y30128493D01*
X12157269Y30201486D01*
X12430652Y30246905D01*
X12706228Y30264749D01*
X12982084Y30255020D01*
X13256311Y30217716D01*
X13526998Y30152839D01*
X13605709Y30128493D01*
X13711425Y30089787D01*
X13831655Y30038679D01*
X13958012Y29979264D01*
X14082110Y29915635D01*
X14195564Y29851887D01*
X14277904Y29800306D01*
X14503709Y29632352D01*
X14711464Y29443398D01*
X14899876Y29235150D01*
X15067654Y29009319D01*
X15213503Y28767611D01*
X15336130Y28511736D01*
X15417959Y28294026D01*
X15474454Y28108496D01*
X15516396Y27933436D01*
X15545180Y27760000D01*
X15562203Y27579341D01*
X15568859Y27382614D01*
X15569071Y27336327D01*
X17558738Y27336327D01*
X17558738Y27678026D01*
X16634460Y28102756D01*
X16598137Y28262819D01*
X16578790Y28344445D01*
X16556518Y28432848D01*
X16534729Y28514695D01*
X16523676Y28553847D01*
X16485539Y28684813D01*
X16530956Y28751403D01*
X16550539Y28779739D01*
X16583923Y28827622D01*
X16628642Y28891535D01*
X16682233Y28967961D01*
X16742232Y29053383D01*
X16806172Y29144284D01*
X16826934Y29173771D01*
X17077494Y29529549D01*
X16913786Y29822882D01*
X16867763Y29905278D01*
X16826455Y29979099D01*
X16791800Y30040893D01*
X16765735Y30087210D01*
X16750197Y30114600D01*
X16746651Y30120630D01*
X16732344Y30120128D01*
X16693175Y30116735D01*
X16632317Y30110779D01*
X16552947Y30102587D01*
X16458240Y30092486D01*
X16351370Y30080804D01*
X16244341Y30068863D01*
X15745460Y30012681D01*
X15705247Y30057393D01*
X15681735Y30082593D01*
X15642748Y30123341D01*
X15592653Y30175115D01*
X15535818Y30233394D01*
X15498273Y30271662D01*
X15331512Y30441220D01*
X15379169Y30906662D01*
X15390878Y31020759D01*
X15401929Y31127971D01*
X15411929Y31224517D01*
X15420485Y31306615D01*
X15427203Y31370485D01*
X15431690Y31412345D01*
X15433155Y31425385D01*
X15439483Y31478666D01*
X15182268Y31631665D01*
X15103797Y31678254D01*
X15031920Y31720766D01*
X14970759Y31756774D01*
X14924438Y31783853D01*
X14897080Y31799577D01*
X14893389Y31801610D01*
X14883632Y31804993D01*
X14871171Y31804304D01*
X14853687Y31798019D01*
X14828861Y31784614D01*
X14794372Y31762567D01*
X14747901Y31730352D01*
X14687128Y31686448D01*
X14609734Y31629331D01*
X14513400Y31557477D01*
X14454318Y31513234D01*
X14046912Y31207912D01*
X13908408Y31252305D01*
X13828539Y31276576D01*
X13738146Y31302017D01*
X13653397Y31324125D01*
X13631383Y31329459D01*
X13572831Y31343670D01*
X13525605Y31355818D01*
X13495753Y31364307D01*
X13488475Y31367163D01*
X13482084Y31380814D01*
X13465844Y31417462D01*
X13441035Y31474167D01*
X13408934Y31547990D01*
X13370820Y31635991D01*
X13327972Y31735230D01*
X13283960Y31837437D01*
X13237796Y31944618D01*
X13195148Y32043334D01*
X13157294Y32130650D01*
X13125512Y32203631D01*
X13101080Y32259340D01*
X13085276Y32294844D01*
X13079416Y32307185D01*
X13064632Y32308534D01*
X13026436Y32309633D01*
X12969638Y32310479D01*
X12899047Y32311075D01*
X12819472Y32311418D01*
X12735722Y32311511D01*
X12652608Y32311352D01*
G36*
X14023452Y23411312D02*
X14004233Y23400276D01*
X14012446Y23393590D01*
X14031793Y23392271D01*
X14051467Y23397481D01*
X14052507Y23405766D01*
X14034150Y23413453D01*
X14023452Y23411312D01*
X14023452Y23411312D01*
G37*
X14023452Y23411312D02*
X14004233Y23400276D01*
X14012446Y23393590D01*
X14031793Y23392271D01*
X14051467Y23397481D01*
X14052507Y23405766D01*
X14034150Y23413453D01*
X14023452Y23411312D01*
G36*
X13485773Y29191848D02*
X13292871Y29191555D01*
X13125315Y29191020D01*
X12981669Y29190206D01*
X12860495Y29189075D01*
X12760356Y29187590D01*
X12679813Y29185714D01*
X12617431Y29183408D01*
X12571770Y29180636D01*
X12541395Y29177359D01*
X12524867Y29173541D01*
X12520749Y29169143D01*
X12527604Y29164128D01*
X12534737Y29161364D01*
X12541022Y29146902D01*
X12552240Y29108235D01*
X12567549Y29048781D01*
X12586109Y28971961D01*
X12607079Y28881192D01*
X12629620Y28779896D01*
X12638201Y28740382D01*
X12728000Y28324104D01*
X13581955Y28320468D01*
X14435909Y28316832D01*
X14475280Y28137024D01*
X14490544Y28068233D01*
X14504121Y28008749D01*
X14514658Y27964377D01*
X14520803Y27940924D01*
X14521259Y27939577D01*
X14517580Y27933985D01*
X14500142Y27929631D01*
X14466380Y27926387D01*
X14413726Y27924127D01*
X14339612Y27922723D01*
X14241470Y27922047D01*
X14165887Y27921938D01*
X13803907Y27921938D01*
X13525850Y27502132D01*
X13461487Y27404864D01*
X13402129Y27314978D01*
X13349566Y27235198D01*
X13305587Y27168249D01*
X13271982Y27116853D01*
X13250539Y27083736D01*
X13243089Y27071743D01*
X13255842Y27069712D01*
X13294220Y27067809D01*
X13355625Y27066072D01*
X13437462Y27064538D01*
X13537132Y27063245D01*
X13652038Y27062231D01*
X13779584Y27061533D01*
X13917172Y27061190D01*
X13972389Y27061160D01*
X14135410Y27061112D01*
X14272475Y27060919D01*
X14385851Y27060505D01*
X14477802Y27059795D01*
X14550597Y27058712D01*
X14606501Y27057183D01*
X14647779Y27055130D01*
X14676699Y27052478D01*
X14695526Y27049153D01*
X14706527Y27045078D01*
X14711968Y27040178D01*
X14713612Y27036465D01*
X14718497Y27016314D01*
X14728138Y26973772D01*
X14741586Y26913225D01*
X14757890Y26839060D01*
X14776100Y26755665D01*
X14795268Y26667426D01*
X14814443Y26578730D01*
X14832675Y26493964D01*
X14849014Y26417515D01*
X14862512Y26353769D01*
X14872217Y26307114D01*
X14877181Y26281937D01*
X14877626Y26278893D01*
X14863918Y26277482D01*
X14824400Y26276152D01*
X14761486Y26274923D01*
X14677589Y26273819D01*
X14575123Y26272861D01*
X14456500Y26272072D01*
X14324133Y26271474D01*
X14180436Y26271089D01*
X14027822Y26270939D01*
X14012733Y26270938D01*
X13147840Y26270938D01*
X12859200Y25873356D01*
X12791029Y25779643D01*
X12727587Y25692786D01*
X12670904Y25615540D01*
X12623011Y25550654D01*
X12585936Y25500882D01*
X12561712Y25468976D01*
X12552870Y25458086D01*
X12537658Y25438911D01*
X12535182Y25432335D01*
X12548945Y25431094D01*
X12588845Y25429912D01*
X12652794Y25428803D01*
X12738706Y25427781D01*
X12844496Y25426861D01*
X12968076Y25426057D01*
X13107361Y25425385D01*
X13260264Y25424857D01*
X13424700Y25424490D01*
X13598581Y25424297D01*
X13692308Y25424271D01*
X14849434Y25424271D01*
X14916447Y25510145D01*
X15079886Y25742132D01*
X15220481Y25989072D01*
X15337119Y26248227D01*
X15428685Y26516860D01*
X15494065Y26792236D01*
X15525923Y27007687D01*
X15540301Y27223273D01*
X15538924Y27451187D01*
X15522284Y27680684D01*
X15490878Y27901019D01*
X15482855Y27943104D01*
X15437018Y28130310D01*
X15373882Y28324356D01*
X15296298Y28519015D01*
X15207116Y28708058D01*
X15109186Y28885258D01*
X15005361Y29044387D01*
X14938688Y29131965D01*
X14889848Y29191938D01*
X13705460Y29191938D01*
X13485773Y29191848D01*
X13485773Y29191848D01*
G37*
X13485773Y29191848D02*
X13292871Y29191555D01*
X13125315Y29191020D01*
X12981669Y29190206D01*
X12860495Y29189075D01*
X12760356Y29187590D01*
X12679813Y29185714D01*
X12617431Y29183408D01*
X12571770Y29180636D01*
X12541395Y29177359D01*
X12524867Y29173541D01*
X12520749Y29169143D01*
X12527604Y29164128D01*
X12534737Y29161364D01*
X12541022Y29146902D01*
X12552240Y29108235D01*
X12567549Y29048781D01*
X12586109Y28971961D01*
X12607079Y28881192D01*
X12629620Y28779896D01*
X12638201Y28740382D01*
X12728000Y28324104D01*
X13581955Y28320468D01*
X14435909Y28316832D01*
X14475280Y28137024D01*
X14490544Y28068233D01*
X14504121Y28008749D01*
X14514658Y27964377D01*
X14520803Y27940924D01*
X14521259Y27939577D01*
X14517580Y27933985D01*
X14500142Y27929631D01*
X14466380Y27926387D01*
X14413726Y27924127D01*
X14339612Y27922723D01*
X14241470Y27922047D01*
X14165887Y27921938D01*
X13803907Y27921938D01*
X13525850Y27502132D01*
X13461487Y27404864D01*
X13402129Y27314978D01*
X13349566Y27235198D01*
X13305587Y27168249D01*
X13271982Y27116853D01*
X13250539Y27083736D01*
X13243089Y27071743D01*
X13255842Y27069712D01*
X13294220Y27067809D01*
X13355625Y27066072D01*
X13437462Y27064538D01*
X13537132Y27063245D01*
X13652038Y27062231D01*
X13779584Y27061533D01*
X13917172Y27061190D01*
X13972389Y27061160D01*
X14135410Y27061112D01*
X14272475Y27060919D01*
X14385851Y27060505D01*
X14477802Y27059795D01*
X14550597Y27058712D01*
X14606501Y27057183D01*
X14647779Y27055130D01*
X14676699Y27052478D01*
X14695526Y27049153D01*
X14706527Y27045078D01*
X14711968Y27040178D01*
X14713612Y27036465D01*
X14718497Y27016314D01*
X14728138Y26973772D01*
X14741586Y26913225D01*
X14757890Y26839060D01*
X14776100Y26755665D01*
X14795268Y26667426D01*
X14814443Y26578730D01*
X14832675Y26493964D01*
X14849014Y26417515D01*
X14862512Y26353769D01*
X14872217Y26307114D01*
X14877181Y26281937D01*
X14877626Y26278893D01*
X14863918Y26277482D01*
X14824400Y26276152D01*
X14761486Y26274923D01*
X14677589Y26273819D01*
X14575123Y26272861D01*
X14456500Y26272072D01*
X14324133Y26271474D01*
X14180436Y26271089D01*
X14027822Y26270939D01*
X14012733Y26270938D01*
X13147840Y26270938D01*
X12859200Y25873356D01*
X12791029Y25779643D01*
X12727587Y25692786D01*
X12670904Y25615540D01*
X12623011Y25550654D01*
X12585936Y25500882D01*
X12561712Y25468976D01*
X12552870Y25458086D01*
X12537658Y25438911D01*
X12535182Y25432335D01*
X12548945Y25431094D01*
X12588845Y25429912D01*
X12652794Y25428803D01*
X12738706Y25427781D01*
X12844496Y25426861D01*
X12968076Y25426057D01*
X13107361Y25425385D01*
X13260264Y25424857D01*
X13424700Y25424490D01*
X13598581Y25424297D01*
X13692308Y25424271D01*
X14849434Y25424271D01*
X14916447Y25510145D01*
X15079886Y25742132D01*
X15220481Y25989072D01*
X15337119Y26248227D01*
X15428685Y26516860D01*
X15494065Y26792236D01*
X15525923Y27007687D01*
X15540301Y27223273D01*
X15538924Y27451187D01*
X15522284Y27680684D01*
X15490878Y27901019D01*
X15482855Y27943104D01*
X15437018Y28130310D01*
X15373882Y28324356D01*
X15296298Y28519015D01*
X15207116Y28708058D01*
X15109186Y28885258D01*
X15005361Y29044387D01*
X14938688Y29131965D01*
X14889848Y29191938D01*
X13705460Y29191938D01*
X13485773Y29191848D01*
G36*
X10555010Y29131965D02*
X10446504Y28983845D01*
X10342752Y28813542D01*
X10246478Y28627023D01*
X10160412Y28430257D01*
X10087278Y28229209D01*
X10029805Y28029847D01*
X10008487Y27936049D01*
X9991149Y27837918D01*
X9982599Y27748680D01*
X9983103Y27660580D01*
X9992925Y27565867D01*
X10012330Y27456784D01*
X10027209Y27387740D01*
X10072793Y27185154D01*
X11053515Y26651930D01*
X11207112Y26568493D01*
X11353426Y26489156D01*
X11490582Y26414927D01*
X11616705Y26346815D01*
X11729921Y26285826D01*
X11828354Y26232970D01*
X11910129Y26189254D01*
X11973372Y26155686D01*
X12016208Y26133274D01*
X12036762Y26123026D01*
X12038337Y26122486D01*
X12036196Y26136353D01*
X12028799Y26174143D01*
X12016928Y26232209D01*
X12001366Y26306907D01*
X11982896Y26394589D01*
X11962301Y26491610D01*
X11940365Y26594325D01*
X11917870Y26699087D01*
X11895600Y26802250D01*
X11874337Y26900170D01*
X11854864Y26989200D01*
X11837966Y27065694D01*
X11824424Y27126006D01*
X11815022Y27166490D01*
X11810542Y27183502D01*
X11810390Y27183777D01*
X11797948Y27191096D01*
X11763779Y27210666D01*
X11710735Y27240869D01*
X11641666Y27280086D01*
X11559425Y27326695D01*
X11466862Y27379080D01*
X11391861Y27421477D01*
X11292887Y27477523D01*
X11201673Y27529410D01*
X11121153Y27575451D01*
X11054263Y27613958D01*
X11003936Y27643243D01*
X10973108Y27661619D01*
X10964582Y27667193D01*
X10958932Y27683354D01*
X10948919Y27723044D01*
X10935427Y27782061D01*
X10919340Y27856203D01*
X10901542Y27941269D01*
X10882917Y28033056D01*
X10864349Y28127364D01*
X10846723Y28219991D01*
X10836019Y28278243D01*
X10826459Y28331160D01*
X11349209Y28331160D01*
X11484953Y28331075D01*
X11595111Y28330741D01*
X11682322Y28330039D01*
X11749221Y28328851D01*
X11798447Y28327060D01*
X11832635Y28324545D01*
X11854422Y28321190D01*
X11866447Y28316875D01*
X11871345Y28311482D01*
X11871960Y28307693D01*
X11874907Y28290500D01*
X11883421Y28247994D01*
X11897014Y28182427D01*
X11915197Y28096050D01*
X11937479Y27991114D01*
X11963371Y27869872D01*
X11992385Y27734574D01*
X12024032Y27587473D01*
X12057821Y27430820D01*
X12093263Y27266866D01*
X12129871Y27097864D01*
X12167153Y26926064D01*
X12204621Y26753718D01*
X12241785Y26583078D01*
X12278157Y26416395D01*
X12313247Y26255921D01*
X12346566Y26103907D01*
X12377625Y25962606D01*
X12405933Y25834268D01*
X12431003Y25721145D01*
X12452345Y25625489D01*
X12469469Y25549552D01*
X12481886Y25495584D01*
X12489108Y25465837D01*
X12490562Y25460877D01*
X12496297Y25457094D01*
X12507732Y25463530D01*
X12526369Y25482053D01*
X12553712Y25514529D01*
X12591264Y25562823D01*
X12640527Y25628803D01*
X12703007Y25714333D01*
X12774719Y25813655D01*
X12842401Y25907545D01*
X12906757Y25996468D01*
X12965433Y26077197D01*
X13016076Y26146510D01*
X13056335Y26201182D01*
X13083855Y26237989D01*
X13092981Y26249789D01*
X13138097Y26306251D01*
X12819378Y27749094D01*
X12500658Y29191938D01*
X10603849Y29191938D01*
X10555010Y29131965D01*
X10555010Y29131965D01*
G37*
X10555010Y29131965D02*
X10446504Y28983845D01*
X10342752Y28813542D01*
X10246478Y28627023D01*
X10160412Y28430257D01*
X10087278Y28229209D01*
X10029805Y28029847D01*
X10008487Y27936049D01*
X9991149Y27837918D01*
X9982599Y27748680D01*
X9983103Y27660580D01*
X9992925Y27565867D01*
X10012330Y27456784D01*
X10027209Y27387740D01*
X10072793Y27185154D01*
X11053515Y26651930D01*
X11207112Y26568493D01*
X11353426Y26489156D01*
X11490582Y26414927D01*
X11616705Y26346815D01*
X11729921Y26285826D01*
X11828354Y26232970D01*
X11910129Y26189254D01*
X11973372Y26155686D01*
X12016208Y26133274D01*
X12036762Y26123026D01*
X12038337Y26122486D01*
X12036196Y26136353D01*
X12028799Y26174143D01*
X12016928Y26232209D01*
X12001366Y26306907D01*
X11982896Y26394589D01*
X11962301Y26491610D01*
X11940365Y26594325D01*
X11917870Y26699087D01*
X11895600Y26802250D01*
X11874337Y26900170D01*
X11854864Y26989200D01*
X11837966Y27065694D01*
X11824424Y27126006D01*
X11815022Y27166490D01*
X11810542Y27183502D01*
X11810390Y27183777D01*
X11797948Y27191096D01*
X11763779Y27210666D01*
X11710735Y27240869D01*
X11641666Y27280086D01*
X11559425Y27326695D01*
X11466862Y27379080D01*
X11391861Y27421477D01*
X11292887Y27477523D01*
X11201673Y27529410D01*
X11121153Y27575451D01*
X11054263Y27613958D01*
X11003936Y27643243D01*
X10973108Y27661619D01*
X10964582Y27667193D01*
X10958932Y27683354D01*
X10948919Y27723044D01*
X10935427Y27782061D01*
X10919340Y27856203D01*
X10901542Y27941269D01*
X10882917Y28033056D01*
X10864349Y28127364D01*
X10846723Y28219991D01*
X10836019Y28278243D01*
X10826459Y28331160D01*
X11349209Y28331160D01*
X11484953Y28331075D01*
X11595111Y28330741D01*
X11682322Y28330039D01*
X11749221Y28328851D01*
X11798447Y28327060D01*
X11832635Y28324545D01*
X11854422Y28321190D01*
X11866447Y28316875D01*
X11871345Y28311482D01*
X11871960Y28307693D01*
X11874907Y28290500D01*
X11883421Y28247994D01*
X11897014Y28182427D01*
X11915197Y28096050D01*
X11937479Y27991114D01*
X11963371Y27869872D01*
X11992385Y27734574D01*
X12024032Y27587473D01*
X12057821Y27430820D01*
X12093263Y27266866D01*
X12129871Y27097864D01*
X12167153Y26926064D01*
X12204621Y26753718D01*
X12241785Y26583078D01*
X12278157Y26416395D01*
X12313247Y26255921D01*
X12346566Y26103907D01*
X12377625Y25962606D01*
X12405933Y25834268D01*
X12431003Y25721145D01*
X12452345Y25625489D01*
X12469469Y25549552D01*
X12481886Y25495584D01*
X12489108Y25465837D01*
X12490562Y25460877D01*
X12496297Y25457094D01*
X12507732Y25463530D01*
X12526369Y25482053D01*
X12553712Y25514529D01*
X12591264Y25562823D01*
X12640527Y25628803D01*
X12703007Y25714333D01*
X12774719Y25813655D01*
X12842401Y25907545D01*
X12906757Y25996468D01*
X12965433Y26077197D01*
X13016076Y26146510D01*
X13056335Y26201182D01*
X13083855Y26237989D01*
X13092981Y26249789D01*
X13138097Y26306251D01*
X12819378Y27749094D01*
X12500658Y29191938D01*
X10603849Y29191938D01*
X10555010Y29131965D01*
M02*
