G04 #@! TF.FileFunction,Copper,L2,Bot,Signal*
%FSLAX46Y46*%
G04 Gerber Fmt 4.6, Leading zero omitted, Abs format (unit mm)*
G04 Created by KiCad (PCBNEW 4.0.6+dfsg1-1) date Mon Feb 26 20:00:46 2018*
%MOMM*%
%LPD*%
G01*
G04 APERTURE LIST*
%ADD10C,0.100000*%
%ADD11R,2.000000X2.000000*%
%ADD12C,2.000000*%
%ADD13O,1.600000X1.600000*%
%ADD14R,1.727200X2.032000*%
%ADD15O,1.727200X2.032000*%
%ADD16R,2.032000X2.032000*%
%ADD17O,2.032000X2.032000*%
%ADD18R,2.500000X2.500000*%
%ADD19C,2.500000*%
%ADD20C,6.400000*%
%ADD21C,0.600000*%
%ADD22C,0.500000*%
%ADD23C,2.000000*%
%ADD24C,1.000000*%
%ADD25C,0.254000*%
G04 APERTURE END LIST*
D10*
D11*
X36001960Y5217160D03*
D12*
X33461960Y5217160D03*
X30961960Y5217160D03*
D11*
X58988960Y5217160D03*
D12*
X56448960Y5217160D03*
X53948960Y5217160D03*
D13*
X29651960Y14818360D03*
X32191960Y14818360D03*
X34731960Y14818360D03*
X37271960Y14818360D03*
X37271960Y22438360D03*
X34731960Y22438360D03*
X32191960Y22438360D03*
X29651960Y22438360D03*
X18044160Y14818360D03*
X20584160Y14818360D03*
X23124160Y14818360D03*
X25664160Y14818360D03*
X25664160Y22438360D03*
X23124160Y22438360D03*
X20584160Y22438360D03*
X18044160Y22438360D03*
D11*
X24317960Y5217160D03*
D12*
X21777960Y5217160D03*
X19277960Y5217160D03*
D14*
X63129160Y29956760D03*
D15*
X60589160Y29956760D03*
X58049160Y29956760D03*
X55509160Y29956760D03*
X52969160Y29956760D03*
X50429160Y29956760D03*
X47889160Y29956760D03*
X45349160Y29956760D03*
D11*
X81975960Y5217160D03*
D12*
X79435960Y5217160D03*
X76935960Y5217160D03*
D11*
X70545960Y5217160D03*
D12*
X68005960Y5217160D03*
X65505960Y5217160D03*
D11*
X47558960Y5217160D03*
D12*
X45018960Y5217160D03*
X42518960Y5217160D03*
D13*
X41151160Y14801760D03*
X43691160Y14801760D03*
X46231160Y14801760D03*
X48771160Y14801760D03*
X48771160Y22421760D03*
X46231160Y22421760D03*
X43691160Y22421760D03*
X41151160Y22421760D03*
X52651160Y14801760D03*
X55191160Y14801760D03*
X57731160Y14801760D03*
X60271160Y14801760D03*
X60271160Y22421760D03*
X57731160Y22421760D03*
X55191160Y22421760D03*
X52651160Y22421760D03*
X64151160Y14801760D03*
X66691160Y14801760D03*
X69231160Y14801760D03*
X71771160Y14801760D03*
X71771160Y22421760D03*
X69231160Y22421760D03*
X66691160Y22421760D03*
X64151160Y22421760D03*
X75651160Y14801760D03*
X78191160Y14801760D03*
X80731160Y14801760D03*
X83271160Y14801760D03*
X83271160Y22421760D03*
X80731160Y22421760D03*
X78191160Y22421760D03*
X75651160Y22421760D03*
D16*
X69973960Y29974160D03*
D17*
X72513960Y29974160D03*
D18*
X5826760Y10779760D03*
D19*
X5826760Y15779760D03*
D20*
X3566160Y29677360D03*
D21*
X5966160Y29677360D03*
X5263216Y27980304D03*
X3566160Y27277360D03*
X1869104Y27980304D03*
X1166160Y29677360D03*
X1869104Y31374416D03*
X3566160Y32077360D03*
X5263216Y31374416D03*
D20*
X82560160Y29651960D03*
D21*
X84960160Y29651960D03*
X84257216Y27954904D03*
X82560160Y27251960D03*
X80863104Y27954904D03*
X80160160Y29651960D03*
X80863104Y31349016D03*
X82560160Y32051960D03*
X84257216Y31349016D03*
X12735560Y19974560D03*
X10601960Y20025360D03*
X11617960Y19999960D03*
D22*
X25664160Y22793960D02*
X25664160Y22438360D01*
D23*
X10601960Y20025360D02*
X12684760Y20025360D01*
X12684760Y20025360D02*
X12735560Y19974560D01*
X11617960Y19999960D02*
X10627360Y19999960D01*
X10627360Y19999960D02*
X10601960Y20025360D01*
X19277960Y5217160D02*
X16342360Y5217160D01*
X11617960Y9941560D02*
X11617960Y19999960D01*
X16342360Y5217160D02*
X11617960Y9941560D01*
D24*
X75651160Y22421760D02*
X75651160Y29096960D01*
X74773960Y29974160D02*
X72513960Y29974160D01*
X75651160Y29096960D02*
X74773960Y29974160D01*
D25*
G36*
X79310901Y31827149D02*
X78725827Y30418135D01*
X78724496Y28892478D01*
X79307110Y27482445D01*
X80384971Y26402701D01*
X81793985Y25817627D01*
X83319642Y25816296D01*
X84729675Y26398910D01*
X85363960Y27032089D01*
X85363960Y784160D01*
X783960Y784160D01*
X783960Y12029760D01*
X3929320Y12029760D01*
X3929320Y9529760D01*
X3973598Y9294443D01*
X4112670Y9078319D01*
X4324870Y8933329D01*
X4576760Y8882320D01*
X7076760Y8882320D01*
X7312077Y8926598D01*
X7528201Y9065670D01*
X7673191Y9277870D01*
X7724200Y9529760D01*
X7724200Y12029760D01*
X7679922Y12265077D01*
X7540850Y12481201D01*
X7328650Y12626191D01*
X7076760Y12677200D01*
X4576760Y12677200D01*
X4341443Y12632922D01*
X4125319Y12493850D01*
X3980329Y12281650D01*
X3929320Y12029760D01*
X783960Y12029760D01*
X783960Y14446440D01*
X4673045Y14446440D01*
X4802293Y14153637D01*
X5502566Y13885372D01*
X6252195Y13905510D01*
X6851227Y14153637D01*
X6980475Y14446440D01*
X5826760Y15600155D01*
X4673045Y14446440D01*
X783960Y14446440D01*
X783960Y16103954D01*
X3932372Y16103954D01*
X3952510Y15354325D01*
X4200637Y14755293D01*
X4493440Y14626045D01*
X5647155Y15779760D01*
X6006365Y15779760D01*
X7160080Y14626045D01*
X7452883Y14755293D01*
X7721148Y15455566D01*
X7701010Y16205195D01*
X7452883Y16804227D01*
X7160080Y16933475D01*
X6006365Y15779760D01*
X5647155Y15779760D01*
X4493440Y16933475D01*
X4200637Y16804227D01*
X3932372Y16103954D01*
X783960Y16103954D01*
X783960Y17113080D01*
X4673045Y17113080D01*
X5826760Y15959365D01*
X6980475Y17113080D01*
X6851227Y17405883D01*
X6150954Y17674148D01*
X5401325Y17654010D01*
X4802293Y17405883D01*
X4673045Y17113080D01*
X783960Y17113080D01*
X783960Y20025360D01*
X8966959Y20025360D01*
X9091417Y19399672D01*
X9445840Y18869240D01*
X9471240Y18843840D01*
X9982960Y18501920D01*
X9982960Y9941565D01*
X9982959Y9941560D01*
X10107417Y9315872D01*
X10461840Y8785440D01*
X15186238Y4061043D01*
X15186240Y4061040D01*
X15531619Y3830266D01*
X15554960Y3814670D01*
X15554960Y2804160D01*
X15563645Y2758001D01*
X15590925Y2715607D01*
X15632550Y2687166D01*
X15681960Y2677160D01*
X23047960Y2677160D01*
X23094119Y2685845D01*
X23136513Y2713125D01*
X23164954Y2754750D01*
X23174960Y2804160D01*
X23174960Y3589074D01*
X23191651Y3582160D01*
X24032210Y3582160D01*
X24190960Y3740910D01*
X24190960Y5090160D01*
X24444960Y5090160D01*
X24444960Y3740910D01*
X24603710Y3582160D01*
X25444269Y3582160D01*
X25677658Y3678833D01*
X25856287Y3857461D01*
X25952960Y4090850D01*
X25952960Y4931410D01*
X25794210Y5090160D01*
X24444960Y5090160D01*
X24190960Y5090160D01*
X24170960Y5090160D01*
X24170960Y5344160D01*
X24190960Y5344160D01*
X24190960Y6693410D01*
X24444960Y6693410D01*
X24444960Y5344160D01*
X25794210Y5344160D01*
X25952960Y5502910D01*
X25952960Y6343470D01*
X25856287Y6576859D01*
X25677658Y6755487D01*
X25444269Y6852160D01*
X24603710Y6852160D01*
X24444960Y6693410D01*
X24190960Y6693410D01*
X24032210Y6852160D01*
X23191651Y6852160D01*
X23174960Y6845246D01*
X23174960Y8519160D01*
X26476960Y8519160D01*
X26476960Y2804160D01*
X26485645Y2758001D01*
X26512925Y2715607D01*
X26554550Y2687166D01*
X26603960Y2677160D01*
X34731960Y2677160D01*
X34778119Y2685845D01*
X34820513Y2713125D01*
X34848954Y2754750D01*
X34858960Y2804160D01*
X34858960Y3589074D01*
X34875651Y3582160D01*
X35716210Y3582160D01*
X35874960Y3740910D01*
X35874960Y5090160D01*
X36128960Y5090160D01*
X36128960Y3740910D01*
X36287710Y3582160D01*
X37128269Y3582160D01*
X37361658Y3678833D01*
X37540287Y3857461D01*
X37636960Y4090850D01*
X37636960Y4931410D01*
X37478210Y5090160D01*
X36128960Y5090160D01*
X35874960Y5090160D01*
X35854960Y5090160D01*
X35854960Y5344160D01*
X35874960Y5344160D01*
X35874960Y6693410D01*
X36128960Y6693410D01*
X36128960Y5344160D01*
X37478210Y5344160D01*
X37636960Y5502910D01*
X37636960Y6343470D01*
X37540287Y6576859D01*
X37361658Y6755487D01*
X37128269Y6852160D01*
X36287710Y6852160D01*
X36128960Y6693410D01*
X35874960Y6693410D01*
X35716210Y6852160D01*
X34875651Y6852160D01*
X34858960Y6845246D01*
X34858960Y8519160D01*
X38160960Y8519160D01*
X38160960Y2804160D01*
X38169645Y2758001D01*
X38196925Y2715607D01*
X38238550Y2687166D01*
X38287960Y2677160D01*
X46161960Y2677160D01*
X46208119Y2685845D01*
X46250513Y2713125D01*
X46278954Y2754750D01*
X46288960Y2804160D01*
X46288960Y3641679D01*
X46432651Y3582160D01*
X47273210Y3582160D01*
X47431960Y3740910D01*
X47431960Y5090160D01*
X47685960Y5090160D01*
X47685960Y3740910D01*
X47844710Y3582160D01*
X48685269Y3582160D01*
X48918658Y3678833D01*
X49097287Y3857461D01*
X49193960Y4090850D01*
X49193960Y4931410D01*
X49035210Y5090160D01*
X47685960Y5090160D01*
X47431960Y5090160D01*
X47411960Y5090160D01*
X47411960Y5344160D01*
X47431960Y5344160D01*
X47431960Y6693410D01*
X47685960Y6693410D01*
X47685960Y5344160D01*
X49035210Y5344160D01*
X49193960Y5502910D01*
X49193960Y6343470D01*
X49097287Y6576859D01*
X48918658Y6755487D01*
X48685269Y6852160D01*
X47844710Y6852160D01*
X47685960Y6693410D01*
X47431960Y6693410D01*
X47273210Y6852160D01*
X46432651Y6852160D01*
X46288960Y6792641D01*
X46288960Y8519160D01*
X49717960Y8519160D01*
X49717960Y2931160D01*
X49726645Y2885001D01*
X49753925Y2842607D01*
X49795550Y2814166D01*
X49844960Y2804160D01*
X57718960Y2804160D01*
X57765119Y2812845D01*
X57807513Y2840125D01*
X57835954Y2881750D01*
X57845960Y2931160D01*
X57845960Y3589074D01*
X57862651Y3582160D01*
X58703210Y3582160D01*
X58861960Y3740910D01*
X58861960Y5090160D01*
X59115960Y5090160D01*
X59115960Y3740910D01*
X59274710Y3582160D01*
X60115269Y3582160D01*
X60348658Y3678833D01*
X60527287Y3857461D01*
X60623960Y4090850D01*
X60623960Y4931410D01*
X60465210Y5090160D01*
X59115960Y5090160D01*
X58861960Y5090160D01*
X58841960Y5090160D01*
X58841960Y5344160D01*
X58861960Y5344160D01*
X58861960Y6693410D01*
X59115960Y6693410D01*
X59115960Y5344160D01*
X60465210Y5344160D01*
X60623960Y5502910D01*
X60623960Y6343470D01*
X60527287Y6576859D01*
X60348658Y6755487D01*
X60115269Y6852160D01*
X59274710Y6852160D01*
X59115960Y6693410D01*
X58861960Y6693410D01*
X58703210Y6852160D01*
X57862651Y6852160D01*
X57845960Y6845246D01*
X57845960Y8519160D01*
X61274960Y8519160D01*
X61274960Y2931160D01*
X61283645Y2885001D01*
X61310925Y2842607D01*
X61352550Y2814166D01*
X61401960Y2804160D01*
X69148960Y2804160D01*
X69195119Y2812845D01*
X69237513Y2840125D01*
X69265954Y2881750D01*
X69275960Y2931160D01*
X69275960Y3641679D01*
X69419651Y3582160D01*
X70260210Y3582160D01*
X70418960Y3740910D01*
X70418960Y5090160D01*
X70672960Y5090160D01*
X70672960Y3740910D01*
X70831710Y3582160D01*
X71672269Y3582160D01*
X71905658Y3678833D01*
X72084287Y3857461D01*
X72180960Y4090850D01*
X72180960Y4931410D01*
X72022210Y5090160D01*
X70672960Y5090160D01*
X70418960Y5090160D01*
X70398960Y5090160D01*
X70398960Y5344160D01*
X70418960Y5344160D01*
X70418960Y6693410D01*
X70672960Y6693410D01*
X70672960Y5344160D01*
X72022210Y5344160D01*
X72180960Y5502910D01*
X72180960Y6343470D01*
X72084287Y6576859D01*
X71905658Y6755487D01*
X71672269Y6852160D01*
X70831710Y6852160D01*
X70672960Y6693410D01*
X70418960Y6693410D01*
X70260210Y6852160D01*
X69419651Y6852160D01*
X69275960Y6792641D01*
X69275960Y8519160D01*
X72831960Y8519160D01*
X72831960Y2931160D01*
X72839893Y2886979D01*
X72866462Y2844136D01*
X72907607Y2815005D01*
X72956844Y2804178D01*
X80576844Y2677178D01*
X80625119Y2685845D01*
X80667513Y2713125D01*
X80695954Y2754750D01*
X80705960Y2804160D01*
X80705960Y3641679D01*
X80849651Y3582160D01*
X81690210Y3582160D01*
X81848960Y3740910D01*
X81848960Y5090160D01*
X82102960Y5090160D01*
X82102960Y3740910D01*
X82261710Y3582160D01*
X83102269Y3582160D01*
X83335658Y3678833D01*
X83514287Y3857461D01*
X83610960Y4090850D01*
X83610960Y4931410D01*
X83452210Y5090160D01*
X82102960Y5090160D01*
X81848960Y5090160D01*
X81828960Y5090160D01*
X81828960Y5344160D01*
X81848960Y5344160D01*
X81848960Y6693410D01*
X82102960Y6693410D01*
X82102960Y5344160D01*
X83452210Y5344160D01*
X83610960Y5502910D01*
X83610960Y6343470D01*
X83514287Y6576859D01*
X83335658Y6755487D01*
X83102269Y6852160D01*
X82261710Y6852160D01*
X82102960Y6693410D01*
X81848960Y6693410D01*
X81690210Y6852160D01*
X80849651Y6852160D01*
X80705960Y6792641D01*
X80705960Y8519160D01*
X84515960Y8519160D01*
X84562119Y8527845D01*
X84604513Y8555125D01*
X84632954Y8596750D01*
X84642960Y8646160D01*
X84642960Y14455919D01*
X84706160Y14773647D01*
X84706160Y14829873D01*
X84642960Y15147601D01*
X84642960Y20584160D01*
X84634275Y20630319D01*
X84606995Y20672713D01*
X84565370Y20701154D01*
X84515960Y20711160D01*
X15681960Y20711160D01*
X15635801Y20702475D01*
X15593407Y20675195D01*
X15564966Y20633570D01*
X15554960Y20584160D01*
X15554960Y8316799D01*
X13252960Y10618800D01*
X13252960Y18442477D01*
X13361248Y18464017D01*
X13891680Y18818440D01*
X14246103Y19348872D01*
X14370561Y19974560D01*
X14246103Y20600248D01*
X13891680Y21130680D01*
X13840880Y21181480D01*
X13310448Y21535903D01*
X12684760Y21660361D01*
X12684755Y21660360D01*
X10601965Y21660360D01*
X10601960Y21660361D01*
X9976272Y21535903D01*
X9445840Y21181480D01*
X9091417Y20651048D01*
X8966959Y20025360D01*
X783960Y20025360D01*
X783960Y22466473D01*
X16609160Y22466473D01*
X16609160Y22410247D01*
X16718393Y21861096D01*
X17029462Y21395549D01*
X17495009Y21084480D01*
X18044160Y20975247D01*
X18593311Y21084480D01*
X19058858Y21395549D01*
X19314160Y21777635D01*
X19569462Y21395549D01*
X20035009Y21084480D01*
X20584160Y20975247D01*
X21133311Y21084480D01*
X21598858Y21395549D01*
X21854160Y21777635D01*
X22109462Y21395549D01*
X22575009Y21084480D01*
X23124160Y20975247D01*
X23673311Y21084480D01*
X24138858Y21395549D01*
X24409146Y21800063D01*
X24511771Y21583226D01*
X24926737Y21207319D01*
X25315121Y21046456D01*
X25537160Y21168445D01*
X25537160Y22311360D01*
X25791160Y22311360D01*
X25791160Y21168445D01*
X26013199Y21046456D01*
X26401583Y21207319D01*
X26816549Y21583226D01*
X27056074Y22089319D01*
X26934789Y22311360D01*
X25791160Y22311360D01*
X25537160Y22311360D01*
X25517160Y22311360D01*
X25517160Y22466473D01*
X28216960Y22466473D01*
X28216960Y22410247D01*
X28326193Y21861096D01*
X28637262Y21395549D01*
X29102809Y21084480D01*
X29651960Y20975247D01*
X30201111Y21084480D01*
X30666658Y21395549D01*
X30921960Y21777635D01*
X31177262Y21395549D01*
X31642809Y21084480D01*
X32191960Y20975247D01*
X32741111Y21084480D01*
X33206658Y21395549D01*
X33461960Y21777635D01*
X33717262Y21395549D01*
X34182809Y21084480D01*
X34731960Y20975247D01*
X35281111Y21084480D01*
X35746658Y21395549D01*
X36016946Y21800063D01*
X36119571Y21583226D01*
X36534537Y21207319D01*
X36922921Y21046456D01*
X37144960Y21168445D01*
X37144960Y22311360D01*
X37398960Y22311360D01*
X37398960Y21168445D01*
X37620999Y21046456D01*
X38009383Y21207319D01*
X38424349Y21583226D01*
X38663874Y22089319D01*
X38542589Y22311360D01*
X37398960Y22311360D01*
X37144960Y22311360D01*
X37124960Y22311360D01*
X37124960Y22449873D01*
X39716160Y22449873D01*
X39716160Y22393647D01*
X39825393Y21844496D01*
X40136462Y21378949D01*
X40602009Y21067880D01*
X41151160Y20958647D01*
X41700311Y21067880D01*
X42165858Y21378949D01*
X42421160Y21761035D01*
X42676462Y21378949D01*
X43142009Y21067880D01*
X43691160Y20958647D01*
X44240311Y21067880D01*
X44705858Y21378949D01*
X44961160Y21761035D01*
X45216462Y21378949D01*
X45682009Y21067880D01*
X46231160Y20958647D01*
X46780311Y21067880D01*
X47245858Y21378949D01*
X47516146Y21783463D01*
X47618771Y21566626D01*
X48033737Y21190719D01*
X48422121Y21029856D01*
X48644160Y21151845D01*
X48644160Y22294760D01*
X48898160Y22294760D01*
X48898160Y21151845D01*
X49120199Y21029856D01*
X49508583Y21190719D01*
X49923549Y21566626D01*
X50163074Y22072719D01*
X50041789Y22294760D01*
X48898160Y22294760D01*
X48644160Y22294760D01*
X48624160Y22294760D01*
X48624160Y22449873D01*
X51216160Y22449873D01*
X51216160Y22393647D01*
X51325393Y21844496D01*
X51636462Y21378949D01*
X52102009Y21067880D01*
X52651160Y20958647D01*
X53200311Y21067880D01*
X53665858Y21378949D01*
X53921160Y21761035D01*
X54176462Y21378949D01*
X54642009Y21067880D01*
X55191160Y20958647D01*
X55740311Y21067880D01*
X56205858Y21378949D01*
X56461160Y21761035D01*
X56716462Y21378949D01*
X57182009Y21067880D01*
X57731160Y20958647D01*
X58280311Y21067880D01*
X58745858Y21378949D01*
X59016146Y21783463D01*
X59118771Y21566626D01*
X59533737Y21190719D01*
X59922121Y21029856D01*
X60144160Y21151845D01*
X60144160Y22294760D01*
X60398160Y22294760D01*
X60398160Y21151845D01*
X60620199Y21029856D01*
X61008583Y21190719D01*
X61423549Y21566626D01*
X61663074Y22072719D01*
X61541789Y22294760D01*
X60398160Y22294760D01*
X60144160Y22294760D01*
X60124160Y22294760D01*
X60124160Y22449873D01*
X62716160Y22449873D01*
X62716160Y22393647D01*
X62825393Y21844496D01*
X63136462Y21378949D01*
X63602009Y21067880D01*
X64151160Y20958647D01*
X64700311Y21067880D01*
X65165858Y21378949D01*
X65421160Y21761035D01*
X65676462Y21378949D01*
X66142009Y21067880D01*
X66691160Y20958647D01*
X67240311Y21067880D01*
X67705858Y21378949D01*
X67961160Y21761035D01*
X68216462Y21378949D01*
X68682009Y21067880D01*
X69231160Y20958647D01*
X69780311Y21067880D01*
X70245858Y21378949D01*
X70516146Y21783463D01*
X70618771Y21566626D01*
X71033737Y21190719D01*
X71422121Y21029856D01*
X71644160Y21151845D01*
X71644160Y22294760D01*
X71898160Y22294760D01*
X71898160Y21151845D01*
X72120199Y21029856D01*
X72508583Y21190719D01*
X72923549Y21566626D01*
X73163074Y22072719D01*
X73041789Y22294760D01*
X71898160Y22294760D01*
X71644160Y22294760D01*
X71624160Y22294760D01*
X71624160Y22548760D01*
X71644160Y22548760D01*
X71644160Y23691675D01*
X71898160Y23691675D01*
X71898160Y22548760D01*
X73041789Y22548760D01*
X73163074Y22770801D01*
X72923549Y23276894D01*
X72508583Y23652801D01*
X72120199Y23813664D01*
X71898160Y23691675D01*
X71644160Y23691675D01*
X71422121Y23813664D01*
X71033737Y23652801D01*
X70618771Y23276894D01*
X70516146Y23060057D01*
X70245858Y23464571D01*
X69780311Y23775640D01*
X69231160Y23884873D01*
X68682009Y23775640D01*
X68216462Y23464571D01*
X67961160Y23082485D01*
X67705858Y23464571D01*
X67240311Y23775640D01*
X66691160Y23884873D01*
X66142009Y23775640D01*
X65676462Y23464571D01*
X65421160Y23082485D01*
X65165858Y23464571D01*
X64700311Y23775640D01*
X64151160Y23884873D01*
X63602009Y23775640D01*
X63136462Y23464571D01*
X62825393Y22999024D01*
X62716160Y22449873D01*
X60124160Y22449873D01*
X60124160Y22548760D01*
X60144160Y22548760D01*
X60144160Y23691675D01*
X60398160Y23691675D01*
X60398160Y22548760D01*
X61541789Y22548760D01*
X61663074Y22770801D01*
X61423549Y23276894D01*
X61008583Y23652801D01*
X60620199Y23813664D01*
X60398160Y23691675D01*
X60144160Y23691675D01*
X59922121Y23813664D01*
X59533737Y23652801D01*
X59118771Y23276894D01*
X59016146Y23060057D01*
X58745858Y23464571D01*
X58280311Y23775640D01*
X57731160Y23884873D01*
X57182009Y23775640D01*
X56716462Y23464571D01*
X56461160Y23082485D01*
X56205858Y23464571D01*
X55740311Y23775640D01*
X55191160Y23884873D01*
X54642009Y23775640D01*
X54176462Y23464571D01*
X53921160Y23082485D01*
X53665858Y23464571D01*
X53200311Y23775640D01*
X52651160Y23884873D01*
X52102009Y23775640D01*
X51636462Y23464571D01*
X51325393Y22999024D01*
X51216160Y22449873D01*
X48624160Y22449873D01*
X48624160Y22548760D01*
X48644160Y22548760D01*
X48644160Y23691675D01*
X48898160Y23691675D01*
X48898160Y22548760D01*
X50041789Y22548760D01*
X50163074Y22770801D01*
X49923549Y23276894D01*
X49508583Y23652801D01*
X49120199Y23813664D01*
X48898160Y23691675D01*
X48644160Y23691675D01*
X48422121Y23813664D01*
X48033737Y23652801D01*
X47618771Y23276894D01*
X47516146Y23060057D01*
X47245858Y23464571D01*
X46780311Y23775640D01*
X46231160Y23884873D01*
X45682009Y23775640D01*
X45216462Y23464571D01*
X44961160Y23082485D01*
X44705858Y23464571D01*
X44240311Y23775640D01*
X43691160Y23884873D01*
X43142009Y23775640D01*
X42676462Y23464571D01*
X42421160Y23082485D01*
X42165858Y23464571D01*
X41700311Y23775640D01*
X41151160Y23884873D01*
X40602009Y23775640D01*
X40136462Y23464571D01*
X39825393Y22999024D01*
X39716160Y22449873D01*
X37124960Y22449873D01*
X37124960Y22565360D01*
X37144960Y22565360D01*
X37144960Y23708275D01*
X37398960Y23708275D01*
X37398960Y22565360D01*
X38542589Y22565360D01*
X38663874Y22787401D01*
X38424349Y23293494D01*
X38009383Y23669401D01*
X37620999Y23830264D01*
X37398960Y23708275D01*
X37144960Y23708275D01*
X36922921Y23830264D01*
X36534537Y23669401D01*
X36119571Y23293494D01*
X36016946Y23076657D01*
X35746658Y23481171D01*
X35281111Y23792240D01*
X34731960Y23901473D01*
X34182809Y23792240D01*
X33717262Y23481171D01*
X33461960Y23099085D01*
X33206658Y23481171D01*
X32741111Y23792240D01*
X32191960Y23901473D01*
X31642809Y23792240D01*
X31177262Y23481171D01*
X30921960Y23099085D01*
X30666658Y23481171D01*
X30201111Y23792240D01*
X29651960Y23901473D01*
X29102809Y23792240D01*
X28637262Y23481171D01*
X28326193Y23015624D01*
X28216960Y22466473D01*
X25517160Y22466473D01*
X25517160Y22565360D01*
X25537160Y22565360D01*
X25537160Y23708275D01*
X25791160Y23708275D01*
X25791160Y22565360D01*
X26934789Y22565360D01*
X27056074Y22787401D01*
X26816549Y23293494D01*
X26401583Y23669401D01*
X26013199Y23830264D01*
X25791160Y23708275D01*
X25537160Y23708275D01*
X25315121Y23830264D01*
X24926737Y23669401D01*
X24511771Y23293494D01*
X24409146Y23076657D01*
X24138858Y23481171D01*
X23673311Y23792240D01*
X23124160Y23901473D01*
X22575009Y23792240D01*
X22109462Y23481171D01*
X21854160Y23099085D01*
X21598858Y23481171D01*
X21133311Y23792240D01*
X20584160Y23901473D01*
X20035009Y23792240D01*
X19569462Y23481171D01*
X19314160Y23099085D01*
X19058858Y23481171D01*
X18593311Y23792240D01*
X18044160Y23901473D01*
X17495009Y23792240D01*
X17029462Y23481171D01*
X16718393Y23015624D01*
X16609160Y22466473D01*
X783960Y22466473D01*
X783960Y27036172D01*
X1390971Y26428101D01*
X2799985Y25843027D01*
X4325642Y25841696D01*
X5735675Y26424310D01*
X6815419Y27502171D01*
X7400493Y28911185D01*
X7401089Y29594847D01*
X43863976Y29594847D01*
X44057206Y29042440D01*
X44447124Y28606028D01*
X44974369Y28352051D01*
X44990134Y28349402D01*
X45222160Y28470543D01*
X45222160Y29829760D01*
X44008236Y29829760D01*
X43863976Y29594847D01*
X7401089Y29594847D01*
X7401720Y30318673D01*
X43863976Y30318673D01*
X44008236Y30083760D01*
X45222160Y30083760D01*
X45222160Y31442977D01*
X45476160Y31442977D01*
X45476160Y30083760D01*
X45496160Y30083760D01*
X45496160Y29829760D01*
X45476160Y29829760D01*
X45476160Y28470543D01*
X45708186Y28349402D01*
X45723951Y28352051D01*
X46251196Y28606028D01*
X46622699Y29021829D01*
X46829490Y28712345D01*
X47315671Y28387489D01*
X47889160Y28273415D01*
X48462649Y28387489D01*
X48948830Y28712345D01*
X49159160Y29027126D01*
X49369490Y28712345D01*
X49855671Y28387489D01*
X50429160Y28273415D01*
X51002649Y28387489D01*
X51488830Y28712345D01*
X51699160Y29027126D01*
X51909490Y28712345D01*
X52395671Y28387489D01*
X52969160Y28273415D01*
X53542649Y28387489D01*
X54028830Y28712345D01*
X54239160Y29027126D01*
X54449490Y28712345D01*
X54935671Y28387489D01*
X55509160Y28273415D01*
X56082649Y28387489D01*
X56568830Y28712345D01*
X56779160Y29027126D01*
X56989490Y28712345D01*
X57475671Y28387489D01*
X58049160Y28273415D01*
X58622649Y28387489D01*
X59108830Y28712345D01*
X59319160Y29027126D01*
X59529490Y28712345D01*
X60015671Y28387489D01*
X60589160Y28273415D01*
X61162649Y28387489D01*
X61648830Y28712345D01*
X61658403Y28726673D01*
X61662398Y28705443D01*
X61801470Y28489319D01*
X62013670Y28344329D01*
X62265560Y28293320D01*
X63992760Y28293320D01*
X64228077Y28337598D01*
X64444201Y28476670D01*
X64589191Y28688870D01*
X64640200Y28940760D01*
X64640200Y30972760D01*
X64636926Y30990160D01*
X68310520Y30990160D01*
X68310520Y28958160D01*
X68354798Y28722843D01*
X68493870Y28506719D01*
X68706070Y28361729D01*
X68957960Y28310720D01*
X70989960Y28310720D01*
X71225277Y28354998D01*
X71441401Y28494070D01*
X71543158Y28642997D01*
X71882150Y28416490D01*
X72513960Y28290815D01*
X73145770Y28416490D01*
X73681393Y28774382D01*
X73724676Y28839160D01*
X74303828Y28839160D01*
X74516160Y28626828D01*
X74516160Y23284527D01*
X74325393Y22999024D01*
X74216160Y22449873D01*
X74216160Y22393647D01*
X74325393Y21844496D01*
X74636462Y21378949D01*
X75102009Y21067880D01*
X75651160Y20958647D01*
X76200311Y21067880D01*
X76665858Y21378949D01*
X76921160Y21761035D01*
X77176462Y21378949D01*
X77642009Y21067880D01*
X78191160Y20958647D01*
X78740311Y21067880D01*
X79205858Y21378949D01*
X79461160Y21761035D01*
X79716462Y21378949D01*
X80182009Y21067880D01*
X80731160Y20958647D01*
X81280311Y21067880D01*
X81745858Y21378949D01*
X82016146Y21783463D01*
X82118771Y21566626D01*
X82533737Y21190719D01*
X82922121Y21029856D01*
X83144160Y21151845D01*
X83144160Y22294760D01*
X83398160Y22294760D01*
X83398160Y21151845D01*
X83620199Y21029856D01*
X84008583Y21190719D01*
X84423549Y21566626D01*
X84663074Y22072719D01*
X84541789Y22294760D01*
X83398160Y22294760D01*
X83144160Y22294760D01*
X83124160Y22294760D01*
X83124160Y22548760D01*
X83144160Y22548760D01*
X83144160Y23691675D01*
X83398160Y23691675D01*
X83398160Y22548760D01*
X84541789Y22548760D01*
X84663074Y22770801D01*
X84423549Y23276894D01*
X84008583Y23652801D01*
X83620199Y23813664D01*
X83398160Y23691675D01*
X83144160Y23691675D01*
X82922121Y23813664D01*
X82533737Y23652801D01*
X82118771Y23276894D01*
X82016146Y23060057D01*
X81745858Y23464571D01*
X81280311Y23775640D01*
X80731160Y23884873D01*
X80182009Y23775640D01*
X79716462Y23464571D01*
X79461160Y23082485D01*
X79205858Y23464571D01*
X78740311Y23775640D01*
X78191160Y23884873D01*
X77642009Y23775640D01*
X77176462Y23464571D01*
X76921160Y23082485D01*
X76786160Y23284527D01*
X76786160Y29096960D01*
X76699763Y29531306D01*
X76453726Y29899526D01*
X75576526Y30776726D01*
X75435315Y30871080D01*
X75208306Y31022763D01*
X74773960Y31109160D01*
X73724676Y31109160D01*
X73681393Y31173938D01*
X73145770Y31531830D01*
X72513960Y31657505D01*
X71882150Y31531830D01*
X71542168Y31304661D01*
X71454050Y31441601D01*
X71241850Y31586591D01*
X70989960Y31637600D01*
X68957960Y31637600D01*
X68722643Y31593322D01*
X68506519Y31454250D01*
X68361529Y31242050D01*
X68310520Y30990160D01*
X64636926Y30990160D01*
X64595922Y31208077D01*
X64456850Y31424201D01*
X64244650Y31569191D01*
X63992760Y31620200D01*
X62265560Y31620200D01*
X62030243Y31575922D01*
X61814119Y31436850D01*
X61669129Y31224650D01*
X61660760Y31183321D01*
X61648830Y31201175D01*
X61162649Y31526031D01*
X60589160Y31640105D01*
X60015671Y31526031D01*
X59529490Y31201175D01*
X59319160Y30886394D01*
X59108830Y31201175D01*
X58622649Y31526031D01*
X58049160Y31640105D01*
X57475671Y31526031D01*
X56989490Y31201175D01*
X56779160Y30886394D01*
X56568830Y31201175D01*
X56082649Y31526031D01*
X55509160Y31640105D01*
X54935671Y31526031D01*
X54449490Y31201175D01*
X54239160Y30886394D01*
X54028830Y31201175D01*
X53542649Y31526031D01*
X52969160Y31640105D01*
X52395671Y31526031D01*
X51909490Y31201175D01*
X51699160Y30886394D01*
X51488830Y31201175D01*
X51002649Y31526031D01*
X50429160Y31640105D01*
X49855671Y31526031D01*
X49369490Y31201175D01*
X49159160Y30886394D01*
X48948830Y31201175D01*
X48462649Y31526031D01*
X47889160Y31640105D01*
X47315671Y31526031D01*
X46829490Y31201175D01*
X46622699Y30891691D01*
X46251196Y31307492D01*
X45723951Y31561469D01*
X45708186Y31564118D01*
X45476160Y31442977D01*
X45222160Y31442977D01*
X44990134Y31564118D01*
X44974369Y31561469D01*
X44447124Y31307492D01*
X44057206Y30871080D01*
X43863976Y30318673D01*
X7401720Y30318673D01*
X7401824Y30436842D01*
X6819210Y31846875D01*
X6203002Y32464160D01*
X79949025Y32464160D01*
X79310901Y31827149D01*
X79310901Y31827149D01*
G37*
X79310901Y31827149D02*
X78725827Y30418135D01*
X78724496Y28892478D01*
X79307110Y27482445D01*
X80384971Y26402701D01*
X81793985Y25817627D01*
X83319642Y25816296D01*
X84729675Y26398910D01*
X85363960Y27032089D01*
X85363960Y784160D01*
X783960Y784160D01*
X783960Y12029760D01*
X3929320Y12029760D01*
X3929320Y9529760D01*
X3973598Y9294443D01*
X4112670Y9078319D01*
X4324870Y8933329D01*
X4576760Y8882320D01*
X7076760Y8882320D01*
X7312077Y8926598D01*
X7528201Y9065670D01*
X7673191Y9277870D01*
X7724200Y9529760D01*
X7724200Y12029760D01*
X7679922Y12265077D01*
X7540850Y12481201D01*
X7328650Y12626191D01*
X7076760Y12677200D01*
X4576760Y12677200D01*
X4341443Y12632922D01*
X4125319Y12493850D01*
X3980329Y12281650D01*
X3929320Y12029760D01*
X783960Y12029760D01*
X783960Y14446440D01*
X4673045Y14446440D01*
X4802293Y14153637D01*
X5502566Y13885372D01*
X6252195Y13905510D01*
X6851227Y14153637D01*
X6980475Y14446440D01*
X5826760Y15600155D01*
X4673045Y14446440D01*
X783960Y14446440D01*
X783960Y16103954D01*
X3932372Y16103954D01*
X3952510Y15354325D01*
X4200637Y14755293D01*
X4493440Y14626045D01*
X5647155Y15779760D01*
X6006365Y15779760D01*
X7160080Y14626045D01*
X7452883Y14755293D01*
X7721148Y15455566D01*
X7701010Y16205195D01*
X7452883Y16804227D01*
X7160080Y16933475D01*
X6006365Y15779760D01*
X5647155Y15779760D01*
X4493440Y16933475D01*
X4200637Y16804227D01*
X3932372Y16103954D01*
X783960Y16103954D01*
X783960Y17113080D01*
X4673045Y17113080D01*
X5826760Y15959365D01*
X6980475Y17113080D01*
X6851227Y17405883D01*
X6150954Y17674148D01*
X5401325Y17654010D01*
X4802293Y17405883D01*
X4673045Y17113080D01*
X783960Y17113080D01*
X783960Y20025360D01*
X8966959Y20025360D01*
X9091417Y19399672D01*
X9445840Y18869240D01*
X9471240Y18843840D01*
X9982960Y18501920D01*
X9982960Y9941565D01*
X9982959Y9941560D01*
X10107417Y9315872D01*
X10461840Y8785440D01*
X15186238Y4061043D01*
X15186240Y4061040D01*
X15531619Y3830266D01*
X15554960Y3814670D01*
X15554960Y2804160D01*
X15563645Y2758001D01*
X15590925Y2715607D01*
X15632550Y2687166D01*
X15681960Y2677160D01*
X23047960Y2677160D01*
X23094119Y2685845D01*
X23136513Y2713125D01*
X23164954Y2754750D01*
X23174960Y2804160D01*
X23174960Y3589074D01*
X23191651Y3582160D01*
X24032210Y3582160D01*
X24190960Y3740910D01*
X24190960Y5090160D01*
X24444960Y5090160D01*
X24444960Y3740910D01*
X24603710Y3582160D01*
X25444269Y3582160D01*
X25677658Y3678833D01*
X25856287Y3857461D01*
X25952960Y4090850D01*
X25952960Y4931410D01*
X25794210Y5090160D01*
X24444960Y5090160D01*
X24190960Y5090160D01*
X24170960Y5090160D01*
X24170960Y5344160D01*
X24190960Y5344160D01*
X24190960Y6693410D01*
X24444960Y6693410D01*
X24444960Y5344160D01*
X25794210Y5344160D01*
X25952960Y5502910D01*
X25952960Y6343470D01*
X25856287Y6576859D01*
X25677658Y6755487D01*
X25444269Y6852160D01*
X24603710Y6852160D01*
X24444960Y6693410D01*
X24190960Y6693410D01*
X24032210Y6852160D01*
X23191651Y6852160D01*
X23174960Y6845246D01*
X23174960Y8519160D01*
X26476960Y8519160D01*
X26476960Y2804160D01*
X26485645Y2758001D01*
X26512925Y2715607D01*
X26554550Y2687166D01*
X26603960Y2677160D01*
X34731960Y2677160D01*
X34778119Y2685845D01*
X34820513Y2713125D01*
X34848954Y2754750D01*
X34858960Y2804160D01*
X34858960Y3589074D01*
X34875651Y3582160D01*
X35716210Y3582160D01*
X35874960Y3740910D01*
X35874960Y5090160D01*
X36128960Y5090160D01*
X36128960Y3740910D01*
X36287710Y3582160D01*
X37128269Y3582160D01*
X37361658Y3678833D01*
X37540287Y3857461D01*
X37636960Y4090850D01*
X37636960Y4931410D01*
X37478210Y5090160D01*
X36128960Y5090160D01*
X35874960Y5090160D01*
X35854960Y5090160D01*
X35854960Y5344160D01*
X35874960Y5344160D01*
X35874960Y6693410D01*
X36128960Y6693410D01*
X36128960Y5344160D01*
X37478210Y5344160D01*
X37636960Y5502910D01*
X37636960Y6343470D01*
X37540287Y6576859D01*
X37361658Y6755487D01*
X37128269Y6852160D01*
X36287710Y6852160D01*
X36128960Y6693410D01*
X35874960Y6693410D01*
X35716210Y6852160D01*
X34875651Y6852160D01*
X34858960Y6845246D01*
X34858960Y8519160D01*
X38160960Y8519160D01*
X38160960Y2804160D01*
X38169645Y2758001D01*
X38196925Y2715607D01*
X38238550Y2687166D01*
X38287960Y2677160D01*
X46161960Y2677160D01*
X46208119Y2685845D01*
X46250513Y2713125D01*
X46278954Y2754750D01*
X46288960Y2804160D01*
X46288960Y3641679D01*
X46432651Y3582160D01*
X47273210Y3582160D01*
X47431960Y3740910D01*
X47431960Y5090160D01*
X47685960Y5090160D01*
X47685960Y3740910D01*
X47844710Y3582160D01*
X48685269Y3582160D01*
X48918658Y3678833D01*
X49097287Y3857461D01*
X49193960Y4090850D01*
X49193960Y4931410D01*
X49035210Y5090160D01*
X47685960Y5090160D01*
X47431960Y5090160D01*
X47411960Y5090160D01*
X47411960Y5344160D01*
X47431960Y5344160D01*
X47431960Y6693410D01*
X47685960Y6693410D01*
X47685960Y5344160D01*
X49035210Y5344160D01*
X49193960Y5502910D01*
X49193960Y6343470D01*
X49097287Y6576859D01*
X48918658Y6755487D01*
X48685269Y6852160D01*
X47844710Y6852160D01*
X47685960Y6693410D01*
X47431960Y6693410D01*
X47273210Y6852160D01*
X46432651Y6852160D01*
X46288960Y6792641D01*
X46288960Y8519160D01*
X49717960Y8519160D01*
X49717960Y2931160D01*
X49726645Y2885001D01*
X49753925Y2842607D01*
X49795550Y2814166D01*
X49844960Y2804160D01*
X57718960Y2804160D01*
X57765119Y2812845D01*
X57807513Y2840125D01*
X57835954Y2881750D01*
X57845960Y2931160D01*
X57845960Y3589074D01*
X57862651Y3582160D01*
X58703210Y3582160D01*
X58861960Y3740910D01*
X58861960Y5090160D01*
X59115960Y5090160D01*
X59115960Y3740910D01*
X59274710Y3582160D01*
X60115269Y3582160D01*
X60348658Y3678833D01*
X60527287Y3857461D01*
X60623960Y4090850D01*
X60623960Y4931410D01*
X60465210Y5090160D01*
X59115960Y5090160D01*
X58861960Y5090160D01*
X58841960Y5090160D01*
X58841960Y5344160D01*
X58861960Y5344160D01*
X58861960Y6693410D01*
X59115960Y6693410D01*
X59115960Y5344160D01*
X60465210Y5344160D01*
X60623960Y5502910D01*
X60623960Y6343470D01*
X60527287Y6576859D01*
X60348658Y6755487D01*
X60115269Y6852160D01*
X59274710Y6852160D01*
X59115960Y6693410D01*
X58861960Y6693410D01*
X58703210Y6852160D01*
X57862651Y6852160D01*
X57845960Y6845246D01*
X57845960Y8519160D01*
X61274960Y8519160D01*
X61274960Y2931160D01*
X61283645Y2885001D01*
X61310925Y2842607D01*
X61352550Y2814166D01*
X61401960Y2804160D01*
X69148960Y2804160D01*
X69195119Y2812845D01*
X69237513Y2840125D01*
X69265954Y2881750D01*
X69275960Y2931160D01*
X69275960Y3641679D01*
X69419651Y3582160D01*
X70260210Y3582160D01*
X70418960Y3740910D01*
X70418960Y5090160D01*
X70672960Y5090160D01*
X70672960Y3740910D01*
X70831710Y3582160D01*
X71672269Y3582160D01*
X71905658Y3678833D01*
X72084287Y3857461D01*
X72180960Y4090850D01*
X72180960Y4931410D01*
X72022210Y5090160D01*
X70672960Y5090160D01*
X70418960Y5090160D01*
X70398960Y5090160D01*
X70398960Y5344160D01*
X70418960Y5344160D01*
X70418960Y6693410D01*
X70672960Y6693410D01*
X70672960Y5344160D01*
X72022210Y5344160D01*
X72180960Y5502910D01*
X72180960Y6343470D01*
X72084287Y6576859D01*
X71905658Y6755487D01*
X71672269Y6852160D01*
X70831710Y6852160D01*
X70672960Y6693410D01*
X70418960Y6693410D01*
X70260210Y6852160D01*
X69419651Y6852160D01*
X69275960Y6792641D01*
X69275960Y8519160D01*
X72831960Y8519160D01*
X72831960Y2931160D01*
X72839893Y2886979D01*
X72866462Y2844136D01*
X72907607Y2815005D01*
X72956844Y2804178D01*
X80576844Y2677178D01*
X80625119Y2685845D01*
X80667513Y2713125D01*
X80695954Y2754750D01*
X80705960Y2804160D01*
X80705960Y3641679D01*
X80849651Y3582160D01*
X81690210Y3582160D01*
X81848960Y3740910D01*
X81848960Y5090160D01*
X82102960Y5090160D01*
X82102960Y3740910D01*
X82261710Y3582160D01*
X83102269Y3582160D01*
X83335658Y3678833D01*
X83514287Y3857461D01*
X83610960Y4090850D01*
X83610960Y4931410D01*
X83452210Y5090160D01*
X82102960Y5090160D01*
X81848960Y5090160D01*
X81828960Y5090160D01*
X81828960Y5344160D01*
X81848960Y5344160D01*
X81848960Y6693410D01*
X82102960Y6693410D01*
X82102960Y5344160D01*
X83452210Y5344160D01*
X83610960Y5502910D01*
X83610960Y6343470D01*
X83514287Y6576859D01*
X83335658Y6755487D01*
X83102269Y6852160D01*
X82261710Y6852160D01*
X82102960Y6693410D01*
X81848960Y6693410D01*
X81690210Y6852160D01*
X80849651Y6852160D01*
X80705960Y6792641D01*
X80705960Y8519160D01*
X84515960Y8519160D01*
X84562119Y8527845D01*
X84604513Y8555125D01*
X84632954Y8596750D01*
X84642960Y8646160D01*
X84642960Y14455919D01*
X84706160Y14773647D01*
X84706160Y14829873D01*
X84642960Y15147601D01*
X84642960Y20584160D01*
X84634275Y20630319D01*
X84606995Y20672713D01*
X84565370Y20701154D01*
X84515960Y20711160D01*
X15681960Y20711160D01*
X15635801Y20702475D01*
X15593407Y20675195D01*
X15564966Y20633570D01*
X15554960Y20584160D01*
X15554960Y8316799D01*
X13252960Y10618800D01*
X13252960Y18442477D01*
X13361248Y18464017D01*
X13891680Y18818440D01*
X14246103Y19348872D01*
X14370561Y19974560D01*
X14246103Y20600248D01*
X13891680Y21130680D01*
X13840880Y21181480D01*
X13310448Y21535903D01*
X12684760Y21660361D01*
X12684755Y21660360D01*
X10601965Y21660360D01*
X10601960Y21660361D01*
X9976272Y21535903D01*
X9445840Y21181480D01*
X9091417Y20651048D01*
X8966959Y20025360D01*
X783960Y20025360D01*
X783960Y22466473D01*
X16609160Y22466473D01*
X16609160Y22410247D01*
X16718393Y21861096D01*
X17029462Y21395549D01*
X17495009Y21084480D01*
X18044160Y20975247D01*
X18593311Y21084480D01*
X19058858Y21395549D01*
X19314160Y21777635D01*
X19569462Y21395549D01*
X20035009Y21084480D01*
X20584160Y20975247D01*
X21133311Y21084480D01*
X21598858Y21395549D01*
X21854160Y21777635D01*
X22109462Y21395549D01*
X22575009Y21084480D01*
X23124160Y20975247D01*
X23673311Y21084480D01*
X24138858Y21395549D01*
X24409146Y21800063D01*
X24511771Y21583226D01*
X24926737Y21207319D01*
X25315121Y21046456D01*
X25537160Y21168445D01*
X25537160Y22311360D01*
X25791160Y22311360D01*
X25791160Y21168445D01*
X26013199Y21046456D01*
X26401583Y21207319D01*
X26816549Y21583226D01*
X27056074Y22089319D01*
X26934789Y22311360D01*
X25791160Y22311360D01*
X25537160Y22311360D01*
X25517160Y22311360D01*
X25517160Y22466473D01*
X28216960Y22466473D01*
X28216960Y22410247D01*
X28326193Y21861096D01*
X28637262Y21395549D01*
X29102809Y21084480D01*
X29651960Y20975247D01*
X30201111Y21084480D01*
X30666658Y21395549D01*
X30921960Y21777635D01*
X31177262Y21395549D01*
X31642809Y21084480D01*
X32191960Y20975247D01*
X32741111Y21084480D01*
X33206658Y21395549D01*
X33461960Y21777635D01*
X33717262Y21395549D01*
X34182809Y21084480D01*
X34731960Y20975247D01*
X35281111Y21084480D01*
X35746658Y21395549D01*
X36016946Y21800063D01*
X36119571Y21583226D01*
X36534537Y21207319D01*
X36922921Y21046456D01*
X37144960Y21168445D01*
X37144960Y22311360D01*
X37398960Y22311360D01*
X37398960Y21168445D01*
X37620999Y21046456D01*
X38009383Y21207319D01*
X38424349Y21583226D01*
X38663874Y22089319D01*
X38542589Y22311360D01*
X37398960Y22311360D01*
X37144960Y22311360D01*
X37124960Y22311360D01*
X37124960Y22449873D01*
X39716160Y22449873D01*
X39716160Y22393647D01*
X39825393Y21844496D01*
X40136462Y21378949D01*
X40602009Y21067880D01*
X41151160Y20958647D01*
X41700311Y21067880D01*
X42165858Y21378949D01*
X42421160Y21761035D01*
X42676462Y21378949D01*
X43142009Y21067880D01*
X43691160Y20958647D01*
X44240311Y21067880D01*
X44705858Y21378949D01*
X44961160Y21761035D01*
X45216462Y21378949D01*
X45682009Y21067880D01*
X46231160Y20958647D01*
X46780311Y21067880D01*
X47245858Y21378949D01*
X47516146Y21783463D01*
X47618771Y21566626D01*
X48033737Y21190719D01*
X48422121Y21029856D01*
X48644160Y21151845D01*
X48644160Y22294760D01*
X48898160Y22294760D01*
X48898160Y21151845D01*
X49120199Y21029856D01*
X49508583Y21190719D01*
X49923549Y21566626D01*
X50163074Y22072719D01*
X50041789Y22294760D01*
X48898160Y22294760D01*
X48644160Y22294760D01*
X48624160Y22294760D01*
X48624160Y22449873D01*
X51216160Y22449873D01*
X51216160Y22393647D01*
X51325393Y21844496D01*
X51636462Y21378949D01*
X52102009Y21067880D01*
X52651160Y20958647D01*
X53200311Y21067880D01*
X53665858Y21378949D01*
X53921160Y21761035D01*
X54176462Y21378949D01*
X54642009Y21067880D01*
X55191160Y20958647D01*
X55740311Y21067880D01*
X56205858Y21378949D01*
X56461160Y21761035D01*
X56716462Y21378949D01*
X57182009Y21067880D01*
X57731160Y20958647D01*
X58280311Y21067880D01*
X58745858Y21378949D01*
X59016146Y21783463D01*
X59118771Y21566626D01*
X59533737Y21190719D01*
X59922121Y21029856D01*
X60144160Y21151845D01*
X60144160Y22294760D01*
X60398160Y22294760D01*
X60398160Y21151845D01*
X60620199Y21029856D01*
X61008583Y21190719D01*
X61423549Y21566626D01*
X61663074Y22072719D01*
X61541789Y22294760D01*
X60398160Y22294760D01*
X60144160Y22294760D01*
X60124160Y22294760D01*
X60124160Y22449873D01*
X62716160Y22449873D01*
X62716160Y22393647D01*
X62825393Y21844496D01*
X63136462Y21378949D01*
X63602009Y21067880D01*
X64151160Y20958647D01*
X64700311Y21067880D01*
X65165858Y21378949D01*
X65421160Y21761035D01*
X65676462Y21378949D01*
X66142009Y21067880D01*
X66691160Y20958647D01*
X67240311Y21067880D01*
X67705858Y21378949D01*
X67961160Y21761035D01*
X68216462Y21378949D01*
X68682009Y21067880D01*
X69231160Y20958647D01*
X69780311Y21067880D01*
X70245858Y21378949D01*
X70516146Y21783463D01*
X70618771Y21566626D01*
X71033737Y21190719D01*
X71422121Y21029856D01*
X71644160Y21151845D01*
X71644160Y22294760D01*
X71898160Y22294760D01*
X71898160Y21151845D01*
X72120199Y21029856D01*
X72508583Y21190719D01*
X72923549Y21566626D01*
X73163074Y22072719D01*
X73041789Y22294760D01*
X71898160Y22294760D01*
X71644160Y22294760D01*
X71624160Y22294760D01*
X71624160Y22548760D01*
X71644160Y22548760D01*
X71644160Y23691675D01*
X71898160Y23691675D01*
X71898160Y22548760D01*
X73041789Y22548760D01*
X73163074Y22770801D01*
X72923549Y23276894D01*
X72508583Y23652801D01*
X72120199Y23813664D01*
X71898160Y23691675D01*
X71644160Y23691675D01*
X71422121Y23813664D01*
X71033737Y23652801D01*
X70618771Y23276894D01*
X70516146Y23060057D01*
X70245858Y23464571D01*
X69780311Y23775640D01*
X69231160Y23884873D01*
X68682009Y23775640D01*
X68216462Y23464571D01*
X67961160Y23082485D01*
X67705858Y23464571D01*
X67240311Y23775640D01*
X66691160Y23884873D01*
X66142009Y23775640D01*
X65676462Y23464571D01*
X65421160Y23082485D01*
X65165858Y23464571D01*
X64700311Y23775640D01*
X64151160Y23884873D01*
X63602009Y23775640D01*
X63136462Y23464571D01*
X62825393Y22999024D01*
X62716160Y22449873D01*
X60124160Y22449873D01*
X60124160Y22548760D01*
X60144160Y22548760D01*
X60144160Y23691675D01*
X60398160Y23691675D01*
X60398160Y22548760D01*
X61541789Y22548760D01*
X61663074Y22770801D01*
X61423549Y23276894D01*
X61008583Y23652801D01*
X60620199Y23813664D01*
X60398160Y23691675D01*
X60144160Y23691675D01*
X59922121Y23813664D01*
X59533737Y23652801D01*
X59118771Y23276894D01*
X59016146Y23060057D01*
X58745858Y23464571D01*
X58280311Y23775640D01*
X57731160Y23884873D01*
X57182009Y23775640D01*
X56716462Y23464571D01*
X56461160Y23082485D01*
X56205858Y23464571D01*
X55740311Y23775640D01*
X55191160Y23884873D01*
X54642009Y23775640D01*
X54176462Y23464571D01*
X53921160Y23082485D01*
X53665858Y23464571D01*
X53200311Y23775640D01*
X52651160Y23884873D01*
X52102009Y23775640D01*
X51636462Y23464571D01*
X51325393Y22999024D01*
X51216160Y22449873D01*
X48624160Y22449873D01*
X48624160Y22548760D01*
X48644160Y22548760D01*
X48644160Y23691675D01*
X48898160Y23691675D01*
X48898160Y22548760D01*
X50041789Y22548760D01*
X50163074Y22770801D01*
X49923549Y23276894D01*
X49508583Y23652801D01*
X49120199Y23813664D01*
X48898160Y23691675D01*
X48644160Y23691675D01*
X48422121Y23813664D01*
X48033737Y23652801D01*
X47618771Y23276894D01*
X47516146Y23060057D01*
X47245858Y23464571D01*
X46780311Y23775640D01*
X46231160Y23884873D01*
X45682009Y23775640D01*
X45216462Y23464571D01*
X44961160Y23082485D01*
X44705858Y23464571D01*
X44240311Y23775640D01*
X43691160Y23884873D01*
X43142009Y23775640D01*
X42676462Y23464571D01*
X42421160Y23082485D01*
X42165858Y23464571D01*
X41700311Y23775640D01*
X41151160Y23884873D01*
X40602009Y23775640D01*
X40136462Y23464571D01*
X39825393Y22999024D01*
X39716160Y22449873D01*
X37124960Y22449873D01*
X37124960Y22565360D01*
X37144960Y22565360D01*
X37144960Y23708275D01*
X37398960Y23708275D01*
X37398960Y22565360D01*
X38542589Y22565360D01*
X38663874Y22787401D01*
X38424349Y23293494D01*
X38009383Y23669401D01*
X37620999Y23830264D01*
X37398960Y23708275D01*
X37144960Y23708275D01*
X36922921Y23830264D01*
X36534537Y23669401D01*
X36119571Y23293494D01*
X36016946Y23076657D01*
X35746658Y23481171D01*
X35281111Y23792240D01*
X34731960Y23901473D01*
X34182809Y23792240D01*
X33717262Y23481171D01*
X33461960Y23099085D01*
X33206658Y23481171D01*
X32741111Y23792240D01*
X32191960Y23901473D01*
X31642809Y23792240D01*
X31177262Y23481171D01*
X30921960Y23099085D01*
X30666658Y23481171D01*
X30201111Y23792240D01*
X29651960Y23901473D01*
X29102809Y23792240D01*
X28637262Y23481171D01*
X28326193Y23015624D01*
X28216960Y22466473D01*
X25517160Y22466473D01*
X25517160Y22565360D01*
X25537160Y22565360D01*
X25537160Y23708275D01*
X25791160Y23708275D01*
X25791160Y22565360D01*
X26934789Y22565360D01*
X27056074Y22787401D01*
X26816549Y23293494D01*
X26401583Y23669401D01*
X26013199Y23830264D01*
X25791160Y23708275D01*
X25537160Y23708275D01*
X25315121Y23830264D01*
X24926737Y23669401D01*
X24511771Y23293494D01*
X24409146Y23076657D01*
X24138858Y23481171D01*
X23673311Y23792240D01*
X23124160Y23901473D01*
X22575009Y23792240D01*
X22109462Y23481171D01*
X21854160Y23099085D01*
X21598858Y23481171D01*
X21133311Y23792240D01*
X20584160Y23901473D01*
X20035009Y23792240D01*
X19569462Y23481171D01*
X19314160Y23099085D01*
X19058858Y23481171D01*
X18593311Y23792240D01*
X18044160Y23901473D01*
X17495009Y23792240D01*
X17029462Y23481171D01*
X16718393Y23015624D01*
X16609160Y22466473D01*
X783960Y22466473D01*
X783960Y27036172D01*
X1390971Y26428101D01*
X2799985Y25843027D01*
X4325642Y25841696D01*
X5735675Y26424310D01*
X6815419Y27502171D01*
X7400493Y28911185D01*
X7401089Y29594847D01*
X43863976Y29594847D01*
X44057206Y29042440D01*
X44447124Y28606028D01*
X44974369Y28352051D01*
X44990134Y28349402D01*
X45222160Y28470543D01*
X45222160Y29829760D01*
X44008236Y29829760D01*
X43863976Y29594847D01*
X7401089Y29594847D01*
X7401720Y30318673D01*
X43863976Y30318673D01*
X44008236Y30083760D01*
X45222160Y30083760D01*
X45222160Y31442977D01*
X45476160Y31442977D01*
X45476160Y30083760D01*
X45496160Y30083760D01*
X45496160Y29829760D01*
X45476160Y29829760D01*
X45476160Y28470543D01*
X45708186Y28349402D01*
X45723951Y28352051D01*
X46251196Y28606028D01*
X46622699Y29021829D01*
X46829490Y28712345D01*
X47315671Y28387489D01*
X47889160Y28273415D01*
X48462649Y28387489D01*
X48948830Y28712345D01*
X49159160Y29027126D01*
X49369490Y28712345D01*
X49855671Y28387489D01*
X50429160Y28273415D01*
X51002649Y28387489D01*
X51488830Y28712345D01*
X51699160Y29027126D01*
X51909490Y28712345D01*
X52395671Y28387489D01*
X52969160Y28273415D01*
X53542649Y28387489D01*
X54028830Y28712345D01*
X54239160Y29027126D01*
X54449490Y28712345D01*
X54935671Y28387489D01*
X55509160Y28273415D01*
X56082649Y28387489D01*
X56568830Y28712345D01*
X56779160Y29027126D01*
X56989490Y28712345D01*
X57475671Y28387489D01*
X58049160Y28273415D01*
X58622649Y28387489D01*
X59108830Y28712345D01*
X59319160Y29027126D01*
X59529490Y28712345D01*
X60015671Y28387489D01*
X60589160Y28273415D01*
X61162649Y28387489D01*
X61648830Y28712345D01*
X61658403Y28726673D01*
X61662398Y28705443D01*
X61801470Y28489319D01*
X62013670Y28344329D01*
X62265560Y28293320D01*
X63992760Y28293320D01*
X64228077Y28337598D01*
X64444201Y28476670D01*
X64589191Y28688870D01*
X64640200Y28940760D01*
X64640200Y30972760D01*
X64636926Y30990160D01*
X68310520Y30990160D01*
X68310520Y28958160D01*
X68354798Y28722843D01*
X68493870Y28506719D01*
X68706070Y28361729D01*
X68957960Y28310720D01*
X70989960Y28310720D01*
X71225277Y28354998D01*
X71441401Y28494070D01*
X71543158Y28642997D01*
X71882150Y28416490D01*
X72513960Y28290815D01*
X73145770Y28416490D01*
X73681393Y28774382D01*
X73724676Y28839160D01*
X74303828Y28839160D01*
X74516160Y28626828D01*
X74516160Y23284527D01*
X74325393Y22999024D01*
X74216160Y22449873D01*
X74216160Y22393647D01*
X74325393Y21844496D01*
X74636462Y21378949D01*
X75102009Y21067880D01*
X75651160Y20958647D01*
X76200311Y21067880D01*
X76665858Y21378949D01*
X76921160Y21761035D01*
X77176462Y21378949D01*
X77642009Y21067880D01*
X78191160Y20958647D01*
X78740311Y21067880D01*
X79205858Y21378949D01*
X79461160Y21761035D01*
X79716462Y21378949D01*
X80182009Y21067880D01*
X80731160Y20958647D01*
X81280311Y21067880D01*
X81745858Y21378949D01*
X82016146Y21783463D01*
X82118771Y21566626D01*
X82533737Y21190719D01*
X82922121Y21029856D01*
X83144160Y21151845D01*
X83144160Y22294760D01*
X83398160Y22294760D01*
X83398160Y21151845D01*
X83620199Y21029856D01*
X84008583Y21190719D01*
X84423549Y21566626D01*
X84663074Y22072719D01*
X84541789Y22294760D01*
X83398160Y22294760D01*
X83144160Y22294760D01*
X83124160Y22294760D01*
X83124160Y22548760D01*
X83144160Y22548760D01*
X83144160Y23691675D01*
X83398160Y23691675D01*
X83398160Y22548760D01*
X84541789Y22548760D01*
X84663074Y22770801D01*
X84423549Y23276894D01*
X84008583Y23652801D01*
X83620199Y23813664D01*
X83398160Y23691675D01*
X83144160Y23691675D01*
X82922121Y23813664D01*
X82533737Y23652801D01*
X82118771Y23276894D01*
X82016146Y23060057D01*
X81745858Y23464571D01*
X81280311Y23775640D01*
X80731160Y23884873D01*
X80182009Y23775640D01*
X79716462Y23464571D01*
X79461160Y23082485D01*
X79205858Y23464571D01*
X78740311Y23775640D01*
X78191160Y23884873D01*
X77642009Y23775640D01*
X77176462Y23464571D01*
X76921160Y23082485D01*
X76786160Y23284527D01*
X76786160Y29096960D01*
X76699763Y29531306D01*
X76453726Y29899526D01*
X75576526Y30776726D01*
X75435315Y30871080D01*
X75208306Y31022763D01*
X74773960Y31109160D01*
X73724676Y31109160D01*
X73681393Y31173938D01*
X73145770Y31531830D01*
X72513960Y31657505D01*
X71882150Y31531830D01*
X71542168Y31304661D01*
X71454050Y31441601D01*
X71241850Y31586591D01*
X70989960Y31637600D01*
X68957960Y31637600D01*
X68722643Y31593322D01*
X68506519Y31454250D01*
X68361529Y31242050D01*
X68310520Y30990160D01*
X64636926Y30990160D01*
X64595922Y31208077D01*
X64456850Y31424201D01*
X64244650Y31569191D01*
X63992760Y31620200D01*
X62265560Y31620200D01*
X62030243Y31575922D01*
X61814119Y31436850D01*
X61669129Y31224650D01*
X61660760Y31183321D01*
X61648830Y31201175D01*
X61162649Y31526031D01*
X60589160Y31640105D01*
X60015671Y31526031D01*
X59529490Y31201175D01*
X59319160Y30886394D01*
X59108830Y31201175D01*
X58622649Y31526031D01*
X58049160Y31640105D01*
X57475671Y31526031D01*
X56989490Y31201175D01*
X56779160Y30886394D01*
X56568830Y31201175D01*
X56082649Y31526031D01*
X55509160Y31640105D01*
X54935671Y31526031D01*
X54449490Y31201175D01*
X54239160Y30886394D01*
X54028830Y31201175D01*
X53542649Y31526031D01*
X52969160Y31640105D01*
X52395671Y31526031D01*
X51909490Y31201175D01*
X51699160Y30886394D01*
X51488830Y31201175D01*
X51002649Y31526031D01*
X50429160Y31640105D01*
X49855671Y31526031D01*
X49369490Y31201175D01*
X49159160Y30886394D01*
X48948830Y31201175D01*
X48462649Y31526031D01*
X47889160Y31640105D01*
X47315671Y31526031D01*
X46829490Y31201175D01*
X46622699Y30891691D01*
X46251196Y31307492D01*
X45723951Y31561469D01*
X45708186Y31564118D01*
X45476160Y31442977D01*
X45222160Y31442977D01*
X44990134Y31564118D01*
X44974369Y31561469D01*
X44447124Y31307492D01*
X44057206Y30871080D01*
X43863976Y30318673D01*
X7401720Y30318673D01*
X7401824Y30436842D01*
X6819210Y31846875D01*
X6203002Y32464160D01*
X79949025Y32464160D01*
X79310901Y31827149D01*
M02*
