G04 #@! TF.FileFunction,Legend,Top*
%FSLAX46Y46*%
G04 Gerber Fmt 4.6, Leading zero omitted, Abs format (unit mm)*
G04 Created by KiCad (PCBNEW 4.0.6+dfsg1-1) date Mon Feb 26 20:00:46 2018*
%MOMM*%
%LPD*%
G01*
G04 APERTURE LIST*
%ADD10C,0.100000*%
%ADD11C,0.300000*%
%ADD12C,0.200000*%
%ADD13C,0.125000*%
%ADD14C,0.175000*%
%ADD15C,0.150000*%
%ADD16C,0.120000*%
G04 APERTURE END LIST*
D10*
D11*
X1077055Y6750703D02*
X2600865Y6750703D01*
X1838960Y5988798D02*
X1838960Y7512608D01*
D12*
X68173960Y28074160D02*
X68173960Y28174160D01*
X77073960Y28074160D02*
X68173960Y28074160D01*
X77073960Y28274160D02*
X77073960Y28074160D01*
X77073960Y31774160D02*
X77073960Y28274160D01*
X68173960Y31774160D02*
X77073960Y31774160D01*
D13*
X74100151Y29847374D02*
X74266817Y29847374D01*
X74338246Y29585470D02*
X74100151Y29585470D01*
X74100151Y30085470D01*
X74338246Y30085470D01*
X74552532Y29585470D02*
X74552532Y30085470D01*
X74838246Y29585470D01*
X74838246Y30085470D01*
X75385865Y30085470D02*
X75552532Y29585470D01*
X75719198Y30085470D01*
X76171579Y29633089D02*
X76147769Y29609279D01*
X76076341Y29585470D01*
X76028722Y29585470D01*
X75957293Y29609279D01*
X75909674Y29656898D01*
X75885865Y29704517D01*
X75862055Y29799755D01*
X75862055Y29871184D01*
X75885865Y29966422D01*
X75909674Y30014041D01*
X75957293Y30061660D01*
X76028722Y30085470D01*
X76076341Y30085470D01*
X76147769Y30061660D01*
X76171579Y30037850D01*
X76671579Y29633089D02*
X76647769Y29609279D01*
X76576341Y29585470D01*
X76528722Y29585470D01*
X76457293Y29609279D01*
X76409674Y29656898D01*
X76385865Y29704517D01*
X76362055Y29799755D01*
X76362055Y29871184D01*
X76385865Y29966422D01*
X76409674Y30014041D01*
X76457293Y30061660D01*
X76528722Y30085470D01*
X76576341Y30085470D01*
X76647769Y30061660D01*
X76671579Y30037850D01*
D12*
X68173960Y31574160D02*
X68173960Y31774160D01*
X68173960Y28174160D02*
X68173960Y31574160D01*
D14*
X74382149Y26476160D02*
X74115482Y26476160D01*
X74115482Y26109493D02*
X74115482Y26809493D01*
X74496435Y26809493D01*
X74801196Y26109493D02*
X74801196Y26576160D01*
X74801196Y26442827D02*
X74839291Y26509493D01*
X74877387Y26542827D01*
X74953577Y26576160D01*
X75029768Y26576160D01*
X75410720Y26109493D02*
X75334529Y26142827D01*
X75296434Y26176160D01*
X75258339Y26242827D01*
X75258339Y26442827D01*
X75296434Y26509493D01*
X75334529Y26542827D01*
X75410720Y26576160D01*
X75525006Y26576160D01*
X75601196Y26542827D01*
X75639291Y26509493D01*
X75677387Y26442827D01*
X75677387Y26242827D01*
X75639291Y26176160D01*
X75601196Y26142827D01*
X75525006Y26109493D01*
X75410720Y26109493D01*
X76020244Y26576160D02*
X76020244Y26109493D01*
X76020244Y26509493D02*
X76058339Y26542827D01*
X76134530Y26576160D01*
X76248816Y26576160D01*
X76325006Y26542827D01*
X76363101Y26476160D01*
X76363101Y26109493D01*
X76629768Y26576160D02*
X76934530Y26576160D01*
X76744054Y26809493D02*
X76744054Y26209493D01*
X76782149Y26142827D01*
X76858340Y26109493D01*
X76934530Y26109493D01*
X78267864Y26109493D02*
X78001197Y26442827D01*
X77810721Y26109493D02*
X77810721Y26809493D01*
X78115483Y26809493D01*
X78191674Y26776160D01*
X78229769Y26742827D01*
X78267864Y26676160D01*
X78267864Y26576160D01*
X78229769Y26509493D01*
X78191674Y26476160D01*
X78115483Y26442827D01*
X77810721Y26442827D01*
X78610721Y26109493D02*
X78610721Y26576160D01*
X78610721Y26809493D02*
X78572626Y26776160D01*
X78610721Y26742827D01*
X78648816Y26776160D01*
X78610721Y26809493D01*
X78610721Y26742827D01*
X79334530Y26576160D02*
X79334530Y26009493D01*
X79296435Y25942827D01*
X79258340Y25909493D01*
X79182149Y25876160D01*
X79067864Y25876160D01*
X78991673Y25909493D01*
X79334530Y26142827D02*
X79258340Y26109493D01*
X79105959Y26109493D01*
X79029768Y26142827D01*
X78991673Y26176160D01*
X78953578Y26242827D01*
X78953578Y26442827D01*
X78991673Y26509493D01*
X79029768Y26542827D01*
X79105959Y26576160D01*
X79258340Y26576160D01*
X79334530Y26542827D01*
X79715483Y26109493D02*
X79715483Y26809493D01*
X80058340Y26109493D02*
X80058340Y26476160D01*
X80020245Y26542827D01*
X79944055Y26576160D01*
X79829769Y26576160D01*
X79753578Y26542827D01*
X79715483Y26509493D01*
X80325007Y26576160D02*
X80629769Y26576160D01*
X80439293Y26809493D02*
X80439293Y26209493D01*
X80477388Y26142827D01*
X80553579Y26109493D01*
X80629769Y26109493D01*
X64730245Y26476160D02*
X64463578Y26476160D01*
X64463578Y26109493D02*
X64463578Y26809493D01*
X64844531Y26809493D01*
X65149292Y26109493D02*
X65149292Y26576160D01*
X65149292Y26442827D02*
X65187387Y26509493D01*
X65225483Y26542827D01*
X65301673Y26576160D01*
X65377864Y26576160D01*
X65758816Y26109493D02*
X65682625Y26142827D01*
X65644530Y26176160D01*
X65606435Y26242827D01*
X65606435Y26442827D01*
X65644530Y26509493D01*
X65682625Y26542827D01*
X65758816Y26576160D01*
X65873102Y26576160D01*
X65949292Y26542827D01*
X65987387Y26509493D01*
X66025483Y26442827D01*
X66025483Y26242827D01*
X65987387Y26176160D01*
X65949292Y26142827D01*
X65873102Y26109493D01*
X65758816Y26109493D01*
X66368340Y26576160D02*
X66368340Y26109493D01*
X66368340Y26509493D02*
X66406435Y26542827D01*
X66482626Y26576160D01*
X66596912Y26576160D01*
X66673102Y26542827D01*
X66711197Y26476160D01*
X66711197Y26109493D01*
X66977864Y26576160D02*
X67282626Y26576160D01*
X67092150Y26809493D02*
X67092150Y26209493D01*
X67130245Y26142827D01*
X67206436Y26109493D01*
X67282626Y26109493D01*
X68615960Y26176160D02*
X68577865Y26142827D01*
X68463579Y26109493D01*
X68387389Y26109493D01*
X68273103Y26142827D01*
X68196912Y26209493D01*
X68158817Y26276160D01*
X68120722Y26409493D01*
X68120722Y26509493D01*
X68158817Y26642827D01*
X68196912Y26709493D01*
X68273103Y26776160D01*
X68387389Y26809493D01*
X68463579Y26809493D01*
X68577865Y26776160D01*
X68615960Y26742827D01*
X69263579Y26142827D02*
X69187389Y26109493D01*
X69035008Y26109493D01*
X68958817Y26142827D01*
X68920722Y26209493D01*
X68920722Y26476160D01*
X68958817Y26542827D01*
X69035008Y26576160D01*
X69187389Y26576160D01*
X69263579Y26542827D01*
X69301674Y26476160D01*
X69301674Y26409493D01*
X68920722Y26342827D01*
X69644531Y26576160D02*
X69644531Y26109493D01*
X69644531Y26509493D02*
X69682626Y26542827D01*
X69758817Y26576160D01*
X69873103Y26576160D01*
X69949293Y26542827D01*
X69987388Y26476160D01*
X69987388Y26109493D01*
X70254055Y26576160D02*
X70558817Y26576160D01*
X70368341Y26809493D02*
X70368341Y26209493D01*
X70406436Y26142827D01*
X70482627Y26109493D01*
X70558817Y26109493D01*
X71130246Y26142827D02*
X71054056Y26109493D01*
X70901675Y26109493D01*
X70825484Y26142827D01*
X70787389Y26209493D01*
X70787389Y26476160D01*
X70825484Y26542827D01*
X70901675Y26576160D01*
X71054056Y26576160D01*
X71130246Y26542827D01*
X71168341Y26476160D01*
X71168341Y26409493D01*
X70787389Y26342827D01*
X71511198Y26109493D02*
X71511198Y26576160D01*
X71511198Y26442827D02*
X71549293Y26509493D01*
X71587389Y26542827D01*
X71663579Y26576160D01*
X71739770Y26576160D01*
X54138245Y26476160D02*
X53871578Y26476160D01*
X53871578Y26109493D02*
X53871578Y26809493D01*
X54252531Y26809493D01*
X54557292Y26109493D02*
X54557292Y26576160D01*
X54557292Y26442827D02*
X54595387Y26509493D01*
X54633483Y26542827D01*
X54709673Y26576160D01*
X54785864Y26576160D01*
X55166816Y26109493D02*
X55090625Y26142827D01*
X55052530Y26176160D01*
X55014435Y26242827D01*
X55014435Y26442827D01*
X55052530Y26509493D01*
X55090625Y26542827D01*
X55166816Y26576160D01*
X55281102Y26576160D01*
X55357292Y26542827D01*
X55395387Y26509493D01*
X55433483Y26442827D01*
X55433483Y26242827D01*
X55395387Y26176160D01*
X55357292Y26142827D01*
X55281102Y26109493D01*
X55166816Y26109493D01*
X55776340Y26576160D02*
X55776340Y26109493D01*
X55776340Y26509493D02*
X55814435Y26542827D01*
X55890626Y26576160D01*
X56004912Y26576160D01*
X56081102Y26542827D01*
X56119197Y26476160D01*
X56119197Y26109493D01*
X56385864Y26576160D02*
X56690626Y26576160D01*
X56500150Y26809493D02*
X56500150Y26209493D01*
X56538245Y26142827D01*
X56614436Y26109493D01*
X56690626Y26109493D01*
X57947770Y26109493D02*
X57566817Y26109493D01*
X57566817Y26809493D01*
X58519198Y26142827D02*
X58443008Y26109493D01*
X58290627Y26109493D01*
X58214436Y26142827D01*
X58176341Y26209493D01*
X58176341Y26476160D01*
X58214436Y26542827D01*
X58290627Y26576160D01*
X58443008Y26576160D01*
X58519198Y26542827D01*
X58557293Y26476160D01*
X58557293Y26409493D01*
X58176341Y26342827D01*
X58785864Y26576160D02*
X59090626Y26576160D01*
X58900150Y26109493D02*
X58900150Y26709493D01*
X58938245Y26776160D01*
X59014436Y26809493D01*
X59090626Y26809493D01*
X59243007Y26576160D02*
X59547769Y26576160D01*
X59357293Y26809493D02*
X59357293Y26209493D01*
X59395388Y26142827D01*
X59471579Y26109493D01*
X59547769Y26109493D01*
X42098721Y26476160D02*
X42213007Y26442827D01*
X42251102Y26409493D01*
X42289197Y26342827D01*
X42289197Y26242827D01*
X42251102Y26176160D01*
X42213007Y26142827D01*
X42136816Y26109493D01*
X41832054Y26109493D01*
X41832054Y26809493D01*
X42098721Y26809493D01*
X42174911Y26776160D01*
X42213007Y26742827D01*
X42251102Y26676160D01*
X42251102Y26609493D01*
X42213007Y26542827D01*
X42174911Y26509493D01*
X42098721Y26476160D01*
X41832054Y26476160D01*
X42974911Y26109493D02*
X42974911Y26476160D01*
X42936816Y26542827D01*
X42860626Y26576160D01*
X42708245Y26576160D01*
X42632054Y26542827D01*
X42974911Y26142827D02*
X42898721Y26109493D01*
X42708245Y26109493D01*
X42632054Y26142827D01*
X42593959Y26209493D01*
X42593959Y26276160D01*
X42632054Y26342827D01*
X42708245Y26376160D01*
X42898721Y26376160D01*
X42974911Y26409493D01*
X43698721Y26142827D02*
X43622531Y26109493D01*
X43470150Y26109493D01*
X43393959Y26142827D01*
X43355864Y26176160D01*
X43317769Y26242827D01*
X43317769Y26442827D01*
X43355864Y26509493D01*
X43393959Y26542827D01*
X43470150Y26576160D01*
X43622531Y26576160D01*
X43698721Y26542827D01*
X44041578Y26109493D02*
X44041578Y26809493D01*
X44117769Y26376160D02*
X44346340Y26109493D01*
X44346340Y26576160D02*
X44041578Y26309493D01*
X45755864Y26109493D02*
X45489197Y26442827D01*
X45298721Y26109493D02*
X45298721Y26809493D01*
X45603483Y26809493D01*
X45679674Y26776160D01*
X45717769Y26742827D01*
X45755864Y26676160D01*
X45755864Y26576160D01*
X45717769Y26509493D01*
X45679674Y26476160D01*
X45603483Y26442827D01*
X45298721Y26442827D01*
X46098721Y26109493D02*
X46098721Y26576160D01*
X46098721Y26809493D02*
X46060626Y26776160D01*
X46098721Y26742827D01*
X46136816Y26776160D01*
X46098721Y26809493D01*
X46098721Y26742827D01*
X46822530Y26576160D02*
X46822530Y26009493D01*
X46784435Y25942827D01*
X46746340Y25909493D01*
X46670149Y25876160D01*
X46555864Y25876160D01*
X46479673Y25909493D01*
X46822530Y26142827D02*
X46746340Y26109493D01*
X46593959Y26109493D01*
X46517768Y26142827D01*
X46479673Y26176160D01*
X46441578Y26242827D01*
X46441578Y26442827D01*
X46479673Y26509493D01*
X46517768Y26542827D01*
X46593959Y26576160D01*
X46746340Y26576160D01*
X46822530Y26542827D01*
X47203483Y26109493D02*
X47203483Y26809493D01*
X47546340Y26109493D02*
X47546340Y26476160D01*
X47508245Y26542827D01*
X47432055Y26576160D01*
X47317769Y26576160D01*
X47241578Y26542827D01*
X47203483Y26509493D01*
X47813007Y26576160D02*
X48117769Y26576160D01*
X47927293Y26809493D02*
X47927293Y26209493D01*
X47965388Y26142827D01*
X48041579Y26109493D01*
X48117769Y26109493D01*
X30414817Y26476160D02*
X30529103Y26442827D01*
X30567198Y26409493D01*
X30605293Y26342827D01*
X30605293Y26242827D01*
X30567198Y26176160D01*
X30529103Y26142827D01*
X30452912Y26109493D01*
X30148150Y26109493D01*
X30148150Y26809493D01*
X30414817Y26809493D01*
X30491007Y26776160D01*
X30529103Y26742827D01*
X30567198Y26676160D01*
X30567198Y26609493D01*
X30529103Y26542827D01*
X30491007Y26509493D01*
X30414817Y26476160D01*
X30148150Y26476160D01*
X31291007Y26109493D02*
X31291007Y26476160D01*
X31252912Y26542827D01*
X31176722Y26576160D01*
X31024341Y26576160D01*
X30948150Y26542827D01*
X31291007Y26142827D02*
X31214817Y26109493D01*
X31024341Y26109493D01*
X30948150Y26142827D01*
X30910055Y26209493D01*
X30910055Y26276160D01*
X30948150Y26342827D01*
X31024341Y26376160D01*
X31214817Y26376160D01*
X31291007Y26409493D01*
X32014817Y26142827D02*
X31938627Y26109493D01*
X31786246Y26109493D01*
X31710055Y26142827D01*
X31671960Y26176160D01*
X31633865Y26242827D01*
X31633865Y26442827D01*
X31671960Y26509493D01*
X31710055Y26542827D01*
X31786246Y26576160D01*
X31938627Y26576160D01*
X32014817Y26542827D01*
X32357674Y26109493D02*
X32357674Y26809493D01*
X32433865Y26376160D02*
X32662436Y26109493D01*
X32662436Y26576160D02*
X32357674Y26309493D01*
X34071960Y26176160D02*
X34033865Y26142827D01*
X33919579Y26109493D01*
X33843389Y26109493D01*
X33729103Y26142827D01*
X33652912Y26209493D01*
X33614817Y26276160D01*
X33576722Y26409493D01*
X33576722Y26509493D01*
X33614817Y26642827D01*
X33652912Y26709493D01*
X33729103Y26776160D01*
X33843389Y26809493D01*
X33919579Y26809493D01*
X34033865Y26776160D01*
X34071960Y26742827D01*
X34719579Y26142827D02*
X34643389Y26109493D01*
X34491008Y26109493D01*
X34414817Y26142827D01*
X34376722Y26209493D01*
X34376722Y26476160D01*
X34414817Y26542827D01*
X34491008Y26576160D01*
X34643389Y26576160D01*
X34719579Y26542827D01*
X34757674Y26476160D01*
X34757674Y26409493D01*
X34376722Y26342827D01*
X35100531Y26576160D02*
X35100531Y26109493D01*
X35100531Y26509493D02*
X35138626Y26542827D01*
X35214817Y26576160D01*
X35329103Y26576160D01*
X35405293Y26542827D01*
X35443388Y26476160D01*
X35443388Y26109493D01*
X35710055Y26576160D02*
X36014817Y26576160D01*
X35824341Y26809493D02*
X35824341Y26209493D01*
X35862436Y26142827D01*
X35938627Y26109493D01*
X36014817Y26109493D01*
X36586246Y26142827D02*
X36510056Y26109493D01*
X36357675Y26109493D01*
X36281484Y26142827D01*
X36243389Y26209493D01*
X36243389Y26476160D01*
X36281484Y26542827D01*
X36357675Y26576160D01*
X36510056Y26576160D01*
X36586246Y26542827D01*
X36624341Y26476160D01*
X36624341Y26409493D01*
X36243389Y26342827D01*
X36967198Y26109493D02*
X36967198Y26576160D01*
X36967198Y26442827D02*
X37005293Y26509493D01*
X37043389Y26542827D01*
X37119579Y26576160D01*
X37195770Y26576160D01*
X20076817Y26603160D02*
X20191103Y26569827D01*
X20229198Y26536493D01*
X20267293Y26469827D01*
X20267293Y26369827D01*
X20229198Y26303160D01*
X20191103Y26269827D01*
X20114912Y26236493D01*
X19810150Y26236493D01*
X19810150Y26936493D01*
X20076817Y26936493D01*
X20153007Y26903160D01*
X20191103Y26869827D01*
X20229198Y26803160D01*
X20229198Y26736493D01*
X20191103Y26669827D01*
X20153007Y26636493D01*
X20076817Y26603160D01*
X19810150Y26603160D01*
X20953007Y26236493D02*
X20953007Y26603160D01*
X20914912Y26669827D01*
X20838722Y26703160D01*
X20686341Y26703160D01*
X20610150Y26669827D01*
X20953007Y26269827D02*
X20876817Y26236493D01*
X20686341Y26236493D01*
X20610150Y26269827D01*
X20572055Y26336493D01*
X20572055Y26403160D01*
X20610150Y26469827D01*
X20686341Y26503160D01*
X20876817Y26503160D01*
X20953007Y26536493D01*
X21676817Y26269827D02*
X21600627Y26236493D01*
X21448246Y26236493D01*
X21372055Y26269827D01*
X21333960Y26303160D01*
X21295865Y26369827D01*
X21295865Y26569827D01*
X21333960Y26636493D01*
X21372055Y26669827D01*
X21448246Y26703160D01*
X21600627Y26703160D01*
X21676817Y26669827D01*
X22019674Y26236493D02*
X22019674Y26936493D01*
X22095865Y26503160D02*
X22324436Y26236493D01*
X22324436Y26703160D02*
X22019674Y26436493D01*
X23657770Y26236493D02*
X23276817Y26236493D01*
X23276817Y26936493D01*
X24229198Y26269827D02*
X24153008Y26236493D01*
X24000627Y26236493D01*
X23924436Y26269827D01*
X23886341Y26336493D01*
X23886341Y26603160D01*
X23924436Y26669827D01*
X24000627Y26703160D01*
X24153008Y26703160D01*
X24229198Y26669827D01*
X24267293Y26603160D01*
X24267293Y26536493D01*
X23886341Y26469827D01*
X24495864Y26703160D02*
X24800626Y26703160D01*
X24610150Y26236493D02*
X24610150Y26836493D01*
X24648245Y26903160D01*
X24724436Y26936493D01*
X24800626Y26936493D01*
X24953007Y26703160D02*
X25257769Y26703160D01*
X25067293Y26936493D02*
X25067293Y26336493D01*
X25105388Y26269827D01*
X25181579Y26236493D01*
X25257769Y26236493D01*
D11*
X23746532Y1554017D02*
X24889389Y1554017D01*
X18666532Y1554017D02*
X19809389Y1554017D01*
X19237960Y982589D02*
X19237960Y2125446D01*
X20635103Y800017D02*
X20849389Y728589D01*
X21206532Y728589D01*
X21349389Y800017D01*
X21420818Y871446D01*
X21492246Y1014303D01*
X21492246Y1157160D01*
X21420818Y1300017D01*
X21349389Y1371446D01*
X21206532Y1442874D01*
X20920818Y1514303D01*
X20777960Y1585731D01*
X20706532Y1657160D01*
X20635103Y1800017D01*
X20635103Y1942874D01*
X20706532Y2085731D01*
X20777960Y2157160D01*
X20920818Y2228589D01*
X21277960Y2228589D01*
X21492246Y2157160D01*
X22777960Y2228589D02*
X22492246Y2228589D01*
X22349389Y2157160D01*
X22277960Y2085731D01*
X22135103Y1871446D01*
X22063674Y1585731D01*
X22063674Y1014303D01*
X22135103Y871446D01*
X22206531Y800017D01*
X22349389Y728589D01*
X22635103Y728589D01*
X22777960Y800017D01*
X22849389Y871446D01*
X22920817Y1014303D01*
X22920817Y1371446D01*
X22849389Y1514303D01*
X22777960Y1585731D01*
X22635103Y1657160D01*
X22349389Y1657160D01*
X22206531Y1585731D01*
X22135103Y1514303D01*
X22063674Y1371446D01*
X35684532Y1554017D02*
X36827389Y1554017D01*
X30096532Y1554017D02*
X31239389Y1554017D01*
X30667960Y982589D02*
X30667960Y2125446D01*
X32319103Y800017D02*
X32533389Y728589D01*
X32890532Y728589D01*
X33033389Y800017D01*
X33104818Y871446D01*
X33176246Y1014303D01*
X33176246Y1157160D01*
X33104818Y1300017D01*
X33033389Y1371446D01*
X32890532Y1442874D01*
X32604818Y1514303D01*
X32461960Y1585731D01*
X32390532Y1657160D01*
X32319103Y1800017D01*
X32319103Y1942874D01*
X32390532Y2085731D01*
X32461960Y2157160D01*
X32604818Y2228589D01*
X32961960Y2228589D01*
X33176246Y2157160D01*
X34533389Y2228589D02*
X33819103Y2228589D01*
X33747674Y1514303D01*
X33819103Y1585731D01*
X33961960Y1657160D01*
X34319103Y1657160D01*
X34461960Y1585731D01*
X34533389Y1514303D01*
X34604817Y1371446D01*
X34604817Y1014303D01*
X34533389Y871446D01*
X34461960Y800017D01*
X34319103Y728589D01*
X33961960Y728589D01*
X33819103Y800017D01*
X33747674Y871446D01*
D13*
X47406626Y31817350D02*
X47506626Y31779255D01*
X47673293Y31779255D01*
X47739960Y31817350D01*
X47773293Y31855446D01*
X47806626Y31931636D01*
X47806626Y32007827D01*
X47773293Y32084017D01*
X47739960Y32122112D01*
X47673293Y32160208D01*
X47539960Y32198303D01*
X47473293Y32236398D01*
X47439960Y32274493D01*
X47406626Y32350684D01*
X47406626Y32426874D01*
X47439960Y32503065D01*
X47473293Y32541160D01*
X47539960Y32579255D01*
X47706626Y32579255D01*
X47806626Y32541160D01*
X48406627Y32579255D02*
X48273293Y32579255D01*
X48206627Y32541160D01*
X48173293Y32503065D01*
X48106627Y32388779D01*
X48073293Y32236398D01*
X48073293Y31931636D01*
X48106627Y31855446D01*
X48139960Y31817350D01*
X48206627Y31779255D01*
X48339960Y31779255D01*
X48406627Y31817350D01*
X48439960Y31855446D01*
X48473293Y31931636D01*
X48473293Y32122112D01*
X48439960Y32198303D01*
X48406627Y32236398D01*
X48339960Y32274493D01*
X48206627Y32274493D01*
X48139960Y32236398D01*
X48106627Y32198303D01*
X48073293Y32122112D01*
X49819626Y31817350D02*
X49919626Y31779255D01*
X50086293Y31779255D01*
X50152960Y31817350D01*
X50186293Y31855446D01*
X50219626Y31931636D01*
X50219626Y32007827D01*
X50186293Y32084017D01*
X50152960Y32122112D01*
X50086293Y32160208D01*
X49952960Y32198303D01*
X49886293Y32236398D01*
X49852960Y32274493D01*
X49819626Y32350684D01*
X49819626Y32426874D01*
X49852960Y32503065D01*
X49886293Y32541160D01*
X49952960Y32579255D01*
X50119626Y32579255D01*
X50219626Y32541160D01*
X50852960Y32579255D02*
X50519627Y32579255D01*
X50486293Y32198303D01*
X50519627Y32236398D01*
X50586293Y32274493D01*
X50752960Y32274493D01*
X50819627Y32236398D01*
X50852960Y32198303D01*
X50886293Y32122112D01*
X50886293Y31931636D01*
X50852960Y31855446D01*
X50819627Y31817350D01*
X50752960Y31779255D01*
X50586293Y31779255D01*
X50519627Y31817350D01*
X50486293Y31855446D01*
D15*
X23198865Y30799779D02*
X23198865Y31799779D01*
X23436960Y31799779D01*
X23579818Y31752160D01*
X23675056Y31656922D01*
X23722675Y31561684D01*
X23770294Y31371208D01*
X23770294Y31228350D01*
X23722675Y31037874D01*
X23675056Y30942636D01*
X23579818Y30847398D01*
X23436960Y30799779D01*
X23198865Y30799779D01*
X24151246Y31704541D02*
X24198865Y31752160D01*
X24294103Y31799779D01*
X24532199Y31799779D01*
X24627437Y31752160D01*
X24675056Y31704541D01*
X24722675Y31609303D01*
X24722675Y31514065D01*
X24675056Y31371208D01*
X24103627Y30799779D01*
X24722675Y30799779D01*
D13*
X62119627Y32579255D02*
X62352960Y31779255D01*
X62586293Y32579255D01*
X63219627Y31855446D02*
X63186293Y31817350D01*
X63086293Y31779255D01*
X63019627Y31779255D01*
X62919627Y31817350D01*
X62852960Y31893541D01*
X62819627Y31969731D01*
X62786293Y32122112D01*
X62786293Y32236398D01*
X62819627Y32388779D01*
X62852960Y32464970D01*
X62919627Y32541160D01*
X63019627Y32579255D01*
X63086293Y32579255D01*
X63186293Y32541160D01*
X63219627Y32503065D01*
X63919627Y31855446D02*
X63886293Y31817350D01*
X63786293Y31779255D01*
X63719627Y31779255D01*
X63619627Y31817350D01*
X63552960Y31893541D01*
X63519627Y31969731D01*
X63486293Y32122112D01*
X63486293Y32236398D01*
X63519627Y32388779D01*
X63552960Y32464970D01*
X63619627Y32541160D01*
X63719627Y32579255D01*
X63786293Y32579255D01*
X63886293Y32541160D01*
X63919627Y32503065D01*
X44866627Y32568660D02*
X44799961Y32606755D01*
X44699961Y32606755D01*
X44599961Y32568660D01*
X44533294Y32492470D01*
X44499961Y32416279D01*
X44466627Y32263898D01*
X44466627Y32149612D01*
X44499961Y31997231D01*
X44533294Y31921041D01*
X44599961Y31844850D01*
X44699961Y31806755D01*
X44766627Y31806755D01*
X44866627Y31844850D01*
X44899961Y31882946D01*
X44899961Y32149612D01*
X44766627Y32149612D01*
X45199961Y31806755D02*
X45199961Y32606755D01*
X45599961Y31806755D01*
X45599961Y32606755D01*
X45933294Y31806755D02*
X45933294Y32606755D01*
X46099960Y32606755D01*
X46199960Y32568660D01*
X46266627Y32492470D01*
X46299960Y32416279D01*
X46333294Y32263898D01*
X46333294Y32149612D01*
X46299960Y31997231D01*
X46266627Y31921041D01*
X46199960Y31844850D01*
X46099960Y31806755D01*
X45933294Y31806755D01*
D11*
X81404532Y1554017D02*
X82547389Y1554017D01*
X78293103Y800017D02*
X78507389Y728589D01*
X78864532Y728589D01*
X79007389Y800017D01*
X79078818Y871446D01*
X79150246Y1014303D01*
X79150246Y1157160D01*
X79078818Y1300017D01*
X79007389Y1371446D01*
X78864532Y1442874D01*
X78578818Y1514303D01*
X78435960Y1585731D01*
X78364532Y1657160D01*
X78293103Y1800017D01*
X78293103Y1942874D01*
X78364532Y2085731D01*
X78435960Y2157160D01*
X78578818Y2228589D01*
X78935960Y2228589D01*
X79150246Y2157160D01*
X80578817Y728589D02*
X79721674Y728589D01*
X80150246Y728589D02*
X80150246Y2228589D01*
X80007389Y2014303D01*
X79864531Y1871446D01*
X79721674Y1800017D01*
X76070532Y1554017D02*
X77213389Y1554017D01*
X76641960Y982589D02*
X76641960Y2125446D01*
X70228532Y1554017D02*
X71371389Y1554017D01*
X67117103Y800017D02*
X67331389Y728589D01*
X67688532Y728589D01*
X67831389Y800017D01*
X67902818Y871446D01*
X67974246Y1014303D01*
X67974246Y1157160D01*
X67902818Y1300017D01*
X67831389Y1371446D01*
X67688532Y1442874D01*
X67402818Y1514303D01*
X67259960Y1585731D01*
X67188532Y1657160D01*
X67117103Y1800017D01*
X67117103Y1942874D01*
X67188532Y2085731D01*
X67259960Y2157160D01*
X67402818Y2228589D01*
X67759960Y2228589D01*
X67974246Y2157160D01*
X68545674Y2085731D02*
X68617103Y2157160D01*
X68759960Y2228589D01*
X69117103Y2228589D01*
X69259960Y2157160D01*
X69331389Y2085731D01*
X69402817Y1942874D01*
X69402817Y1800017D01*
X69331389Y1585731D01*
X68474246Y728589D01*
X69402817Y728589D01*
X65148532Y1554017D02*
X66291389Y1554017D01*
X65719960Y982589D02*
X65719960Y2125446D01*
X58544532Y1554017D02*
X59687389Y1554017D01*
X55687103Y800017D02*
X55901389Y728589D01*
X56258532Y728589D01*
X56401389Y800017D01*
X56472818Y871446D01*
X56544246Y1014303D01*
X56544246Y1157160D01*
X56472818Y1300017D01*
X56401389Y1371446D01*
X56258532Y1442874D01*
X55972818Y1514303D01*
X55829960Y1585731D01*
X55758532Y1657160D01*
X55687103Y1800017D01*
X55687103Y1942874D01*
X55758532Y2085731D01*
X55829960Y2157160D01*
X55972818Y2228589D01*
X56329960Y2228589D01*
X56544246Y2157160D01*
X57044246Y2228589D02*
X57972817Y2228589D01*
X57472817Y1657160D01*
X57687103Y1657160D01*
X57829960Y1585731D01*
X57901389Y1514303D01*
X57972817Y1371446D01*
X57972817Y1014303D01*
X57901389Y871446D01*
X57829960Y800017D01*
X57687103Y728589D01*
X57258531Y728589D01*
X57115674Y800017D01*
X57044246Y871446D01*
X53464532Y1554017D02*
X54607389Y1554017D01*
X54035960Y982589D02*
X54035960Y2125446D01*
X44003103Y800017D02*
X44217389Y728589D01*
X44574532Y728589D01*
X44717389Y800017D01*
X44788818Y871446D01*
X44860246Y1014303D01*
X44860246Y1157160D01*
X44788818Y1300017D01*
X44717389Y1371446D01*
X44574532Y1442874D01*
X44288818Y1514303D01*
X44145960Y1585731D01*
X44074532Y1657160D01*
X44003103Y1800017D01*
X44003103Y1942874D01*
X44074532Y2085731D01*
X44145960Y2157160D01*
X44288818Y2228589D01*
X44645960Y2228589D01*
X44860246Y2157160D01*
X46145960Y1728589D02*
X46145960Y728589D01*
X45788817Y2300017D02*
X45431674Y1228589D01*
X46360246Y1228589D01*
X47114532Y1554017D02*
X48257389Y1554017D01*
X42034532Y1554017D02*
X43177389Y1554017D01*
X42605960Y982589D02*
X42605960Y2125446D01*
D13*
X52359626Y31817350D02*
X52459626Y31779255D01*
X52626293Y31779255D01*
X52692960Y31817350D01*
X52726293Y31855446D01*
X52759626Y31931636D01*
X52759626Y32007827D01*
X52726293Y32084017D01*
X52692960Y32122112D01*
X52626293Y32160208D01*
X52492960Y32198303D01*
X52426293Y32236398D01*
X52392960Y32274493D01*
X52359626Y32350684D01*
X52359626Y32426874D01*
X52392960Y32503065D01*
X52426293Y32541160D01*
X52492960Y32579255D01*
X52659626Y32579255D01*
X52759626Y32541160D01*
X53359627Y32312589D02*
X53359627Y31779255D01*
X53192960Y32617350D02*
X53026293Y32045922D01*
X53459627Y32045922D01*
X54899626Y31844850D02*
X54999626Y31806755D01*
X55166293Y31806755D01*
X55232960Y31844850D01*
X55266293Y31882946D01*
X55299626Y31959136D01*
X55299626Y32035327D01*
X55266293Y32111517D01*
X55232960Y32149612D01*
X55166293Y32187708D01*
X55032960Y32225803D01*
X54966293Y32263898D01*
X54932960Y32301993D01*
X54899626Y32378184D01*
X54899626Y32454374D01*
X54932960Y32530565D01*
X54966293Y32568660D01*
X55032960Y32606755D01*
X55199626Y32606755D01*
X55299626Y32568660D01*
X55532960Y32606755D02*
X55966293Y32606755D01*
X55732960Y32301993D01*
X55832960Y32301993D01*
X55899627Y32263898D01*
X55932960Y32225803D01*
X55966293Y32149612D01*
X55966293Y31959136D01*
X55932960Y31882946D01*
X55899627Y31844850D01*
X55832960Y31806755D01*
X55632960Y31806755D01*
X55566293Y31844850D01*
X55532960Y31882946D01*
X57693626Y31817350D02*
X57793626Y31779255D01*
X57960293Y31779255D01*
X58026960Y31817350D01*
X58060293Y31855446D01*
X58093626Y31931636D01*
X58093626Y32007827D01*
X58060293Y32084017D01*
X58026960Y32122112D01*
X57960293Y32160208D01*
X57826960Y32198303D01*
X57760293Y32236398D01*
X57726960Y32274493D01*
X57693626Y32350684D01*
X57693626Y32426874D01*
X57726960Y32503065D01*
X57760293Y32541160D01*
X57826960Y32579255D01*
X57993626Y32579255D01*
X58093626Y32541160D01*
X58360293Y32503065D02*
X58393627Y32541160D01*
X58460293Y32579255D01*
X58626960Y32579255D01*
X58693627Y32541160D01*
X58726960Y32503065D01*
X58760293Y32426874D01*
X58760293Y32350684D01*
X58726960Y32236398D01*
X58326960Y31779255D01*
X58760293Y31779255D01*
X60106626Y31817350D02*
X60206626Y31779255D01*
X60373293Y31779255D01*
X60439960Y31817350D01*
X60473293Y31855446D01*
X60506626Y31931636D01*
X60506626Y32007827D01*
X60473293Y32084017D01*
X60439960Y32122112D01*
X60373293Y32160208D01*
X60239960Y32198303D01*
X60173293Y32236398D01*
X60139960Y32274493D01*
X60106626Y32350684D01*
X60106626Y32426874D01*
X60139960Y32503065D01*
X60173293Y32541160D01*
X60239960Y32579255D01*
X60406626Y32579255D01*
X60506626Y32541160D01*
X61173293Y31779255D02*
X60773293Y31779255D01*
X60973293Y31779255D02*
X60973293Y32579255D01*
X60906627Y32464970D01*
X60839960Y32388779D01*
X60773293Y32350684D01*
D16*
X12635960Y32647160D02*
X12635960Y30467160D01*
X12635960Y26047160D02*
X12635960Y28227160D01*
X19235960Y31887160D02*
X19235960Y30467160D01*
X19235960Y26807160D02*
X19235960Y28227160D01*
X12635960Y32647160D02*
X18475960Y32647160D01*
X18475960Y32647160D02*
X19235960Y31887160D01*
X19235960Y26807160D02*
X18475960Y26047160D01*
X18475960Y26047160D02*
X12635960Y26047160D01*
D15*
X28381960Y8646160D02*
X38541960Y8646160D01*
X38541960Y2804160D02*
X28381960Y2804160D01*
X28381960Y2804160D02*
X28381960Y8646160D01*
X38541960Y2804160D02*
X38541960Y8646160D01*
X51368960Y8646160D02*
X61528960Y8646160D01*
X61528960Y2804160D02*
X51368960Y2804160D01*
X51368960Y2804160D02*
X51368960Y8646160D01*
X61528960Y2804160D02*
X61528960Y8646160D01*
D16*
X2957560Y1105960D02*
X6257560Y1105960D01*
X6257560Y1105960D02*
X6257560Y6505960D01*
X2957560Y1105960D02*
X2957560Y6505960D01*
X24942160Y32102160D02*
X24942160Y30402160D01*
X24992160Y30402160D02*
X29042160Y30402160D01*
X24992160Y32102160D02*
X29042160Y32102160D01*
D15*
X27356960Y14953360D02*
X28626960Y14953360D01*
X27356960Y22303360D02*
X28626960Y22303360D01*
X39566960Y22303360D02*
X38296960Y22303360D01*
X39566960Y14953360D02*
X38296960Y14953360D01*
X27356960Y14953360D02*
X27356960Y22303360D01*
X39566960Y14953360D02*
X39566960Y22303360D01*
X28626960Y14953360D02*
X28626960Y14018360D01*
X15749160Y14953360D02*
X17019160Y14953360D01*
X15749160Y22303360D02*
X17019160Y22303360D01*
X27959160Y22303360D02*
X26689160Y22303360D01*
X27959160Y14953360D02*
X26689160Y14953360D01*
X15749160Y14953360D02*
X15749160Y22303360D01*
X27959160Y14953360D02*
X27959160Y22303360D01*
X17019160Y14953360D02*
X17019160Y14018360D01*
X16697960Y8646160D02*
X26857960Y8646160D01*
X26857960Y2804160D02*
X16697960Y2804160D01*
X16697960Y2804160D02*
X16697960Y8646160D01*
X26857960Y2804160D02*
X26857960Y8646160D01*
X61859160Y28686760D02*
X44079160Y28686760D01*
X44079160Y28686760D02*
X44079160Y31226760D01*
X44079160Y31226760D02*
X61859160Y31226760D01*
X64679160Y28406760D02*
X63129160Y28406760D01*
X61859160Y28686760D02*
X61859160Y31226760D01*
X63129160Y31506760D02*
X64679160Y31506760D01*
X64679160Y31506760D02*
X64679160Y28406760D01*
X74355960Y8646160D02*
X84515960Y8646160D01*
X84515960Y2804160D02*
X74355960Y2804160D01*
X74355960Y2804160D02*
X74355960Y8646160D01*
X84515960Y2804160D02*
X84515960Y8646160D01*
X62925960Y8646160D02*
X73085960Y8646160D01*
X73085960Y2804160D02*
X62925960Y2804160D01*
X62925960Y2804160D02*
X62925960Y8646160D01*
X73085960Y2804160D02*
X73085960Y8646160D01*
X39938960Y8646160D02*
X50098960Y8646160D01*
X50098960Y2804160D02*
X39938960Y2804160D01*
X39938960Y2804160D02*
X39938960Y8646160D01*
X50098960Y2804160D02*
X50098960Y8646160D01*
X38856160Y14936760D02*
X40126160Y14936760D01*
X38856160Y22286760D02*
X40126160Y22286760D01*
X51066160Y22286760D02*
X49796160Y22286760D01*
X51066160Y14936760D02*
X49796160Y14936760D01*
X38856160Y14936760D02*
X38856160Y22286760D01*
X51066160Y14936760D02*
X51066160Y22286760D01*
X40126160Y14936760D02*
X40126160Y14001760D01*
X50356160Y14936760D02*
X51626160Y14936760D01*
X50356160Y22286760D02*
X51626160Y22286760D01*
X62566160Y22286760D02*
X61296160Y22286760D01*
X62566160Y14936760D02*
X61296160Y14936760D01*
X50356160Y14936760D02*
X50356160Y22286760D01*
X62566160Y14936760D02*
X62566160Y22286760D01*
X51626160Y14936760D02*
X51626160Y14001760D01*
X61856160Y14936760D02*
X63126160Y14936760D01*
X61856160Y22286760D02*
X63126160Y22286760D01*
X74066160Y22286760D02*
X72796160Y22286760D01*
X74066160Y14936760D02*
X72796160Y14936760D01*
X61856160Y14936760D02*
X61856160Y22286760D01*
X74066160Y14936760D02*
X74066160Y22286760D01*
X63126160Y14936760D02*
X63126160Y14001760D01*
X73356160Y14936760D02*
X74626160Y14936760D01*
X73356160Y22286760D02*
X74626160Y22286760D01*
X85566160Y22286760D02*
X84296160Y22286760D01*
X85566160Y14936760D02*
X84296160Y14936760D01*
X73356160Y14936760D02*
X73356160Y22286760D01*
X85566160Y14936760D02*
X85566160Y22286760D01*
X74626160Y14936760D02*
X74626160Y14001760D01*
X77163960Y10332160D02*
X77163960Y11532160D01*
X78913960Y11532160D02*
X78913960Y10332160D01*
X79830960Y10332160D02*
X79830960Y11532160D01*
X81580960Y11532160D02*
X81580960Y10332160D01*
X65860960Y10332160D02*
X65860960Y11532160D01*
X67610960Y11532160D02*
X67610960Y10332160D01*
X68400960Y10332160D02*
X68400960Y11532160D01*
X70150960Y11532160D02*
X70150960Y10332160D01*
X74496960Y10332160D02*
X74496960Y11532160D01*
X76246960Y11532160D02*
X76246960Y10332160D01*
X84247960Y11532160D02*
X84247960Y10332160D01*
X82497960Y10332160D02*
X82497960Y11532160D01*
X63193960Y10332160D02*
X63193960Y11532160D01*
X64943960Y11532160D02*
X64943960Y10332160D01*
X72690960Y11532160D02*
X72690960Y10332160D01*
X70940960Y10332160D02*
X70940960Y11532160D01*
X77565960Y25777160D02*
X78765960Y25777160D01*
X78765960Y24027160D02*
X77565960Y24027160D01*
X65881960Y25777160D02*
X67081960Y25777160D01*
X67081960Y24027160D02*
X65881960Y24027160D01*
X54430960Y10332160D02*
X54430960Y11532160D01*
X56180960Y11532160D02*
X56180960Y10332160D01*
X56970960Y10332160D02*
X56970960Y11532160D01*
X58720960Y11532160D02*
X58720960Y10332160D01*
X43000960Y10332160D02*
X43000960Y11532160D01*
X44750960Y11532160D02*
X44750960Y10332160D01*
X45540960Y10332160D02*
X45540960Y11532160D01*
X47290960Y11532160D02*
X47290960Y10332160D01*
X51636960Y10332160D02*
X51636960Y11532160D01*
X53386960Y11532160D02*
X53386960Y10332160D01*
X61387960Y11532160D02*
X61387960Y10332160D01*
X59637960Y10332160D02*
X59637960Y11532160D01*
X40333960Y10332160D02*
X40333960Y11532160D01*
X42083960Y11532160D02*
X42083960Y10332160D01*
X49830960Y11532160D02*
X49830960Y10332160D01*
X48080960Y10332160D02*
X48080960Y11532160D01*
X54705960Y25777160D02*
X55905960Y25777160D01*
X55905960Y24027160D02*
X54705960Y24027160D01*
X43151160Y25776760D02*
X44351160Y25776760D01*
X44351160Y24026760D02*
X43151160Y24026760D01*
X31363360Y32152560D02*
X32563360Y32152560D01*
X32563360Y30402560D02*
X31363360Y30402560D01*
X31316960Y10332160D02*
X31316960Y11532160D01*
X33066960Y11532160D02*
X33066960Y10332160D01*
X33856960Y10332160D02*
X33856960Y11532160D01*
X35606960Y11532160D02*
X35606960Y10332160D01*
X28776960Y10332160D02*
X28776960Y11532160D01*
X30526960Y11532160D02*
X30526960Y10332160D01*
X38273960Y11532160D02*
X38273960Y10332160D01*
X36523960Y10332160D02*
X36523960Y11532160D01*
X31591960Y25777160D02*
X32791960Y25777160D01*
X32791960Y24027160D02*
X31591960Y24027160D01*
X19759960Y10332160D02*
X19759960Y11532160D01*
X21509960Y11532160D02*
X21509960Y10332160D01*
X22299960Y10332160D02*
X22299960Y11532160D01*
X24049960Y11532160D02*
X24049960Y10332160D01*
X17092960Y10332160D02*
X17092960Y11532160D01*
X18842960Y11532160D02*
X18842960Y10332160D01*
X26589960Y11532160D02*
X26589960Y10332160D01*
X24839960Y10332160D02*
X24839960Y11532160D01*
X19907960Y25777160D02*
X21107960Y25777160D01*
X21107960Y24027160D02*
X19907960Y24027160D01*
X71243960Y31244160D02*
X73783960Y31244160D01*
X68423960Y31524160D02*
X69973960Y31524160D01*
X71243960Y31244160D02*
X71243960Y28704160D01*
X69973960Y28424160D02*
X68423960Y28424160D01*
X68423960Y28424160D02*
X68423960Y31524160D01*
X71243960Y28704160D02*
X73783960Y28704160D01*
X73783960Y28704160D02*
X73783960Y31244160D01*
X9926760Y13279760D02*
X10426760Y13279760D01*
X7926760Y15779760D02*
G75*
G03X7926760Y15779760I-2000000J0D01*
G01*
X7926760Y10779760D02*
G75*
G03X7926760Y10779760I-2000000J0D01*
G01*
X8426760Y8279760D02*
X8426760Y18279760D01*
X3526760Y8279760D02*
X3526760Y18279760D01*
X9926760Y8279760D02*
X9926760Y18279760D01*
X10426760Y8279760D02*
X10426760Y18279760D01*
X10426760Y18279760D02*
X626760Y18279760D01*
X626760Y18279760D02*
X626760Y8279760D01*
X626760Y8279760D02*
X10426760Y8279760D01*
D16*
X16365760Y8034560D02*
X14185760Y8034560D01*
X9765760Y8034560D02*
X11945760Y8034560D01*
X15605760Y1434560D02*
X14185760Y1434560D01*
X10525760Y1434560D02*
X11945760Y1434560D01*
X16365760Y8034560D02*
X16365760Y2194560D01*
X16365760Y2194560D02*
X15605760Y1434560D01*
X10525760Y1434560D02*
X9765760Y2194560D01*
X9765760Y2194560D02*
X9765760Y8034560D01*
X6856360Y4624960D02*
X6856360Y3624960D01*
X8556360Y3624960D02*
X8556360Y4624960D01*
X21258160Y30990160D02*
X21258160Y29990160D01*
X22958160Y29990160D02*
X22958160Y30990160D01*
X9411160Y19245960D02*
X9411160Y18895960D01*
X9411160Y18895960D02*
X7911160Y18895960D01*
X9411160Y23895960D02*
X9411160Y20695960D01*
X7911160Y25695960D02*
X9411160Y25695960D01*
X9411160Y25695960D02*
X9411160Y25295960D01*
D15*
X12330703Y26894494D02*
X12378322Y26846875D01*
X12425941Y26704018D01*
X12425941Y26608780D01*
X12378322Y26465922D01*
X12283084Y26370684D01*
X12187846Y26323065D01*
X11997370Y26275446D01*
X11854512Y26275446D01*
X11664036Y26323065D01*
X11568798Y26370684D01*
X11473560Y26465922D01*
X11425941Y26608780D01*
X11425941Y26704018D01*
X11473560Y26846875D01*
X11521179Y26894494D01*
X11521179Y27275446D02*
X11473560Y27323065D01*
X11425941Y27418303D01*
X11425941Y27656399D01*
X11473560Y27751637D01*
X11521179Y27799256D01*
X11616417Y27846875D01*
X11711655Y27846875D01*
X11854512Y27799256D01*
X12425941Y27227827D01*
X12425941Y27846875D01*
X19835008Y32285731D02*
X20596913Y32285731D01*
X20215961Y31904779D02*
X20215961Y32666684D01*
X33128627Y8304779D02*
X33128627Y7590493D01*
X33081007Y7447636D01*
X32985769Y7352398D01*
X32842912Y7304779D01*
X32747674Y7304779D01*
X34033389Y8304779D02*
X33842912Y8304779D01*
X33747674Y8257160D01*
X33700055Y8209541D01*
X33604817Y8066684D01*
X33557198Y7876208D01*
X33557198Y7495255D01*
X33604817Y7400017D01*
X33652436Y7352398D01*
X33747674Y7304779D01*
X33938151Y7304779D01*
X34033389Y7352398D01*
X34081008Y7400017D01*
X34128627Y7495255D01*
X34128627Y7733350D01*
X34081008Y7828589D01*
X34033389Y7876208D01*
X33938151Y7923827D01*
X33747674Y7923827D01*
X33652436Y7876208D01*
X33604817Y7828589D01*
X33557198Y7733350D01*
X56080427Y8315179D02*
X56080427Y7600893D01*
X56032807Y7458036D01*
X55937569Y7362798D01*
X55794712Y7315179D01*
X55699474Y7315179D01*
X56461379Y8315179D02*
X57080427Y8315179D01*
X56747093Y7934227D01*
X56889951Y7934227D01*
X56985189Y7886608D01*
X57032808Y7838989D01*
X57080427Y7743750D01*
X57080427Y7505655D01*
X57032808Y7410417D01*
X56985189Y7362798D01*
X56889951Y7315179D01*
X56604236Y7315179D01*
X56508998Y7362798D01*
X56461379Y7410417D01*
X2545341Y1278665D02*
X1545341Y1278665D01*
X1545341Y1516760D01*
X1592960Y1659618D01*
X1688198Y1754856D01*
X1783436Y1802475D01*
X1973912Y1850094D01*
X2116770Y1850094D01*
X2307246Y1802475D01*
X2402484Y1754856D01*
X2497722Y1659618D01*
X2545341Y1516760D01*
X2545341Y1278665D01*
X2545341Y2802475D02*
X2545341Y2231046D01*
X2545341Y2516760D02*
X1545341Y2516760D01*
X1688198Y2421522D01*
X1783436Y2326284D01*
X1831055Y2231046D01*
X32573055Y19099779D02*
X32573055Y18290255D01*
X32620674Y18195017D01*
X32668293Y18147398D01*
X32763531Y18099779D01*
X32954008Y18099779D01*
X33049246Y18147398D01*
X33096865Y18195017D01*
X33144484Y18290255D01*
X33144484Y19099779D01*
X34096865Y19099779D02*
X33620674Y19099779D01*
X33573055Y18623589D01*
X33620674Y18671208D01*
X33715912Y18718827D01*
X33954008Y18718827D01*
X34049246Y18671208D01*
X34096865Y18623589D01*
X34144484Y18528350D01*
X34144484Y18290255D01*
X34096865Y18195017D01*
X34049246Y18147398D01*
X33954008Y18099779D01*
X33715912Y18099779D01*
X33620674Y18147398D01*
X33573055Y18195017D01*
X21143055Y19099779D02*
X21143055Y18290255D01*
X21190674Y18195017D01*
X21238293Y18147398D01*
X21333531Y18099779D01*
X21524008Y18099779D01*
X21619246Y18147398D01*
X21666865Y18195017D01*
X21714484Y18290255D01*
X21714484Y19099779D01*
X22619246Y19099779D02*
X22428769Y19099779D01*
X22333531Y19052160D01*
X22285912Y19004541D01*
X22190674Y18861684D01*
X22143055Y18671208D01*
X22143055Y18290255D01*
X22190674Y18195017D01*
X22238293Y18147398D01*
X22333531Y18099779D01*
X22524008Y18099779D01*
X22619246Y18147398D01*
X22666865Y18195017D01*
X22714484Y18290255D01*
X22714484Y18528350D01*
X22666865Y18623589D01*
X22619246Y18671208D01*
X22524008Y18718827D01*
X22333531Y18718827D01*
X22238293Y18671208D01*
X22190674Y18623589D01*
X22143055Y18528350D01*
X21317627Y8304779D02*
X21317627Y7590493D01*
X21270007Y7447636D01*
X21174769Y7352398D01*
X21031912Y7304779D01*
X20936674Y7304779D01*
X21698579Y8304779D02*
X22365246Y8304779D01*
X21936674Y7304779D01*
X42121865Y29529779D02*
X42121865Y30529779D01*
X42502818Y30529779D01*
X42598056Y30482160D01*
X42645675Y30434541D01*
X42693294Y30339303D01*
X42693294Y30196446D01*
X42645675Y30101208D01*
X42598056Y30053589D01*
X42502818Y30005970D01*
X42121865Y30005970D01*
X43645675Y29529779D02*
X43074246Y29529779D01*
X43359960Y29529779D02*
X43359960Y30529779D01*
X43264722Y30386922D01*
X43169484Y30291684D01*
X43074246Y30244065D01*
X79177427Y8315179D02*
X79177427Y7600893D01*
X79129807Y7458036D01*
X79034569Y7362798D01*
X78891712Y7315179D01*
X78796474Y7315179D01*
X80177427Y7315179D02*
X79605998Y7315179D01*
X79891712Y7315179D02*
X79891712Y8315179D01*
X79796474Y8172322D01*
X79701236Y8077084D01*
X79605998Y8029465D01*
X67567427Y8315179D02*
X67567427Y7600893D01*
X67519807Y7458036D01*
X67424569Y7362798D01*
X67281712Y7315179D01*
X67186474Y7315179D01*
X67995998Y8219941D02*
X68043617Y8267560D01*
X68138855Y8315179D01*
X68376951Y8315179D01*
X68472189Y8267560D01*
X68519808Y8219941D01*
X68567427Y8124703D01*
X68567427Y8029465D01*
X68519808Y7886608D01*
X67948379Y7315179D01*
X68567427Y7315179D01*
X44720427Y8315179D02*
X44720427Y7600893D01*
X44672807Y7458036D01*
X44577569Y7362798D01*
X44434712Y7315179D01*
X44339474Y7315179D01*
X45625189Y7981846D02*
X45625189Y7315179D01*
X45387093Y8362798D02*
X45148998Y7648512D01*
X45768046Y7648512D01*
X44003055Y19099779D02*
X44003055Y18290255D01*
X44050674Y18195017D01*
X44098293Y18147398D01*
X44193531Y18099779D01*
X44384008Y18099779D01*
X44479246Y18147398D01*
X44526865Y18195017D01*
X44574484Y18290255D01*
X44574484Y19099779D01*
X45479246Y18766446D02*
X45479246Y18099779D01*
X45241150Y19147398D02*
X45003055Y18433112D01*
X45622103Y18433112D01*
X55433055Y19099779D02*
X55433055Y18290255D01*
X55480674Y18195017D01*
X55528293Y18147398D01*
X55623531Y18099779D01*
X55814008Y18099779D01*
X55909246Y18147398D01*
X55956865Y18195017D01*
X56004484Y18290255D01*
X56004484Y19099779D01*
X56385436Y19099779D02*
X57004484Y19099779D01*
X56671150Y18718827D01*
X56814008Y18718827D01*
X56909246Y18671208D01*
X56956865Y18623589D01*
X57004484Y18528350D01*
X57004484Y18290255D01*
X56956865Y18195017D01*
X56909246Y18147398D01*
X56814008Y18099779D01*
X56528293Y18099779D01*
X56433055Y18147398D01*
X56385436Y18195017D01*
X66863055Y19099779D02*
X66863055Y18290255D01*
X66910674Y18195017D01*
X66958293Y18147398D01*
X67053531Y18099779D01*
X67244008Y18099779D01*
X67339246Y18147398D01*
X67386865Y18195017D01*
X67434484Y18290255D01*
X67434484Y19099779D01*
X67863055Y19004541D02*
X67910674Y19052160D01*
X68005912Y19099779D01*
X68244008Y19099779D01*
X68339246Y19052160D01*
X68386865Y19004541D01*
X68434484Y18909303D01*
X68434484Y18814065D01*
X68386865Y18671208D01*
X67815436Y18099779D01*
X68434484Y18099779D01*
X78928055Y19099779D02*
X78928055Y18290255D01*
X78975674Y18195017D01*
X79023293Y18147398D01*
X79118531Y18099779D01*
X79309008Y18099779D01*
X79404246Y18147398D01*
X79451865Y18195017D01*
X79499484Y18290255D01*
X79499484Y19099779D01*
X80499484Y18099779D02*
X79928055Y18099779D01*
X80213769Y18099779D02*
X80213769Y19099779D01*
X80118531Y18956922D01*
X80023293Y18861684D01*
X79928055Y18814065D01*
X77872294Y12638779D02*
X77538960Y13114970D01*
X77300865Y12638779D02*
X77300865Y13638779D01*
X77681818Y13638779D01*
X77777056Y13591160D01*
X77824675Y13543541D01*
X77872294Y13448303D01*
X77872294Y13305446D01*
X77824675Y13210208D01*
X77777056Y13162589D01*
X77681818Y13114970D01*
X77300865Y13114970D01*
X78824675Y12638779D02*
X78253246Y12638779D01*
X78538960Y12638779D02*
X78538960Y13638779D01*
X78443722Y13495922D01*
X78348484Y13400684D01*
X78253246Y13353065D01*
X83206294Y12638779D02*
X82872960Y13114970D01*
X82634865Y12638779D02*
X82634865Y13638779D01*
X83015818Y13638779D01*
X83111056Y13591160D01*
X83158675Y13543541D01*
X83206294Y13448303D01*
X83206294Y13305446D01*
X83158675Y13210208D01*
X83111056Y13162589D01*
X83015818Y13114970D01*
X82634865Y13114970D01*
X83587246Y13543541D02*
X83634865Y13591160D01*
X83730103Y13638779D01*
X83968199Y13638779D01*
X84063437Y13591160D01*
X84111056Y13543541D01*
X84158675Y13448303D01*
X84158675Y13353065D01*
X84111056Y13210208D01*
X83539627Y12638779D01*
X84158675Y12638779D01*
X66569294Y12638779D02*
X66235960Y13114970D01*
X65997865Y12638779D02*
X65997865Y13638779D01*
X66378818Y13638779D01*
X66474056Y13591160D01*
X66521675Y13543541D01*
X66569294Y13448303D01*
X66569294Y13305446D01*
X66521675Y13210208D01*
X66474056Y13162589D01*
X66378818Y13114970D01*
X65997865Y13114970D01*
X66902627Y13638779D02*
X67521675Y13638779D01*
X67188341Y13257827D01*
X67331199Y13257827D01*
X67426437Y13210208D01*
X67474056Y13162589D01*
X67521675Y13067350D01*
X67521675Y12829255D01*
X67474056Y12734017D01*
X67426437Y12686398D01*
X67331199Y12638779D01*
X67045484Y12638779D01*
X66950246Y12686398D01*
X66902627Y12734017D01*
X69109294Y12638779D02*
X68775960Y13114970D01*
X68537865Y12638779D02*
X68537865Y13638779D01*
X68918818Y13638779D01*
X69014056Y13591160D01*
X69061675Y13543541D01*
X69109294Y13448303D01*
X69109294Y13305446D01*
X69061675Y13210208D01*
X69014056Y13162589D01*
X68918818Y13114970D01*
X68537865Y13114970D01*
X69966437Y13305446D02*
X69966437Y12638779D01*
X69728341Y13686398D02*
X69490246Y12972112D01*
X70109294Y12972112D01*
X75078294Y12638779D02*
X74744960Y13114970D01*
X74506865Y12638779D02*
X74506865Y13638779D01*
X74887818Y13638779D01*
X74983056Y13591160D01*
X75030675Y13543541D01*
X75078294Y13448303D01*
X75078294Y13305446D01*
X75030675Y13210208D01*
X74983056Y13162589D01*
X74887818Y13114970D01*
X74506865Y13114970D01*
X75983056Y13638779D02*
X75506865Y13638779D01*
X75459246Y13162589D01*
X75506865Y13210208D01*
X75602103Y13257827D01*
X75840199Y13257827D01*
X75935437Y13210208D01*
X75983056Y13162589D01*
X76030675Y13067350D01*
X76030675Y12829255D01*
X75983056Y12734017D01*
X75935437Y12686398D01*
X75840199Y12638779D01*
X75602103Y12638779D01*
X75506865Y12686398D01*
X75459246Y12734017D01*
X80412294Y12638779D02*
X80078960Y13114970D01*
X79840865Y12638779D02*
X79840865Y13638779D01*
X80221818Y13638779D01*
X80317056Y13591160D01*
X80364675Y13543541D01*
X80412294Y13448303D01*
X80412294Y13305446D01*
X80364675Y13210208D01*
X80317056Y13162589D01*
X80221818Y13114970D01*
X79840865Y13114970D01*
X81269437Y13638779D02*
X81078960Y13638779D01*
X80983722Y13591160D01*
X80936103Y13543541D01*
X80840865Y13400684D01*
X80793246Y13210208D01*
X80793246Y12829255D01*
X80840865Y12734017D01*
X80888484Y12686398D01*
X80983722Y12638779D01*
X81174199Y12638779D01*
X81269437Y12686398D01*
X81317056Y12734017D01*
X81364675Y12829255D01*
X81364675Y13067350D01*
X81317056Y13162589D01*
X81269437Y13210208D01*
X81174199Y13257827D01*
X80983722Y13257827D01*
X80888484Y13210208D01*
X80840865Y13162589D01*
X80793246Y13067350D01*
X63902294Y12638779D02*
X63568960Y13114970D01*
X63330865Y12638779D02*
X63330865Y13638779D01*
X63711818Y13638779D01*
X63807056Y13591160D01*
X63854675Y13543541D01*
X63902294Y13448303D01*
X63902294Y13305446D01*
X63854675Y13210208D01*
X63807056Y13162589D01*
X63711818Y13114970D01*
X63330865Y13114970D01*
X64235627Y13638779D02*
X64902294Y13638779D01*
X64473722Y12638779D01*
X71649294Y12638779D02*
X71315960Y13114970D01*
X71077865Y12638779D02*
X71077865Y13638779D01*
X71458818Y13638779D01*
X71554056Y13591160D01*
X71601675Y13543541D01*
X71649294Y13448303D01*
X71649294Y13305446D01*
X71601675Y13210208D01*
X71554056Y13162589D01*
X71458818Y13114970D01*
X71077865Y13114970D01*
X72220722Y13210208D02*
X72125484Y13257827D01*
X72077865Y13305446D01*
X72030246Y13400684D01*
X72030246Y13448303D01*
X72077865Y13543541D01*
X72125484Y13591160D01*
X72220722Y13638779D01*
X72411199Y13638779D01*
X72506437Y13591160D01*
X72554056Y13543541D01*
X72601675Y13448303D01*
X72601675Y13400684D01*
X72554056Y13305446D01*
X72506437Y13257827D01*
X72411199Y13210208D01*
X72220722Y13210208D01*
X72125484Y13162589D01*
X72077865Y13114970D01*
X72030246Y13019731D01*
X72030246Y12829255D01*
X72077865Y12734017D01*
X72125484Y12686398D01*
X72220722Y12638779D01*
X72411199Y12638779D01*
X72506437Y12686398D01*
X72554056Y12734017D01*
X72601675Y12829255D01*
X72601675Y13019731D01*
X72554056Y13114970D01*
X72506437Y13162589D01*
X72411199Y13210208D01*
X80554094Y24300179D02*
X80220760Y24776370D01*
X79982665Y24300179D02*
X79982665Y25300179D01*
X80363618Y25300179D01*
X80458856Y25252560D01*
X80506475Y25204941D01*
X80554094Y25109703D01*
X80554094Y24966846D01*
X80506475Y24871608D01*
X80458856Y24823989D01*
X80363618Y24776370D01*
X79982665Y24776370D01*
X81030284Y24300179D02*
X81220760Y24300179D01*
X81315999Y24347798D01*
X81363618Y24395417D01*
X81458856Y24538274D01*
X81506475Y24728750D01*
X81506475Y25109703D01*
X81458856Y25204941D01*
X81411237Y25252560D01*
X81315999Y25300179D01*
X81125522Y25300179D01*
X81030284Y25252560D01*
X80982665Y25204941D01*
X80935046Y25109703D01*
X80935046Y24871608D01*
X80982665Y24776370D01*
X81030284Y24728750D01*
X81125522Y24681131D01*
X81315999Y24681131D01*
X81411237Y24728750D01*
X81458856Y24776370D01*
X81506475Y24871608D01*
X69225903Y24300179D02*
X68892569Y24776370D01*
X68654474Y24300179D02*
X68654474Y25300179D01*
X69035427Y25300179D01*
X69130665Y25252560D01*
X69178284Y25204941D01*
X69225903Y25109703D01*
X69225903Y24966846D01*
X69178284Y24871608D01*
X69130665Y24823989D01*
X69035427Y24776370D01*
X68654474Y24776370D01*
X70178284Y24300179D02*
X69606855Y24300179D01*
X69892569Y24300179D02*
X69892569Y25300179D01*
X69797331Y25157322D01*
X69702093Y25062084D01*
X69606855Y25014465D01*
X70797331Y25300179D02*
X70892570Y25300179D01*
X70987808Y25252560D01*
X71035427Y25204941D01*
X71083046Y25109703D01*
X71130665Y24919227D01*
X71130665Y24681131D01*
X71083046Y24490655D01*
X71035427Y24395417D01*
X70987808Y24347798D01*
X70892570Y24300179D01*
X70797331Y24300179D01*
X70702093Y24347798D01*
X70654474Y24395417D01*
X70606855Y24490655D01*
X70559236Y24681131D01*
X70559236Y24919227D01*
X70606855Y25109703D01*
X70654474Y25204941D01*
X70702093Y25252560D01*
X70797331Y25300179D01*
X54663103Y12638779D02*
X54329769Y13114970D01*
X54091674Y12638779D02*
X54091674Y13638779D01*
X54472627Y13638779D01*
X54567865Y13591160D01*
X54615484Y13543541D01*
X54663103Y13448303D01*
X54663103Y13305446D01*
X54615484Y13210208D01*
X54567865Y13162589D01*
X54472627Y13114970D01*
X54091674Y13114970D01*
X55615484Y12638779D02*
X55044055Y12638779D01*
X55329769Y12638779D02*
X55329769Y13638779D01*
X55234531Y13495922D01*
X55139293Y13400684D01*
X55044055Y13353065D01*
X56567865Y12638779D02*
X55996436Y12638779D01*
X56282150Y12638779D02*
X56282150Y13638779D01*
X56186912Y13495922D01*
X56091674Y13400684D01*
X55996436Y13353065D01*
X57330103Y12638779D02*
X56996769Y13114970D01*
X56758674Y12638779D02*
X56758674Y13638779D01*
X57139627Y13638779D01*
X57234865Y13591160D01*
X57282484Y13543541D01*
X57330103Y13448303D01*
X57330103Y13305446D01*
X57282484Y13210208D01*
X57234865Y13162589D01*
X57139627Y13114970D01*
X56758674Y13114970D01*
X58282484Y12638779D02*
X57711055Y12638779D01*
X57996769Y12638779D02*
X57996769Y13638779D01*
X57901531Y13495922D01*
X57806293Y13400684D01*
X57711055Y13353065D01*
X58663436Y13543541D02*
X58711055Y13591160D01*
X58806293Y13638779D01*
X59044389Y13638779D01*
X59139627Y13591160D01*
X59187246Y13543541D01*
X59234865Y13448303D01*
X59234865Y13353065D01*
X59187246Y13210208D01*
X58615817Y12638779D01*
X59234865Y12638779D01*
X43106103Y12638779D02*
X42772769Y13114970D01*
X42534674Y12638779D02*
X42534674Y13638779D01*
X42915627Y13638779D01*
X43010865Y13591160D01*
X43058484Y13543541D01*
X43106103Y13448303D01*
X43106103Y13305446D01*
X43058484Y13210208D01*
X43010865Y13162589D01*
X42915627Y13114970D01*
X42534674Y13114970D01*
X44058484Y12638779D02*
X43487055Y12638779D01*
X43772769Y12638779D02*
X43772769Y13638779D01*
X43677531Y13495922D01*
X43582293Y13400684D01*
X43487055Y13353065D01*
X44391817Y13638779D02*
X45010865Y13638779D01*
X44677531Y13257827D01*
X44820389Y13257827D01*
X44915627Y13210208D01*
X44963246Y13162589D01*
X45010865Y13067350D01*
X45010865Y12829255D01*
X44963246Y12734017D01*
X44915627Y12686398D01*
X44820389Y12638779D01*
X44534674Y12638779D01*
X44439436Y12686398D01*
X44391817Y12734017D01*
X45900103Y12638779D02*
X45566769Y13114970D01*
X45328674Y12638779D02*
X45328674Y13638779D01*
X45709627Y13638779D01*
X45804865Y13591160D01*
X45852484Y13543541D01*
X45900103Y13448303D01*
X45900103Y13305446D01*
X45852484Y13210208D01*
X45804865Y13162589D01*
X45709627Y13114970D01*
X45328674Y13114970D01*
X46852484Y12638779D02*
X46281055Y12638779D01*
X46566769Y12638779D02*
X46566769Y13638779D01*
X46471531Y13495922D01*
X46376293Y13400684D01*
X46281055Y13353065D01*
X47709627Y13305446D02*
X47709627Y12638779D01*
X47471531Y13686398D02*
X47233436Y12972112D01*
X47852484Y12972112D01*
X51869103Y12638779D02*
X51535769Y13114970D01*
X51297674Y12638779D02*
X51297674Y13638779D01*
X51678627Y13638779D01*
X51773865Y13591160D01*
X51821484Y13543541D01*
X51869103Y13448303D01*
X51869103Y13305446D01*
X51821484Y13210208D01*
X51773865Y13162589D01*
X51678627Y13114970D01*
X51297674Y13114970D01*
X52821484Y12638779D02*
X52250055Y12638779D01*
X52535769Y12638779D02*
X52535769Y13638779D01*
X52440531Y13495922D01*
X52345293Y13400684D01*
X52250055Y13353065D01*
X53726246Y13638779D02*
X53250055Y13638779D01*
X53202436Y13162589D01*
X53250055Y13210208D01*
X53345293Y13257827D01*
X53583389Y13257827D01*
X53678627Y13210208D01*
X53726246Y13162589D01*
X53773865Y13067350D01*
X53773865Y12829255D01*
X53726246Y12734017D01*
X53678627Y12686398D01*
X53583389Y12638779D01*
X53345293Y12638779D01*
X53250055Y12686398D01*
X53202436Y12734017D01*
X59997103Y12638779D02*
X59663769Y13114970D01*
X59425674Y12638779D02*
X59425674Y13638779D01*
X59806627Y13638779D01*
X59901865Y13591160D01*
X59949484Y13543541D01*
X59997103Y13448303D01*
X59997103Y13305446D01*
X59949484Y13210208D01*
X59901865Y13162589D01*
X59806627Y13114970D01*
X59425674Y13114970D01*
X60949484Y12638779D02*
X60378055Y12638779D01*
X60663769Y12638779D02*
X60663769Y13638779D01*
X60568531Y13495922D01*
X60473293Y13400684D01*
X60378055Y13353065D01*
X61806627Y13638779D02*
X61616150Y13638779D01*
X61520912Y13591160D01*
X61473293Y13543541D01*
X61378055Y13400684D01*
X61330436Y13210208D01*
X61330436Y12829255D01*
X61378055Y12734017D01*
X61425674Y12686398D01*
X61520912Y12638779D01*
X61711389Y12638779D01*
X61806627Y12686398D01*
X61854246Y12734017D01*
X61901865Y12829255D01*
X61901865Y13067350D01*
X61854246Y13162589D01*
X61806627Y13210208D01*
X61711389Y13257827D01*
X61520912Y13257827D01*
X61425674Y13210208D01*
X61378055Y13162589D01*
X61330436Y13067350D01*
X40312103Y12638779D02*
X39978769Y13114970D01*
X39740674Y12638779D02*
X39740674Y13638779D01*
X40121627Y13638779D01*
X40216865Y13591160D01*
X40264484Y13543541D01*
X40312103Y13448303D01*
X40312103Y13305446D01*
X40264484Y13210208D01*
X40216865Y13162589D01*
X40121627Y13114970D01*
X39740674Y13114970D01*
X41264484Y12638779D02*
X40693055Y12638779D01*
X40978769Y12638779D02*
X40978769Y13638779D01*
X40883531Y13495922D01*
X40788293Y13400684D01*
X40693055Y13353065D01*
X41597817Y13638779D02*
X42264484Y13638779D01*
X41835912Y12638779D01*
X48567103Y12638779D02*
X48233769Y13114970D01*
X47995674Y12638779D02*
X47995674Y13638779D01*
X48376627Y13638779D01*
X48471865Y13591160D01*
X48519484Y13543541D01*
X48567103Y13448303D01*
X48567103Y13305446D01*
X48519484Y13210208D01*
X48471865Y13162589D01*
X48376627Y13114970D01*
X47995674Y13114970D01*
X49519484Y12638779D02*
X48948055Y12638779D01*
X49233769Y12638779D02*
X49233769Y13638779D01*
X49138531Y13495922D01*
X49043293Y13400684D01*
X48948055Y13353065D01*
X50090912Y13210208D02*
X49995674Y13257827D01*
X49948055Y13305446D01*
X49900436Y13400684D01*
X49900436Y13448303D01*
X49948055Y13543541D01*
X49995674Y13591160D01*
X50090912Y13638779D01*
X50281389Y13638779D01*
X50376627Y13591160D01*
X50424246Y13543541D01*
X50471865Y13448303D01*
X50471865Y13400684D01*
X50424246Y13305446D01*
X50376627Y13257827D01*
X50281389Y13210208D01*
X50090912Y13210208D01*
X49995674Y13162589D01*
X49948055Y13114970D01*
X49900436Y13019731D01*
X49900436Y12829255D01*
X49948055Y12734017D01*
X49995674Y12686398D01*
X50090912Y12638779D01*
X50281389Y12638779D01*
X50376627Y12686398D01*
X50424246Y12734017D01*
X50471865Y12829255D01*
X50471865Y13019731D01*
X50424246Y13114970D01*
X50376627Y13162589D01*
X50281389Y13210208D01*
X57865903Y24300179D02*
X57532569Y24776370D01*
X57294474Y24300179D02*
X57294474Y25300179D01*
X57675427Y25300179D01*
X57770665Y25252560D01*
X57818284Y25204941D01*
X57865903Y25109703D01*
X57865903Y24966846D01*
X57818284Y24871608D01*
X57770665Y24823989D01*
X57675427Y24776370D01*
X57294474Y24776370D01*
X58818284Y24300179D02*
X58246855Y24300179D01*
X58532569Y24300179D02*
X58532569Y25300179D01*
X58437331Y25157322D01*
X58342093Y25062084D01*
X58246855Y25014465D01*
X59294474Y24300179D02*
X59484950Y24300179D01*
X59580189Y24347798D01*
X59627808Y24395417D01*
X59723046Y24538274D01*
X59770665Y24728750D01*
X59770665Y25109703D01*
X59723046Y25204941D01*
X59675427Y25252560D01*
X59580189Y25300179D01*
X59389712Y25300179D01*
X59294474Y25252560D01*
X59246855Y25204941D01*
X59199236Y25109703D01*
X59199236Y24871608D01*
X59246855Y24776370D01*
X59294474Y24728750D01*
X59389712Y24681131D01*
X59580189Y24681131D01*
X59675427Y24728750D01*
X59723046Y24776370D01*
X59770665Y24871608D01*
X46027103Y24449779D02*
X45693769Y24925970D01*
X45455674Y24449779D02*
X45455674Y25449779D01*
X45836627Y25449779D01*
X45931865Y25402160D01*
X45979484Y25354541D01*
X46027103Y25259303D01*
X46027103Y25116446D01*
X45979484Y25021208D01*
X45931865Y24973589D01*
X45836627Y24925970D01*
X45455674Y24925970D01*
X46408055Y25354541D02*
X46455674Y25402160D01*
X46550912Y25449779D01*
X46789008Y25449779D01*
X46884246Y25402160D01*
X46931865Y25354541D01*
X46979484Y25259303D01*
X46979484Y25164065D01*
X46931865Y25021208D01*
X46360436Y24449779D01*
X46979484Y24449779D01*
X47598531Y25449779D02*
X47693770Y25449779D01*
X47789008Y25402160D01*
X47836627Y25354541D01*
X47884246Y25259303D01*
X47931865Y25068827D01*
X47931865Y24830731D01*
X47884246Y24640255D01*
X47836627Y24545017D01*
X47789008Y24497398D01*
X47693770Y24449779D01*
X47598531Y24449779D01*
X47503293Y24497398D01*
X47455674Y24545017D01*
X47408055Y24640255D01*
X47360436Y24830731D01*
X47360436Y25068827D01*
X47408055Y25259303D01*
X47455674Y25354541D01*
X47503293Y25402160D01*
X47598531Y25449779D01*
X34241503Y30825179D02*
X33908169Y31301370D01*
X33670074Y30825179D02*
X33670074Y31825179D01*
X34051027Y31825179D01*
X34146265Y31777560D01*
X34193884Y31729941D01*
X34241503Y31634703D01*
X34241503Y31491846D01*
X34193884Y31396608D01*
X34146265Y31348989D01*
X34051027Y31301370D01*
X33670074Y31301370D01*
X34622455Y31729941D02*
X34670074Y31777560D01*
X34765312Y31825179D01*
X35003408Y31825179D01*
X35098646Y31777560D01*
X35146265Y31729941D01*
X35193884Y31634703D01*
X35193884Y31539465D01*
X35146265Y31396608D01*
X34574836Y30825179D01*
X35193884Y30825179D01*
X36146265Y30825179D02*
X35574836Y30825179D01*
X35860550Y30825179D02*
X35860550Y31825179D01*
X35765312Y31682322D01*
X35670074Y31587084D01*
X35574836Y31539465D01*
X31549103Y12638779D02*
X31215769Y13114970D01*
X30977674Y12638779D02*
X30977674Y13638779D01*
X31358627Y13638779D01*
X31453865Y13591160D01*
X31501484Y13543541D01*
X31549103Y13448303D01*
X31549103Y13305446D01*
X31501484Y13210208D01*
X31453865Y13162589D01*
X31358627Y13114970D01*
X30977674Y13114970D01*
X31930055Y13543541D02*
X31977674Y13591160D01*
X32072912Y13638779D01*
X32311008Y13638779D01*
X32406246Y13591160D01*
X32453865Y13543541D01*
X32501484Y13448303D01*
X32501484Y13353065D01*
X32453865Y13210208D01*
X31882436Y12638779D01*
X32501484Y12638779D01*
X32882436Y13543541D02*
X32930055Y13591160D01*
X33025293Y13638779D01*
X33263389Y13638779D01*
X33358627Y13591160D01*
X33406246Y13543541D01*
X33453865Y13448303D01*
X33453865Y13353065D01*
X33406246Y13210208D01*
X32834817Y12638779D01*
X33453865Y12638779D01*
X34216103Y12638779D02*
X33882769Y13114970D01*
X33644674Y12638779D02*
X33644674Y13638779D01*
X34025627Y13638779D01*
X34120865Y13591160D01*
X34168484Y13543541D01*
X34216103Y13448303D01*
X34216103Y13305446D01*
X34168484Y13210208D01*
X34120865Y13162589D01*
X34025627Y13114970D01*
X33644674Y13114970D01*
X34597055Y13543541D02*
X34644674Y13591160D01*
X34739912Y13638779D01*
X34978008Y13638779D01*
X35073246Y13591160D01*
X35120865Y13543541D01*
X35168484Y13448303D01*
X35168484Y13353065D01*
X35120865Y13210208D01*
X34549436Y12638779D01*
X35168484Y12638779D01*
X35501817Y13638779D02*
X36120865Y13638779D01*
X35787531Y13257827D01*
X35930389Y13257827D01*
X36025627Y13210208D01*
X36073246Y13162589D01*
X36120865Y13067350D01*
X36120865Y12829255D01*
X36073246Y12734017D01*
X36025627Y12686398D01*
X35930389Y12638779D01*
X35644674Y12638779D01*
X35549436Y12686398D01*
X35501817Y12734017D01*
X28755103Y12638779D02*
X28421769Y13114970D01*
X28183674Y12638779D02*
X28183674Y13638779D01*
X28564627Y13638779D01*
X28659865Y13591160D01*
X28707484Y13543541D01*
X28755103Y13448303D01*
X28755103Y13305446D01*
X28707484Y13210208D01*
X28659865Y13162589D01*
X28564627Y13114970D01*
X28183674Y13114970D01*
X29136055Y13543541D02*
X29183674Y13591160D01*
X29278912Y13638779D01*
X29517008Y13638779D01*
X29612246Y13591160D01*
X29659865Y13543541D01*
X29707484Y13448303D01*
X29707484Y13353065D01*
X29659865Y13210208D01*
X29088436Y12638779D01*
X29707484Y12638779D01*
X30564627Y13305446D02*
X30564627Y12638779D01*
X30326531Y13686398D02*
X30088436Y12972112D01*
X30707484Y12972112D01*
X36883103Y12638779D02*
X36549769Y13114970D01*
X36311674Y12638779D02*
X36311674Y13638779D01*
X36692627Y13638779D01*
X36787865Y13591160D01*
X36835484Y13543541D01*
X36883103Y13448303D01*
X36883103Y13305446D01*
X36835484Y13210208D01*
X36787865Y13162589D01*
X36692627Y13114970D01*
X36311674Y13114970D01*
X37264055Y13543541D02*
X37311674Y13591160D01*
X37406912Y13638779D01*
X37645008Y13638779D01*
X37740246Y13591160D01*
X37787865Y13543541D01*
X37835484Y13448303D01*
X37835484Y13353065D01*
X37787865Y13210208D01*
X37216436Y12638779D01*
X37835484Y12638779D01*
X38740246Y13638779D02*
X38264055Y13638779D01*
X38216436Y13162589D01*
X38264055Y13210208D01*
X38359293Y13257827D01*
X38597389Y13257827D01*
X38692627Y13210208D01*
X38740246Y13162589D01*
X38787865Y13067350D01*
X38787865Y12829255D01*
X38740246Y12734017D01*
X38692627Y12686398D01*
X38597389Y12638779D01*
X38359293Y12638779D01*
X38264055Y12686398D01*
X38216436Y12734017D01*
X34851103Y24449779D02*
X34517769Y24925970D01*
X34279674Y24449779D02*
X34279674Y25449779D01*
X34660627Y25449779D01*
X34755865Y25402160D01*
X34803484Y25354541D01*
X34851103Y25259303D01*
X34851103Y25116446D01*
X34803484Y25021208D01*
X34755865Y24973589D01*
X34660627Y24925970D01*
X34279674Y24925970D01*
X35232055Y25354541D02*
X35279674Y25402160D01*
X35374912Y25449779D01*
X35613008Y25449779D01*
X35708246Y25402160D01*
X35755865Y25354541D01*
X35803484Y25259303D01*
X35803484Y25164065D01*
X35755865Y25021208D01*
X35184436Y24449779D01*
X35803484Y24449779D01*
X36660627Y25449779D02*
X36470150Y25449779D01*
X36374912Y25402160D01*
X36327293Y25354541D01*
X36232055Y25211684D01*
X36184436Y25021208D01*
X36184436Y24640255D01*
X36232055Y24545017D01*
X36279674Y24497398D01*
X36374912Y24449779D01*
X36565389Y24449779D01*
X36660627Y24497398D01*
X36708246Y24545017D01*
X36755865Y24640255D01*
X36755865Y24878350D01*
X36708246Y24973589D01*
X36660627Y25021208D01*
X36565389Y25068827D01*
X36374912Y25068827D01*
X36279674Y25021208D01*
X36232055Y24973589D01*
X36184436Y24878350D01*
X19865103Y12638779D02*
X19531769Y13114970D01*
X19293674Y12638779D02*
X19293674Y13638779D01*
X19674627Y13638779D01*
X19769865Y13591160D01*
X19817484Y13543541D01*
X19865103Y13448303D01*
X19865103Y13305446D01*
X19817484Y13210208D01*
X19769865Y13162589D01*
X19674627Y13114970D01*
X19293674Y13114970D01*
X20246055Y13543541D02*
X20293674Y13591160D01*
X20388912Y13638779D01*
X20627008Y13638779D01*
X20722246Y13591160D01*
X20769865Y13543541D01*
X20817484Y13448303D01*
X20817484Y13353065D01*
X20769865Y13210208D01*
X20198436Y12638779D01*
X20817484Y12638779D01*
X21150817Y13638779D02*
X21817484Y13638779D01*
X21388912Y12638779D01*
X22532103Y12638779D02*
X22198769Y13114970D01*
X21960674Y12638779D02*
X21960674Y13638779D01*
X22341627Y13638779D01*
X22436865Y13591160D01*
X22484484Y13543541D01*
X22532103Y13448303D01*
X22532103Y13305446D01*
X22484484Y13210208D01*
X22436865Y13162589D01*
X22341627Y13114970D01*
X21960674Y13114970D01*
X22913055Y13543541D02*
X22960674Y13591160D01*
X23055912Y13638779D01*
X23294008Y13638779D01*
X23389246Y13591160D01*
X23436865Y13543541D01*
X23484484Y13448303D01*
X23484484Y13353065D01*
X23436865Y13210208D01*
X22865436Y12638779D01*
X23484484Y12638779D01*
X24055912Y13210208D02*
X23960674Y13257827D01*
X23913055Y13305446D01*
X23865436Y13400684D01*
X23865436Y13448303D01*
X23913055Y13543541D01*
X23960674Y13591160D01*
X24055912Y13638779D01*
X24246389Y13638779D01*
X24341627Y13591160D01*
X24389246Y13543541D01*
X24436865Y13448303D01*
X24436865Y13400684D01*
X24389246Y13305446D01*
X24341627Y13257827D01*
X24246389Y13210208D01*
X24055912Y13210208D01*
X23960674Y13162589D01*
X23913055Y13114970D01*
X23865436Y13019731D01*
X23865436Y12829255D01*
X23913055Y12734017D01*
X23960674Y12686398D01*
X24055912Y12638779D01*
X24246389Y12638779D01*
X24341627Y12686398D01*
X24389246Y12734017D01*
X24436865Y12829255D01*
X24436865Y13019731D01*
X24389246Y13114970D01*
X24341627Y13162589D01*
X24246389Y13210208D01*
X17198103Y12638779D02*
X16864769Y13114970D01*
X16626674Y12638779D02*
X16626674Y13638779D01*
X17007627Y13638779D01*
X17102865Y13591160D01*
X17150484Y13543541D01*
X17198103Y13448303D01*
X17198103Y13305446D01*
X17150484Y13210208D01*
X17102865Y13162589D01*
X17007627Y13114970D01*
X16626674Y13114970D01*
X17579055Y13543541D02*
X17626674Y13591160D01*
X17721912Y13638779D01*
X17960008Y13638779D01*
X18055246Y13591160D01*
X18102865Y13543541D01*
X18150484Y13448303D01*
X18150484Y13353065D01*
X18102865Y13210208D01*
X17531436Y12638779D01*
X18150484Y12638779D01*
X18626674Y12638779D02*
X18817150Y12638779D01*
X18912389Y12686398D01*
X18960008Y12734017D01*
X19055246Y12876874D01*
X19102865Y13067350D01*
X19102865Y13448303D01*
X19055246Y13543541D01*
X19007627Y13591160D01*
X18912389Y13638779D01*
X18721912Y13638779D01*
X18626674Y13591160D01*
X18579055Y13543541D01*
X18531436Y13448303D01*
X18531436Y13210208D01*
X18579055Y13114970D01*
X18626674Y13067350D01*
X18721912Y13019731D01*
X18912389Y13019731D01*
X19007627Y13067350D01*
X19055246Y13114970D01*
X19102865Y13210208D01*
X25199103Y12638779D02*
X24865769Y13114970D01*
X24627674Y12638779D02*
X24627674Y13638779D01*
X25008627Y13638779D01*
X25103865Y13591160D01*
X25151484Y13543541D01*
X25199103Y13448303D01*
X25199103Y13305446D01*
X25151484Y13210208D01*
X25103865Y13162589D01*
X25008627Y13114970D01*
X24627674Y13114970D01*
X25532436Y13638779D02*
X26151484Y13638779D01*
X25818150Y13257827D01*
X25961008Y13257827D01*
X26056246Y13210208D01*
X26103865Y13162589D01*
X26151484Y13067350D01*
X26151484Y12829255D01*
X26103865Y12734017D01*
X26056246Y12686398D01*
X25961008Y12638779D01*
X25675293Y12638779D01*
X25580055Y12686398D01*
X25532436Y12734017D01*
X26770531Y13638779D02*
X26865770Y13638779D01*
X26961008Y13591160D01*
X27008627Y13543541D01*
X27056246Y13448303D01*
X27103865Y13257827D01*
X27103865Y13019731D01*
X27056246Y12829255D01*
X27008627Y12734017D01*
X26961008Y12686398D01*
X26865770Y12638779D01*
X26770531Y12638779D01*
X26675293Y12686398D01*
X26627674Y12734017D01*
X26580055Y12829255D01*
X26532436Y13019731D01*
X26532436Y13257827D01*
X26580055Y13448303D01*
X26627674Y13543541D01*
X26675293Y13591160D01*
X26770531Y13638779D01*
X22913103Y24449779D02*
X22579769Y24925970D01*
X22341674Y24449779D02*
X22341674Y25449779D01*
X22722627Y25449779D01*
X22817865Y25402160D01*
X22865484Y25354541D01*
X22913103Y25259303D01*
X22913103Y25116446D01*
X22865484Y25021208D01*
X22817865Y24973589D01*
X22722627Y24925970D01*
X22341674Y24925970D01*
X23246436Y25449779D02*
X23865484Y25449779D01*
X23532150Y25068827D01*
X23675008Y25068827D01*
X23770246Y25021208D01*
X23817865Y24973589D01*
X23865484Y24878350D01*
X23865484Y24640255D01*
X23817865Y24545017D01*
X23770246Y24497398D01*
X23675008Y24449779D01*
X23389293Y24449779D01*
X23294055Y24497398D01*
X23246436Y24545017D01*
X24817865Y24449779D02*
X24246436Y24449779D01*
X24532150Y24449779D02*
X24532150Y25449779D01*
X24436912Y25306922D01*
X24341674Y25211684D01*
X24246436Y25164065D01*
X66235865Y29521779D02*
X66235865Y30521779D01*
X66616818Y30521779D01*
X66712056Y30474160D01*
X66759675Y30426541D01*
X66807294Y30331303D01*
X66807294Y30188446D01*
X66759675Y30093208D01*
X66712056Y30045589D01*
X66616818Y29997970D01*
X66235865Y29997970D01*
X67188246Y30426541D02*
X67235865Y30474160D01*
X67331103Y30521779D01*
X67569199Y30521779D01*
X67664437Y30474160D01*
X67712056Y30426541D01*
X67759675Y30331303D01*
X67759675Y30236065D01*
X67712056Y30093208D01*
X67140627Y29521779D01*
X67759675Y29521779D01*
X2723141Y11335665D02*
X2723141Y10764236D01*
X2723141Y11049950D02*
X1723141Y11049950D01*
X1865998Y10954712D01*
X1961236Y10859474D01*
X2008855Y10764236D01*
X1818379Y11716617D02*
X1770760Y11764236D01*
X1723141Y11859474D01*
X1723141Y12097570D01*
X1770760Y12192808D01*
X1818379Y12240427D01*
X1913617Y12288046D01*
X2008855Y12288046D01*
X2151712Y12240427D01*
X2723141Y11668998D01*
X2723141Y12288046D01*
X1723141Y12573760D02*
X2723141Y12907093D01*
X1723141Y13240427D01*
X2818379Y13335665D02*
X2818379Y14097570D01*
X2723141Y14335665D02*
X1723141Y14335665D01*
X2723141Y14811855D02*
X1723141Y14811855D01*
X2723141Y15383284D01*
X1723141Y15383284D01*
X2723141Y16383284D02*
X2723141Y15811855D01*
X2723141Y16097569D02*
X1723141Y16097569D01*
X1865998Y16002331D01*
X1961236Y15907093D01*
X2008855Y15811855D01*
X17982903Y4567894D02*
X18030522Y4520275D01*
X18078141Y4377418D01*
X18078141Y4282180D01*
X18030522Y4139322D01*
X17935284Y4044084D01*
X17840046Y3996465D01*
X17649570Y3948846D01*
X17506712Y3948846D01*
X17316236Y3996465D01*
X17220998Y4044084D01*
X17125760Y4139322D01*
X17078141Y4282180D01*
X17078141Y4377418D01*
X17125760Y4520275D01*
X17173379Y4567894D01*
X18078141Y5520275D02*
X18078141Y4948846D01*
X18078141Y5234560D02*
X17078141Y5234560D01*
X17220998Y5139322D01*
X17316236Y5044084D01*
X17363855Y4948846D01*
X16147189Y73608D02*
X16147189Y835513D01*
X16528141Y454561D02*
X15766236Y454561D01*
X8063503Y1265894D02*
X8111122Y1218275D01*
X8158741Y1075418D01*
X8158741Y980180D01*
X8111122Y837322D01*
X8015884Y742084D01*
X7920646Y694465D01*
X7730170Y646846D01*
X7587312Y646846D01*
X7396836Y694465D01*
X7301598Y742084D01*
X7206360Y837322D01*
X7158741Y980180D01*
X7158741Y1075418D01*
X7206360Y1218275D01*
X7253979Y1265894D01*
X7158741Y1599227D02*
X7158741Y2218275D01*
X7539693Y1884941D01*
X7539693Y2027799D01*
X7587312Y2123037D01*
X7634931Y2170656D01*
X7730170Y2218275D01*
X7968265Y2218275D01*
X8063503Y2170656D01*
X8111122Y2123037D01*
X8158741Y2027799D01*
X8158741Y1742084D01*
X8111122Y1646846D01*
X8063503Y1599227D01*
X21966894Y27567617D02*
X21919275Y27519998D01*
X21776418Y27472379D01*
X21681180Y27472379D01*
X21538322Y27519998D01*
X21443084Y27615236D01*
X21395465Y27710474D01*
X21347846Y27900950D01*
X21347846Y28043808D01*
X21395465Y28234284D01*
X21443084Y28329522D01*
X21538322Y28424760D01*
X21681180Y28472379D01*
X21776418Y28472379D01*
X21919275Y28424760D01*
X21966894Y28377141D01*
X22824037Y28139046D02*
X22824037Y27472379D01*
X22585941Y28519998D02*
X22347846Y27805712D01*
X22966894Y27805712D01*
X12518141Y21600255D02*
X13327665Y21600255D01*
X13422903Y21647874D01*
X13470522Y21695493D01*
X13518141Y21790731D01*
X13518141Y21981208D01*
X13470522Y22076446D01*
X13422903Y22124065D01*
X13327665Y22171684D01*
X12518141Y22171684D01*
X12518141Y22552636D02*
X12518141Y23219303D01*
X13518141Y22790731D01*
M02*
