G04 #@! TF.FileFunction,Copper,L1,Top,Signal*
%FSLAX46Y46*%
G04 Gerber Fmt 4.6, Leading zero omitted, Abs format (unit mm)*
G04 Created by KiCad (PCBNEW 4.0.6+dfsg1-1) date Mon Feb 26 20:00:46 2018*
%MOMM*%
%LPD*%
G01*
G04 APERTURE LIST*
%ADD10C,0.100000*%
%ADD11R,3.500000X1.600000*%
%ADD12R,2.000000X2.000000*%
%ADD13C,2.000000*%
%ADD14R,1.800000X2.500000*%
%ADD15R,1.500000X1.500000*%
%ADD16O,1.600000X1.600000*%
%ADD17R,1.727200X2.032000*%
%ADD18O,1.727200X2.032000*%
%ADD19R,1.300000X0.700000*%
%ADD20R,0.700000X1.300000*%
%ADD21R,2.032000X2.032000*%
%ADD22O,2.032000X2.032000*%
%ADD23R,2.500000X2.500000*%
%ADD24C,2.500000*%
%ADD25R,1.600000X3.500000*%
%ADD26R,1.250000X1.000000*%
%ADD27C,6.400000*%
%ADD28C,0.600000*%
%ADD29R,3.500000X2.000000*%
%ADD30R,7.000000X7.000000*%
%ADD31C,2.000000*%
%ADD32C,1.000000*%
%ADD33C,0.500000*%
G04 APERTURE END LIST*
D10*
D11*
X18635960Y29347160D03*
X13235960Y29347160D03*
D12*
X36001960Y5217160D03*
D13*
X33461960Y5217160D03*
X30961960Y5217160D03*
D12*
X58988960Y5217160D03*
D13*
X56448960Y5217160D03*
X53948960Y5217160D03*
D14*
X4607560Y2505960D03*
X4607560Y6505960D03*
D15*
X29092160Y31252160D03*
X25792160Y31252160D03*
D16*
X29651960Y14818360D03*
X32191960Y14818360D03*
X34731960Y14818360D03*
X37271960Y14818360D03*
X37271960Y22438360D03*
X34731960Y22438360D03*
X32191960Y22438360D03*
X29651960Y22438360D03*
X18044160Y14818360D03*
X20584160Y14818360D03*
X23124160Y14818360D03*
X25664160Y14818360D03*
X25664160Y22438360D03*
X23124160Y22438360D03*
X20584160Y22438360D03*
X18044160Y22438360D03*
D12*
X24317960Y5217160D03*
D13*
X21777960Y5217160D03*
X19277960Y5217160D03*
D17*
X63129160Y29956760D03*
D18*
X60589160Y29956760D03*
X58049160Y29956760D03*
X55509160Y29956760D03*
X52969160Y29956760D03*
X50429160Y29956760D03*
X47889160Y29956760D03*
X45349160Y29956760D03*
D12*
X81975960Y5217160D03*
D13*
X79435960Y5217160D03*
X76935960Y5217160D03*
D12*
X70545960Y5217160D03*
D13*
X68005960Y5217160D03*
X65505960Y5217160D03*
D12*
X47558960Y5217160D03*
D13*
X45018960Y5217160D03*
X42518960Y5217160D03*
D16*
X41151160Y14801760D03*
X43691160Y14801760D03*
X46231160Y14801760D03*
X48771160Y14801760D03*
X48771160Y22421760D03*
X46231160Y22421760D03*
X43691160Y22421760D03*
X41151160Y22421760D03*
X52651160Y14801760D03*
X55191160Y14801760D03*
X57731160Y14801760D03*
X60271160Y14801760D03*
X60271160Y22421760D03*
X57731160Y22421760D03*
X55191160Y22421760D03*
X52651160Y22421760D03*
X64151160Y14801760D03*
X66691160Y14801760D03*
X69231160Y14801760D03*
X71771160Y14801760D03*
X71771160Y22421760D03*
X69231160Y22421760D03*
X66691160Y22421760D03*
X64151160Y22421760D03*
X75651160Y14801760D03*
X78191160Y14801760D03*
X80731160Y14801760D03*
X83271160Y14801760D03*
X83271160Y22421760D03*
X80731160Y22421760D03*
X78191160Y22421760D03*
X75651160Y22421760D03*
D19*
X78038960Y11882160D03*
X78038960Y9982160D03*
X80705960Y11882160D03*
X80705960Y9982160D03*
X66735960Y11882160D03*
X66735960Y9982160D03*
X69275960Y11882160D03*
X69275960Y9982160D03*
X75371960Y11882160D03*
X75371960Y9982160D03*
X83372960Y9982160D03*
X83372960Y11882160D03*
X64068960Y11882160D03*
X64068960Y9982160D03*
X71815960Y9982160D03*
X71815960Y11882160D03*
D20*
X79115960Y24902160D03*
X77215960Y24902160D03*
X67431960Y24902160D03*
X65531960Y24902160D03*
D19*
X55305960Y11882160D03*
X55305960Y9982160D03*
X57845960Y11882160D03*
X57845960Y9982160D03*
X43875960Y11882160D03*
X43875960Y9982160D03*
X46415960Y11882160D03*
X46415960Y9982160D03*
X52511960Y11882160D03*
X52511960Y9982160D03*
X60512960Y9982160D03*
X60512960Y11882160D03*
X41208960Y11882160D03*
X41208960Y9982160D03*
X48955960Y9982160D03*
X48955960Y11882160D03*
D20*
X56255960Y24902160D03*
X54355960Y24902160D03*
X44701160Y24901760D03*
X42801160Y24901760D03*
X32913360Y31277560D03*
X31013360Y31277560D03*
D19*
X32191960Y11882160D03*
X32191960Y9982160D03*
X34731960Y11882160D03*
X34731960Y9982160D03*
X29651960Y11882160D03*
X29651960Y9982160D03*
X37398960Y9982160D03*
X37398960Y11882160D03*
D20*
X33141960Y24902160D03*
X31241960Y24902160D03*
D19*
X20634960Y11882160D03*
X20634960Y9982160D03*
X23174960Y11882160D03*
X23174960Y9982160D03*
X17967960Y11882160D03*
X17967960Y9982160D03*
X25714960Y9982160D03*
X25714960Y11882160D03*
D20*
X21457960Y24902160D03*
X19557960Y24902160D03*
D21*
X69973960Y29974160D03*
D22*
X72513960Y29974160D03*
D23*
X5826760Y10779760D03*
D24*
X5826760Y15779760D03*
D25*
X13065760Y2034560D03*
X13065760Y7434560D03*
D26*
X7706360Y3124960D03*
X7706360Y5124960D03*
X22108160Y29490160D03*
X22108160Y31490160D03*
D27*
X3566160Y29677360D03*
D28*
X5966160Y29677360D03*
X5263216Y27980304D03*
X3566160Y27277360D03*
X1869104Y27980304D03*
X1166160Y29677360D03*
X1869104Y31374416D03*
X3566160Y32077360D03*
X5263216Y31374416D03*
D27*
X82560160Y29651960D03*
D28*
X84960160Y29651960D03*
X84257216Y27954904D03*
X82560160Y27251960D03*
X80863104Y27954904D03*
X80160160Y29651960D03*
X80863104Y31349016D03*
X82560160Y32051960D03*
X84257216Y31349016D03*
D29*
X11711160Y19995960D03*
X11711160Y24575960D03*
D30*
X4311160Y22295960D03*
D28*
X12735560Y19974560D03*
X10601960Y20025360D03*
X11617960Y19999960D03*
D31*
X13235960Y29347160D02*
X13235960Y29618960D01*
X13235960Y29618960D02*
X15504160Y31887160D01*
X15504160Y31887160D02*
X25157160Y31887160D01*
X25157160Y31887160D02*
X25792160Y31252160D01*
X4311160Y22295960D02*
X4311160Y23284960D01*
X4311160Y23284960D02*
X10373360Y29347160D01*
X10373360Y29347160D02*
X13235960Y29347160D01*
X5826760Y15779760D02*
X5826760Y15910560D01*
X5826760Y15910560D02*
X4311160Y17426160D01*
X4311160Y17426160D02*
X4311160Y22295960D01*
D32*
X7706360Y5124960D02*
X7868160Y5124960D01*
X7868160Y5124960D02*
X10177760Y7434560D01*
X10177760Y7434560D02*
X13065760Y7434560D01*
D31*
X5826760Y15779760D02*
X9259560Y15779760D01*
X13065760Y11973560D02*
X13065760Y7434560D01*
X9259560Y15779760D02*
X13065760Y11973560D01*
D33*
X83372960Y9982160D02*
X83372960Y6678560D01*
X83372960Y6678560D02*
X81901160Y5206760D01*
X71815960Y9982160D02*
X71815960Y6371560D01*
X71815960Y6371560D02*
X70651160Y5206760D01*
X60512960Y9982160D02*
X60512960Y6568560D01*
X60512960Y6568560D02*
X59151160Y5206760D01*
X48955960Y9982160D02*
X48955960Y6511560D01*
X48955960Y6511560D02*
X47651160Y5206760D01*
X37398960Y9982160D02*
X37398960Y6614160D01*
X37398960Y6614160D02*
X36001960Y5217160D01*
X25714960Y9982160D02*
X25714960Y6614160D01*
X25714960Y6614160D02*
X24317960Y5217160D01*
D31*
X12735560Y19974560D02*
X12714160Y19995960D01*
X12714160Y19995960D02*
X11711160Y19995960D01*
X10601960Y20025360D02*
X10631360Y19995960D01*
X10631360Y19995960D02*
X11711160Y19995960D01*
X11617960Y19999960D02*
X11621960Y19995960D01*
X11621960Y19995960D02*
X11711160Y19995960D01*
X19277960Y5217160D02*
X19161760Y5217160D01*
X19161760Y5217160D02*
X15979160Y2034560D01*
X15979160Y2034560D02*
X13065760Y2034560D01*
D32*
X7706360Y3124960D02*
X7706360Y2854960D01*
X7706360Y2854960D02*
X8055360Y2505960D01*
D31*
X4607560Y2505960D02*
X8055360Y2505960D01*
X8055360Y2505960D02*
X12594360Y2505960D01*
X12594360Y2505960D02*
X13065760Y2034560D01*
D32*
X19277960Y5217160D02*
X18475960Y6019160D01*
X18475960Y6019160D02*
X17967960Y6527160D01*
X19277960Y5217160D02*
X19277960Y4270160D01*
X19277960Y4270160D02*
X21124960Y2423160D01*
X21124960Y2423160D02*
X29397960Y2423160D01*
X17967960Y6527160D02*
X17967960Y9280160D01*
X17373960Y9874160D02*
X17967960Y9280160D01*
X65505960Y5217160D02*
X65505960Y5130160D01*
X65505960Y5130160D02*
X62798960Y2423160D01*
X53948960Y5217160D02*
X53948960Y4749160D01*
X53948960Y4749160D02*
X51622960Y2423160D01*
X42518960Y5217160D02*
X42518960Y4876160D01*
X42518960Y4876160D02*
X40065960Y2423160D01*
X30961960Y5217160D02*
X30961960Y3987160D01*
X30961960Y3987160D02*
X29397960Y2423160D01*
X74077560Y2423160D02*
X76861160Y5206760D01*
X29397960Y2423160D02*
X40065960Y2423160D01*
X40065960Y2423160D02*
X51622960Y2423160D01*
X51622960Y2423160D02*
X62798960Y2423160D01*
X62798960Y2423160D02*
X74077560Y2423160D01*
D33*
X75371960Y9982160D02*
X75371960Y6695960D01*
X75371960Y6695960D02*
X76861160Y5206760D01*
X64068960Y9982160D02*
X64068960Y6748960D01*
X64068960Y6748960D02*
X65611160Y5206760D01*
X52511960Y9982160D02*
X52511960Y6805960D01*
X52511960Y6805960D02*
X54111160Y5206760D01*
X41208960Y9982160D02*
X41208960Y6608960D01*
X41208960Y6608960D02*
X42611160Y5206760D01*
X29651960Y9982160D02*
X29651960Y6527160D01*
X29651960Y6527160D02*
X30961960Y5217160D01*
X17967960Y9982160D02*
X17967960Y9280160D01*
X17967960Y9280160D02*
X17967960Y6527160D01*
X42371160Y5406760D02*
X42571160Y5206760D01*
X79361160Y5206760D02*
X79361160Y9982160D01*
X79308960Y9916160D02*
X79308960Y9982160D01*
X79308960Y9929960D02*
X79308960Y9916160D01*
X79361160Y9982160D02*
X79308960Y9929960D01*
X78038960Y9982160D02*
X79308960Y9982160D01*
X79308960Y9982160D02*
X80705960Y9982160D01*
X68111160Y5206760D02*
X68111160Y9982160D01*
X68005960Y9789160D02*
X68005960Y9982160D01*
X68005960Y9876960D02*
X68005960Y9789160D01*
X68111160Y9982160D02*
X68005960Y9876960D01*
X66735960Y9982160D02*
X68005960Y9982160D01*
X68005960Y9982160D02*
X69275960Y9982160D01*
X56611160Y5206760D02*
X56611160Y9982160D01*
X56702960Y9916160D02*
X56702960Y9982160D01*
X56677160Y9916160D02*
X56702960Y9916160D01*
X56611160Y9982160D02*
X56677160Y9916160D01*
X55305960Y9982160D02*
X56702960Y9982160D01*
X56702960Y9982160D02*
X57845960Y9982160D01*
X45111160Y5206760D02*
X45111160Y9982160D01*
X45145960Y9916160D02*
X45145960Y9982160D01*
X45145960Y9947360D02*
X45145960Y9916160D01*
X45111160Y9982160D02*
X45145960Y9947360D01*
X43875960Y9982160D02*
X45145960Y9982160D01*
X45145960Y9982160D02*
X46415960Y9982160D01*
X60589160Y29956760D02*
X60589160Y28127960D01*
X79115960Y27122160D02*
X79115960Y24902160D01*
X79181960Y27188160D02*
X79115960Y27122160D01*
X61528960Y27188160D02*
X79181960Y27188160D01*
X60589160Y28127960D02*
X61528960Y27188160D01*
X80731160Y22421760D02*
X80731160Y24114960D01*
X79943960Y24902160D02*
X79115960Y24902160D01*
X80731160Y24114960D02*
X79943960Y24902160D01*
X58049160Y29956760D02*
X58049160Y29016960D01*
X58049160Y29016960D02*
X60766960Y26299160D01*
X60766960Y26299160D02*
X67497960Y26299160D01*
X67497960Y26299160D02*
X67431960Y26233160D01*
X67431960Y26233160D02*
X67431960Y24902160D01*
X69231160Y22421760D02*
X69231160Y23841360D01*
X68170360Y24902160D02*
X67431960Y24902160D01*
X69231160Y23841360D02*
X68170360Y24902160D01*
X56255960Y24902160D02*
X56255960Y25984160D01*
X55509160Y26730960D02*
X55509160Y29956760D01*
X56255960Y25984160D02*
X55509160Y26730960D01*
X57731160Y22421760D02*
X57731160Y24000960D01*
X56829960Y24902160D02*
X56255960Y24902160D01*
X57731160Y24000960D02*
X56829960Y24902160D01*
X52969160Y29956760D02*
X52969160Y29931360D01*
X52969160Y29931360D02*
X49336960Y26299160D01*
X49336960Y26299160D02*
X46098560Y26299160D01*
X46098560Y26299160D02*
X44701160Y24901760D01*
X46231160Y22421760D02*
X46231160Y24070960D01*
X45400360Y24901760D02*
X44701160Y24901760D01*
X46231160Y24070960D02*
X45400360Y24901760D01*
X75371960Y11882160D02*
X78038960Y11882160D01*
X78191160Y14801760D02*
X78191160Y12034360D01*
X78191160Y12034360D02*
X78038960Y11882160D01*
X80705960Y11882160D02*
X83372960Y11882160D01*
X80731160Y14801760D02*
X80731160Y11907360D01*
X80731160Y11907360D02*
X80705960Y11882160D01*
X66735960Y11882160D02*
X64068960Y11882160D01*
X66691160Y14801760D02*
X66691160Y11926960D01*
X66691160Y11926960D02*
X66735960Y11882160D01*
X69275960Y11882160D02*
X71815960Y11882160D01*
X69231160Y14801760D02*
X69231160Y11926960D01*
X69231160Y11926960D02*
X69275960Y11882160D01*
X55305960Y11882160D02*
X52511960Y11882160D01*
X55191160Y14801760D02*
X55191160Y11996960D01*
X55191160Y11996960D02*
X55305960Y11882160D01*
X57845960Y11882160D02*
X60512960Y11882160D01*
X57731160Y14801760D02*
X57731160Y11996960D01*
X57731160Y11996960D02*
X57845960Y11882160D01*
X43875960Y11882160D02*
X41208960Y11882160D01*
X43691160Y14801760D02*
X43691160Y12066960D01*
X43691160Y12066960D02*
X43875960Y11882160D01*
X46415960Y11882160D02*
X48955960Y11882160D01*
X46231160Y14801760D02*
X46231160Y12066960D01*
X46231160Y12066960D02*
X46415960Y11882160D01*
X32191960Y11882160D02*
X29651960Y11882160D01*
X32191960Y14818360D02*
X32191960Y11882160D01*
X33461960Y5217160D02*
X33461960Y9982160D01*
X33461960Y9982160D02*
X33461960Y9916160D01*
X33461960Y9916160D02*
X33461960Y9982160D01*
X32191960Y9982160D02*
X33461960Y9982160D01*
X33461960Y9982160D02*
X34731960Y9982160D01*
X34731960Y11882160D02*
X37398960Y11882160D01*
X34731960Y14818360D02*
X34731960Y11882160D01*
X50429160Y29956760D02*
X50429160Y29931360D01*
X50429160Y29931360D02*
X47812960Y27315160D01*
X47812960Y27315160D02*
X35554960Y27315160D01*
X35554960Y27315160D02*
X33141960Y24902160D01*
X34731960Y22438360D02*
X34731960Y24140160D01*
X33969960Y24902160D02*
X33141960Y24902160D01*
X34731960Y24140160D02*
X33969960Y24902160D01*
X20584160Y14818360D02*
X20584160Y11932960D01*
X20584160Y11932960D02*
X20634960Y11882160D01*
X17967960Y11882160D02*
X20634960Y11882160D01*
X21777960Y5217160D02*
X21777960Y9982160D01*
X21777960Y9982160D02*
X21777960Y9789160D01*
X21777960Y9789160D02*
X21777960Y9982160D01*
X20634960Y9982160D02*
X21777960Y9982160D01*
X21777960Y9982160D02*
X23174960Y9982160D01*
X23174960Y11882160D02*
X25714960Y11882160D01*
X23124160Y14818360D02*
X23124160Y11932960D01*
X23124160Y11932960D02*
X23174960Y11882160D01*
X47889160Y29956760D02*
X47889160Y29677360D01*
X47889160Y29677360D02*
X46415960Y28204160D01*
X46415960Y28204160D02*
X27746960Y28204160D01*
X27746960Y28204160D02*
X24444960Y24902160D01*
X24444960Y24902160D02*
X21457960Y24902160D01*
X23124160Y22438360D02*
X23124160Y24317960D01*
X22539960Y24902160D02*
X21457960Y24902160D01*
X23124160Y24317960D02*
X22539960Y24902160D01*
D32*
X29092160Y31252160D02*
X30987960Y31252160D01*
X30987960Y31252160D02*
X31013360Y31277560D01*
D31*
X4607560Y6505960D02*
X4607560Y9560560D01*
X4607560Y9560560D02*
X5826760Y10779760D01*
D32*
X63129160Y29956760D02*
X69956560Y29956760D01*
X69956560Y29956760D02*
X69973960Y29974160D01*
X22108160Y29490160D02*
X32817560Y29490160D01*
X32913360Y29585960D02*
X32913360Y31277560D01*
X32817560Y29490160D02*
X32913360Y29585960D01*
X19557960Y24902160D02*
X19557960Y25984160D01*
X22108160Y27467560D02*
X22108160Y29490160D01*
X21904960Y27264360D02*
X22108160Y27467560D01*
X20838160Y27264360D02*
X21904960Y27264360D01*
X19557960Y25984160D02*
X20838160Y27264360D01*
X18635960Y29347160D02*
X21965160Y29347160D01*
X21965160Y29347160D02*
X22108160Y29490160D01*
D31*
X11711160Y24575960D02*
X14314360Y24575960D01*
X14314360Y24575960D02*
X18635960Y28897560D01*
X18635960Y28897560D02*
X18635960Y29347160D01*
D32*
X18044160Y22438360D02*
X18044160Y22744360D01*
X18044160Y22744360D02*
X19557960Y24258160D01*
X19557960Y24258160D02*
X19557960Y24902160D01*
X18044160Y22438360D02*
X18044160Y19744360D01*
X18044160Y19744360D02*
X17409960Y19110160D01*
X17409960Y19110160D02*
X17273960Y18974160D01*
X17273960Y18974160D02*
X17441960Y18806160D01*
X17441960Y18806160D02*
X26400760Y18806160D01*
X60535560Y18806160D02*
X72035560Y18806160D01*
X72035560Y18806160D02*
X75651160Y22421760D01*
X49035560Y18806160D02*
X60535560Y18806160D01*
X60535560Y18806160D02*
X64151160Y22421760D01*
X37525960Y18806160D02*
X49035560Y18806160D01*
X49035560Y18806160D02*
X52651160Y22421760D01*
X26019760Y18806160D02*
X26400760Y18806160D01*
X26400760Y18806160D02*
X37525960Y18806160D01*
X37525960Y18806160D02*
X37535560Y18806160D01*
X37535560Y18806160D02*
X41151160Y22421760D01*
X26019760Y18806160D02*
X29651960Y22438360D01*
D33*
X72035560Y18806160D02*
X75651160Y22421760D01*
X60535560Y18806160D02*
X64151160Y22421760D01*
X37535560Y18806160D02*
X49035560Y18806160D01*
X49035560Y18806160D02*
X52651160Y22421760D01*
X37535560Y18806160D02*
X41151160Y22421760D01*
X26019760Y18806160D02*
X29651960Y22438360D01*
X75651160Y22421760D02*
X75651160Y24114960D01*
X75651160Y24114960D02*
X76438360Y24902160D01*
X76438360Y24902160D02*
X77215960Y24902160D01*
X64151160Y22421760D02*
X64151160Y24095360D01*
X64151160Y24095360D02*
X64957960Y24902160D01*
X64957960Y24902160D02*
X65531960Y24902160D01*
X52651160Y22421760D02*
X52651160Y24025360D01*
X52651160Y24025360D02*
X53527960Y24902160D01*
X53527960Y24902160D02*
X54355960Y24902160D01*
X41151160Y22421760D02*
X41151160Y24209360D01*
X41151160Y24209360D02*
X41843560Y24901760D01*
X41843560Y24901760D02*
X42801160Y24901760D01*
X29651960Y22438360D02*
X29651960Y24394160D01*
X29651960Y24394160D02*
X30159960Y24902160D01*
X30159960Y24902160D02*
X31241960Y24902160D01*
M02*
