M48
;DRILL file {KiCad 4.0.6+dfsg1-1} date Wed Nov 29 19:26:57 2017
;FORMAT={-:-/ absolute / metric / decimal}
FMAT,2
METRIC,TZ
T1C0.400
T2C0.800
T3C1.016
T4C1.200
T5C3.100
%
G90
G05
M71
T1
X154.723Y-120.428
T2
X159.893Y-100.863
X159.893Y-108.483
X162.433Y-100.863
X162.433Y-108.483
X164.973Y-100.863
X164.973Y-108.483
X167.513Y-100.863
X167.513Y-108.483
X171.501Y-100.863
X171.501Y-108.483
X174.041Y-100.863
X174.041Y-108.483
X176.581Y-100.863
X176.581Y-108.483
X179.121Y-100.863
X179.121Y-108.483
X183.Y-100.88
X183.Y-108.5
X185.54Y-100.88
X185.54Y-108.5
X188.08Y-100.88
X188.08Y-108.5
X190.62Y-100.88
X190.62Y-108.5
X194.5Y-100.88
X194.5Y-108.5
X197.04Y-100.88
X197.04Y-108.5
X199.58Y-100.88
X199.58Y-108.5
X202.12Y-100.88
X202.12Y-108.5
X206.Y-100.88
X206.Y-108.5
X208.54Y-100.88
X208.54Y-108.5
X211.08Y-100.88
X211.08Y-108.5
X213.62Y-100.88
X213.62Y-108.5
X217.5Y-100.88
X217.5Y-108.5
X220.04Y-100.88
X220.04Y-108.5
X222.58Y-100.88
X222.58Y-108.5
X225.12Y-100.88
X225.12Y-108.5
T3
X187.198Y-93.345
X189.738Y-93.345
X192.278Y-93.345
X194.818Y-93.345
X197.358Y-93.345
X199.898Y-93.345
X202.438Y-93.345
X204.978Y-93.345
X211.823Y-93.328
X214.363Y-93.328
T4
X146.023Y-111.628
X146.023Y-115.128
X161.127Y-118.085
X163.627Y-118.085
X166.167Y-118.085
X172.811Y-118.085
X175.311Y-118.085
X177.851Y-118.085
X184.368Y-118.085
X186.868Y-118.085
X189.408Y-118.085
X195.798Y-118.085
X198.298Y-118.085
X200.838Y-118.085
X207.355Y-118.085
X209.855Y-118.085
X212.395Y-118.085
X218.785Y-118.085
X221.285Y-118.085
X223.825Y-118.085
T5
X154.323Y-108.828
X157.623Y-96.728
X224.523Y-93.528
T0
M30
